<?xml version="1.0" encoding="utf-8"?>
<!-- Generator: Adobe Illustrator 21.0.0, SVG Export Plug-In . SVG Version: 6.00 Build 0)  -->
<svg version="1.1" id="Layer_1" xmlns="http://www.w3.org/2000/svg" xmlns:xlink="http://www.w3.org/1999/xlink" x="0px" y="0px"
	 viewBox="0 0 362.8 230.9" style="enable-background:new 0 0 362.8 230.9;" xml:space="preserve">
<style type="text/css">
	.st0{fill:#E8EAEE;}
	.st1{fill:#FFFFFF;}
	.st2{fill:#E2F2E3;}
	.st3{fill:#FFFFFF;stroke:#E8EAEE;stroke-width:3;stroke-linecap:round;stroke-linejoin:round;stroke-miterlimit:10;}
	.st4{fill:#FFFFFF;stroke:#E2F2E3;stroke-width:3;stroke-linecap:round;stroke-linejoin:round;stroke-miterlimit:10;}
	.st5{fill:#FFEFD7;}
	.st6{fill:#FFFFFF;stroke:#E4DEF1;stroke-width:3;stroke-linecap:round;stroke-linejoin:round;stroke-miterlimit:10;}
	.st7{fill:#E4DEF1;}
	.st8{fill:#F2EFF8;}
	.st9{fill:#FDE1DF;}
	.st10{fill:#FFFFFF;stroke:#D6E8FF;stroke-width:3;stroke-linecap:round;stroke-linejoin:round;stroke-miterlimit:10;}
	.st11{fill:#99C6FF;}
</style>
<g>
	<g>
		<g id="XMLID_31_">
			<path class="st0" d="M338.2,100.5c0.2,1,0.3,2,0.4,3c0.1,1,0.2,2,0.3,3c0.1,1,0.3,2,0.2,3c-0.1,1-0.3,2-0.9,3
				c0,0.1-0.1,0.1-0.2,0c0,0,0,0,0,0c-0.6-1-0.8-2-0.9-3c-0.1-1,0.1-2,0.2-3c0.1-1,0.2-2,0.3-3c0.1-1,0.2-2,0.4-3
				C338,100.4,338.1,100.4,338.2,100.5C338.2,100.4,338.2,100.5,338.2,100.5z"/>
		</g>
		<g id="XMLID_29_">
			<path class="st0" d="M344.1,106.6c-1,0.2-2,0.3-3,0.4c-1,0.1-2,0.2-3,0.3c-1,0.1-2,0.3-3,0.2c-1-0.1-2-0.3-3-0.9
				c-0.1,0-0.1-0.1,0-0.2c0,0,0,0,0,0c1-0.6,2-0.8,3-0.9c1-0.1,2,0.1,3,0.2c1,0.1,2,0.2,3,0.3c1,0.1,2,0.2,3,0.4
				C344.2,106.4,344.2,106.5,344.1,106.6C344.2,106.6,344.2,106.6,344.1,106.6z"/>
		</g>
		<g id="XMLID_377_">
			<path class="st0" d="M32.5,104.9c0.2,0.9,0.3,1.9,0.4,2.8c0.1,0.9,0.2,1.9,0.3,2.8c0.1,0.9,0.3,1.9,0.2,2.8
				c-0.1,0.9-0.3,1.9-0.9,2.8c0,0.1-0.1,0.1-0.2,0c0,0,0,0,0,0c-0.6-0.9-0.8-1.9-0.9-2.8c-0.1-0.9,0.1-1.9,0.2-2.8
				c0.1-0.9,0.2-1.9,0.3-2.8c0.1-0.9,0.2-1.9,0.4-2.8C32.3,104.9,32.4,104.8,32.5,104.9C32.5,104.8,32.5,104.9,32.5,104.9z"/>
		</g>
		<g id="XMLID_379_">
			<path class="st0" d="M38,110.6c-0.9,0.2-1.9,0.3-2.8,0.4c-0.9,0.1-1.9,0.2-2.8,0.3c-0.9,0.1-1.9,0.3-2.8,0.2
				c-0.9-0.1-1.9-0.3-2.8-0.9c-0.1,0-0.1-0.1,0-0.2c0,0,0,0,0,0c0.9-0.6,1.9-0.8,2.8-0.9c0.9-0.1,1.9,0.1,2.8,0.2
				c0.9,0.1,1.9,0.2,2.8,0.3c0.9,0.1,1.9,0.2,2.8,0.4C38,110.4,38.1,110.5,38,110.6C38.1,110.6,38,110.6,38,110.6z"/>
		</g>
		<g id="XMLID_432_">
			<path class="st0" d="M7.5,106c-0.6,0.2-1.2,0.3-1.9,0.4c-0.6,0.1-1.2,0.2-1.9,0.3c-0.6,0.1-1.2,0.3-1.9,0.2
				c-0.6-0.1-1.2-0.3-1.9-0.9c-0.1,0-0.1-0.1,0-0.2c0,0,0,0,0,0c0.6-0.6,1.2-0.8,1.9-0.9c0.6-0.1,1.2,0.1,1.9,0.2
				c0.6,0.1,1.2,0.2,1.9,0.3c0.6,0.1,1.2,0.2,1.9,0.4C7.5,105.8,7.6,105.9,7.5,106C7.5,106,7.5,106,7.5,106z"/>
		</g>
		<g id="XMLID_434_">
			<g>
				<path class="st0" d="M25.9,80c0,0.9-0.4,1.8-1,2.6c-0.6,0.8-1.5,1.3-2.6,1.4c-1,0.1-2.1-0.3-2.9-1c-0.8-0.7-1.3-1.8-1.3-2.9
					c-0.1-1.1,0.3-2.3,1.1-3.1c0.8-0.9,2-1.4,3.1-1.3c1.2,0,2.2,0.7,2.8,1.6C25.8,78.1,26,79,25.9,80z M25.7,80c0-0.9-0.6-1.7-1.3-2
					c-0.7-0.4-1.4-0.4-2-0.4c-0.6,0.1-1.2,0.3-1.7,0.7c-0.5,0.4-0.9,1-0.9,1.7c-0.1,0.7,0.2,1.4,0.7,2c0.5,0.6,1.2,0.9,2,1
					c0.8,0.1,1.6-0.1,2.3-0.7C25.4,81.7,25.8,80.8,25.7,80z"/>
			</g>
		</g>
		<g id="XMLID_23_">
			<g>
				<path class="st0" d="M362.8,97.5c0,0.8-0.3,1.6-0.8,2.3c-0.5,0.7-1.4,1.2-2.3,1.2c-0.9,0.1-1.9-0.3-2.6-0.9
					c-0.7-0.6-1.2-1.6-1.2-2.6c-0.1-1,0.3-2.1,1-2.9c0.7-0.8,1.8-1.3,2.9-1.2c1.1,0,2,0.7,2.5,1.5C362.7,95.8,362.9,96.7,362.8,97.5
					z M362.6,97.5c0-0.8-0.5-1.5-1.2-1.8c-0.6-0.3-1.3-0.3-1.8-0.3c-0.5,0.1-1,0.3-1.5,0.6c-0.4,0.3-0.7,0.9-0.8,1.5
					c-0.1,1.2,0.9,2.5,2.3,2.6c0.7,0.1,1.4-0.1,2-0.5C362.3,99,362.7,98.3,362.6,97.5z"/>
			</g>
		</g>
		<g id="XMLID_21_">
			<g>
				<path class="st0" d="M353.5,125.4c0,1.2-0.5,2.4-1.3,3.4c-0.8,1-2,1.6-3.4,1.7c-1.3,0.1-2.7-0.4-3.7-1.4c-1-0.9-1.6-2.3-1.7-3.7
					c-0.1-1.4,0.5-2.8,1.4-3.9c1-1.1,2.5-1.7,3.9-1.6c1.5,0,2.8,0.9,3.6,1.9C353.3,122.9,353.6,124.2,353.5,125.4z M353.3,125.4
					c0-1.2-0.7-2.3-1.6-2.8c-0.9-0.6-1.9-0.8-2.8-0.7c-0.9,0.1-1.8,0.4-2.5,1c-0.7,0.6-1.2,1.5-1.2,2.5c-0.1,1,0.3,2,1,2.7
					c0.7,0.8,1.7,1.2,2.7,1.3c1.1,0.1,2.2-0.2,3.1-1C352.8,127.8,353.4,126.6,353.3,125.4z"/>
			</g>
		</g>
		<g>
			<g>
				<polygon class="st1" points="110,21.1 44.9,38.5 71.5,137.6 156.4,114.8 135.1,35.6 				"/>
				<path class="st2" d="M110,21.2L45,38.9l0.3-0.5l26.9,99l-0.9-0.5l42.4-11.5l21.2-5.8l21.2-5.7l-0.7,1.2l-5.3-19.8l-5.2-19.8
					c-3.5-13.2-6.9-26.5-10.3-39.7l0.2,0.3l-12.4-7.4L110,21.2z M110.1,21l12.6,7l12.7,7.1c0.1,0.1,0.2,0.2,0.2,0.3l0,0
					c3.7,13.2,7.4,26.3,11,39.5l5.4,19.8l5.3,19.8c0.1,0.5-0.2,1.1-0.7,1.2l0,0l-21.2,5.7l-21.2,5.6l-42.5,11.2l0,0
					c-0.4,0.1-0.8-0.1-0.9-0.5L44.5,38.6c-0.1-0.2,0.1-0.4,0.3-0.5l0,0L110.1,21z"/>
			</g>
		</g>
		<g>
			<polygon class="st3" points="102.4,29.7 37.3,47.2 63.9,146.2 148.8,123.5 127.5,44.2 			"/>
		</g>
		<g>
			<line class="st4" x1="62" y1="68.7" x2="110.9" y2="55.6"/>
			<line class="st4" x1="64.8" y1="79.2" x2="113.7" y2="66.1"/>
			<line class="st4" x1="67.6" y1="89.6" x2="92.1" y2="83.1"/>
			<line class="st4" x1="70.4" y1="100.1" x2="119.3" y2="87"/>
		</g>
		<g>
			<rect x="143" y="1.1" class="st1" width="102.2" height="88.1"/>
			<g>
				<path class="st5" d="M245.3,89.2L143,89.7c-0.3,0-0.5-0.2-0.5-0.5v0l-0.3-88.1c0-0.4,0.4-0.8,0.8-0.8l0,0l25.6-0.2L194.1,0
					l25.6,0l25.6,0.1h0c0.5,0,1,0.4,1,1v0c-0.1,14.8-0.2,29.6-0.3,44.3L245.3,89.2z M245.1,89.1l-0.5-44.2
					c-0.2-14.7-0.2-29.2-0.3-43.8l1,1l-25.6,0.1l-25.6,0L168.6,2L143,1.9l0.8-0.8l-0.3,88.1l-0.5-0.5L245.1,89.1z"/>
			</g>
		</g>
		<rect x="133.4" y="7.4" class="st3" width="102.2" height="88.1"/>
		<g>
			<path class="st5" d="M217.6,46.1c-0.8,9.1-10.3,17.2-21.2,18.1c-10.8,0.9-18.9-7.2-18-18c0.9-10.9,10.4-19,21.2-18.1
				C210.3,29,218.4,37,217.6,46.1z"/>
		</g>
		<g>
			<path class="st0" d="M141.4,67.6c0.9-1.9,2.2-3.6,3.8-5c1.6-1.4,3.6-2.3,5.6-2.8c2.1-0.5,4.2-0.5,6.3,0c2.1,0.5,4.1,1.4,5.7,2.8
				l-0.6,0.2c1.3-3.5,3.7-6.6,6.8-8.8c3.1-2.2,6.8-3.5,10.6-3.6c3.8-0.1,7.6,0.9,10.8,3c3.2,2,5.8,5,7.4,8.6l-0.9-0.5
				c3.2-0.7,6.6-0.2,9.5,1.4c2.9,1.6,5.1,4.3,6.2,7.4c0.2,0.5-0.1,1.1-0.6,1.2c-0.1,0-0.2,0.1-0.3,0.1l0,0c-4.6,0-9.1,0.1-13.7,0
				c-4.6,0-9.1-0.1-13.7-0.2l-6.8-0.1l-6.8-0.2c-4.6-0.1-9.1-0.3-13.7-0.5c-0.1,0-0.1,0-0.1-0.1c0-0.1,0-0.1,0.1-0.1
				c4.6-0.2,9.1-0.4,13.7-0.5l6.8-0.2l6.8-0.1c4.6-0.1,9.1-0.2,13.7-0.2c4.6,0,9.1,0,13.7,0l-0.9,1.3c-0.9-2.7-2.8-5.1-5.2-6.5
				c-1.2-0.7-2.6-1.2-4-1.5c-1.4-0.2-2.9-0.2-4.3,0.1l0,0c-0.4,0.1-0.7-0.1-0.9-0.5c-1.4-3.2-3.7-6.1-6.7-8c-3-2-6.5-3-10.1-2.9
				c-3.6,0-7.1,1.1-10.1,3.2c-3,2-5.3,4.9-6.6,8.3l0,0c-0.1,0.2-0.3,0.3-0.5,0.2c0,0-0.1,0-0.1-0.1c-1.6-1.3-3.4-2.3-5.4-2.7
				c-2-0.5-4.1-0.5-6.1-0.1c-2,0.4-3.9,1.3-5.5,2.6c-1.6,1.3-2.9,2.9-3.9,4.8c0,0-0.1,0.1-0.1,0C141.4,67.7,141.4,67.6,141.4,67.6z"
				/>
		</g>
		<g>
			<polygon class="st3" points="315,39.1 249.7,21.6 223.1,120.9 308.2,143.7 329.5,64.2 			"/>
		</g>
		<line class="st6" x1="244.9" y1="111.7" x2="269.4" y2="118.2"/>
		<line class="st6" x1="247.7" y1="101.2" x2="296.8" y2="114.3"/>
		<g>
			<path class="st7" d="M287.7,48.1l-6.1,22.7L259,64.7C262.3,52.2,275.2,44.8,287.7,48.1z"/>
		</g>
		<g>
			<path class="st8" d="M287.7,48.1c5.3,1.4,9.7,4.5,12.7,8.6l-18.8,14.1L287.7,48.1z"/>
		</g>
		<g>
			<g>
				<path class="st0" d="M308.5,76c0.5-3.5,0.3-7.1-0.6-10.5c-0.9-3.4-2.5-6.6-4.6-9.4c-4.3-5.6-10.8-9.3-17.7-10.2
					c-6.9-1-14.1,1-19.6,5.1c-5.5,4.2-9.3,10.6-10.2,17.4c-1,6.8,1,13.9,5.1,19.4c4.1,5.5,10.4,9.2,17.2,10.2
					c6.7,1.1,13.9-0.6,19.6-4.5c2.8-2,5.3-4.6,7.2-7.6C306.7,82.8,307.9,79.5,308.5,76z M308.7,76c-0.9,7.1-4.7,13.7-10.3,18.2
					c-2.8,2.2-6.1,3.9-9.6,4.9c-3.5,1-7.2,1.2-10.9,0.8c-3.6-0.5-7.2-1.7-10.3-3.6c-3.2-1.9-5.9-4.4-8.1-7.4
					c-4.4-5.9-6.3-13.6-5.1-20.8c1.1-7.2,5.1-13.9,11-18.2c5.8-4.3,13.4-6.2,20.5-5.1c7.1,1.1,13.7,5.1,17.9,10.9
					c2.1,2.9,3.7,6.2,4.5,9.6C309,68.9,309.2,72.5,308.7,76z"/>
			</g>
		</g>
		
			<rect x="248.5" y="131.5" transform="matrix(0.9659 0.2588 -0.2588 0.9659 52.2929 -68.567)" class="st3" width="76.2" height="65.7"/>
		<g>
			<g>
				<path class="st0" d="M294.1,163.8c1.2,0.3,2.5,0.4,3.8,0.3c1.3-0.2,2.5-0.7,3.5-1.3c2.1-1.4,3.7-3.5,4.2-5.9
					c0.6-2.4,0.2-5-1.1-7c-1.2-2.1-3.3-3.6-5.6-4.1c-2.3-0.6-4.8-0.2-6.8,1.1c-1,0.6-1.9,1.4-2.6,2.3c-0.7,0.9-1.2,2-1.6,3.1
					c-0.6,2.2-0.6,4.7,0.5,6.9c0.5,1.1,1.3,2.1,2.2,3C291.7,162.8,292.8,163.4,294.1,163.8z M294,164c-2.5-0.6-4.9-2.2-6.4-4.4
					c-0.8-1.1-1.3-2.4-1.6-3.8c-0.3-1.4-0.2-2.8,0.1-4.2c0.4-1.4,1-2.7,1.8-3.8c0.9-1.1,2-2.1,3.2-2.8c2.5-1.4,5.5-1.7,8.2-0.9
					c2.7,0.8,5,2.6,6.3,5c1.3,2.4,1.7,5.3,0.9,7.9c-0.8,2.6-2.6,4.8-5,6C299.3,164.3,296.5,164.6,294,164z"/>
			</g>
		</g>
		<g>
			<g>
				<path class="st0" d="M293.2,167.1c-2.7-0.7-5.5-0.9-8.2-0.5c-2.7,0.4-5.4,1.4-7.7,2.8c-4.7,2.9-8.1,7.5-9.5,12.8l-0.4-0.7
					l20.6,5.3c6.9,1.7,13.7,3.4,20.6,5.3l-1.3,0.7c0.7-2.6,0.9-5.2,0.6-7.9c-0.3-2.6-1.1-5.2-2.3-7.6c-1.2-2.4-3-4.6-5.1-6.3
					C298.3,169.1,295.8,167.8,293.2,167.1z M293.2,166.9c2.7,0.7,5.3,1.9,7.6,3.5c2.3,1.6,4.3,3.7,5.9,6.1c1.5,2.4,2.6,5.2,3,8
					c0.5,2.9,0.2,5.8-0.5,8.7c-0.1,0.5-0.7,0.9-1.2,0.7l0,0l0,0c-6.8-1.8-13.6-3.8-20.4-5.7l-20.4-5.7l0,0c-0.3-0.1-0.5-0.4-0.4-0.7
					l0,0c0.8-2.7,2.1-5.3,3.8-7.6c1.8-2.2,4-4.1,6.4-5.4C281.9,166.2,287.8,165.4,293.2,166.9z"/>
			</g>
		</g>
		<path class="st9" d="M292.8,168.4c-9.7-2.6-19.7,3.2-22.3,12.9l35.1,9.4C308.3,181,302.5,171,292.8,168.4z"/>
		<g>
			<path class="st1" d="M242.5,116.4c0.4-2,0.6-4.1,0.6-6.2c0-18.1-14.7-32.8-32.8-32.8c-9.5,0-18,4.1-24,10.5
				c-11.3-6.7-24.5-10.5-38.5-10.5c-42,0-76,34-76,76s34,76,76,76h38.5h48c31.4,0,56.8-25.4,56.8-56.8
				C291,144,270,120.4,242.5,116.4z"/>
			<g>
				<path class="st0" d="M242.4,116.5c0-0.1,0-0.3,0-0.4l0.1-0.3l0.1-0.7c0.1-0.4,0.1-0.9,0.2-1.3c0.1-0.9,0.2-1.7,0.2-2.6
					c0-0.9,0-1.8-0.1-2.6c0-0.9-0.1-1.8-0.2-2.6c-0.4-3.5-1.5-6.9-3.1-10c-1.6-3.1-3.6-6-6.1-8.5c-2.5-2.5-5.4-4.5-8.5-6.1
					c-3.1-1.6-6.5-2.6-10-3.1l-1.3-0.2c-0.4,0-0.9,0-1.3-0.1c-0.9,0-1.7-0.1-2.6-0.1c-1.7,0-3.5,0.2-5.2,0.5
					c-6.9,1.2-13.3,4.8-18,9.9c-0.2,0.2-0.4,0.2-0.6,0.1c-9.6-5.6-20.4-9.1-31.4-10c-11-0.9-22.3,0.5-32.6,4.3
					c-10.4,3.8-19.9,10-27.6,17.8c-7.7,7.9-13.8,17.4-17.4,27.8c-3.6,10.4-4.9,21.6-3.8,32.6c1.1,11,4.7,21.6,10.4,31
					c5.7,9.4,13.5,17.5,22.6,23.6c9.2,6.1,19.6,10.1,30.5,11.7c2.7,0.4,5.4,0.6,8.2,0.7c2.7,0.1,5.5,0,8.3,0l16.7-0.1l33.5-0.1
					l16.7,0l8.4,0c2.8,0,5.6,0.1,8.3-0.1l2-0.1l1,0l1-0.2l4-0.6c1.3-0.2,2.6-0.6,4-1c0.7-0.2,1.3-0.3,2-0.5l1.9-0.7l1.9-0.7
					c0.6-0.2,1.3-0.5,1.9-0.8l3.7-1.7c1.2-0.6,2.3-1.4,3.5-2.1c0.6-0.4,1.2-0.7,1.7-1.1l1.6-1.2c2.3-1.5,4.2-3.4,6.3-5.2
					c1.8-2,3.8-3.9,5.3-6.2c0.8-1.1,1.7-2.2,2.3-3.3c0.7-1.2,1.5-2.3,2.1-3.5l1.8-3.7l0.4-0.9l0.4-1l0.7-1.9l0.7-1.9
					c0.2-0.6,0.4-1.3,0.5-2c0.3-1.3,0.7-2.6,1-4c0.4-2.7,1-5.4,1-8.1c0.3-2.7,0.1-5.5-0.1-8.2l-0.5-4.1c-0.1-0.7-0.2-1.3-0.4-2
					l-0.4-2c-1.3-5.3-3.3-10.5-6.1-15.2c-2.8-4.7-6.3-9-10.4-12.8l-1.5-1.4l-0.8-0.7l-0.8-0.6c-1.1-0.8-2.2-1.7-3.3-2.5l-3.5-2.2
					c-1.2-0.7-2.4-1.3-3.7-1.9C253.3,119.2,248,117.5,242.4,116.5z M242.6,116.3c5.4,0.7,10.9,2.3,16,4.6c1.3,0.6,2.6,1.2,3.8,1.9
					l3.6,2.2c1.2,0.8,2.3,1.6,3.4,2.4l0.9,0.6l0.8,0.7l1.6,1.4c4.2,3.7,7.9,8.1,10.9,12.9c2.9,4.8,5.1,10.1,6.6,15.6l0.5,2.1
					c0.2,0.7,0.4,1.4,0.4,2.1l0.6,4.2c0.2,2.8,0.4,5.7,0.2,8.5l-0.1,2.1c0,0.4,0,0.7-0.1,1.1l-0.2,1.1l-0.6,4.2
					c-0.3,1.4-0.7,2.8-1,4.2c-0.2,0.7-0.3,1.4-0.6,2.1l-0.7,2l-0.7,2l-0.4,1l-0.5,1l-1.8,3.9c-0.7,1.2-1.5,2.5-2.2,3.7
					c-0.7,1.3-1.6,2.4-2.4,3.5c-1.6,2.4-3.6,4.4-5.5,6.5c-2.1,1.9-4.1,3.9-6.5,5.6l-1.7,1.3c-0.6,0.4-1.2,0.8-1.8,1.2
					c-1.2,0.7-2.4,1.5-3.7,2.2l-3.9,1.9c-0.6,0.3-1.3,0.6-2,0.8l-2,0.7l-2,0.7c-0.7,0.2-1.4,0.4-2.1,0.6c-1.4,0.3-2.8,0.8-4.2,1
					l-4.2,0.7l-1.1,0.2l-1.1,0.1l-2.1,0.1c-2.9,0.2-5.6,0.1-8.4,0.1l-8.4,0l-16.7,0l-33.5-0.1l-16.7-0.1c-2.8,0-5.6,0-8.4-0.1
					c-2.8-0.1-5.7-0.4-8.5-0.8c-11.2-1.7-22.1-6-31.5-12.3c-9.4-6.4-17.4-14.8-23.2-24.5c-5.8-9.7-9.4-20.7-10.5-32
					c-1.1-11.3,0.3-22.7,4.1-33.4c3.8-10.7,10-20.4,17.9-28.4c8-8,17.7-14.2,28.3-18c10.6-3.8,22.1-5.2,33.2-4.2
					c11.2,1,22.1,4.6,31.8,10.4l-0.6,0.1c4.9-5.2,11.5-8.8,18.5-10c1.8-0.3,3.5-0.5,5.3-0.5c0.9,0,1.8,0.1,2.7,0.1
					c0.4,0,0.9,0,1.3,0.1l1.3,0.2c3.5,0.5,7,1.6,10.1,3.3c3.2,1.6,6.1,3.8,8.6,6.3c2.5,2.5,4.5,5.5,6.1,8.7c1.6,3.2,2.6,6.6,3,10.2
					c0.2,0.9,0.2,1.8,0.2,2.6c0,0.9,0.1,1.8,0.1,2.7c0,0.9-0.1,1.8-0.2,2.7c-0.1,0.4-0.1,0.9-0.2,1.3l-0.1,0.7l-0.1,0.3
					C242.7,116.1,242.7,116.2,242.6,116.3z"/>
			</g>
		</g>
		<g>
			
				<rect x="41.6" y="149.6" transform="matrix(0.9659 -0.2588 0.2588 0.9659 -43.0256 26.9573)" class="st1" width="78.6" height="54.7"/>
			<g>
				<path class="st0" d="M126,193.2l-75.9,21.1c-0.4,0.1-0.9-0.1-1-0.6l0,0l0,0L34.7,161c-0.2-0.6,0.2-1.3,0.8-1.5l0,0
					c12.6-3.7,25.2-7.1,37.9-10.6l19-5c6.3-1.7,12.7-3.3,19-4.9l0,0c0.7-0.2,1.4,0.2,1.6,1l0,0l3.4,13.5c1.1,4.5,2.2,9,3.3,13.4
					l3.2,13.3L126,193.2z M125.8,193l-7.9-26.4c-1.3-4.4-2.6-8.7-3.8-13l-3.7-12.9l1.7,1c-6.3,1.8-12.6,3.6-18.9,5.3l-19,5.2
					c-12.7,3.3-25.3,6.7-38.1,9.8l0.8-1.5l13.8,52.9l-1-0.6L125.8,193z"/>
			</g>
		</g>
		<polygon class="st3" points="83.6,123.1 32.6,136.7 38.8,159.9 77.5,164.3 108.8,141.1 107.7,137 		"/>
		<line class="st10" x1="52.6" y1="144.4" x2="69.4" y2="139.9"/>
		<line class="st10" x1="54.7" y1="152.1" x2="88.2" y2="143.1"/>
	</g>
	<path class="st11" d="M234.3,121.3c0.3-1.7,0.5-3.5,0.5-5.3c0-15.7-12.7-28.4-28.4-28.4c-8.2,0-15.6,3.5-20.8,9.1
		c-9.8-5.8-21.2-9.1-33.4-9.1c-36.3,0-65.8,29.5-65.8,65.8s29.5,65.8,65.8,65.8h25l-3.5-51.6h-17l24.6-28.4l24.6,28.4h-17l-3.5,51.6
		h41.6c27.2,0,49.2-22,49.2-49.2C276.3,145.3,258.1,124.8,234.3,121.3z"/>
</g>
</svg>
