<?xml version="1.0" encoding="utf-8"?>
<!-- Generator: Adobe Illustrator 21.0.0, SVG Export Plug-In . SVG Version: 6.00 Build 0)  -->
<svg version="1.1" id="Layer_1" xmlns="http://www.w3.org/2000/svg" xmlns:xlink="http://www.w3.org/1999/xlink" x="0px" y="0px"
	 viewBox="0 0 168.6 168.3" style="enable-background:new 0 0 168.6 168.3;" xml:space="preserve">
<style type="text/css">
	.st0{fill:none;stroke:#8E94AA;stroke-width:2;stroke-linecap:round;stroke-linejoin:round;stroke-miterlimit:10;}
	.st1{fill:#99C6FF;}
	.st2{fill:#8E94AA;}
	.st3{fill:#B7DFB9;}
	.st4{fill:#FFFFFF;}
	.st5{fill:#FFD69A;}
	.st6{fill:#FFFFFF;stroke:#8E94AA;stroke-width:2;stroke-linecap:round;stroke-linejoin:round;stroke-miterlimit:10;}
</style>
<g>
	<rect x="1" y="1.1" class="st0" width="80.8" height="161.6"/>
	<g>
		<rect x="1" y="1.1" class="st1" width="80.8" height="9.2"/>
		<path class="st2" d="M81.9,10.3L1,11c-0.4,0-0.7-0.3-0.7-0.7l0,0l0,0L0.2,1.1c0-0.4,0.3-0.8,0.8-0.8l0,0C7.7,0.1,14.5,0.1,21.2,0
			C27.9,0,34.7,0,41.4,0c6.7,0,13.5,0.1,20.2,0.2c6.7,0.1,13.5,0.2,20.2,0.4l0,0c0.2,0,0.4,0.2,0.4,0.4l0,0L81.9,10.3z M81.7,10.2
			l-0.3-9.1l0.4,0.4c-6.7,0.2-13.5,0.3-20.2,0.4c-6.7,0.1-13.5,0.2-20.2,0.2c-6.7,0-13.5,0.1-20.2,0C14.5,2.1,7.7,2,1,1.9l0.8-0.8
			l-0.1,9.2L1,9.5L81.7,10.2z"/>
	</g>
	<g>
		<rect x="1" y="153.5" class="st1" width="80.8" height="9.2"/>
		<path class="st2" d="M81.9,162.7L1,163.4c-0.4,0-0.7-0.3-0.7-0.7l0,0l0,0l-0.1-9.2c0-0.4,0.3-0.8,0.8-0.8l0,0
			c6.7-0.1,13.5-0.2,20.2-0.2c6.7-0.1,13.5,0,20.2,0c6.7,0,13.5,0.1,20.2,0.2c6.7,0.1,13.5,0.2,20.2,0.4l0,0c0.2,0,0.4,0.2,0.4,0.4
			l0,0L81.9,162.7z M81.7,162.6l-0.3-9.1l0.4,0.4c-6.7,0.2-13.5,0.3-20.2,0.4c-6.7,0.1-13.5,0.2-20.2,0.2c-6.7,0-13.5,0.1-20.2,0
			c-6.7,0-13.5-0.1-20.2-0.2l0.8-0.8l-0.1,9.2L1,161.9L81.7,162.6z"/>
	</g>
	<g>
		<path class="st2" d="M78.4,53.8L4.5,54.3c-0.3,0-0.6-0.3-0.6-0.6v0l0,0L3.7,10.2c0-0.4,0.3-0.8,0.8-0.8l0,0
			c6.2-0.1,12.3-0.2,18.5-0.2l18.5-0.1l18.5,0l18.5,0.2l0,0c0.5,0,0.8,0.4,0.8,0.9c0,7.4-0.2,14.7-0.3,22L78.4,53.8z M78.2,53.7
			l-0.5-21.9c-0.2-7.2-0.3-14.4-0.3-21.5l0.9,0.9l-18.5,0.2l-18.5,0l-18.5-0.1c-6.2,0-12.3-0.1-18.5-0.2l0.8-0.8L5.1,53.7l-0.6-0.6
			L78.2,53.7z"/>
	</g>
	<line class="st0" x1="30.7" y1="42.6" x2="52.1" y2="42.6"/>
	<g>
		<path class="st2" d="M50.2,25.7c-6,0.1-11.9,0.4-17.6,0.5l0.6-0.6l0.2,10.1l-0.8-0.8c2.9-0.2,5.9-0.3,8.8-0.3
			c2.9,0,5.9,0.1,8.8,0.2l-0.9,0.9c0.1-1.6,0.2-3.2,0.3-4.8L50.2,25.7z M50.3,25.5l0.5,4.9c0.1,1.7,0.3,3.5,0.3,5.3
			c0,0.5-0.3,0.8-0.8,0.9l0,0l-0.1,0c-2.9,0.1-5.9,0.2-8.8,0.2c-2.9,0-5.9-0.1-8.8-0.3l-0.1,0c-0.4,0-0.7-0.4-0.7-0.8L32,25.6l0,0
			c0-0.3,0.3-0.6,0.6-0.6C38.6,25.1,44.5,25.4,50.3,25.5z"/>
	</g>
	<g>
		<path class="st2" d="M78.4,5.6c0,0.5-0.2,1.1-0.6,1.5c-0.4,0.4-0.9,0.7-1.5,0.8c-1.2,0.1-2.4-1-2.4-2.3c0-0.6,0.2-1.3,0.6-1.8
			c0.4-0.5,1.1-0.8,1.8-0.7c0.7,0,1.3,0.4,1.6,0.9C78.3,4.5,78.4,5.1,78.4,5.6z M78.3,5.6c0-0.5-0.3-1-0.7-1.2
			c-0.4-0.3-0.9-0.3-1.2-0.3c-0.8,0-1.6,0.6-1.6,1.5c-0.1,0.9,0.7,1.7,1.6,1.8c0.5,0,1-0.1,1.4-0.4C78,6.7,78.3,6.2,78.3,5.6z"/>
	</g>
	<line class="st0" x1="30.7" y1="89.6" x2="52.1" y2="89.6"/>
	<g>
		<path class="st2" d="M50.2,72.7c-6,0.1-11.9,0.4-17.6,0.5l0.6-0.6l0.2,10.1l-0.8-0.8c2.9-0.2,5.9-0.3,8.8-0.3
			c2.9,0,5.9,0.1,8.8,0.2l-0.9,0.9c0.1-1.6,0.2-3.2,0.3-4.8L50.2,72.7z M50.3,72.5l0.5,4.9c0.1,1.7,0.3,3.5,0.3,5.3
			c0,0.5-0.3,0.8-0.8,0.9l0,0l-0.1,0c-2.9,0.1-5.9,0.2-8.8,0.2c-2.9,0-5.9-0.1-8.8-0.3l-0.1,0c-0.4,0-0.7-0.4-0.7-0.8L32,72.6l0,0
			c0-0.3,0.3-0.6,0.6-0.6C38.6,72.1,44.5,72.4,50.3,72.5z"/>
	</g>
	<g>
		<path class="st2" d="M4.5,167.1c1.2-0.2,2.4-0.3,3.6-0.4c1.2-0.1,2.4-0.2,3.6-0.3c1.2-0.1,2.4-0.3,3.6-0.2
			c1.2,0.1,2.4,0.3,3.6,0.9c0.1,0,0.1,0.1,0.1,0.1c0,0,0,0-0.1,0.1c-1.2,0.6-2.4,0.8-3.6,0.9c-1.2,0.1-2.4-0.1-3.6-0.2
			c-1.2-0.1-2.4-0.2-3.6-0.3c-1.2-0.1-2.4-0.2-3.6-0.4C4.4,167.3,4.4,167.3,4.5,167.1C4.4,167.2,4.4,167.1,4.5,167.1z"/>
	</g>
	<g>
		<path class="st2" d="M78.3,167.3c-1.2,0.2-2.4,0.3-3.6,0.4c-1.2,0.1-2.4,0.2-3.6,0.3c-1.2,0.1-2.4,0.3-3.6,0.2
			c-1.2-0.1-2.4-0.3-3.6-0.9c-0.1,0-0.1-0.1-0.1-0.1c0,0,0,0,0.1-0.1c1.2-0.6,2.4-0.8,3.6-0.9c1.2-0.1,2.4,0.1,3.6,0.2
			c1.2,0.1,2.4,0.2,3.6,0.3c1.2,0.1,2.4,0.2,3.6,0.4C78.4,167.1,78.4,167.2,78.3,167.3C78.4,167.3,78.4,167.3,78.3,167.3z"/>
	</g>
	<g>
		<path class="st2" d="M78.4,103.6l-73.9,0.5c-0.3,0-0.6-0.2-0.6-0.6v0l0,0L3.7,56.9c0-0.4,0.3-0.8,0.8-0.8l0,0
			c6.2-0.1,12.3-0.2,18.5-0.2l18.5-0.1l18.5,0c6.2,0,12.3,0.1,18.5,0.1l0,0c0.5,0,0.9,0.4,0.9,0.9l0,0l-0.1,11.8l-0.2,11.7
			L78.4,103.6z M78.2,103.4L77.8,80l-0.2-11.6l-0.1-11.5l0.9,0.9c-6.2,0-12.3,0.1-18.5,0.1l-18.5,0l-18.5-0.1
			c-6.2,0-12.3-0.1-18.5-0.2l0.8-0.8l-0.2,46.6l-0.6-0.6L78.2,103.4z"/>
	</g>
	<g>
		<g>
			<polygon class="st3" points="27.6,94 9.6,94 9.6,121.3 33,121.3 33,99.4 			"/>
		</g>
		<g>
			<g>
				<line class="st4" x1="14.5" y1="101.2" x2="28" y2="101.2"/>
				<path class="st4" d="M14.5,101.2c2.3-0.1,4.5-0.2,6.8-0.3c1.1,0,2.3-0.1,3.4-0.1c1.1,0.1,2.3,0.1,3.4,0.3v0.1
					c-1.1,0.2-2.3,0.3-3.4,0.3c-1.1,0-2.3,0-3.4-0.1C19,101.5,16.7,101.4,14.5,101.2L14.5,101.2z"/>
			</g>
			<g>
				<path class="st4" d="M14.5,104.1c2.3-0.1,4.5-0.2,6.8-0.3c1.1,0,2.3-0.1,3.4-0.1c1.1,0.1,2.3,0.1,3.4,0.3v0.1
					c-1.1,0.2-2.3,0.3-3.4,0.3c-1.1,0-2.3,0-3.4-0.1C19,104.4,16.7,104.3,14.5,104.1L14.5,104.1z"/>
			</g>
			<g>
				<path class="st4" d="M14.5,107c1.1-0.1,2.3-0.2,3.4-0.3c0.6,0,1.1-0.1,1.7-0.1c0.6,0.1,1.1,0.1,1.7,0.3v0.1
					c-0.6,0.2-1.1,0.3-1.7,0.3c-0.6,0-1.1,0-1.7-0.1C16.7,107.2,15.6,107.2,14.5,107L14.5,107z"/>
			</g>
			<g>
				<path class="st4" d="M14.5,109.9c2.3-0.1,4.5-0.2,6.8-0.3c1.1,0,2.3-0.1,3.4-0.1c1.1,0.1,2.3,0.1,3.4,0.3v0.1
					c-1.1,0.2-2.3,0.3-3.4,0.3c-1.1,0-2.3,0-3.4-0.1C19,110.1,16.7,110,14.5,109.9L14.5,109.9z"/>
			</g>
		</g>
	</g>
	<rect x="86.8" y="47.8" class="st0" width="80.8" height="114.9"/>
	<g>
		<rect x="86.8" y="47.8" class="st1" width="80.8" height="9.2"/>
		<path class="st2" d="M167.6,57l-80.9,0.7c-0.4,0-0.7-0.3-0.7-0.7l0,0l0,0L86,47.8c0-0.4,0.3-0.8,0.8-0.8l0,0
			c6.7-0.1,13.5-0.2,20.2-0.2c6.7-0.1,13.5,0,20.2,0c6.7,0,13.5,0.1,20.2,0.2c6.7,0.1,13.5,0.2,20.2,0.4l0,0c0.2,0,0.4,0.2,0.4,0.4
			l0,0L167.6,57z M167.5,56.9l-0.3-9.1l0.4,0.4c-6.7,0.2-13.5,0.3-20.2,0.4c-6.7,0.1-13.5,0.2-20.2,0.2c-6.7,0-13.5,0.1-20.2,0
			c-6.7,0-13.5-0.1-20.2-0.2l0.8-0.8l-0.1,9.2l-0.7-0.7L167.5,56.9z"/>
	</g>
	<g>
		<rect x="86.8" y="153.5" class="st1" width="80.8" height="9.2"/>
		<path class="st2" d="M167.6,162.7l-80.9,0.7c-0.4,0-0.7-0.3-0.7-0.7l0,0l0,0l-0.1-9.2c0-0.4,0.3-0.8,0.8-0.8l0,0
			c6.7-0.1,13.5-0.2,20.2-0.2c6.7-0.1,13.5,0,20.2,0c6.7,0,13.5,0.1,20.2,0.2c6.7,0.1,13.5,0.2,20.2,0.4l0,0c0.2,0,0.4,0.2,0.4,0.4
			l0,0L167.6,162.7z M167.5,162.6l-0.3-9.1l0.4,0.4c-6.7,0.2-13.5,0.3-20.2,0.4c-6.7,0.1-13.5,0.2-20.2,0.2c-6.7,0-13.5,0.1-20.2,0
			c-6.7,0-13.5-0.1-20.2-0.2l0.8-0.8l-0.1,9.2l-0.7-0.7L167.5,162.6z"/>
	</g>
	<g>
		<path class="st2" d="M164.1,52.3c0,0.5-0.2,1.1-0.6,1.5c-0.4,0.4-0.9,0.7-1.5,0.8c-1.2,0.1-2.4-1-2.4-2.3c0-0.6,0.2-1.3,0.6-1.8
			c0.4-0.5,1.1-0.8,1.8-0.7c0.7,0,1.3,0.4,1.6,0.9C164,51.2,164.2,51.8,164.1,52.3z M164,52.3c0-0.5-0.3-1-0.7-1.2
			c-0.4-0.3-0.9-0.3-1.2-0.3c-0.8,0-1.6,0.6-1.6,1.5c-0.1,0.9,0.7,1.7,1.6,1.8c0.5,0,1-0.1,1.4-0.4C163.8,53.4,164.1,52.9,164,52.3z
			"/>
	</g>
	<g>
		<path class="st2" d="M90.3,167.1c1.2-0.2,2.4-0.3,3.6-0.4c1.2-0.1,2.4-0.2,3.6-0.3c1.2-0.1,2.4-0.3,3.6-0.2
			c1.2,0.1,2.4,0.3,3.6,0.9c0.1,0,0.1,0.1,0.1,0.1c0,0,0,0-0.1,0.1c-1.2,0.6-2.4,0.8-3.6,0.9c-1.2,0.1-2.4-0.1-3.6-0.2
			c-1.2-0.1-2.4-0.2-3.6-0.3c-1.2-0.1-2.4-0.2-3.6-0.4C90.2,167.3,90.2,167.3,90.3,167.1C90.2,167.2,90.2,167.1,90.3,167.1z"/>
	</g>
	<g>
		<path class="st2" d="M164.1,167.3c-1.2,0.2-2.4,0.3-3.6,0.4c-1.2,0.1-2.4,0.2-3.6,0.3c-1.2,0.1-2.4,0.3-3.6,0.2
			c-1.2-0.1-2.4-0.3-3.6-0.9c-0.1,0-0.1-0.1-0.1-0.1c0,0,0,0,0.1-0.1c1.2-0.6,2.4-0.8,3.6-0.9c1.2-0.1,2.4,0.1,3.6,0.2
			c1.2,0.1,2.4,0.2,3.6,0.3c1.2,0.1,2.4,0.2,3.6,0.4C164.1,167.1,164.2,167.2,164.1,167.3C164.2,167.3,164.1,167.3,164.1,167.3z"/>
	</g>
	<g>
		<g>
			<g>
				<polygon class="st5" points="151.8,43.8 133.8,43.8 133.8,71.1 157.3,71.1 157.3,49.2 				"/>
			</g>
		</g>
		<g>
			<g>
				<line class="st5" x1="138.7" y1="51" x2="152.2" y2="51"/>
				<path class="st4" d="M138.7,51c2.3-0.1,4.5-0.2,6.8-0.3c1.1,0,2.3-0.1,3.4-0.1c1.1,0.1,2.3,0.1,3.4,0.3v0.1
					c-1.1,0.2-2.3,0.3-3.4,0.3c-1.1,0-2.3,0-3.4-0.1C143.2,51.3,141,51.2,138.7,51L138.7,51z"/>
			</g>
			<g>
				<path class="st4" d="M138.7,53.9c2.3-0.1,4.5-0.2,6.8-0.3c1.1,0,2.3-0.1,3.4-0.1c1.1,0.1,2.3,0.1,3.4,0.3v0.1
					c-1.1,0.2-2.3,0.3-3.4,0.3c-1.1,0-2.3,0-3.4-0.1C143.2,54.1,141,54.1,138.7,53.9L138.7,53.9z"/>
			</g>
			<g>
				<path class="st4" d="M138.7,56.8c1.1-0.1,2.3-0.2,3.4-0.3c0.6,0,1.1-0.1,1.7-0.1c0.6,0.1,1.1,0.1,1.7,0.3v0.1
					c-0.6,0.2-1.1,0.3-1.7,0.3c-0.6,0-1.1,0-1.7-0.1C141,57,139.8,56.9,138.7,56.8L138.7,56.8z"/>
			</g>
			<g>
				<path class="st4" d="M138.7,59.6c2.3-0.1,4.5-0.2,6.8-0.3c1.1,0,2.3-0.1,3.4-0.1c1.1,0.1,2.3,0.1,3.4,0.3v0.1
					c-1.1,0.2-2.3,0.3-3.4,0.3c-1.1,0-2.3,0-3.4-0.1C143.2,59.9,141,59.8,138.7,59.6L138.7,59.6z"/>
			</g>
		</g>
	</g>
	<g>
		<rect x="90.3" y="106.9" class="st4" width="73.8" height="46.6"/>
		<path class="st2" d="M164.2,153.6l-73.9,0.5c-0.3,0-0.6-0.2-0.6-0.6v0l0,0l-0.2-46.6c0-0.4,0.3-0.8,0.8-0.8l0,0
			c6.2-0.1,12.3-0.2,18.5-0.2l18.5-0.1l18.5,0c6.2,0,12.3,0.1,18.5,0.1l0,0c0.5,0,0.9,0.4,0.9,0.9l0,0l-0.1,11.8l-0.2,11.7
			L164.2,153.6z M164,153.4l-0.5-23.4l-0.2-11.6l-0.1-11.5l0.9,0.9c-6.2,0-12.3,0.1-18.5,0.1l-18.5,0l-18.5-0.1
			c-6.2,0-12.3-0.1-18.5-0.2l0.8-0.8l-0.2,46.6l-0.6-0.6L164,153.4z"/>
	</g>
	<line class="st6" x1="116.4" y1="138.4" x2="137.9" y2="138.4"/>
	<g>
		<rect x="118.3" y="121.4" class="st4" width="17.7" height="10.1"/>
		<path class="st2" d="M135.9,121.4c-6,0.1-11.9,0.4-17.6,0.5l0.6-0.6l0.2,10.1l-0.8-0.8c2.9-0.2,5.9-0.3,8.8-0.3
			c2.9,0,5.9,0.1,8.8,0.2l-0.9,0.9c0.1-1.6,0.2-3.2,0.3-4.8L135.9,121.4z M136.1,121.3l0.5,4.9c0.1,1.7,0.3,3.5,0.3,5.3
			c0,0.5-0.3,0.8-0.8,0.9l0,0l-0.1,0c-2.9,0.1-5.9,0.2-8.8,0.2c-2.9,0-5.9-0.1-8.8-0.3l-0.1,0c-0.4,0-0.7-0.4-0.7-0.8l0.2-10.1l0,0
			c0-0.3,0.3-0.6,0.6-0.6C124.4,120.9,130.3,121.2,136.1,121.3z"/>
	</g>
	<g>
		<rect x="90.3" y="56.9" class="st4" width="73.8" height="46.6"/>
		<path class="st2" d="M164.2,103.6l-73.9,0.5c-0.3,0-0.6-0.2-0.6-0.6v0l0,0l-0.2-46.6c0-0.4,0.3-0.8,0.8-0.8l0,0
			c6.2-0.1,12.3-0.2,18.5-0.2l18.5-0.1l18.5,0c6.2,0,12.3,0.1,18.5,0.1l0,0c0.5,0,0.9,0.4,0.9,0.9l0,0l-0.1,11.8l-0.2,11.7
			L164.2,103.6z M164,103.4L163.5,80l-0.2-11.6l-0.1-11.5l0.9,0.9c-6.2,0-12.3,0.1-18.5,0.1l-18.5,0l-18.5-0.1
			c-6.2,0-12.3-0.1-18.5-0.2l0.8-0.8l-0.2,46.6l-0.6-0.6L164,103.4z"/>
	</g>
	<line class="st0" x1="116.4" y1="89.6" x2="137.9" y2="89.6"/>
	<g>
		<path class="st2" d="M135.9,72.7c-6,0.1-11.9,0.4-17.6,0.5l0.6-0.6l0.2,10.1l-0.8-0.8c2.9-0.2,5.9-0.3,8.8-0.3
			c2.9,0,5.9,0.1,8.8,0.2l-0.9,0.9c0.1-1.6,0.2-3.2,0.3-4.8L135.9,72.7z M136.1,72.5l0.5,4.9c0.1,1.7,0.3,3.5,0.3,5.3
			c0,0.5-0.3,0.8-0.8,0.9l0,0l-0.1,0c-2.9,0.1-5.9,0.2-8.8,0.2c-2.9,0-5.9-0.1-8.8-0.3l-0.1,0c-0.4,0-0.7-0.4-0.7-0.8l0.2-10.1l0,0
			c0-0.3,0.3-0.6,0.6-0.6C124.4,72.1,130.3,72.4,136.1,72.5z"/>
	</g>
	<g>
		<rect x="4.5" y="106.9" class="st4" width="73.8" height="46.6"/>
		<path class="st2" d="M78.4,153.6l-73.9,0.5c-0.3,0-0.6-0.2-0.6-0.6v0l0,0l-0.2-46.6c0-0.4,0.3-0.8,0.8-0.8l0,0
			c6.2-0.1,12.3-0.2,18.5-0.2l18.5-0.1l18.5,0c6.2,0,12.3,0.1,18.5,0.1l0,0c0.5,0,0.9,0.4,0.9,0.9l0,0l-0.1,11.8l-0.2,11.7
			L78.4,153.6z M78.2,153.4L77.8,130l-0.2-11.6l-0.1-11.5l0.9,0.9c-6.2,0-12.3,0.1-18.5,0.1l-18.5,0l-18.5-0.1
			c-6.2,0-12.3-0.1-18.5-0.2l0.8-0.8l-0.2,46.6l-0.6-0.6L78.2,153.4z"/>
	</g>
	<line class="st6" x1="30.7" y1="138.4" x2="52.1" y2="138.4"/>
	<g>
		<rect x="32.6" y="121.4" class="st4" width="17.7" height="10.1"/>
		<path class="st2" d="M50.2,121.4c-6,0.1-11.9,0.4-17.6,0.5l0.6-0.6l0.2,10.1l-0.8-0.8c2.9-0.2,5.9-0.3,8.8-0.3
			c2.9,0,5.9,0.1,8.8,0.2l-0.9,0.9c0.1-1.6,0.2-3.2,0.3-4.8L50.2,121.4z M50.3,121.3l0.5,4.9c0.1,1.7,0.3,3.5,0.3,5.3
			c0,0.5-0.3,0.8-0.8,0.9l0,0l-0.1,0c-2.9,0.1-5.9,0.2-8.8,0.2c-2.9,0-5.9-0.1-8.8-0.3l-0.1,0c-0.4,0-0.7-0.4-0.7-0.8l0.2-10.1l0,0
			c0-0.3,0.3-0.6,0.6-0.6C38.6,120.9,44.5,121.2,50.3,121.3z"/>
	</g>
	<g>
		<g>
			<g id="XMLID_23_">
				<path class="st2" d="M102.9,23.8c0.2,0.9,0.4,1.9,0.5,2.8c0.1,0.5,0.3,0.9,0.1,1.4c-0.1,0.5-0.3,0.9-0.7,1.4c0,0-0.1,0-0.1,0
					c0,0,0,0,0,0c-0.4-0.5-0.6-0.9-0.7-1.4c-0.1-0.5,0.1-0.9,0.2-1.4c0.1-0.9,0.3-1.9,0.5-2.8C102.7,23.7,102.8,23.7,102.9,23.8
					C102.8,23.7,102.9,23.7,102.9,23.8z"/>
			</g>
			<g id="XMLID_21_">
				<path class="st2" d="M100,26.5c0.9-0.2,1.9-0.4,2.8-0.5c0.5-0.1,0.9-0.3,1.4-0.2c0.5,0.1,0.9,0.3,1.4,0.7c0,0,0,0.1,0,0.1
					c0,0,0,0,0,0c-0.5,0.4-0.9,0.6-1.4,0.7c-0.5,0.1-0.9-0.1-1.4-0.1c-0.9-0.1-1.9-0.3-2.8-0.5C99.9,26.7,99.9,26.6,100,26.5
					C99.9,26.5,99.9,26.5,100,26.5z"/>
			</g>
		</g>
		<g id="XMLID_19_">
			<path class="st2" d="M91.2,22.3c0,0.4,0.2,0.7,0.5,0.9c0.3,0.2,0.6,0.2,0.9,0.2c0.6-0.1,0.9-0.6,0.8-1.1c0-0.2-0.2-0.4-0.3-0.5
				c-0.2-0.1-0.3-0.2-0.5-0.2c-0.2,0-0.4-0.1-0.7,0C91.6,21.7,91.3,22,91.2,22.3z M91.1,22.3c0-0.4,0-0.8,0.2-1.3
				c0.2-0.5,0.7-0.9,1.3-0.9c0.6,0,1.2,0.2,1.5,0.6c0.4,0.4,0.5,1,0.5,1.5c-0.1,1.1-1.1,1.9-2,1.8c-0.5,0-0.9-0.3-1.1-0.7
				C91.2,23.1,91.1,22.7,91.1,22.3z"/>
		</g>
		<g id="XMLID_17_">
			<path class="st2" d="M95.6,35.5c0,0.5,0.2,1.1,0.7,1.4c0.4,0.3,0.9,0.4,1.4,0.4c1-0.1,1.6-1,1.5-1.8c0-0.4-0.3-0.8-0.6-1
				c-0.3-0.2-0.6-0.4-1-0.4c-0.4,0-0.8,0-1.2,0.2C96,34.5,95.7,35,95.6,35.5z M95.5,35.5c0-0.6,0.1-1.2,0.4-1.8
				c0.3-0.6,1-1.1,1.8-1.1c0.8,0,1.5,0.3,2,0.9c0.5,0.6,0.7,1.3,0.7,2c0,0.7-0.4,1.4-0.9,1.9c-0.5,0.5-1.2,0.7-1.9,0.7
				c-0.7,0-1.3-0.4-1.6-0.9C95.7,36.7,95.5,36.1,95.5,35.5z"/>
		</g>
	</g>
</g>
</svg>
