<?xml version="1.0" encoding="utf-8"?>
<!-- Generator: Adobe Illustrator 21.0.0, SVG Export Plug-In . SVG Version: 6.00 Build 0)  -->
<svg version="1.1" id="Layer_1" xmlns="http://www.w3.org/2000/svg" xmlns:xlink="http://www.w3.org/1999/xlink" x="0px" y="0px"
	 viewBox="0 0 168.1 168" style="enable-background:new 0 0 168.1 168;" xml:space="preserve">
<style type="text/css">
	.st0{fill:none;stroke:#8E94AA;stroke-width:1.5;stroke-linecap:round;stroke-linejoin:round;stroke-miterlimit:10;}
	.st1{fill:#8E94AA;}
	.st2{fill:#FFEFD7;}
	.st3{fill:none;stroke:#8E94AA;stroke-width:2;stroke-linecap:round;stroke-linejoin:round;stroke-miterlimit:10;}
	.st4{fill:#B7DFB9;}
	.st5{fill:#FFFFFF;}
	.st6{fill:#99C6FF;}
	.st7{fill:#FFFFFF;stroke:#8E94AA;stroke-width:2;stroke-linecap:round;stroke-linejoin:round;stroke-miterlimit:10;}
</style>
<g>
	<g>
		<rect x="0.8" y="0.8" class="st0" width="80.8" height="161.6"/>
		<g>
			<path class="st1" d="M81.6,10L0.8,10.5c-0.3,0-0.6-0.2-0.6-0.5v0l0,0l0-9.2c0-0.3,0.3-0.6,0.6-0.6l0,0C7.5,0.1,14.2,0,21,0
				C27.7,0,34.4,0,41.2,0c6.7,0,13.5,0.1,20.2,0.2c6.7,0.1,13.5,0.2,20.2,0.3l0,0c0.2,0,0.3,0.1,0.3,0.3l0,0L81.6,10z M81.5,9.9
				l-0.2-9.1l0.3,0.3c-6.7,0.1-13.5,0.2-20.2,0.3c-6.7,0-13.5,0.2-20.2,0.2c-6.7,0-13.5,0.1-20.2,0c-6.7,0-13.5-0.1-20.2-0.2
				l0.6-0.6l0,9.2L0.8,9.4L81.5,9.9z"/>
		</g>
		<g>
			<rect x="0.8" y="153.2" class="st2" width="80.8" height="9.2"/>
			<path class="st1" d="M81.6,162.5L0.8,163c-0.3,0-0.6-0.2-0.6-0.5v0l0,0l0-9.2c0-0.3,0.3-0.6,0.6-0.6l0,0
				c6.7-0.1,13.5-0.2,20.2-0.2c6.7-0.1,13.5,0,20.2,0c6.7,0,13.5,0.1,20.2,0.2c6.7,0.1,13.5,0.2,20.2,0.3l0,0c0.2,0,0.3,0.1,0.3,0.3
				l0,0L81.6,162.5z M81.5,162.4l-0.2-9.1l0.3,0.3c-6.7,0.1-13.5,0.2-20.2,0.3c-6.7,0-13.5,0.2-20.2,0.2c-6.7,0-13.5,0.1-20.2,0
				c-6.7,0-13.5-0.1-20.2-0.2l0.6-0.6l0,9.2l-0.6-0.6L81.5,162.4z"/>
		</g>
		<g>
			<path class="st1" d="M78.1,53.5L4.2,53.8c-0.2,0-0.3-0.1-0.3-0.3v0L3.8,10c0-0.2,0.2-0.4,0.4-0.4l18.5-0.1l18.5,0l18.5,0
				l18.5,0.1c0.2,0,0.4,0.2,0.4,0.4l0,0l-0.2,21.9L78.1,53.5z M78,53.4l-0.2-21.8L77.7,10l0.4,0.4l-18.5,0.1l-18.5,0l-18.5,0
				L4.2,10.4L4.6,10L4.5,53.5l-0.3-0.3L78,53.4z"/>
		</g>
		<line class="st3" x1="30.4" y1="42.3" x2="51.9" y2="42.3"/>
		<g>
			<path class="st1" d="M49.9,25.4l-17.6,0.4l0.4-0.4l0.2,10.1l-0.6-0.6c1.5-0.1,2.9-0.1,4.4-0.2c1.5,0,2.9-0.1,4.4,0l4.4,0
				c1.5,0,2.9,0.1,4.4,0.1l-0.6,0.6c0-1.6,0.1-3.2,0.2-4.9L49.9,25.4z M50,25.3c0.1,1.6,0.2,3.2,0.3,5c0.1,1.7,0.2,3.5,0.2,5.2
				c0,0.3-0.3,0.6-0.6,0.6l0,0c-1.5,0-2.9,0.1-4.4,0.1l-4.4,0c-1.5,0-2.9,0-4.4,0c-1.5,0-2.9-0.1-4.4-0.2l0,0
				c-0.3,0-0.6-0.3-0.6-0.6l0.2-10.1l0,0c0-0.2,0.2-0.4,0.4-0.4l0,0L50,25.3z"/>
		</g>
		<g>
			<path class="st1" d="M78.1,5.4c0,0.5-0.2,1.1-0.6,1.5c-0.4,0.4-0.9,0.7-1.5,0.8c-1.2,0.1-2.4-1-2.4-2.3c0-0.6,0.2-1.3,0.6-1.8
				c0.4-0.5,1.1-0.8,1.8-0.7c0.7,0,1.3,0.4,1.6,0.9C78,4.3,78.1,4.8,78.1,5.4z M78,5.4c0-0.5-0.3-1-0.7-1.2
				c-0.4-0.3-0.9-0.3-1.2-0.3c-0.8,0-1.6,0.6-1.6,1.5c-0.1,0.9,0.7,1.7,1.6,1.8c0.5,0,1-0.1,1.4-0.4C77.8,6.4,78,5.9,78,5.4z"/>
		</g>
		<line class="st3" x1="30.4" y1="89.3" x2="51.9" y2="89.3"/>
		<g>
			<path class="st1" d="M49.9,72.4l-17.6,0.4l0.4-0.4l0.2,10.1l-0.6-0.6c1.5-0.1,2.9-0.1,4.4-0.2c1.5,0,2.9-0.1,4.4,0l4.4,0
				c1.5,0,2.9,0.1,4.4,0.1l-0.6,0.6c0-1.6,0.1-3.2,0.2-4.9L49.9,72.4z M50,72.3c0.1,1.6,0.2,3.2,0.3,5c0.1,1.7,0.2,3.5,0.2,5.2
				c0,0.3-0.3,0.6-0.6,0.6l0,0c-1.5,0-2.9,0.1-4.4,0.1l-4.4,0c-1.5,0-2.9,0-4.4,0c-1.5,0-2.9-0.1-4.4-0.2l0,0
				c-0.3,0-0.6-0.3-0.6-0.6l0.2-10.1l0,0c0-0.2,0.2-0.4,0.4-0.4l0,0L50,72.3z"/>
		</g>
		<g>
			<path class="st1" d="M4.2,166.9c1.2-0.2,2.4-0.3,3.6-0.4c1.2-0.1,2.4-0.2,3.6-0.3c1.2-0.1,2.4-0.3,3.6-0.2
				c1.2,0.1,2.4,0.3,3.6,0.9c0.1,0,0.1,0.1,0.1,0.1c0,0,0,0-0.1,0.1c-1.2,0.6-2.4,0.8-3.6,0.9c-1.2,0.1-2.4-0.1-3.6-0.2
				c-1.2-0.1-2.4-0.2-3.6-0.3c-1.2-0.1-2.4-0.2-3.6-0.4C4.2,167.1,4.1,167,4.2,166.9C4.2,166.9,4.2,166.9,4.2,166.9z"/>
		</g>
		<g>
			<path class="st1" d="M78.1,167.1c-1.2,0.2-2.4,0.3-3.6,0.4c-1.2,0.1-2.4,0.2-3.6,0.3c-1.2,0.1-2.4,0.3-3.6,0.2
				c-1.2-0.1-2.4-0.3-3.6-0.9c-0.1,0-0.1-0.1-0.1-0.1c0,0,0,0,0.1-0.1c1.2-0.6,2.4-0.8,3.6-0.9c1.2-0.1,2.4,0.1,3.6,0.2
				c1.2,0.1,2.4,0.2,3.6,0.3c1.2,0.1,2.4,0.2,3.6,0.4C78.1,166.9,78.2,166.9,78.1,167.1C78.1,167,78.1,167.1,78.1,167.1z"/>
		</g>
		<g>
			<path class="st1" d="M78.1,103.3l-73.9,0.2c-0.2,0-0.3-0.1-0.3-0.3v0L3.8,56.7c0-0.2,0.2-0.4,0.4-0.4l18.5-0.1l18.5,0l18.5,0
				c6.2,0,12.3,0.1,18.5,0.1c0.2,0,0.4,0.2,0.4,0.4l0,0l-0.2,23.4L78.1,103.3z M78,103.2l-0.2-23.4l-0.2-23.2l0.4,0.4
				c-6.2,0-12.3,0.1-18.5,0.1l-18.5,0l-18.5,0L4.2,57.1l0.4-0.4l-0.1,46.6L4.2,103L78,103.2z"/>
		</g>
		<g>
			<g>
				<polygon class="st4" points="27.3,93.7 9.3,93.7 9.3,121.1 32.8,121.1 32.8,99.2 				"/>
			</g>
			<g>
				<g>
					<line class="st5" x1="14.2" y1="101" x2="27.7" y2="101"/>
					<path class="st5" d="M14.2,100.9c2.3-0.1,4.5-0.2,6.8-0.3c1.1,0,2.3-0.1,3.4-0.1c1.1,0.1,2.3,0.1,3.4,0.3v0.1
						c-1.1,0.2-2.3,0.3-3.4,0.3c-1.1,0-2.3,0-3.4-0.1C18.7,101.2,16.5,101.1,14.2,100.9L14.2,100.9z"/>
				</g>
				<g>
					<path class="st5" d="M14.2,103.8c2.3-0.1,4.5-0.2,6.8-0.3c1.1,0,2.3-0.1,3.4-0.1c1.1,0.1,2.3,0.1,3.4,0.3v0.1
						c-1.1,0.2-2.3,0.3-3.4,0.3c-1.1,0-2.3,0-3.4-0.1C18.7,104.1,16.5,104,14.2,103.8L14.2,103.8z"/>
				</g>
				<g>
					<path class="st5" d="M14.2,106.7c1.1-0.1,2.3-0.2,3.4-0.3c0.6,0,1.1-0.1,1.7-0.1c0.6,0.1,1.1,0.1,1.7,0.3v0.1
						c-0.6,0.2-1.1,0.3-1.7,0.3c-0.6,0-1.1,0-1.7-0.1C16.5,107,15.3,106.9,14.2,106.7L14.2,106.7z"/>
				</g>
				<g>
					<path class="st5" d="M14.2,109.6c2.3-0.1,4.5-0.2,6.8-0.3c1.1,0,2.3-0.1,3.4-0.1c1.1,0.1,2.3,0.1,3.4,0.3v0.1
						c-1.1,0.2-2.3,0.3-3.4,0.3c-1.1,0-2.3,0-3.4-0.1C18.7,109.9,16.5,109.8,14.2,109.6L14.2,109.6z"/>
				</g>
			</g>
		</g>
		<rect x="86.5" y="47.5" class="st0" width="80.8" height="114.9"/>
		<g>
			<path class="st1" d="M167.4,56.7l-80.9,0.5c-0.3,0-0.6-0.2-0.6-0.5v0l0,0l0-9.2c0-0.3,0.3-0.6,0.6-0.6l0,0
				c6.7-0.1,13.5-0.2,20.2-0.2c6.7-0.1,13.5,0,20.2,0c6.7,0,13.5,0.1,20.2,0.2c6.7,0.1,13.5,0.2,20.2,0.3l0,0c0.2,0,0.3,0.1,0.3,0.3
				l0,0L167.4,56.7z M167.3,56.6l-0.2-9.1l0.3,0.3c-6.7,0.1-13.5,0.2-20.2,0.3c-6.7,0-13.5,0.2-20.2,0.2c-6.7,0-13.5,0.1-20.2,0
				c-6.7,0-13.5-0.1-20.2-0.2l0.6-0.6l0,9.2l-0.6-0.6L167.3,56.6z"/>
		</g>
		<g>
			<rect x="86.5" y="153.2" class="st2" width="80.8" height="9.2"/>
			<path class="st1" d="M167.4,162.5L86.5,163c-0.3,0-0.6-0.2-0.6-0.5v0l0,0l0-9.2c0-0.3,0.3-0.6,0.6-0.6l0,0
				c6.7-0.1,13.5-0.2,20.2-0.2c6.7-0.1,13.5,0,20.2,0c6.7,0,13.5,0.1,20.2,0.2c6.7,0.1,13.5,0.2,20.2,0.3l0,0c0.2,0,0.3,0.1,0.3,0.3
				l0,0L167.4,162.5z M167.3,162.4l-0.2-9.1l0.3,0.3c-6.7,0.1-13.5,0.2-20.2,0.3c-6.7,0-13.5,0.2-20.2,0.2c-6.7,0-13.5,0.1-20.2,0
				c-6.7,0-13.5-0.1-20.2-0.2l0.6-0.6l0,9.2l-0.6-0.6L167.3,162.4z"/>
		</g>
		<g>
			<path class="st1" d="M163.9,52.1c0,0.5-0.2,1.1-0.6,1.5c-0.4,0.4-0.9,0.7-1.5,0.8c-1.2,0.1-2.4-1-2.4-2.3c0-0.6,0.2-1.3,0.6-1.8
				c0.4-0.5,1.1-0.8,1.8-0.7c0.7,0,1.3,0.4,1.6,0.9C163.8,51,163.9,51.5,163.9,52.1z M163.8,52.1c0-0.5-0.3-1-0.7-1.2
				c-0.4-0.3-0.9-0.3-1.2-0.3c-0.8,0-1.6,0.6-1.6,1.5c-0.1,0.9,0.7,1.7,1.6,1.8c0.5,0,1-0.1,1.4-0.4
				C163.6,53.1,163.8,52.6,163.8,52.1z"/>
		</g>
		<g>
			<path class="st1" d="M90,166.9c1.2-0.2,2.4-0.3,3.6-0.4c1.2-0.1,2.4-0.2,3.6-0.3c1.2-0.1,2.4-0.3,3.6-0.2
				c1.2,0.1,2.4,0.3,3.6,0.9c0.1,0,0.1,0.1,0.1,0.1c0,0,0,0-0.1,0.1c-1.2,0.6-2.4,0.8-3.6,0.9c-1.2,0.1-2.4-0.1-3.6-0.2
				c-1.2-0.1-2.4-0.2-3.6-0.3c-1.2-0.1-2.4-0.2-3.6-0.4C90,167.1,89.9,167,90,166.9C89.9,166.9,90,166.9,90,166.9z"/>
		</g>
		<g>
			<path class="st1" d="M163.8,167.1c-1.2,0.2-2.4,0.3-3.6,0.4c-1.2,0.1-2.4,0.2-3.6,0.3c-1.2,0.1-2.4,0.3-3.6,0.2
				c-1.2-0.1-2.4-0.3-3.6-0.9c-0.1,0-0.1-0.1-0.1-0.1c0,0,0,0,0.1-0.1c1.2-0.6,2.4-0.8,3.6-0.9c1.2-0.1,2.4,0.1,3.6,0.2
				c1.2,0.1,2.4,0.2,3.6,0.3c1.2,0.1,2.4,0.2,3.6,0.4C163.9,166.9,163.9,166.9,163.8,167.1C163.9,167,163.9,167.1,163.8,167.1z"/>
		</g>
		<g>
			<g>
				<polygon class="st6" points="151.6,43.5 133.6,43.5 133.6,70.9 157,70.9 157,49 				"/>
			</g>
			<g>
				<g>
					<line class="st5" x1="138.5" y1="50.8" x2="152" y2="50.8"/>
					<path class="st5" d="M138.5,50.7c2.3-0.1,4.5-0.2,6.8-0.3c1.1,0,2.3-0.1,3.4-0.1c1.1,0.1,2.3,0.1,3.4,0.3v0.1
						c-1.1,0.2-2.3,0.3-3.4,0.3c-1.1,0-2.3,0-3.4-0.1C143,51,140.7,50.9,138.5,50.7L138.5,50.7z"/>
				</g>
				<g>
					<path class="st5" d="M138.5,53.6c2.3-0.1,4.5-0.2,6.8-0.3c1.1,0,2.3-0.1,3.4-0.1c1.1,0.1,2.3,0.1,3.4,0.3v0.1
						c-1.1,0.2-2.3,0.3-3.4,0.3c-1.1,0-2.3,0-3.4-0.1C143,53.9,140.7,53.8,138.5,53.6L138.5,53.6z"/>
				</g>
				<g>
					<path class="st5" d="M138.5,56.5c1.1-0.1,2.3-0.2,3.4-0.3c0.6,0,1.1-0.1,1.7-0.1c0.6,0.1,1.1,0.1,1.7,0.3v0.1
						c-0.6,0.2-1.1,0.3-1.7,0.3c-0.6,0-1.1,0-1.7-0.1C140.7,56.8,139.6,56.7,138.5,56.5L138.5,56.5z"/>
				</g>
				<g>
					<path class="st5" d="M138.5,59.4c2.3-0.1,4.5-0.2,6.8-0.3c1.1,0,2.3-0.1,3.4-0.1c1.1,0.1,2.3,0.1,3.4,0.3v0.1
						c-1.1,0.2-2.3,0.3-3.4,0.3c-1.1,0-2.3,0-3.4-0.1C143,59.7,140.7,59.6,138.5,59.4L138.5,59.4z"/>
				</g>
			</g>
		</g>
		<g>
			<rect x="90" y="106.7" class="st5" width="73.8" height="46.6"/>
			<path class="st1" d="M163.9,153.3L90,153.5c-0.2,0-0.3-0.1-0.3-0.3l0,0l-0.1-46.6c0-0.2,0.2-0.4,0.4-0.4l18.5-0.1l18.5,0l18.5,0
				c6.2,0,12.3,0.1,18.5,0.1c0.2,0,0.4,0.2,0.4,0.4l0,0l-0.2,23.4L163.9,153.3z M163.8,153.2l-0.2-23.4l-0.2-23.2l0.4,0.4
				c-6.2,0-12.3,0.1-18.5,0.1l-18.5,0l-18.5,0L90,107.1l0.4-0.4l-0.1,46.6L90,153L163.8,153.2z"/>
		</g>
		<line class="st7" x1="116.2" y1="138.1" x2="137.7" y2="138.1"/>
		<g>
			<rect x="118.1" y="121.1" class="st5" width="17.7" height="10.1"/>
			<path class="st1" d="M135.7,121.1l-17.6,0.4l0.4-0.4l0.2,10.1l-0.6-0.6c1.5-0.1,2.9-0.1,4.4-0.2c1.5,0,2.9-0.1,4.4,0l4.4,0
				c1.5,0,2.9,0.1,4.4,0.1l-0.6,0.6c0-1.6,0.1-3.2,0.2-4.9L135.7,121.1z M135.8,121c0.1,1.6,0.2,3.2,0.3,5c0.1,1.7,0.2,3.5,0.2,5.2
				c0,0.3-0.3,0.6-0.6,0.6l0,0c-1.5,0-2.9,0.1-4.4,0.1l-4.4,0c-1.5,0-2.9,0-4.4,0c-1.5,0-2.9-0.1-4.4-0.2l0,0
				c-0.3,0-0.6-0.3-0.6-0.6l0.2-10.1l0,0c0-0.2,0.2-0.4,0.4-0.4l0,0L135.8,121z"/>
		</g>
		<g>
			<rect x="90" y="56.7" class="st5" width="73.8" height="46.6"/>
			<path class="st1" d="M163.9,103.3L90,103.5c-0.2,0-0.3-0.1-0.3-0.3l0,0l-0.1-46.6c0-0.2,0.2-0.4,0.4-0.4l18.5-0.1l18.5,0l18.5,0
				c6.2,0,12.3,0.1,18.5,0.1c0.2,0,0.4,0.2,0.4,0.4l0,0l-0.2,23.4L163.9,103.3z M163.8,103.2l-0.2-23.4l-0.2-23.2l0.4,0.4
				c-6.2,0-12.3,0.1-18.5,0.1l-18.5,0l-18.5,0L90,57.1l0.4-0.4l-0.1,46.6L90,103L163.8,103.2z"/>
		</g>
		<line class="st3" x1="116.2" y1="89.3" x2="137.7" y2="89.3"/>
		<g>
			<path class="st1" d="M135.7,72.4l-17.6,0.4l0.4-0.4l0.2,10.1l-0.6-0.6c1.5-0.1,2.9-0.1,4.4-0.2c1.5,0,2.9-0.1,4.4,0l4.4,0
				c1.5,0,2.9,0.1,4.4,0.1l-0.6,0.6c0-1.6,0.1-3.2,0.2-4.9L135.7,72.4z M135.8,72.3c0.1,1.6,0.2,3.2,0.3,5c0.1,1.7,0.2,3.5,0.2,5.2
				c0,0.3-0.3,0.6-0.6,0.6l0,0c-1.5,0-2.9,0.1-4.4,0.1l-4.4,0c-1.5,0-2.9,0-4.4,0c-1.5,0-2.9-0.1-4.4-0.2l0,0
				c-0.3,0-0.6-0.3-0.6-0.6l0.2-10.1l0,0c0-0.2,0.2-0.4,0.4-0.4l0,0L135.8,72.3z"/>
		</g>
		<g>
			<rect x="4.2" y="106.7" class="st5" width="73.8" height="46.6"/>
			<path class="st1" d="M78.1,153.3l-73.9,0.2c-0.2,0-0.3-0.1-0.3-0.3v0l-0.1-46.6c0-0.2,0.2-0.4,0.4-0.4l18.5-0.1l18.5,0l18.5,0
				c6.2,0,12.3,0.1,18.5,0.1c0.2,0,0.4,0.2,0.4,0.4l0,0l-0.2,23.4L78.1,153.3z M78,153.2l-0.2-23.4l-0.2-23.2l0.4,0.4
				c-6.2,0-12.3,0.1-18.5,0.1l-18.5,0l-18.5,0l-18.5-0.1l0.4-0.4l-0.1,46.6L4.2,153L78,153.2z"/>
		</g>
		<line class="st7" x1="30.4" y1="138.1" x2="51.9" y2="138.1"/>
		<g>
			<rect x="32.3" y="121.1" class="st5" width="17.7" height="10.1"/>
			<path class="st1" d="M49.9,121.1l-17.6,0.4l0.4-0.4l0.2,10.1l-0.6-0.6c1.5-0.1,2.9-0.1,4.4-0.2c1.5,0,2.9-0.1,4.4,0l4.4,0
				c1.5,0,2.9,0.1,4.4,0.1l-0.6,0.6c0-1.6,0.1-3.2,0.2-4.9L49.9,121.1z M50,121c0.1,1.6,0.2,3.2,0.3,5c0.1,1.7,0.2,3.5,0.2,5.2
				c0,0.3-0.3,0.6-0.6,0.6l0,0c-1.5,0-2.9,0.1-4.4,0.1l-4.4,0c-1.5,0-2.9,0-4.4,0c-1.5,0-2.9-0.1-4.4-0.2l0,0
				c-0.3,0-0.6-0.3-0.6-0.6l0.2-10.1l0,0c0-0.2,0.2-0.4,0.4-0.4l0,0L50,121z"/>
		</g>
	</g>
	<g>
		<g>
			<g id="XMLID_23_">
				<path class="st1" d="M102.6,23.5c0.1,0.9,0.3,1.9,0.4,2.8c0,0.5,0.2,0.9,0.1,1.4c-0.1,0.5-0.2,0.9-0.4,1.4c0,0-0.1,0-0.1,0
					c0,0,0,0,0,0c-0.3-0.5-0.4-0.9-0.5-1.4c-0.1-0.5,0.1-0.9,0.1-1.4c0.1-0.9,0.2-1.9,0.4-2.8C102.5,23.5,102.5,23.4,102.6,23.5
					C102.6,23.4,102.6,23.5,102.6,23.5z"/>
			</g>
			<g id="XMLID_21_">
				<path class="st1" d="M99.7,26.3c0.9-0.1,1.9-0.3,2.8-0.4c0.5,0,0.9-0.2,1.4-0.1c0.5,0.1,0.9,0.2,1.4,0.5c0,0,0,0.1,0,0.1
					c0,0,0,0,0,0c-0.5,0.3-0.9,0.4-1.4,0.4c-0.5,0.1-0.9-0.1-1.4-0.1c-0.9-0.1-1.9-0.2-2.8-0.4C99.7,26.4,99.7,26.3,99.7,26.3
					C99.7,26.3,99.7,26.3,99.7,26.3z"/>
			</g>
		</g>
		<g id="XMLID_19_">
			<path class="st1" d="M91,22.1c0,0.4,0.2,0.7,0.4,0.9c0.3,0.2,0.6,0.3,0.9,0.2c0.6,0,1.1-0.6,1-1.2c-0.1-0.6-0.6-0.9-1-0.9
				c-0.2,0-0.5,0-0.8,0.1C91.2,21.4,91,21.7,91,22.1z M90.9,22.1c0-0.4,0-0.8,0.3-1.2c0.2-0.4,0.7-0.7,1.2-0.7c0.5,0,1,0.2,1.4,0.6
				c0.3,0.4,0.5,0.9,0.5,1.4c0,1-0.9,1.8-1.8,1.7c-0.4,0-0.9-0.3-1.1-0.6C91,22.8,90.9,22.4,90.9,22.1z"/>
		</g>
		<g id="XMLID_17_">
			<path class="st1" d="M95.4,35.3c0,0.6,0.2,1.1,0.7,1.4c0.4,0.3,0.9,0.5,1.4,0.5c1,0,1.8-1,1.7-1.9c0-1-0.9-1.6-1.7-1.6
				c-0.4,0-0.9,0-1.3,0.3C95.7,34.2,95.4,34.7,95.4,35.3z M95.3,35.3c0-0.6,0.1-1.2,0.5-1.7c0.4-0.5,1-0.9,1.7-0.9
				c0.7,0,1.4,0.3,1.9,0.8c0.5,0.5,0.7,1.2,0.7,1.9c0,1.4-1.3,2.5-2.5,2.4c-0.6,0-1.2-0.3-1.6-0.8C95.5,36.4,95.3,35.8,95.3,35.3z"
				/>
		</g>
	</g>
</g>
</svg>
