<?xml version="1.0" encoding="utf-8"?>
<!-- Generator: Adobe Illustrator 21.0.0, SVG Export Plug-In . SVG Version: 6.00 Build 0)  -->
<svg version="1.1" id="Layer_1" xmlns="http://www.w3.org/2000/svg" xmlns:xlink="http://www.w3.org/1999/xlink" x="0px" y="0px"
	 viewBox="0 0 168.6 168.3" style="enable-background:new 0 0 168.6 168.3;" xml:space="preserve">
<style type="text/css">
	.st0{fill:none;stroke:#8E94AA;stroke-width:2;stroke-linecap:round;stroke-linejoin:round;stroke-miterlimit:10;}
	.st1{fill:#FFFFFF;}
	.st2{fill:#8E94AA;}
	.st3{fill:#FFD69A;}
	.st4{fill:#99C6FF;}
	.st5{fill:#FFFFFF;stroke:#8E94AA;stroke-width:2;stroke-linejoin:round;stroke-miterlimit:10;}
	.st6{fill:#B7DFB9;}
</style>
<g>
	<rect x="24.3" y="1" class="st0" width="80.8" height="161.6"/>
	<g>
		<rect x="64.7" y="5.3" class="st1" width="36" height="148.1"/>
		<path class="st2" d="M100.8,153.5l-36.1,0.2c-0.1,0-0.3-0.1-0.3-0.3v0L63.9,5.3c0-0.4,0.4-0.8,0.8-0.8l0,0l18-0.1l18-0.1
			c0.6,0,1,0.5,1,1l0,0c0.1,12.4,0,24.8,0,37.2l-0.1,18.6l-0.1,18.6l-0.3,37L100.8,153.5z M100.7,153.4l-0.4-37.3l-0.3-37l-0.1-18.5
			l-0.1-18.4c0-12.3-0.1-24.6,0-36.8l1,1l-18-0.1l-18-0.1l0.8-0.8L65,153.4l-0.3-0.3L100.7,153.4z"/>
	</g>
	<g>
		<rect x="24.3" y="153.4" class="st3" width="80.8" height="9.2"/>
		<path class="st2" d="M105.2,162.7l-80.9,0.7c-0.4,0-0.7-0.3-0.7-0.7v0l0,0l-0.1-9.2c0-0.4,0.3-0.8,0.8-0.8l0,0
			c6.7-0.1,13.5-0.2,20.2-0.2c6.7-0.1,13.5,0,20.2,0c6.7,0,13.5,0.1,20.2,0.2c6.7,0.1,13.5,0.2,20.2,0.4l0,0c0.2,0,0.4,0.2,0.4,0.4
			l0,0L105.2,162.7z M105.1,162.5l-0.3-9.1l0.4,0.4c-6.7,0.2-13.5,0.3-20.2,0.4c-6.7,0.1-13.5,0.2-20.2,0.2c-6.7,0-13.5,0.1-20.2,0
			c-6.7,0-13.5-0.1-20.2-0.2l0.8-0.8l-0.1,9.2l-0.7-0.7L105.1,162.5z"/>
	</g>
	<g>
		<rect x="100.7" y="5.3" class="st1" width="36" height="148.1"/>
		<path class="st2" d="M136.8,153.5l-36.1,0.2c-0.1,0-0.3-0.1-0.3-0.3v0L99.9,5.3c0-0.4,0.4-0.8,0.8-0.8l0,0l18-0.1l18-0.1
			c0.6,0,1,0.5,1,1l0,0c0.1,12.4,0,24.8,0,37.2l-0.1,18.6l-0.1,18.6l-0.3,37L136.8,153.5z M136.7,153.4l-0.4-37.3L136,79l-0.1-18.5
			l-0.1-18.4c0-12.3-0.1-24.6,0-36.8l1,1l-18-0.1l-18-0.1l0.8-0.8L101,153.4l-0.3-0.3L136.7,153.4z"/>
	</g>
	<rect x="65.9" y="11.2" class="st4" width="4.3" height="16.1"/>
	<g>
		<g>
			<path class="st2" d="M71.4,9.7l-6.7,0.1l0.1-0.1l0.3,25.4l-0.4-0.4c2.2-0.1,4.5-0.1,6.7-0.1l-0.5,0.5c0-2.1,0-4.2,0-6.3
				c0-2.1,0-4.2,0.1-6.3C71.1,18.4,71.3,14.1,71.4,9.7z M71.5,9.7c0.2,4.1,0.3,8.3,0.4,12.6c0.1,2.1,0.1,4.3,0.1,6.4
				c0,2.1,0,4.3,0,6.4l0,0c0,0.3-0.2,0.5-0.5,0.5c-2.2,0-4.5,0-6.7-0.1l0,0c-0.2,0-0.4-0.2-0.4-0.4l0.3-25.4c0-0.1,0.1-0.1,0.1-0.1
				l0,0L71.5,9.7z"/>
		</g>
	</g>
	<g>
		<path class="st2" d="M65.9,12.8c0.7-0.1,1.4-0.2,2.2-0.3c0.4,0,0.7-0.1,1.1-0.1c0.4,0.1,0.7,0.1,1.1,0.3c0,0,0,0,0,0.1
			c0,0,0,0,0,0c-0.4,0.2-0.7,0.3-1.1,0.3c-0.4,0-0.7,0-1.1-0.1C67.4,13,66.7,12.9,65.9,12.8C65.9,12.8,65.9,12.8,65.9,12.8
			C65.9,12.8,65.9,12.8,65.9,12.8z"/>
	</g>
	<circle class="st4" cx="68.1" cy="29.2" r="0.8"/>
	<line class="st5" x1="64.7" y1="35.1" x2="100.7" y2="35.1"/>
	<line class="st5" x1="64.7" y1="64.9" x2="100.7" y2="64.9"/>
	<line class="st5" x1="64.7" y1="94.6" x2="100.7" y2="94.6"/>
	<line class="st5" x1="64.7" y1="124.4" x2="100.7" y2="124.4"/>
	<rect x="73.8" y="11.2" class="st4" width="4.3" height="16.1"/>
	<g>
		<g>
			<path class="st2" d="M79.3,9.7l-6.7,0.1l0.1-0.1L73,35.1l-0.4-0.4c2.2-0.1,4.5-0.1,6.7-0.1l-0.5,0.5c0-2.1,0-4.2,0-6.3
				c0-2.1,0-4.2,0.1-6.3C79,18.4,79.1,14.1,79.3,9.7z M79.3,9.7c0.2,4.1,0.3,8.3,0.4,12.6c0.1,2.1,0.1,4.3,0.1,6.4
				c0,2.1,0,4.3,0,6.4l0,0c0,0.3-0.2,0.5-0.5,0.5c-2.2,0-4.5,0-6.7-0.1l0,0c-0.2,0-0.4-0.2-0.4-0.4l0.3-25.4c0-0.1,0.1-0.1,0.1-0.1
				l0,0L79.3,9.7z"/>
		</g>
	</g>
	<g>
		<path class="st2" d="M73.8,12.8c0.7-0.1,1.4-0.2,2.2-0.3c0.4,0,0.7-0.1,1.1-0.1c0.4,0.1,0.7,0.1,1.1,0.3c0,0,0,0,0,0.1
			c0,0,0,0,0,0c-0.4,0.2-0.7,0.3-1.1,0.3c-0.4,0-0.7,0-1.1-0.1C75.2,13,74.5,12.9,73.8,12.8C73.8,12.8,73.7,12.8,73.8,12.8
			C73.7,12.8,73.8,12.8,73.8,12.8z"/>
	</g>
	<circle class="st4" cx="75.9" cy="29.2" r="0.8"/>
	<rect x="81.8" y="11.2" class="st4" width="4.3" height="16.1"/>
	<g>
		<g>
			<path class="st2" d="M87.3,9.7l-6.7,0.1l0.1-0.1L81,35.1l-0.4-0.4c2.2-0.1,4.5-0.1,6.7-0.1l-0.5,0.5c0-2.1,0-4.2,0-6.3
				c0-2.1,0-4.2,0.1-6.3C87,18.4,87.1,14.1,87.3,9.7z M87.3,9.7c0.2,4.1,0.3,8.3,0.4,12.6c0.1,2.1,0.1,4.3,0.1,6.4
				c0,2.1,0,4.3,0,6.4l0,0c0,0.3-0.2,0.5-0.5,0.5c-2.2,0-4.5,0-6.7-0.1l0,0c-0.2,0-0.4-0.2-0.4-0.4l0.3-25.4c0-0.1,0.1-0.1,0.1-0.1
				l0,0L87.3,9.7z"/>
		</g>
	</g>
	<g>
		<path class="st2" d="M81.8,12.8c0.7-0.1,1.4-0.2,2.2-0.3c0.4,0,0.7-0.1,1.1-0.1c0.4,0.1,0.7,0.1,1.1,0.3c0,0,0,0,0,0.1
			c0,0,0,0,0,0c-0.4,0.2-0.7,0.3-1.1,0.3c-0.4,0-0.7,0-1.1-0.1C83.2,13,82.5,12.9,81.8,12.8C81.8,12.8,81.8,12.8,81.8,12.8
			C81.8,12.8,81.8,12.8,81.8,12.8z"/>
	</g>
	<circle class="st4" cx="84" cy="29.2" r="0.8"/>
	<rect x="89.7" y="11.2" class="st4" width="4.3" height="16.1"/>
	<g>
		<g>
			<path class="st2" d="M95.2,9.7l-6.7,0.1l0.1-0.1L89,35.1l-0.4-0.4c2.2-0.1,4.5-0.1,6.7-0.1l-0.5,0.5c0-2.1,0-4.2,0-6.3
				c0-2.1,0-4.2,0.1-6.3C94.9,18.4,95.1,14.1,95.2,9.7z M95.3,9.7c0.2,4.1,0.3,8.3,0.4,12.6c0.1,2.1,0.1,4.3,0.1,6.4
				c0,2.1,0,4.3,0,6.4l0,0c0,0.3-0.2,0.5-0.5,0.5c-2.2,0-4.5,0-6.7-0.1l0,0c-0.2,0-0.4-0.2-0.4-0.4l0.3-25.4c0-0.1,0.1-0.1,0.1-0.1
				l0,0L95.3,9.7z"/>
		</g>
	</g>
	<g>
		<path class="st2" d="M89.7,12.8c0.7-0.1,1.4-0.2,2.2-0.3c0.4,0,0.7-0.1,1.1-0.1c0.4,0.1,0.7,0.1,1.1,0.3c0,0,0,0,0,0.1
			c0,0,0,0,0,0c-0.4,0.2-0.7,0.3-1.1,0.3c-0.4,0-0.7,0-1.1-0.1C91.2,13,90.5,12.9,89.7,12.8C89.7,12.8,89.7,12.8,89.7,12.8
			C89.7,12.8,89.7,12.8,89.7,12.8z"/>
	</g>
	<circle class="st4" cx="91.9" cy="29.2" r="0.8"/>
	<rect x="68.7" y="41" class="st6" width="4.3" height="16.1"/>
	<g>
		<g>
			<path class="st2" d="M74.1,39.5l-6.7,0.1l0.1-0.1l0.3,25.4l-0.4-0.4c2.2-0.1,4.5-0.1,6.7-0.1l-0.5,0.5c0-2.1,0-4.2,0-6.3
				c0-2.1,0-4.2,0.1-6.3C73.8,48.1,74,43.9,74.1,39.5z M74.2,39.4c0.2,4.1,0.3,8.3,0.4,12.6c0.1,2.1,0.1,4.3,0.1,6.4
				c0,2.1,0,4.3,0,6.4l0,0c0,0.3-0.2,0.5-0.5,0.5c-2.2,0-4.5,0-6.7-0.1l0,0c-0.2,0-0.4-0.2-0.4-0.4l0.3-25.4c0-0.1,0.1-0.1,0.1-0.1
				l0,0L74.2,39.4z"/>
		</g>
	</g>
	<g>
		<path class="st2" d="M68.7,42.5c0.7-0.1,1.4-0.2,2.2-0.3c0.4,0,0.7-0.1,1.1-0.1c0.4,0.1,0.7,0.1,1.1,0.3c0,0,0,0,0,0.1
			c0,0,0,0,0,0c-0.4,0.2-0.7,0.3-1.1,0.3c-0.4,0-0.7,0-1.1-0.1C70.1,42.8,69.4,42.7,68.7,42.5C68.6,42.6,68.6,42.6,68.7,42.5
			C68.6,42.5,68.7,42.5,68.7,42.5z"/>
	</g>
	<circle class="st6" cx="70.8" cy="59" r="0.8"/>
	<rect x="76.5" y="41" class="st6" width="4.3" height="16.1"/>
	<g>
		<g>
			<path class="st2" d="M82,39.5l-6.7,0.1l0.1-0.1l0.3,25.4l-0.4-0.4c2.2-0.1,4.5-0.1,6.7-0.1l-0.5,0.5c0-2.1,0-4.2,0-6.3
				c0-2.1,0-4.2,0.1-6.3C81.7,48.1,81.8,43.9,82,39.5z M82,39.4c0.2,4.1,0.3,8.3,0.4,12.6c0.1,2.1,0.1,4.3,0.1,6.4
				c0,2.1,0,4.3,0,6.4l0,0c0,0.3-0.2,0.5-0.5,0.5c-2.2,0-4.5,0-6.7-0.1l0,0c-0.2,0-0.4-0.2-0.4-0.4l0.3-25.4c0-0.1,0.1-0.1,0.1-0.1
				l0,0L82,39.4z"/>
		</g>
	</g>
	<g>
		<path class="st2" d="M76.5,42.5c0.7-0.1,1.4-0.2,2.2-0.3c0.4,0,0.7-0.1,1.1-0.1c0.4,0.1,0.7,0.1,1.1,0.3c0,0,0,0,0,0.1
			c0,0,0,0,0,0c-0.4,0.2-0.7,0.3-1.1,0.3c-0.4,0-0.7,0-1.1-0.1C77.9,42.8,77.2,42.7,76.5,42.5C76.5,42.6,76.5,42.6,76.5,42.5
			C76.5,42.5,76.5,42.5,76.5,42.5z"/>
	</g>
	<circle class="st6" cx="78.7" cy="59" r="0.8"/>
	<rect x="84.5" y="41" class="st6" width="4.3" height="16.1"/>
	<g>
		<g>
			<path class="st2" d="M90,39.5l-6.7,0.1l0.1-0.1l0.3,25.4l-0.4-0.4c2.2-0.1,4.5-0.1,6.7-0.1l-0.5,0.5c0-2.1,0-4.2,0-6.3
				c0-2.1,0-4.2,0.1-6.3C89.7,48.1,89.8,43.9,90,39.5z M90.1,39.4c0.2,4.1,0.3,8.3,0.4,12.6c0.1,2.1,0.1,4.3,0.1,6.4
				c0,2.1,0,4.3,0,6.4l0,0c0,0.3-0.2,0.5-0.5,0.5c-2.2,0-4.5,0-6.7-0.1l0,0c-0.2,0-0.4-0.2-0.4-0.4l0.3-25.4c0-0.1,0.1-0.1,0.1-0.1
				l0,0L90.1,39.4z"/>
		</g>
	</g>
	<g>
		<path class="st2" d="M84.5,42.5c0.7-0.1,1.4-0.2,2.2-0.3c0.4,0,0.7-0.1,1.1-0.1c0.4,0.1,0.7,0.1,1.1,0.3c0,0,0,0,0,0.1
			c0,0,0,0,0,0c-0.4,0.2-0.7,0.3-1.1,0.3c-0.4,0-0.7,0-1.1-0.1C86,42.8,85.2,42.7,84.5,42.5C84.5,42.6,84.5,42.6,84.5,42.5
			C84.5,42.5,84.5,42.5,84.5,42.5z"/>
	</g>
	<circle class="st6" cx="86.7" cy="59" r="0.8"/>
	<rect x="92.5" y="41" class="st6" width="4.3" height="16.1"/>
	<g>
		<g>
			<path class="st2" d="M97.9,39.5l-6.7,0.1l0.1-0.1l0.3,25.4l-0.4-0.4c2.2-0.1,4.5-0.1,6.7-0.1l-0.5,0.5c0-2.1,0-4.2,0-6.3
				c0-2.1,0-4.2,0.1-6.3C97.6,48.1,97.8,43.9,97.9,39.5z M98,39.4c0.2,4.1,0.3,8.3,0.4,12.6c0.1,2.1,0.1,4.3,0.1,6.4
				c0,2.1,0,4.3,0,6.4l0,0c0,0.3-0.2,0.5-0.5,0.5c-2.2,0-4.5,0-6.7-0.1l0,0c-0.2,0-0.4-0.2-0.4-0.4l0.3-25.4c0-0.1,0.1-0.1,0.1-0.1
				l0,0L98,39.4z"/>
		</g>
	</g>
	<g>
		<path class="st2" d="M92.5,42.5c0.7-0.1,1.4-0.2,2.2-0.3c0.4,0,0.7-0.1,1.1-0.1c0.4,0.1,0.7,0.1,1.1,0.3c0,0,0,0,0,0.1
			c0,0,0,0,0,0c-0.4,0.2-0.7,0.3-1.1,0.3c-0.4,0-0.7,0-1.1-0.1C93.9,42.8,93.2,42.7,92.5,42.5C92.4,42.6,92.4,42.6,92.5,42.5
			C92.4,42.5,92.4,42.5,92.5,42.5z"/>
	</g>
	<circle class="st6" cx="94.6" cy="59" r="0.8"/>
	<g>
		<path class="st2" d="M0,167.2c6.7-0.2,13.4-0.3,20.1-0.5l20.1-0.3c13.4-0.2,26.8-0.1,40.3-0.2c13.4,0.1,26.8,0.1,40.3,0.2
			l20.1,0.3c6.7,0.2,13.4,0.3,20.1,0.5c-6.7,0.2-13.4,0.3-20.1,0.5l-20.1,0.3c-13.4,0.2-26.8,0.2-40.3,0.2
			c-13.4-0.1-26.8-0.1-40.3-0.2l-20.1-0.3C13.4,167.5,6.7,167.4,0,167.2z"/>
	</g>
	<g>
		<g>
			<g id="XMLID_39_">
				<path class="st2" d="M149.5,146c0.2,0.9,0.4,1.9,0.5,2.8c0.1,0.5,0.3,0.9,0.2,1.4c-0.1,0.5-0.3,0.9-0.7,1.4c0,0-0.1,0-0.1,0
					c0,0,0,0,0,0c-0.4-0.5-0.6-0.9-0.7-1.4c-0.1-0.5,0.1-0.9,0.1-1.4c0.1-0.9,0.3-1.9,0.5-2.8C149.4,146,149.4,145.9,149.5,146
					C149.5,145.9,149.5,146,149.5,146z"/>
			</g>
			<g id="XMLID_37_">
				<path class="st2" d="M152.3,148.9c-0.9,0.2-1.9,0.4-2.8,0.5c-0.5,0.1-0.9,0.3-1.4,0.1c-0.5-0.1-0.9-0.3-1.4-0.7c0,0,0-0.1,0-0.1
					c0,0,0,0,0,0c0.5-0.4,0.9-0.6,1.4-0.7c0.5-0.1,0.9,0.1,1.4,0.2c0.9,0.1,1.9,0.3,2.8,0.5C152.3,148.8,152.4,148.8,152.3,148.9
					C152.3,148.9,152.3,148.9,152.3,148.9z"/>
			</g>
		</g>
		<g id="XMLID_35_">
			<path class="st2" d="M161.2,144.6c0,0.4-0.1,0.8-0.4,1.1c-0.2,0.4-0.7,0.6-1.1,0.7c-1,0.1-2-0.7-2-1.8c0-0.5,0.1-1.1,0.5-1.5
				c0.4-0.4,1-0.7,1.5-0.6c0.6,0,1.1,0.4,1.3,0.9C161.2,143.7,161.2,144.2,161.2,144.6z M161,144.6c0-0.4-0.3-0.7-0.6-0.7
				c-0.3-0.1-0.6,0-0.7,0c-0.2,0-0.3,0.1-0.5,0.2c-0.2,0.1-0.3,0.3-0.3,0.5c-0.1,0.4,0.3,1,0.8,1.1c0.3,0,0.6,0,0.9-0.2
				C160.9,145.3,161.1,144.9,161,144.6z"/>
		</g>
		<g id="XMLID_26_">
			<path class="st2" d="M156.8,157.8c0,0.6-0.2,1.1-0.6,1.6c-0.4,0.5-1,0.9-1.6,0.9c-0.7,0-1.3-0.2-1.9-0.7
				c-0.5-0.5-0.8-1.1-0.9-1.9c0-0.7,0.2-1.5,0.7-2c0.5-0.6,1.3-0.9,2-0.9c0.8,0,1.5,0.5,1.8,1.1
				C156.7,156.6,156.8,157.2,156.8,157.8z M156.6,157.8c0-0.5-0.4-1-0.8-1.2c-0.4-0.2-0.9-0.2-1.2-0.2c-0.4,0-0.7,0.2-1,0.4
				c-0.3,0.2-0.5,0.6-0.6,1c-0.1,0.8,0.6,1.7,1.5,1.8c0.5,0,1-0.1,1.4-0.4C156.4,158.9,156.7,158.3,156.6,157.8z"/>
		</g>
	</g>
	<rect x="28.7" y="5.3" class="st0" width="36" height="148.1"/>
	<g>
		<path class="st2" d="M54.2,79.5l5.7-0.4l0.4,0l0,0.5c0.1,2.6,0.3,5.2,0.4,7.8l0,0.7l-0.8,0.1c-1.9,0.3-3.8,0.3-5.7,0.2l-1.1,0l0-1
			C53.3,84.5,53.7,81.6,54.2,79.5z M54.3,79.6c0.5,3,0.9,5.4,1,7.7l-1-1c1.9-0.1,3.8,0,5.7,0.2l-0.8,0.8c0.1-2.6,0.2-5.2,0.4-7.8
			l0.4,0.4L54.3,79.6z"/>
	</g>
</g>
</svg>
