<?xml version="1.0" encoding="utf-8"?>
<!-- Generator: Adobe Illustrator 21.0.0, SVG Export Plug-In . SVG Version: 6.00 Build 0)  -->
<svg version="1.1" id="Layer_1" xmlns="http://www.w3.org/2000/svg" xmlns:xlink="http://www.w3.org/1999/xlink" x="0px" y="0px"
	 viewBox="0 0 161.1 167.4" style="enable-background:new 0 0 161.1 167.4;" xml:space="preserve">
<style type="text/css">
	.st0{fill:#8E94AA;}
	.st1{fill:#EBF4FF;}
	.st2{fill:#E2F2E3;}
	.st3{fill:#FFEFD7;}
	.st4{fill:#FDE1DF;}
	.st5{fill:none;stroke:#8E94AA;stroke-width:1.5;stroke-linejoin:round;stroke-miterlimit:10;}
</style>
<g>
	<g>
		<path class="st0" d="M151.4,89.8L9.7,90.1c-0.2,0-0.3-0.2-0.3-0.3v0L9.3,60c0-0.2,0.2-0.4,0.4-0.4l35.4-0.1l35.4,0
			c11.8,0,23.6,0,35.4,0.1l35.4,0.1c0.1,0,0.3,0.1,0.3,0.3v0L151.4,89.8z M151.3,89.7L151.1,60l0.3,0.3l-35.4,0.1
			c-11.8,0.1-23.6,0.1-35.4,0.1l-35.4,0L9.7,60.4l0.4-0.4l-0.1,29.7l-0.3-0.3L151.3,89.7z"/>
	</g>
	<g>
		<path class="st0" d="M151.4,149.3L9.7,149.6c-0.2,0-0.3-0.2-0.3-0.3v0l-0.1-29.7c0-0.2,0.2-0.4,0.4-0.4l35.4-0.1l35.4,0
			c11.8,0,23.6,0,35.4,0.1l35.4,0.1c0.1,0,0.3,0.1,0.3,0.3v0L151.4,149.3z M151.3,149.2l-0.2-29.7l0.3,0.3l-35.4,0.1
			c-11.8,0.1-23.6,0.1-35.4,0.1l-35.4,0l-35.4-0.1l0.4-0.4l-0.1,29.7l-0.3-0.3L151.3,149.2z"/>
	</g>
	<g>
		<path class="st0" d="M0,166.7c6.7-0.2,13.4-0.2,20.1-0.4l20.1-0.2c13.4-0.1,26.8-0.1,40.3-0.2c13.4,0.1,26.8,0.1,40.3,0.2
			l20.1,0.2c6.7,0.1,13.4,0.2,20.1,0.4c-6.7,0.2-13.4,0.2-20.1,0.4l-20.1,0.2c-13.4,0.1-26.8,0.1-40.3,0.2
			c-13.4-0.1-26.8-0.1-40.3-0.2L20.1,167C13.4,166.9,6.7,166.8,0,166.7z"/>
	</g>
	<g>
		<rect x="17.2" y="6.3" class="st1" width="4.3" height="16.1"/>
		<g>
			<g>
				<path class="st0" d="M22.7,4.8L16,4.9l0.1-0.1l0.2,25.4L16,29.9c2.2,0,4.5-0.1,6.7-0.1l-0.4,0.4c0-4.2,0-8.4,0.1-12.6
					C22.4,13.4,22.5,9.1,22.7,4.8z M22.7,4.7c0.1,4.1,0.2,8.3,0.3,12.6c0.1,4.3,0.1,8.6,0.1,12.8c0,0.2-0.2,0.4-0.4,0.4
					c-2.2,0-4.5,0-6.7-0.1l0,0c-0.2,0-0.3-0.1-0.3-0.3l0.2-25.4c0-0.1,0-0.1,0.1-0.1h0L22.7,4.7z"/>
			</g>
		</g>
		<g>
			<path class="st0" d="M17.2,7.8c0.7-0.1,1.4-0.2,2.2-0.3c0.4,0,0.7-0.1,1.1-0.1c0.4,0.1,0.7,0.1,1.1,0.3c0,0,0,0,0,0.1
				c0,0,0,0,0,0c-0.4,0.2-0.7,0.3-1.1,0.3c-0.4,0-0.7,0-1.1-0.1C18.6,8.1,17.9,8,17.2,7.8C17.1,7.9,17.1,7.9,17.2,7.8
				C17.1,7.9,17.2,7.8,17.2,7.8z"/>
		</g>
		<circle class="st1" cx="19.3" cy="24.3" r="0.8"/>
	</g>
	<g>
		<rect x="25.2" y="6.3" class="st1" width="4.3" height="16.1"/>
		<g>
			<g>
				<path class="st0" d="M30.7,4.8L24,4.9l0.1-0.1l0.2,25.4L24,29.9c2.2,0,4.5-0.1,6.7-0.1l-0.4,0.4c0-4.2,0-8.4,0.1-12.6
					C30.4,13.4,30.6,9.1,30.7,4.8z M30.7,4.7c0.1,4.1,0.2,8.3,0.3,12.6c0.1,4.3,0.1,8.6,0.1,12.8c0,0.2-0.2,0.4-0.4,0.4
					c-2.2,0-4.5,0-6.7-0.1l0,0c-0.2,0-0.3-0.1-0.3-0.3l0.2-25.4c0-0.1,0-0.1,0.1-0.1h0L30.7,4.7z"/>
			</g>
		</g>
		<g>
			<path class="st0" d="M25.2,7.8c0.7-0.1,1.4-0.2,2.2-0.3c0.4,0,0.7-0.1,1.1-0.1c0.4,0.1,0.7,0.1,1.1,0.3c0,0,0,0,0,0.1
				c0,0,0,0,0,0c-0.4,0.2-0.7,0.3-1.1,0.3c-0.4,0-0.7,0-1.1-0.1C26.6,8.1,25.9,8,25.2,7.8C25.2,7.9,25.1,7.9,25.2,7.8
				C25.1,7.9,25.2,7.8,25.2,7.8z"/>
		</g>
		<circle class="st1" cx="27.3" cy="24.3" r="0.8"/>
	</g>
	<g>
		<rect x="33.1" y="6.3" class="st1" width="4.3" height="16.1"/>
		<g>
			<g>
				<path class="st0" d="M38.6,4.8L32,4.9l0.1-0.1l0.2,25.4L32,29.9c2.2,0,4.5-0.1,6.7-0.1l-0.4,0.4c0-4.2,0-8.4,0.1-12.6
					C38.4,13.4,38.5,9.1,38.6,4.8z M38.7,4.7c0.1,4.1,0.2,8.3,0.3,12.6c0.1,4.3,0.1,8.6,0.1,12.8c0,0.2-0.2,0.4-0.4,0.4
					c-2.2,0-4.5,0-6.7-0.1l0,0c-0.2,0-0.3-0.1-0.3-0.3l0.2-25.4c0-0.1,0-0.1,0.1-0.1h0L38.7,4.7z"/>
			</g>
		</g>
		<g>
			<path class="st0" d="M33.1,7.8c0.7-0.1,1.4-0.2,2.2-0.3c0.4,0,0.7-0.1,1.1-0.1c0.4,0.1,0.7,0.1,1.1,0.3c0,0,0,0,0,0.1
				c0,0,0,0,0,0c-0.4,0.2-0.7,0.3-1.1,0.3c-0.4,0-0.7,0-1.1-0.1C34.6,8.1,33.9,8,33.1,7.8C33.1,7.9,33.1,7.9,33.1,7.8
				C33.1,7.9,33.1,7.8,33.1,7.8z"/>
		</g>
		<circle class="st1" cx="35.3" cy="24.3" r="0.8"/>
	</g>
	<g>
		<rect x="40.7" y="6.3" class="st1" width="4.3" height="16.1"/>
		<g>
			<g>
				<path class="st0" d="M46.2,4.8l-6.7,0.1l0.1-0.1l0.2,25.4l-0.3-0.3c2.2,0,4.5-0.1,6.7-0.1l-0.4,0.4c0-4.2,0-8.4,0.1-12.6
					C46,13.4,46.1,9.1,46.2,4.8z M46.3,4.7c0.1,4.1,0.2,8.3,0.3,12.6c0.1,4.3,0.1,8.6,0.1,12.8c0,0.2-0.2,0.4-0.4,0.4
					c-2.2,0-4.5,0-6.7-0.1l0,0c-0.2,0-0.3-0.1-0.3-0.3l0.2-25.4c0-0.1,0-0.1,0.1-0.1h0L46.3,4.7z"/>
			</g>
		</g>
		<g>
			<path class="st0" d="M40.7,7.8c0.7-0.1,1.4-0.2,2.2-0.3c0.4,0,0.7-0.1,1.1-0.1c0.4,0.1,0.7,0.1,1.1,0.3c0,0,0,0,0,0.1
				c0,0,0,0,0,0c-0.4,0.2-0.7,0.3-1.1,0.3c-0.4,0-0.7,0-1.1-0.1C42.2,8.1,41.5,8,40.7,7.8C40.7,7.9,40.7,7.9,40.7,7.8
				C40.7,7.9,40.7,7.8,40.7,7.8z"/>
		</g>
		<circle class="st1" cx="42.9" cy="24.3" r="0.8"/>
	</g>
	<g>
		<rect x="48.6" y="6.3" class="st1" width="4.3" height="16.1"/>
		<g>
			<g>
				<path class="st0" d="M54.1,4.8l-6.7,0.1l0.1-0.1l0.2,25.4l-0.3-0.3c2.2,0,4.5-0.1,6.7-0.1l-0.4,0.4c0-4.2,0-8.4,0.1-12.6
					C53.8,13.4,53.9,9.1,54.1,4.8z M54.1,4.7c0.1,4.1,0.2,8.3,0.3,12.6c0.1,4.3,0.1,8.6,0.1,12.8c0,0.2-0.2,0.4-0.4,0.4
					c-2.2,0-4.5,0-6.7-0.1l0,0c-0.2,0-0.3-0.1-0.3-0.3l0.2-25.4c0-0.1,0-0.1,0.1-0.1h0L54.1,4.7z"/>
			</g>
		</g>
		<g>
			<path class="st0" d="M48.6,7.8c0.7-0.1,1.4-0.2,2.2-0.3c0.4,0,0.7-0.1,1.1-0.1c0.4,0.1,0.7,0.1,1.1,0.3c0,0,0,0,0,0.1
				c0,0,0,0,0,0c-0.4,0.2-0.7,0.3-1.1,0.3c-0.4,0-0.7,0-1.1-0.1C50,8.1,49.3,8,48.6,7.8C48.5,7.9,48.5,7.9,48.6,7.8
				C48.5,7.9,48.6,7.8,48.6,7.8z"/>
		</g>
		<circle class="st1" cx="50.7" cy="24.3" r="0.8"/>
	</g>
	<g>
		<rect x="56.6" y="6.3" class="st1" width="4.3" height="16.1"/>
		<g>
			<g>
				<path class="st0" d="M62.1,4.8l-6.7,0.1l0.1-0.1l0.2,25.4l-0.3-0.3c2.2,0,4.5-0.1,6.7-0.1l-0.4,0.4c0-4.2,0-8.4,0.1-12.6
					C61.8,13.4,62,9.1,62.1,4.8z M62.1,4.7c0.1,4.1,0.2,8.3,0.3,12.6c0.1,4.3,0.1,8.6,0.1,12.8c0,0.2-0.2,0.4-0.4,0.4
					c-2.2,0-4.5,0-6.7-0.1l0,0c-0.2,0-0.3-0.1-0.3-0.3l0.2-25.4c0-0.1,0-0.1,0.1-0.1h0L62.1,4.7z"/>
			</g>
		</g>
		<g>
			<path class="st0" d="M56.6,7.8c0.7-0.1,1.4-0.2,2.2-0.3c0.4,0,0.7-0.1,1.1-0.1c0.4,0.1,0.7,0.1,1.1,0.3c0,0,0,0,0,0.1
				c0,0,0,0,0,0c-0.4,0.2-0.7,0.3-1.1,0.3c-0.4,0-0.7,0-1.1-0.1C58,8.1,57.3,8,56.6,7.8C56.6,7.9,56.5,7.9,56.6,7.8
				C56.5,7.9,56.6,7.8,56.6,7.8z"/>
		</g>
		<circle class="st1" cx="58.7" cy="24.3" r="0.8"/>
	</g>
	<g>
		<rect x="64.5" y="6.3" class="st1" width="4.3" height="16.1"/>
		<g>
			<g>
				<path class="st0" d="M70,4.8l-6.7,0.1l0.1-0.1l0.2,25.4l-0.3-0.3c2.2,0,4.5-0.1,6.7-0.1l-0.4,0.4c0-4.2,0-8.4,0.1-12.6
					C69.8,13.4,69.9,9.1,70,4.8z M70.1,4.7c0.1,4.1,0.2,8.3,0.3,12.6c0.1,4.3,0.1,8.6,0.1,12.8c0,0.2-0.2,0.4-0.4,0.4
					c-2.2,0-4.5,0-6.7-0.1l0,0c-0.2,0-0.3-0.1-0.3-0.3l0.2-25.4c0-0.1,0-0.1,0.1-0.1h0L70.1,4.7z"/>
			</g>
		</g>
		<g>
			<path class="st0" d="M64.5,7.8c0.7-0.1,1.4-0.2,2.2-0.3c0.4,0,0.7-0.1,1.1-0.1c0.4,0.1,0.7,0.1,1.1,0.3c0,0,0,0,0,0.1
				c0,0,0,0,0,0c-0.4,0.2-0.7,0.3-1.1,0.3c-0.4,0-0.7,0-1.1-0.1C66,8.1,65.3,8,64.5,7.8C64.5,7.9,64.5,7.9,64.5,7.8
				C64.5,7.9,64.5,7.8,64.5,7.8z"/>
		</g>
		<circle class="st1" cx="66.7" cy="24.3" r="0.8"/>
	</g>
	<rect x="86.2" y="36.2" class="st2" width="4.3" height="16.1"/>
	<g>
		<g>
			<path class="st0" d="M91.7,34.6L85,34.7l0.1-0.1L85.3,60L85,59.7c2.2,0,4.5-0.1,6.7-0.1L91.4,60c0-4.2,0-8.4,0.1-12.6
				C91.5,43.2,91.6,39,91.7,34.6z M91.8,34.6c0.1,4.1,0.2,8.3,0.3,12.6c0.1,4.3,0.1,8.6,0.1,12.8c0,0.2-0.2,0.4-0.4,0.4
				c-2.2,0-4.5,0-6.7-0.1l0,0c-0.2,0-0.3-0.1-0.3-0.3l0.2-25.4c0-0.1,0-0.1,0.1-0.1l0,0L91.8,34.6z"/>
		</g>
	</g>
	<g>
		<path class="st0" d="M86.2,37.7c0.7-0.1,1.4-0.2,2.2-0.3c0.4,0,0.7-0.1,1.1-0.1c0.4,0.1,0.7,0.1,1.1,0.3c0,0,0,0,0,0.1
			c0,0,0,0,0,0c-0.4,0.2-0.7,0.3-1.1,0.3c-0.4,0-0.7,0-1.1-0.1C87.7,38,86.9,37.9,86.2,37.7C86.2,37.8,86.2,37.7,86.2,37.7
			C86.2,37.7,86.2,37.7,86.2,37.7z"/>
	</g>
	<circle class="st2" cx="88.4" cy="54.2" r="0.8"/>
	<rect x="94.1" y="36.2" class="st2" width="4.3" height="16.1"/>
	<g>
		<g>
			<path class="st0" d="M99.5,34.6l-6.7,0.1l0.1-0.1L93.2,60l-0.3-0.3c2.2,0,4.5-0.1,6.7-0.1L99.2,60c0-4.2,0-8.4,0.1-12.6
				C99.3,43.2,99.4,39,99.5,34.6z M99.6,34.6c0.1,4.1,0.2,8.3,0.3,12.6c0.1,4.3,0.1,8.6,0.1,12.8c0,0.2-0.2,0.4-0.4,0.4
				c-2.2,0-4.5,0-6.7-0.1l0,0c-0.2,0-0.3-0.1-0.3-0.3l0.2-25.4c0-0.1,0-0.1,0.1-0.1l0,0L99.6,34.6z"/>
		</g>
	</g>
	<g>
		<path class="st0" d="M94.1,37.7c0.7-0.1,1.4-0.2,2.2-0.3c0.4,0,0.7-0.1,1.1-0.1c0.4,0.1,0.7,0.1,1.1,0.3c0,0,0,0,0,0.1
			c0,0,0,0,0,0c-0.4,0.2-0.7,0.3-1.1,0.3c-0.4,0-0.7,0-1.1-0.1C95.5,38,94.8,37.9,94.1,37.7C94,37.8,94,37.7,94.1,37.7
			C94,37.7,94,37.7,94.1,37.7z"/>
	</g>
	<circle class="st2" cx="96.2" cy="54.2" r="0.8"/>
	<rect x="102.1" y="36.2" class="st2" width="4.3" height="16.1"/>
	<g>
		<g>
			<path class="st0" d="M107.5,34.6l-6.7,0.1l0.1-0.1l0.2,25.4l-0.3-0.3c2.2,0,4.5-0.1,6.7-0.1l-0.4,0.4c0-4.2,0-8.4,0.1-12.6
				C107.3,43.2,107.4,39,107.5,34.6z M107.6,34.6c0.1,4.1,0.2,8.3,0.3,12.6c0.1,4.3,0.1,8.6,0.1,12.8c0,0.2-0.2,0.4-0.4,0.4
				c-2.2,0-4.5,0-6.7-0.1l0,0c-0.2,0-0.3-0.1-0.3-0.3l0.2-25.4c0-0.1,0-0.1,0.1-0.1l0,0L107.6,34.6z"/>
		</g>
	</g>
	<g>
		<path class="st0" d="M102.1,37.7c0.7-0.1,1.4-0.2,2.2-0.3c0.4,0,0.7-0.1,1.1-0.1c0.4,0.1,0.7,0.1,1.1,0.3c0,0,0,0,0,0.1
			c0,0,0,0,0,0c-0.4,0.2-0.7,0.3-1.1,0.3c-0.4,0-0.7,0-1.1-0.1C103.5,38,102.8,37.9,102.1,37.7C102,37.8,102,37.7,102.1,37.7
			C102,37.7,102,37.7,102.1,37.7z"/>
	</g>
	<circle class="st2" cx="104.2" cy="54.2" r="0.8"/>
	<rect x="110" y="36.2" class="st2" width="4.3" height="16.1"/>
	<g>
		<g>
			<path class="st0" d="M115.5,34.6l-6.7,0.1l0.1-0.1l0.2,25.4l-0.3-0.3c2.2,0,4.5-0.1,6.7-0.1l-0.4,0.4c0-4.2,0-8.4,0.1-12.6
				C115.3,43.2,115.4,39,115.5,34.6z M115.6,34.6c0.1,4.1,0.2,8.3,0.3,12.6c0.1,4.3,0.1,8.6,0.1,12.8c0,0.2-0.2,0.4-0.4,0.4
				c-2.2,0-4.5,0-6.7-0.1l0,0c-0.2,0-0.3-0.1-0.3-0.3l0.2-25.4c0-0.1,0-0.1,0.1-0.1l0,0L115.6,34.6z"/>
		</g>
	</g>
	<g>
		<path class="st0" d="M110,37.7c0.7-0.1,1.4-0.2,2.2-0.3c0.4,0,0.7-0.1,1.1-0.1c0.4,0.1,0.7,0.1,1.1,0.3c0,0,0,0,0,0.1c0,0,0,0,0,0
			c-0.4,0.2-0.7,0.3-1.1,0.3c-0.4,0-0.7,0-1.1-0.1C111.5,38,110.7,37.9,110,37.7C110,37.8,110,37.7,110,37.7
			C110,37.7,110,37.7,110,37.7z"/>
	</g>
	<circle class="st2" cx="112.2" cy="54.2" r="0.8"/>
	<rect x="117.6" y="36.2" class="st2" width="4.3" height="16.1"/>
	<g>
		<g>
			<path class="st0" d="M123.1,34.6l-6.7,0.1l0.1-0.1l0.2,25.4l-0.3-0.3c2.2,0,4.5-0.1,6.7-0.1l-0.4,0.4c0-4.2,0-8.4,0.1-12.6
				C122.9,43.2,123,39,123.1,34.6z M123.2,34.6c0.1,4.1,0.2,8.3,0.3,12.6c0.1,4.3,0.1,8.6,0.1,12.8c0,0.2-0.2,0.4-0.4,0.4
				c-2.2,0-4.5,0-6.7-0.1l0,0c-0.2,0-0.3-0.1-0.3-0.3l0.2-25.4c0-0.1,0-0.1,0.1-0.1l0,0L123.2,34.6z"/>
		</g>
	</g>
	<g>
		<path class="st0" d="M117.6,37.7c0.7-0.1,1.4-0.2,2.2-0.3c0.4,0,0.7-0.1,1.1-0.1c0.4,0.1,0.7,0.1,1.1,0.3c0,0,0,0,0,0.1
			c0,0,0,0,0,0c-0.4,0.2-0.7,0.3-1.1,0.3c-0.4,0-0.7,0-1.1-0.1C119.1,38,118.3,37.9,117.6,37.7C117.6,37.8,117.6,37.7,117.6,37.7
			C117.6,37.7,117.6,37.7,117.6,37.7z"/>
	</g>
	<circle class="st2" cx="119.8" cy="54.2" r="0.8"/>
	<rect x="125.5" y="36.2" class="st2" width="4.3" height="16.1"/>
	<g>
		<g>
			<path class="st0" d="M130.9,34.6l-6.7,0.1l0.1-0.1l0.2,25.4l-0.3-0.3c2.2,0,4.5-0.1,6.7-0.1l-0.4,0.4c0-4.2,0-8.4,0.1-12.6
				C130.7,43.2,130.8,39,130.9,34.6z M131,34.6c0.1,4.1,0.2,8.3,0.3,12.6c0.1,4.3,0.1,8.6,0.1,12.8c0,0.2-0.2,0.4-0.4,0.4
				c-2.2,0-4.5,0-6.7-0.1l0,0c-0.2,0-0.3-0.1-0.3-0.3l0.2-25.4c0-0.1,0-0.1,0.1-0.1l0,0L131,34.6z"/>
		</g>
	</g>
	<g>
		<path class="st0" d="M125.5,37.7c0.7-0.1,1.4-0.2,2.2-0.3c0.4,0,0.7-0.1,1.1-0.1c0.4,0.1,0.7,0.1,1.1,0.3c0,0,0,0,0,0.1
			c0,0,0,0,0,0c-0.4,0.2-0.7,0.3-1.1,0.3c-0.4,0-0.7,0-1.1-0.1C126.9,38,126.2,37.9,125.5,37.7C125.4,37.8,125.4,37.7,125.5,37.7
			C125.4,37.7,125.4,37.7,125.5,37.7z"/>
	</g>
	<circle class="st2" cx="127.6" cy="54.2" r="0.8"/>
	
		<rect x="137.9" y="36" transform="matrix(0.9192 0.3939 -0.3939 0.9192 28.6655 -51.5972)" class="st2" width="4.3" height="16.1"/>
	<g>
		<g>
			<path class="st0" d="M146.9,36.5l-6.2-2.6l0.1-0.1L131,57.3l-0.2-0.4c2.1,0.8,4.1,1.7,6.2,2.6l-0.5,0.2c1.6-3.9,3.3-7.7,5-11.5
				C143.3,44.3,145,40.5,146.9,36.5z M146.9,36.5c-1.5,3.8-3.1,7.8-4.7,11.7c-1.6,3.9-3.3,7.9-5,11.8c-0.1,0.2-0.3,0.3-0.5,0.2
				c-2-0.9-4.1-1.8-6.1-2.7l0,0c-0.1-0.1-0.2-0.2-0.2-0.4l10.2-23.3c0-0.1,0.1-0.1,0.1-0.1l0,0L146.9,36.5z"/>
		</g>
	</g>
	<g>
		<path class="st0" d="M140.6,37.2c0.7,0.2,1.4,0.4,2.1,0.6c0.3,0.1,0.7,0.2,1,0.4c0.3,0.2,0.6,0.4,0.9,0.7c0,0,0,0,0,0.1
			c0,0,0,0,0,0c-0.4,0-0.8,0-1.1-0.1c-0.4-0.1-0.7-0.3-1-0.5C141.8,38,141.2,37.6,140.6,37.2C140.6,37.2,140.6,37.2,140.6,37.2
			C140.6,37.2,140.6,37.2,140.6,37.2z"/>
	</g>
	<ellipse transform="matrix(0.3939 -0.9192 0.9192 0.3939 33.6589 157.3285)" class="st2" cx="136.1" cy="53.1" rx="0.8" ry="0.8"/>
	<rect x="108" y="6.3" class="st3" width="4.3" height="16.1"/>
	<g>
		<g>
			<path class="st0" d="M113.5,4.8l-6.7,0.1l0.1-0.1l0.2,25.4l-0.3-0.3c2.2,0,4.5-0.1,6.7-0.1l-0.4,0.4c0-4.2,0-8.4,0.1-12.6
				C113.3,13.4,113.4,9.1,113.5,4.8z M113.6,4.7c0.1,4.1,0.2,8.3,0.3,12.6c0.1,4.3,0.1,8.6,0.1,12.8c0,0.2-0.2,0.4-0.4,0.4
				c-2.2,0-4.5,0-6.7-0.1l0,0c-0.2,0-0.3-0.1-0.3-0.3l0.2-25.4c0-0.1,0-0.1,0.1-0.1h0L113.6,4.7z"/>
		</g>
	</g>
	<g>
		<path class="st0" d="M108,7.8c0.7-0.1,1.4-0.2,2.2-0.3c0.4,0,0.7-0.1,1.1-0.1c0.4,0.1,0.7,0.1,1.1,0.3c0,0,0,0,0,0.1c0,0,0,0,0,0
			c-0.4,0.2-0.7,0.3-1.1,0.3c-0.4,0-0.7,0-1.1-0.1C109.5,8.1,108.7,8,108,7.8C108,7.9,108,7.9,108,7.8C108,7.9,108,7.8,108,7.8z"/>
	</g>
	<circle class="st3" cx="110.2" cy="24.3" r="0.8"/>
	<rect x="115.6" y="6.3" class="st3" width="4.3" height="16.1"/>
	<g>
		<g>
			<path class="st0" d="M121.1,4.8l-6.7,0.1l0.1-0.1l0.2,25.4l-0.3-0.3c2.2,0,4.5-0.1,6.7-0.1l-0.4,0.4c0-4.2,0-8.4,0.1-12.6
				C120.9,13.4,121,9.1,121.1,4.8z M121.2,4.7c0.1,4.1,0.2,8.3,0.3,12.6c0.1,4.3,0.1,8.6,0.1,12.8c0,0.2-0.2,0.4-0.4,0.4
				c-2.2,0-4.5,0-6.7-0.1l0,0c-0.2,0-0.3-0.1-0.3-0.3l0.2-25.4c0-0.1,0-0.1,0.1-0.1h0L121.2,4.7z"/>
		</g>
	</g>
	<g>
		<path class="st0" d="M115.6,7.8c0.7-0.1,1.4-0.2,2.2-0.3c0.4,0,0.7-0.1,1.1-0.1c0.4,0.1,0.7,0.1,1.1,0.3c0,0,0,0,0,0.1
			c0,0,0,0,0,0c-0.4,0.2-0.7,0.3-1.1,0.3c-0.4,0-0.7,0-1.1-0.1C117.1,8.1,116.3,8,115.6,7.8C115.6,7.9,115.6,7.9,115.6,7.8
			C115.6,7.9,115.6,7.8,115.6,7.8z"/>
	</g>
	<circle class="st3" cx="117.8" cy="24.3" r="0.8"/>
	<rect x="123.5" y="6.3" class="st3" width="4.3" height="16.1"/>
	<g>
		<g>
			<path class="st0" d="M128.9,4.8l-6.7,0.1l0.1-0.1l0.2,25.4l-0.3-0.3c2.2,0,4.5-0.1,6.7-0.1l-0.4,0.4c0-4.2,0-8.4,0.1-12.6
				C128.7,13.4,128.8,9.1,128.9,4.8z M129,4.7c0.1,4.1,0.2,8.3,0.3,12.6c0.1,4.3,0.1,8.6,0.1,12.8c0,0.2-0.2,0.4-0.4,0.4
				c-2.2,0-4.5,0-6.7-0.1l0,0c-0.2,0-0.3-0.1-0.3-0.3l0.2-25.4c0-0.1,0-0.1,0.1-0.1h0L129,4.7z"/>
		</g>
	</g>
	<g>
		<path class="st0" d="M123.5,7.8c0.7-0.1,1.4-0.2,2.2-0.3c0.4,0,0.7-0.1,1.1-0.1c0.4,0.1,0.7,0.1,1.1,0.3c0,0,0,0,0,0.1
			c0,0,0,0,0,0c-0.4,0.2-0.7,0.3-1.1,0.3c-0.4,0-0.7,0-1.1-0.1C124.9,8.1,124.2,8,123.5,7.8C123.4,7.9,123.4,7.9,123.5,7.8
			C123.4,7.9,123.4,7.8,123.5,7.8z"/>
	</g>
	<circle class="st3" cx="125.6" cy="24.3" r="0.8"/>
	<rect x="131.5" y="6.3" class="st3" width="4.3" height="16.1"/>
	<g>
		<g>
			<path class="st0" d="M136.9,4.8l-6.7,0.1l0.1-0.1l0.2,25.4l-0.3-0.3c2.2,0,4.5-0.1,6.7-0.1l-0.4,0.4c0-4.2,0-8.4,0.1-12.6
				C136.7,13.4,136.8,9.1,136.9,4.8z M137,4.7c0.1,4.1,0.2,8.3,0.3,12.6c0.1,4.3,0.1,8.6,0.1,12.8c0,0.2-0.2,0.4-0.4,0.4
				c-2.2,0-4.5,0-6.7-0.1l0,0c-0.2,0-0.3-0.1-0.3-0.3l0.2-25.4c0-0.1,0-0.1,0.1-0.1h0L137,4.7z"/>
		</g>
	</g>
	<g>
		<path class="st0" d="M131.5,7.8c0.7-0.1,1.4-0.2,2.2-0.3c0.4,0,0.7-0.1,1.1-0.1c0.4,0.1,0.7,0.1,1.1,0.3c0,0,0,0,0,0.1
			c0,0,0,0,0,0c-0.4,0.2-0.7,0.3-1.1,0.3c-0.4,0-0.7,0-1.1-0.1C132.9,8.1,132.2,8,131.5,7.8C131.4,7.9,131.4,7.9,131.5,7.8
			C131.4,7.9,131.4,7.8,131.5,7.8z"/>
	</g>
	<circle class="st3" cx="133.6" cy="24.3" r="0.8"/>
	<rect x="139.4" y="6.3" class="st3" width="4.3" height="16.1"/>
	<g>
		<g>
			<path class="st0" d="M144.9,4.8l-6.7,0.1l0.1-0.1l0.2,25.4l-0.3-0.3c2.2,0,4.5-0.1,6.7-0.1l-0.4,0.4c0-4.2,0-8.4,0.1-12.6
				C144.7,13.4,144.8,9.1,144.9,4.8z M145,4.7c0.1,4.1,0.2,8.3,0.3,12.6c0.1,4.3,0.1,8.6,0.1,12.8c0,0.2-0.2,0.4-0.4,0.4
				c-2.2,0-4.5,0-6.7-0.1l0,0c-0.2,0-0.3-0.1-0.3-0.3l0.2-25.4c0-0.1,0-0.1,0.1-0.1h0L145,4.7z"/>
		</g>
	</g>
	<g>
		<path class="st0" d="M139.4,7.8c0.7-0.1,1.4-0.2,2.2-0.3c0.4,0,0.7-0.1,1.1-0.1c0.4,0.1,0.7,0.1,1.1,0.3c0,0,0,0,0,0.1
			c0,0,0,0,0,0c-0.4,0.2-0.7,0.3-1.1,0.3c-0.4,0-0.7,0-1.1-0.1C140.9,8.1,140.1,8,139.4,7.8C139.4,7.9,139.4,7.9,139.4,7.8
			C139.4,7.9,139.4,7.8,139.4,7.8z"/>
	</g>
	<circle class="st3" cx="141.6" cy="24.3" r="0.8"/>
	<rect x="17.3" y="36.2" class="st4" width="4.3" height="16.1"/>
	<g>
		<g>
			<path class="st0" d="M22.8,34.6l-6.7,0.1l0.1-0.1L16.5,60l-0.3-0.3c2.2,0,4.5-0.1,6.7-0.1L22.5,60c0-4.2,0-8.4,0.1-12.6
				C22.6,43.2,22.7,39,22.8,34.6z M22.9,34.6c0.1,4.1,0.2,8.3,0.3,12.6c0.1,4.3,0.1,8.6,0.1,12.8c0,0.2-0.2,0.4-0.4,0.4
				c-2.2,0-4.5,0-6.7-0.1l0,0c-0.2,0-0.3-0.1-0.3-0.3l0.2-25.4c0-0.1,0-0.1,0.1-0.1l0,0L22.9,34.6z"/>
		</g>
	</g>
	<g>
		<path class="st0" d="M17.3,37.7c0.7-0.1,1.4-0.2,2.2-0.3c0.4,0,0.7-0.1,1.1-0.1c0.4,0.1,0.7,0.1,1.1,0.3c0,0,0,0,0,0.1
			c0,0,0,0,0,0c-0.4,0.2-0.7,0.3-1.1,0.3c-0.4,0-0.7,0-1.1-0.1C18.8,38,18.1,37.9,17.3,37.7C17.3,37.8,17.3,37.7,17.3,37.7
			C17.3,37.7,17.3,37.7,17.3,37.7z"/>
	</g>
	<circle class="st4" cx="19.5" cy="54.2" r="0.8"/>
	<rect x="25.2" y="36.2" class="st4" width="4.3" height="16.1"/>
	<g>
		<g>
			<path class="st0" d="M30.7,34.6L24,34.7l0.1-0.1L24.3,60L24,59.7c2.2,0,4.5-0.1,6.7-0.1L30.3,60c0-4.2,0-8.4,0.1-12.6
				C30.4,43.2,30.5,39,30.7,34.6z M30.7,34.6c0.1,4.1,0.2,8.3,0.3,12.6c0.1,4.3,0.1,8.6,0.1,12.8c0,0.2-0.2,0.4-0.4,0.4
				c-2.2,0-4.5,0-6.7-0.1l0,0c-0.2,0-0.3-0.1-0.3-0.3l0.2-25.4c0-0.1,0-0.1,0.1-0.1l0,0L30.7,34.6z"/>
		</g>
	</g>
	<g>
		<path class="st0" d="M25.2,37.7c0.7-0.1,1.4-0.2,2.2-0.3c0.4,0,0.7-0.1,1.1-0.1c0.4,0.1,0.7,0.1,1.1,0.3c0,0,0,0,0,0.1
			c0,0,0,0,0,0c-0.4,0.2-0.7,0.3-1.1,0.3c-0.4,0-0.7,0-1.1-0.1C26.6,38,25.9,37.9,25.2,37.7C25.1,37.8,25.1,37.7,25.2,37.7
			C25.1,37.7,25.2,37.7,25.2,37.7z"/>
	</g>
	<circle class="st4" cx="27.3" cy="54.2" r="0.8"/>
	<rect x="46.7" y="36.2" class="st4" width="4.3" height="16.1"/>
	<g>
		<g>
			<path class="st0" d="M52.2,34.6l-6.7,0.1l0.1-0.1L45.9,60l-0.3-0.3c2.2,0,4.5-0.1,6.7-0.1L51.9,60c0-4.2,0-8.4,0.1-12.6
				C52,43.2,52.1,39,52.2,34.6z M52.3,34.6c0.1,4.1,0.2,8.3,0.3,12.6c0.1,4.3,0.1,8.6,0.1,12.8c0,0.2-0.2,0.4-0.4,0.4
				c-2.2,0-4.5,0-6.7-0.1l0,0c-0.2,0-0.3-0.1-0.3-0.3l0.2-25.4c0-0.1,0-0.1,0.1-0.1l0,0L52.3,34.6z"/>
		</g>
	</g>
	<g>
		<path class="st0" d="M46.7,37.7c0.7-0.1,1.4-0.2,2.2-0.3c0.4,0,0.7-0.1,1.1-0.1c0.4,0.1,0.7,0.1,1.1,0.3c0,0,0,0,0,0.1
			c0,0,0,0,0,0c-0.4,0.2-0.7,0.3-1.1,0.3c-0.4,0-0.7,0-1.1-0.1C48.2,38,47.5,37.9,46.7,37.7C46.7,37.8,46.7,37.7,46.7,37.7
			C46.7,37.7,46.7,37.7,46.7,37.7z"/>
	</g>
	<circle class="st4" cx="48.9" cy="54.2" r="0.8"/>
	<rect x="54.6" y="36.2" class="st4" width="4.3" height="16.1"/>
	<g>
		<g>
			<path class="st0" d="M60.1,34.6l-6.7,0.1l0.1-0.1L53.7,60l-0.3-0.3c2.2,0,4.5-0.1,6.7-0.1L59.7,60c0-4.2,0-8.4,0.1-12.6
				C59.8,43.2,59.9,39,60.1,34.6z M60.1,34.6c0.1,4.1,0.2,8.3,0.3,12.6c0.1,4.3,0.1,8.6,0.1,12.8c0,0.2-0.2,0.4-0.4,0.4
				c-2.2,0-4.5,0-6.7-0.1l0,0c-0.2,0-0.3-0.1-0.3-0.3l0.2-25.4c0-0.1,0-0.1,0.1-0.1l0,0L60.1,34.6z"/>
		</g>
	</g>
	<g>
		<path class="st0" d="M54.6,37.7c0.7-0.1,1.4-0.2,2.2-0.3c0.4,0,0.7-0.1,1.1-0.1c0.4,0.1,0.7,0.1,1.1,0.3c0,0,0,0,0,0.1
			c0,0,0,0,0,0c-0.4,0.2-0.7,0.3-1.1,0.3c-0.4,0-0.7,0-1.1-0.1C56,38,55.3,37.9,54.6,37.7C54.5,37.8,54.5,37.7,54.6,37.7
			C54.5,37.7,54.6,37.7,54.6,37.7z"/>
	</g>
	<circle class="st4" cx="56.7" cy="54.2" r="0.8"/>
	<rect x="62.6" y="36.2" class="st4" width="4.3" height="16.1"/>
	<g>
		<g>
			<path class="st0" d="M68.1,34.6l-6.7,0.1l0.1-0.1L61.7,60l-0.3-0.3c2.2,0,4.5-0.1,6.7-0.1L67.7,60c0-4.2,0-8.4,0.1-12.6
				C67.8,43.2,68,39,68.1,34.6z M68.1,34.6c0.1,4.1,0.2,8.3,0.3,12.6c0.1,4.3,0.1,8.6,0.1,12.8c0,0.2-0.2,0.4-0.4,0.4
				c-2.2,0-4.5,0-6.7-0.1l0,0c-0.2,0-0.3-0.1-0.3-0.3l0.2-25.4c0-0.1,0-0.1,0.1-0.1l0,0L68.1,34.6z"/>
		</g>
	</g>
	<g>
		<path class="st0" d="M62.6,37.7c0.7-0.1,1.4-0.2,2.2-0.3c0.4,0,0.7-0.1,1.1-0.1c0.4,0.1,0.7,0.1,1.1,0.3c0,0,0,0,0,0.1
			c0,0,0,0,0,0c-0.4,0.2-0.7,0.3-1.1,0.3c-0.4,0-0.7,0-1.1-0.1C64,38,63.3,37.9,62.6,37.7C62.6,37.8,62.5,37.7,62.6,37.7
			C62.5,37.7,62.6,37.7,62.6,37.7z"/>
	</g>
	<circle class="st4" cx="64.7" cy="54.2" r="0.8"/>
	<rect x="70.5" y="36.2" class="st4" width="4.3" height="16.1"/>
	<g>
		<g>
			<path class="st0" d="M76,34.6l-6.7,0.1l0.1-0.1L69.7,60l-0.3-0.3c2.2,0,4.5-0.1,6.7-0.1L75.7,60c0-4.2,0-8.4,0.1-12.6
				C75.8,43.2,75.9,39,76,34.6z M76.1,34.6c0.1,4.1,0.2,8.3,0.3,12.6c0.1,4.3,0.1,8.6,0.1,12.8c0,0.2-0.2,0.4-0.4,0.4
				c-2.2,0-4.5,0-6.7-0.1l0,0c-0.2,0-0.3-0.1-0.3-0.3l0.2-25.4c0-0.1,0-0.1,0.1-0.1l0,0L76.1,34.6z"/>
		</g>
	</g>
	<g>
		<path class="st0" d="M70.5,37.7c0.7-0.1,1.4-0.2,2.2-0.3c0.4,0,0.7-0.1,1.1-0.1c0.4,0.1,0.7,0.1,1.1,0.3c0,0,0,0,0,0.1
			c0,0,0,0,0,0c-0.4,0.2-0.7,0.3-1.1,0.3c-0.4,0-0.7,0-1.1-0.1C72,38,71.3,37.9,70.5,37.7C70.5,37.8,70.5,37.7,70.5,37.7
			C70.5,37.7,70.5,37.7,70.5,37.7z"/>
	</g>
	<circle class="st4" cx="72.7" cy="54.2" r="0.8"/>
	<line class="st5" x1="9.7" y1="0.5" x2="9.7" y2="166.7"/>
	<line class="st5" x1="151.4" y1="0.5" x2="151.4" y2="166.7"/>
	<line class="st5" x1="80.5" y1="166.7" x2="80.5" y2="0.5"/>
	<g>
		<g>
			<g id="XMLID_47_">
				<path class="st0" d="M111.6,99.4c0.1,0.9,0.3,1.9,0.3,2.8c0,0.5,0.2,0.9,0.1,1.4c-0.1,0.5-0.2,0.9-0.4,1.4c0,0-0.1,0-0.1,0
					c0,0,0,0,0,0c-0.3-0.5-0.4-0.9-0.5-1.4c-0.1-0.5,0.1-0.9,0.1-1.4C111.2,101.3,111.4,100.3,111.6,99.4
					C111.5,99.3,111.5,99.3,111.6,99.4C111.6,99.3,111.6,99.3,111.6,99.4z"/>
			</g>
			<g id="XMLID_45_">
				<path class="st0" d="M114.4,102.3c-0.9,0.1-1.9,0.3-2.8,0.4c-0.5,0-0.9,0.2-1.4,0.1c-0.5-0.1-0.9-0.2-1.4-0.5c0,0,0-0.1,0-0.1
					c0,0,0,0,0,0c0.5-0.3,0.9-0.4,1.4-0.5c0.5-0.1,0.9,0.1,1.4,0.1C112.5,101.9,113.4,102,114.4,102.3
					C114.4,102.2,114.4,102.2,114.4,102.3C114.4,102.2,114.4,102.3,114.4,102.3z"/>
			</g>
		</g>
		<g id="XMLID_43_">
			<path class="st0" d="M123.2,97.9c0,0.4-0.2,0.8-0.4,1.1c-0.2,0.3-0.7,0.6-1.1,0.6c-0.9,0.1-1.8-0.7-1.8-1.7c0-0.5,0.1-1,0.5-1.4
				c0.3-0.4,0.9-0.6,1.4-0.6c0.5,0,1,0.3,1.2,0.7C123.2,97.1,123.3,97.6,123.2,97.9z M123.1,97.9c0-0.4-0.3-0.7-0.6-0.8
				c-0.3-0.1-0.6-0.1-0.8-0.1c-0.5,0.1-1,0.4-1,0.9c-0.1,0.6,0.4,1.2,1,1.2c0.3,0,0.7,0,0.9-0.2C123,98.7,123.2,98.3,123.1,97.9z"/>
		</g>
		<g id="XMLID_34_">
			<path class="st0" d="M118.8,111.2c0,0.6-0.2,1.1-0.6,1.6c-0.4,0.5-1,0.8-1.6,0.8c-1.3,0.1-2.5-1-2.5-2.4c0-0.7,0.2-1.4,0.7-1.9
				c0.5-0.5,1.2-0.8,1.9-0.8c0.7,0,1.3,0.4,1.7,0.9C118.7,110,118.9,110.6,118.8,111.2z M118.7,111.2c0-0.6-0.3-1.1-0.8-1.3
				c-0.4-0.3-0.9-0.3-1.3-0.3c-0.8,0-1.7,0.7-1.7,1.6c-0.1,0.9,0.7,1.9,1.7,1.9c0.5,0,1-0.1,1.4-0.5
				C118.5,112.3,118.8,111.7,118.7,111.2z"/>
		</g>
	</g>
	<g>
		<path class="st0" d="M151.4,30.3L9.7,30.6c-0.2,0-0.3-0.2-0.3-0.3v0L9.3,0.5c0-0.2,0.2-0.4,0.4-0.4L45.1,0l35.4,0
			c11.8,0,23.6,0,35.4,0.1l35.4,0.1c0.1,0,0.3,0.1,0.3,0.3v0L151.4,30.3z M151.3,30.2l-0.2-29.7l0.3,0.3l-35.4,0.1
			C104.1,1,92.3,1,80.5,1L45.1,1L9.7,0.9l0.4-0.4l-0.1,29.7l-0.3-0.3L151.3,30.2z"/>
	</g>
</g>
</svg>
