<?xml version="1.0" encoding="utf-8"?>
<!-- Generator: Adobe Illustrator 21.0.0, SVG Export Plug-In . SVG Version: 6.00 Build 0)  -->
<svg version="1.1" id="Layer_1" xmlns="http://www.w3.org/2000/svg" xmlns:xlink="http://www.w3.org/1999/xlink" x="0px" y="0px"
	 viewBox="0 0 168.6 168.3" style="enable-background:new 0 0 168.6 168.3;" xml:space="preserve">
<style type="text/css">
	.st0{fill:#8E94AA;}
	.st1{fill:#99C6FF;}
	.st2{fill:#B7DFB9;}
	.st3{fill:#FFD69A;}
	.st4{fill:#BCADDB;}
	.st5{fill:none;stroke:#8E94AA;stroke-width:2;stroke-linejoin:round;stroke-miterlimit:10;}
</style>
<g>
	<g>
		<path class="st0" d="M0,167.2c6.7-0.2,13.4-0.3,20.1-0.5l20.1-0.3c13.4-0.2,26.8-0.1,40.3-0.2c13.4,0.1,26.8,0.1,40.3,0.2
			l20.1,0.3c6.7,0.2,13.4,0.3,20.1,0.5c-6.7,0.2-13.4,0.3-20.1,0.5l-20.1,0.3c-13.4,0.2-26.8,0.2-40.3,0.2
			c-13.4-0.1-26.8-0.1-40.3-0.2l-20.1-0.3C13.4,167.5,6.7,167.4,0,167.2z"/>
	</g>
	<g>
		<g>
			<path class="st0" d="M153.6,90.4L11.9,91c-0.4,0-0.7-0.3-0.7-0.7l0,0v0l-0.1-29.7c0-0.4,0.4-0.8,0.8-0.8l0,0
				c11.8-0.1,23.6-0.2,35.4-0.2c11.8-0.1,23.6,0,35.4,0c11.8,0,23.6,0.1,35.4,0.2l17.7,0.1l17.7,0.2l0,0c0.3,0,0.5,0.2,0.5,0.6
				c0,5-0.1,10-0.2,15L153.6,90.4z M153.5,90.2l-0.2-14.9c-0.1-4.9-0.2-9.8-0.2-14.7l0.6,0.6l-17.7,0.2l-17.7,0.1
				c-11.8,0.1-23.6,0.2-35.4,0.2c-11.8,0-23.6,0.1-35.4,0c-11.8,0-23.6-0.1-35.4-0.2l0.8-0.8l-0.1,29.7l-0.7-0.7L153.5,90.2z"/>
		</g>
		<g>
			<path class="st0" d="M153.6,149.9l-141.7,0.6c-0.4,0-0.7-0.3-0.7-0.7l0,0v0l-0.1-29.7c0-0.4,0.4-0.8,0.8-0.8l0,0
				c11.8-0.1,23.6-0.2,35.4-0.2c11.8-0.1,23.6,0,35.4,0c11.8,0,23.6,0.1,35.4,0.2l17.7,0.1l17.7,0.2l0,0c0.3,0,0.5,0.2,0.5,0.6
				c0,5-0.1,10-0.2,15L153.6,149.9z M153.5,149.8l-0.2-14.9c-0.1-4.9-0.2-9.8-0.2-14.7l0.6,0.6l-17.7,0.2l-17.7,0.1
				c-11.8,0.1-23.6,0.2-35.4,0.2c-11.8,0-23.6,0.1-35.4,0c-11.8,0-23.6-0.1-35.4-0.2l0.8-0.8l-0.1,29.7l-0.7-0.7L153.5,149.8z"/>
		</g>
		<g>
			<rect x="19.4" y="6.9" class="st1" width="4.3" height="16.1"/>
		</g>
		<g>
			<g>
				<path class="st0" d="M24.8,5.4l-6.7,0.1l0.1-0.1l0.3,25.4l-0.4-0.4c2.2-0.1,4.5-0.1,6.7-0.1l-0.5,0.5c0-2.1,0-4.2,0-6.3
					c0-2.1,0-4.2,0.1-6.3C24.5,14,24.7,9.7,24.8,5.4z M24.9,5.3c0.2,4.1,0.3,8.3,0.4,12.6c0.1,2.1,0.1,4.3,0.1,6.4
					c0,2.1,0,4.3,0,6.4l0,0c0,0.3-0.2,0.5-0.5,0.5c-2.2,0-4.5,0-6.7-0.1l0,0c-0.2,0-0.4-0.2-0.4-0.4L18,5.3c0-0.1,0.1-0.1,0.1-0.1
					l0,0L24.9,5.3z"/>
			</g>
		</g>
		<g>
			<path class="st0" d="M19.4,8.4c0.7-0.1,1.4-0.2,2.2-0.3c0.4,0,0.7-0.1,1.1-0.1c0.4,0.1,0.7,0.1,1.1,0.3c0,0,0,0,0,0.1
				c0,0,0,0,0,0c-0.4,0.2-0.7,0.3-1.1,0.3c-0.4,0-0.7,0-1.1-0.1C20.8,8.7,20.1,8.6,19.4,8.4C19.3,8.5,19.3,8.4,19.4,8.4
				C19.3,8.4,19.3,8.4,19.4,8.4z"/>
		</g>
		<g>
			<circle class="st1" cx="21.5" cy="24.9" r="0.8"/>
		</g>
		<g>
			<rect x="27.4" y="6.9" class="st1" width="4.3" height="16.1"/>
		</g>
		<g>
			<g>
				<path class="st0" d="M32.8,5.4l-6.7,0.1l0.1-0.1l0.3,25.4l-0.4-0.4c2.2-0.1,4.5-0.1,6.7-0.1l-0.5,0.5c0-2.1,0-4.2,0-6.3
					c0-2.1,0-4.2,0.1-6.3C32.5,14,32.7,9.7,32.8,5.4z M32.9,5.3c0.2,4.1,0.3,8.3,0.4,12.6c0.1,2.1,0.1,4.3,0.1,6.4
					c0,2.1,0,4.3,0,6.4l0,0c0,0.3-0.2,0.5-0.5,0.5c-2.2,0-4.5,0-6.7-0.1l0,0c-0.2,0-0.4-0.2-0.4-0.4l0.3-25.4c0-0.1,0.1-0.1,0.1-0.1
					l0,0L32.9,5.3z"/>
			</g>
		</g>
		<g>
			<path class="st0" d="M27.4,8.4c0.7-0.1,1.4-0.2,2.2-0.3c0.4,0,0.7-0.1,1.1-0.1c0.4,0.1,0.7,0.1,1.1,0.3c0,0,0,0,0,0.1
				c0,0,0,0,0,0c-0.4,0.2-0.7,0.3-1.1,0.3c-0.4,0-0.7,0-1.1-0.1C28.8,8.7,28.1,8.6,27.4,8.4C27.3,8.5,27.3,8.4,27.4,8.4
				C27.3,8.4,27.3,8.4,27.4,8.4z"/>
		</g>
		<g>
			<circle class="st1" cx="29.5" cy="24.9" r="0.8"/>
		</g>
		<g>
			<rect x="35.3" y="6.9" class="st1" width="4.3" height="16.1"/>
		</g>
		<g>
			<g>
				<path class="st0" d="M40.8,5.4l-6.7,0.1l0.1-0.1l0.3,25.4l-0.4-0.4c2.2-0.1,4.5-0.1,6.7-0.1l-0.5,0.5c0-2.1,0-4.2,0-6.3
					c0-2.1,0-4.2,0.1-6.3C40.5,14,40.6,9.7,40.8,5.4z M40.9,5.3c0.2,4.1,0.3,8.3,0.4,12.6c0.1,2.1,0.1,4.3,0.1,6.4
					c0,2.1,0,4.3,0,6.4l0,0c0,0.3-0.2,0.5-0.5,0.5c-2.2,0-4.5,0-6.7-0.1l0,0c-0.2,0-0.4-0.2-0.4-0.4L34,5.3c0-0.1,0.1-0.1,0.1-0.1
					l0,0L40.9,5.3z"/>
			</g>
		</g>
		<g>
			<path class="st0" d="M35.3,8.4c0.7-0.1,1.4-0.2,2.2-0.3c0.4,0,0.7-0.1,1.1-0.1c0.4,0.1,0.7,0.1,1.1,0.3c0,0,0,0,0,0.1
				c0,0,0,0,0,0c-0.4,0.2-0.7,0.3-1.1,0.3c-0.4,0-0.7,0-1.1-0.1C36.8,8.7,36,8.6,35.3,8.4C35.3,8.5,35.3,8.4,35.3,8.4
				C35.3,8.4,35.3,8.4,35.3,8.4z"/>
		</g>
		<g>
			<circle class="st1" cx="37.5" cy="24.9" r="0.8"/>
		</g>
		<g>
			<rect x="42.9" y="6.9" class="st1" width="4.3" height="16.1"/>
		</g>
		<g>
			<g>
				<path class="st0" d="M48.4,5.4l-6.7,0.1l0.1-0.1l0.3,25.4l-0.4-0.4c2.2-0.1,4.5-0.1,6.7-0.1l-0.5,0.5c0-2.1,0-4.2,0-6.3
					c0-2.1,0-4.2,0.1-6.3C48.1,14,48.3,9.7,48.4,5.4z M48.5,5.3c0.2,4.1,0.3,8.3,0.4,12.6c0.1,2.1,0.1,4.3,0.1,6.4
					c0,2.1,0,4.3,0,6.4l0,0c0,0.3-0.2,0.5-0.5,0.5c-2.2,0-4.5,0-6.7-0.1l0,0c-0.2,0-0.4-0.2-0.4-0.4l0.3-25.4c0-0.1,0.1-0.1,0.1-0.1
					l0,0L48.5,5.3z"/>
			</g>
		</g>
		<g>
			<path class="st0" d="M42.9,8.4c0.7-0.1,1.4-0.2,2.2-0.3c0.4,0,0.7-0.1,1.1-0.1c0.4,0.1,0.7,0.1,1.1,0.3c0,0,0,0,0,0.1
				c0,0,0,0,0,0c-0.4,0.2-0.7,0.3-1.1,0.3c-0.4,0-0.7,0-1.1-0.1C44.4,8.7,43.6,8.6,42.9,8.4C42.9,8.5,42.9,8.4,42.9,8.4
				C42.9,8.4,42.9,8.4,42.9,8.4z"/>
		</g>
		<g>
			<circle class="st1" cx="45.1" cy="24.9" r="0.8"/>
		</g>
		<g>
			<rect x="50.8" y="6.9" class="st1" width="4.3" height="16.1"/>
		</g>
		<g>
			<g>
				<path class="st0" d="M56.2,5.4l-6.7,0.1l0.1-0.1L50,30.7l-0.4-0.4c2.2-0.1,4.5-0.1,6.7-0.1l-0.5,0.5c0-2.1,0-4.2,0-6.3
					c0-2.1,0-4.2,0.1-6.3C55.9,14,56.1,9.7,56.2,5.4z M56.3,5.3c0.2,4.1,0.3,8.3,0.4,12.6c0.1,2.1,0.1,4.3,0.1,6.4
					c0,2.1,0,4.3,0,6.4l0,0c0,0.3-0.2,0.5-0.5,0.5c-2.2,0-4.5,0-6.7-0.1l0,0c-0.2,0-0.4-0.2-0.4-0.4l0.3-25.4c0-0.1,0.1-0.1,0.1-0.1
					l0,0L56.3,5.3z"/>
			</g>
		</g>
		<g>
			<path class="st0" d="M50.8,8.4c0.7-0.1,1.4-0.2,2.2-0.3c0.4,0,0.7-0.1,1.1-0.1c0.4,0.1,0.7,0.1,1.1,0.3c0,0,0,0,0,0.1
				c0,0,0,0,0,0c-0.4,0.2-0.7,0.3-1.1,0.3c-0.4,0-0.7,0-1.1-0.1C52.2,8.7,51.5,8.6,50.8,8.4C50.7,8.5,50.7,8.4,50.8,8.4
				C50.7,8.4,50.7,8.4,50.8,8.4z"/>
		</g>
		<g>
			<circle class="st1" cx="52.9" cy="24.9" r="0.8"/>
		</g>
		<g>
			<rect x="58.8" y="6.9" class="st1" width="4.3" height="16.1"/>
		</g>
		<g>
			<g>
				<path class="st0" d="M64.2,5.4l-6.7,0.1l0.1-0.1L58,30.7l-0.4-0.4c2.2-0.1,4.5-0.1,6.7-0.1l-0.5,0.5c0-2.1,0-4.2,0-6.3
					c0-2.1,0-4.2,0.1-6.3C63.9,14,64.1,9.7,64.2,5.4z M64.3,5.3c0.2,4.1,0.3,8.3,0.4,12.6c0.1,2.1,0.1,4.3,0.1,6.4
					c0,2.1,0,4.3,0,6.4l0,0c0,0.3-0.2,0.5-0.5,0.5c-2.2,0-4.5,0-6.7-0.1l0,0c-0.2,0-0.4-0.2-0.4-0.4l0.3-25.4c0-0.1,0.1-0.1,0.1-0.1
					l0,0L64.3,5.3z"/>
			</g>
		</g>
		<g>
			<path class="st0" d="M58.8,8.4c0.7-0.1,1.4-0.2,2.2-0.3c0.4,0,0.7-0.1,1.1-0.1c0.4,0.1,0.7,0.1,1.1,0.3c0,0,0,0,0,0.1
				c0,0,0,0,0,0c-0.4,0.2-0.7,0.3-1.1,0.3c-0.4,0-0.7,0-1.1-0.1C60.2,8.7,59.5,8.6,58.8,8.4C58.7,8.5,58.7,8.4,58.8,8.4
				C58.7,8.4,58.7,8.4,58.8,8.4z"/>
		</g>
		<g>
			<circle class="st1" cx="60.9" cy="24.9" r="0.8"/>
		</g>
		<g>
			<rect x="66.7" y="6.9" class="st1" width="4.3" height="16.1"/>
		</g>
		<g>
			<g>
				<path class="st0" d="M72.2,5.4l-6.7,0.1l0.1-0.1l0.3,25.4l-0.4-0.4c2.2-0.1,4.5-0.1,6.7-0.1l-0.5,0.5c0-2.1,0-4.2,0-6.3
					c0-2.1,0-4.2,0.1-6.3C71.9,14,72,9.7,72.2,5.4z M72.3,5.3c0.2,4.1,0.3,8.3,0.4,12.6c0.1,2.1,0.1,4.3,0.1,6.4c0,2.1,0,4.3,0,6.4
					l0,0c0,0.3-0.2,0.5-0.5,0.5c-2.2,0-4.5,0-6.7-0.1l0,0c-0.2,0-0.4-0.2-0.4-0.4l0.3-25.4c0-0.1,0.1-0.1,0.1-0.1l0,0L72.3,5.3z"/>
			</g>
		</g>
		<g>
			<path class="st0" d="M66.7,8.4c0.7-0.1,1.4-0.2,2.2-0.3c0.4,0,0.7-0.1,1.1-0.1c0.4,0.1,0.7,0.1,1.1,0.3c0,0,0,0,0,0.1
				c0,0,0,0,0,0c-0.4,0.2-0.7,0.3-1.1,0.3c-0.4,0-0.7,0-1.1-0.1C68.2,8.7,67.4,8.6,66.7,8.4C66.7,8.5,66.7,8.4,66.7,8.4
				C66.7,8.4,66.7,8.4,66.7,8.4z"/>
		</g>
		<g>
			<circle class="st1" cx="68.9" cy="24.9" r="0.8"/>
		</g>
		<rect x="88.4" y="36.7" class="st2" width="4.3" height="16.1"/>
		<g>
			<g>
				<path class="st0" d="M93.9,35.2l-6.7,0.1l0.1-0.1l0.3,25.4l-0.4-0.4c2.2-0.1,4.5-0.1,6.7-0.1l-0.5,0.5c0-2.1,0-4.2,0-6.3
					c0-2.1,0-4.2,0.1-6.3C93.6,43.8,93.7,39.6,93.9,35.2z M94,35.1c0.2,4.1,0.3,8.3,0.4,12.6c0.1,2.1,0.1,4.3,0.1,6.4
					c0,2.1,0,4.3,0,6.4l0,0c0,0.3-0.2,0.5-0.5,0.5c-2.2,0-4.5,0-6.7-0.1l0,0c-0.2,0-0.4-0.2-0.4-0.4l0.3-25.4c0-0.1,0.1-0.1,0.1-0.1
					l0,0L94,35.1z"/>
			</g>
		</g>
		<g>
			<path class="st0" d="M88.4,38.2c0.7-0.1,1.4-0.2,2.2-0.3c0.4,0,0.7-0.1,1.1-0.1c0.4,0.1,0.7,0.1,1.1,0.3c0,0,0,0,0,0.1
				c0,0,0,0,0,0c-0.4,0.2-0.7,0.3-1.1,0.3c-0.4,0-0.7,0-1.1-0.1C89.9,38.5,89.1,38.4,88.4,38.2C88.4,38.3,88.4,38.3,88.4,38.2
				C88.4,38.3,88.4,38.2,88.4,38.2z"/>
		</g>
		<circle class="st2" cx="90.6" cy="54.7" r="0.8"/>
		<rect x="96.2" y="36.7" class="st2" width="4.3" height="16.1"/>
		<g>
			<g>
				<path class="st0" d="M101.7,35.2l-6.7,0.1l0.1-0.1l0.3,25.4l-0.4-0.4c2.2-0.1,4.5-0.1,6.7-0.1l-0.5,0.5c0-2.1,0-4.2,0-6.3
					c0-2.1,0-4.2,0.1-6.3C101.4,43.8,101.6,39.6,101.7,35.2z M101.8,35.1c0.2,4.1,0.3,8.3,0.4,12.6c0.1,2.1,0.1,4.3,0.1,6.4
					c0,2.1,0,4.3,0,6.4l0,0c0,0.3-0.2,0.5-0.5,0.5c-2.2,0-4.5,0-6.7-0.1l0,0c-0.2,0-0.4-0.2-0.4-0.4l0.3-25.4c0-0.1,0.1-0.1,0.1-0.1
					l0,0L101.8,35.1z"/>
			</g>
		</g>
		<g>
			<path class="st0" d="M96.2,38.2c0.7-0.1,1.4-0.2,2.2-0.3c0.4,0,0.7-0.1,1.1-0.1c0.4,0.1,0.7,0.1,1.1,0.3c0,0,0,0,0,0.1
				c0,0,0,0,0,0c-0.4,0.2-0.7,0.3-1.1,0.3c-0.4,0-0.7,0-1.1-0.1C97.7,38.5,97,38.4,96.2,38.2C96.2,38.3,96.2,38.3,96.2,38.2
				C96.2,38.3,96.2,38.2,96.2,38.2z"/>
		</g>
		<circle class="st2" cx="98.4" cy="54.7" r="0.8"/>
		<rect x="104.3" y="36.7" class="st2" width="4.3" height="16.1"/>
		<g>
			<g>
				<path class="st0" d="M109.7,35.2l-6.7,0.1l0.1-0.1l0.3,25.4l-0.4-0.4c2.2-0.1,4.5-0.1,6.7-0.1l-0.5,0.5c0-2.1,0-4.2,0-6.3
					c0-2.1,0-4.2,0.1-6.3C109.4,43.8,109.6,39.6,109.7,35.2z M109.8,35.1c0.2,4.1,0.3,8.3,0.4,12.6c0.1,2.1,0.1,4.3,0.1,6.4
					c0,2.1,0,4.3,0,6.4l0,0c0,0.3-0.2,0.5-0.5,0.5c-2.2,0-4.5,0-6.7-0.1l0,0c-0.2,0-0.4-0.2-0.4-0.4l0.3-25.4c0-0.1,0.1-0.1,0.1-0.1
					l0,0L109.8,35.1z"/>
			</g>
		</g>
		<g>
			<path class="st0" d="M104.3,38.2c0.7-0.1,1.4-0.2,2.2-0.3c0.4,0,0.7-0.1,1.1-0.1c0.4,0.1,0.7,0.1,1.1,0.3c0,0,0,0,0,0.1
				c0,0,0,0,0,0c-0.4,0.2-0.7,0.3-1.1,0.3c-0.4,0-0.7,0-1.1-0.1C105.7,38.5,105,38.4,104.3,38.2C104.2,38.3,104.2,38.3,104.3,38.2
				C104.2,38.3,104.2,38.2,104.3,38.2z"/>
		</g>
		<circle class="st2" cx="106.4" cy="54.7" r="0.8"/>
		<rect x="112.2" y="36.7" class="st2" width="4.3" height="16.1"/>
		<g>
			<g>
				<path class="st0" d="M117.7,35.2l-6.7,0.1l0.1-0.1l0.3,25.4l-0.4-0.4c2.2-0.1,4.5-0.1,6.7-0.1l-0.5,0.5c0-2.1,0-4.2,0-6.3
					c0-2.1,0-4.2,0.1-6.3C117.4,43.8,117.5,39.6,117.7,35.2z M117.8,35.1c0.2,4.1,0.3,8.3,0.4,12.6c0.1,2.1,0.1,4.3,0.1,6.4
					c0,2.1,0,4.3,0,6.4l0,0c0,0.3-0.2,0.5-0.5,0.5c-2.2,0-4.5,0-6.7-0.1l0,0c-0.2,0-0.4-0.2-0.4-0.4l0.3-25.4c0-0.1,0.1-0.1,0.1-0.1
					l0,0L117.8,35.1z"/>
			</g>
		</g>
		<g>
			<path class="st0" d="M112.2,38.2c0.7-0.1,1.4-0.2,2.2-0.3c0.4,0,0.7-0.1,1.1-0.1c0.4,0.1,0.7,0.1,1.1,0.3c0,0,0,0,0,0.1
				c0,0,0,0,0,0c-0.4,0.2-0.7,0.3-1.1,0.3c-0.4,0-0.7,0-1.1-0.1C113.7,38.5,112.9,38.4,112.2,38.2C112.2,38.3,112.2,38.3,112.2,38.2
				C112.2,38.3,112.2,38.2,112.2,38.2z"/>
		</g>
		<circle class="st2" cx="114.4" cy="54.7" r="0.8"/>
		<rect x="119.8" y="36.7" class="st2" width="4.3" height="16.1"/>
		<g>
			<g>
				<path class="st0" d="M125.3,35.2l-6.7,0.1l0.1-0.1l0.3,25.4l-0.4-0.4c2.2-0.1,4.5-0.1,6.7-0.1l-0.5,0.5c0-2.1,0-4.2,0-6.3
					c0-2.1,0-4.2,0.1-6.3C125,43.8,125.1,39.6,125.3,35.2z M125.4,35.1c0.2,4.1,0.3,8.3,0.4,12.6c0.1,2.1,0.1,4.3,0.1,6.4
					c0,2.1,0,4.3,0,6.4l0,0c0,0.3-0.2,0.5-0.5,0.5c-2.2,0-4.5,0-6.7-0.1l0,0c-0.2,0-0.4-0.2-0.4-0.4l0.3-25.4c0-0.1,0.1-0.1,0.1-0.1
					l0,0L125.4,35.1z"/>
			</g>
		</g>
		<g>
			<path class="st0" d="M119.8,38.2c0.7-0.1,1.4-0.2,2.2-0.3c0.4,0,0.7-0.1,1.1-0.1c0.4,0.1,0.7,0.1,1.1,0.3c0,0,0,0,0,0.1
				c0,0,0,0,0,0c-0.4,0.2-0.7,0.3-1.1,0.3c-0.4,0-0.7,0-1.1-0.1C121.3,38.5,120.5,38.4,119.8,38.2C119.8,38.3,119.8,38.3,119.8,38.2
				C119.8,38.3,119.8,38.2,119.8,38.2z"/>
		</g>
		<circle class="st2" cx="122" cy="54.7" r="0.8"/>
		<rect x="127.6" y="36.7" class="st2" width="4.3" height="16.1"/>
		<g>
			<g>
				<path class="st0" d="M133.1,35.2l-6.7,0.1l0.1-0.1l0.3,25.4l-0.4-0.4c2.2-0.1,4.5-0.1,6.7-0.1l-0.5,0.5c0-2.1,0-4.2,0-6.3
					c0-2.1,0-4.2,0.1-6.3C132.8,43.8,133,39.6,133.1,35.2z M133.2,35.1c0.2,4.1,0.3,8.3,0.4,12.6c0.1,2.1,0.1,4.3,0.1,6.4
					c0,2.1,0,4.3,0,6.4l0,0c0,0.3-0.2,0.5-0.5,0.5c-2.2,0-4.5,0-6.7-0.1l0,0c-0.2,0-0.4-0.2-0.4-0.4l0.3-25.4c0-0.1,0.1-0.1,0.1-0.1
					l0,0L133.2,35.1z"/>
			</g>
		</g>
		<g>
			<path class="st0" d="M127.6,38.2c0.7-0.1,1.4-0.2,2.2-0.3c0.4,0,0.7-0.1,1.1-0.1c0.4,0.1,0.7,0.1,1.1,0.3c0,0,0,0,0,0.1
				c0,0,0,0,0,0c-0.4,0.2-0.7,0.3-1.1,0.3c-0.4,0-0.7,0-1.1-0.1C129.1,38.5,128.4,38.4,127.6,38.2C127.6,38.3,127.6,38.3,127.6,38.2
				C127.6,38.3,127.6,38.2,127.6,38.2z"/>
		</g>
		<circle class="st2" cx="129.8" cy="54.7" r="0.8"/>
		
			<rect x="140" y="36.5" transform="matrix(0.9192 0.3939 -0.3939 0.9192 29.0603 -52.4142)" class="st2" width="4.3" height="16.1"/>
		<g>
			<g>
				<path class="st0" d="M149,37.1l-6.2-2.5l0.2-0.1l-9.8,23.5l-0.2-0.5c2.1,0.8,4.1,1.7,6.2,2.5l-0.7,0.3c0.8-1.9,1.6-3.8,2.5-5.7
					c0.8-1.9,1.7-3.8,2.6-5.7C145.4,44.9,147.2,41,149,37.1z M149.1,37c-1.5,3.8-3,7.7-4.6,11.7c-0.8,2-1.6,4-2.4,5.9
					c-0.8,2-1.7,4-2.5,5.9l0,0c-0.1,0.3-0.4,0.4-0.7,0.3c-2-0.9-4.1-1.8-6.1-2.7l0,0c-0.2-0.1-0.3-0.3-0.2-0.5l10.3-23.2
					c0-0.1,0.1-0.1,0.2-0.1l0,0L149.1,37z"/>
			</g>
		</g>
		<g>
			<path class="st0" d="M142.8,37.7c0.7,0.2,1.4,0.4,2.1,0.6c0.3,0.1,0.7,0.2,1,0.4c0.3,0.2,0.6,0.4,0.9,0.7c0,0,0,0,0,0.1
				c0,0,0,0,0,0c-0.4,0-0.8,0-1.1-0.1c-0.4-0.1-0.7-0.3-1-0.5C144,38.5,143.4,38.2,142.8,37.7C142.8,37.8,142.8,37.7,142.8,37.7
				C142.8,37.7,142.8,37.7,142.8,37.7z"/>
		</g>
		
			<ellipse transform="matrix(0.3939 -0.9192 0.9192 0.3939 34.4762 159.6747)" class="st2" cx="138.3" cy="53.7" rx="0.8" ry="0.8"/>
		<rect x="110.2" y="6.9" class="st3" width="4.3" height="16.1"/>
		<g>
			<g>
				<path class="st0" d="M115.7,5.4L109,5.5l0.1-0.1l0.3,25.4l-0.4-0.4c2.2-0.1,4.5-0.1,6.7-0.1l-0.5,0.5c0-2.1,0-4.2,0-6.3
					c0-2.1,0-4.2,0.1-6.3C115.4,14,115.5,9.7,115.7,5.4z M115.8,5.3c0.2,4.1,0.3,8.3,0.4,12.6c0.1,2.1,0.1,4.3,0.1,6.4
					c0,2.1,0,4.3,0,6.4l0,0c0,0.3-0.2,0.5-0.5,0.5c-2.2,0-4.5,0-6.7-0.1l0,0c-0.2,0-0.4-0.2-0.4-0.4l0.3-25.4c0-0.1,0.1-0.1,0.1-0.1
					l0,0L115.8,5.3z"/>
			</g>
		</g>
		<g>
			<path class="st0" d="M110.2,8.4c0.7-0.1,1.4-0.2,2.2-0.3c0.4,0,0.7-0.1,1.1-0.1c0.4,0.1,0.7,0.1,1.1,0.3c0,0,0,0,0,0.1
				c0,0,0,0,0,0c-0.4,0.2-0.7,0.3-1.1,0.3c-0.4,0-0.7,0-1.1-0.1C111.7,8.7,110.9,8.6,110.2,8.4C110.2,8.5,110.2,8.4,110.2,8.4
				C110.2,8.4,110.2,8.4,110.2,8.4z"/>
		</g>
		<circle class="st3" cx="112.4" cy="24.9" r="0.8"/>
		<rect x="117.8" y="6.9" class="st3" width="4.3" height="16.1"/>
		<g>
			<g>
				<path class="st0" d="M123.3,5.4l-6.7,0.1l0.1-0.1l0.3,25.4l-0.4-0.4c2.2-0.1,4.5-0.1,6.7-0.1l-0.5,0.5c0-2.1,0-4.2,0-6.3
					c0-2.1,0-4.2,0.1-6.3C123,14,123.1,9.7,123.3,5.4z M123.4,5.3c0.2,4.1,0.3,8.3,0.4,12.6c0.1,2.1,0.1,4.3,0.1,6.4
					c0,2.1,0,4.3,0,6.4l0,0c0,0.3-0.2,0.5-0.5,0.5c-2.2,0-4.5,0-6.7-0.1l0,0c-0.2,0-0.4-0.2-0.4-0.4l0.3-25.4c0-0.1,0.1-0.1,0.1-0.1
					l0,0L123.4,5.3z"/>
			</g>
		</g>
		<g>
			<path class="st0" d="M117.8,8.4c0.7-0.1,1.4-0.2,2.2-0.3c0.4,0,0.7-0.1,1.1-0.1c0.4,0.1,0.7,0.1,1.1,0.3c0,0,0,0,0,0.1
				c0,0,0,0,0,0c-0.4,0.2-0.7,0.3-1.1,0.3c-0.4,0-0.7,0-1.1-0.1C119.3,8.7,118.5,8.6,117.8,8.4C117.8,8.5,117.8,8.4,117.8,8.4
				C117.8,8.4,117.8,8.4,117.8,8.4z"/>
		</g>
		<circle class="st3" cx="120" cy="24.9" r="0.8"/>
		<rect x="125.6" y="6.9" class="st3" width="4.3" height="16.1"/>
		<g>
			<g>
				<path class="st0" d="M131.1,5.4l-6.7,0.1l0.1-0.1l0.3,25.4l-0.4-0.4c2.2-0.1,4.5-0.1,6.7-0.1l-0.5,0.5c0-2.1,0-4.2,0-6.3
					c0-2.1,0-4.2,0.1-6.3C130.8,14,131,9.7,131.1,5.4z M131.2,5.3c0.2,4.1,0.3,8.3,0.4,12.6c0.1,2.1,0.1,4.3,0.1,6.4
					c0,2.1,0,4.3,0,6.4l0,0c0,0.3-0.2,0.5-0.5,0.5c-2.2,0-4.5,0-6.7-0.1l0,0c-0.2,0-0.4-0.2-0.4-0.4l0.3-25.4c0-0.1,0.1-0.1,0.1-0.1
					l0,0L131.2,5.3z"/>
			</g>
		</g>
		<g>
			<path class="st0" d="M125.6,8.4c0.7-0.1,1.4-0.2,2.2-0.3c0.4,0,0.7-0.1,1.1-0.1c0.4,0.1,0.7,0.1,1.1,0.3c0,0,0,0,0,0.1
				c0,0,0,0,0,0c-0.4,0.2-0.7,0.3-1.1,0.3c-0.4,0-0.7,0-1.1-0.1C127.1,8.7,126.4,8.6,125.6,8.4C125.6,8.5,125.6,8.4,125.6,8.4
				C125.6,8.4,125.6,8.4,125.6,8.4z"/>
		</g>
		<circle class="st3" cx="127.8" cy="24.9" r="0.8"/>
		<rect x="133.7" y="6.9" class="st3" width="4.3" height="16.1"/>
		<g>
			<g>
				<path class="st0" d="M139.1,5.4l-6.7,0.1l0.1-0.1l0.3,25.4l-0.4-0.4c2.2-0.1,4.5-0.1,6.7-0.1l-0.5,0.5c0-2.1,0-4.2,0-6.3
					c0-2.1,0-4.2,0.1-6.3C138.8,14,139,9.7,139.1,5.4z M139.2,5.3c0.2,4.1,0.3,8.3,0.4,12.6c0.1,2.1,0.1,4.3,0.1,6.4
					c0,2.1,0,4.3,0,6.4l0,0c0,0.3-0.2,0.5-0.5,0.5c-2.2,0-4.5,0-6.7-0.1l0,0c-0.2,0-0.4-0.2-0.4-0.4l0.3-25.4c0-0.1,0.1-0.1,0.1-0.1
					l0,0L139.2,5.3z"/>
			</g>
		</g>
		<g>
			<path class="st0" d="M133.7,8.4c0.7-0.1,1.4-0.2,2.2-0.3c0.4,0,0.7-0.1,1.1-0.1c0.4,0.1,0.7,0.1,1.1,0.3c0,0,0,0,0,0.1
				c0,0,0,0,0,0c-0.4,0.2-0.7,0.3-1.1,0.3c-0.4,0-0.7,0-1.1-0.1C135.1,8.7,134.4,8.6,133.7,8.4C133.6,8.5,133.6,8.4,133.7,8.4
				C133.6,8.4,133.6,8.4,133.7,8.4z"/>
		</g>
		<circle class="st3" cx="135.8" cy="24.9" r="0.8"/>
		<rect x="141.6" y="6.9" class="st3" width="4.3" height="16.1"/>
		<g>
			<g>
				<path class="st0" d="M147.1,5.4l-6.7,0.1l0.1-0.1l0.3,25.4l-0.4-0.4c2.2-0.1,4.5-0.1,6.7-0.1l-0.5,0.5c0-2.1,0-4.2,0-6.3
					c0-2.1,0-4.2,0.1-6.3C146.8,14,146.9,9.7,147.1,5.4z M147.2,5.3c0.2,4.1,0.3,8.3,0.4,12.6c0.1,2.1,0.1,4.3,0.1,6.4
					c0,2.1,0,4.3,0,6.4l0,0c0,0.3-0.2,0.5-0.5,0.5c-2.2,0-4.5,0-6.7-0.1l0,0c-0.2,0-0.4-0.2-0.4-0.4l0.3-25.4c0-0.1,0.1-0.1,0.1-0.1
					l0,0L147.2,5.3z"/>
			</g>
		</g>
		<g>
			<path class="st0" d="M141.6,8.4c0.7-0.1,1.4-0.2,2.2-0.3c0.4,0,0.7-0.1,1.1-0.1c0.4,0.1,0.7,0.1,1.1,0.3c0,0,0,0,0,0.1
				c0,0,0,0,0,0c-0.4,0.2-0.7,0.3-1.1,0.3c-0.4,0-0.7,0-1.1-0.1C143.1,8.7,142.3,8.6,141.6,8.4C141.6,8.5,141.6,8.4,141.6,8.4
				C141.6,8.4,141.6,8.4,141.6,8.4z"/>
		</g>
		<circle class="st3" cx="143.8" cy="24.9" r="0.8"/>
		<rect x="19.5" y="36.7" class="st4" width="4.3" height="16.1"/>
		<g>
			<g>
				<path class="st0" d="M25,35.2l-6.7,0.1l0.1-0.1l0.3,25.4l-0.4-0.4c2.2-0.1,4.5-0.1,6.7-0.1l-0.5,0.5c0-2.1,0-4.2,0-6.3
					c0-2.1,0-4.2,0.1-6.3C24.7,43.8,24.9,39.6,25,35.2z M25.1,35.1c0.2,4.1,0.3,8.3,0.4,12.6c0.1,2.1,0.1,4.3,0.1,6.4
					c0,2.1,0,4.3,0,6.4l0,0c0,0.3-0.2,0.5-0.5,0.5c-2.2,0-4.5,0-6.7-0.1l0,0c-0.2,0-0.4-0.2-0.4-0.4l0.3-25.4c0-0.1,0.1-0.1,0.1-0.1
					l0,0L25.1,35.1z"/>
			</g>
		</g>
		<g>
			<path class="st0" d="M19.5,38.2c0.7-0.1,1.4-0.2,2.2-0.3c0.4,0,0.7-0.1,1.1-0.1c0.4,0.1,0.7,0.1,1.1,0.3c0,0,0,0,0,0.1
				c0,0,0,0,0,0c-0.4,0.2-0.7,0.3-1.1,0.3c-0.4,0-0.7,0-1.1-0.1C21,38.5,20.2,38.4,19.5,38.2C19.5,38.3,19.5,38.3,19.5,38.2
				C19.5,38.3,19.5,38.2,19.5,38.2z"/>
		</g>
		<circle class="st4" cx="21.7" cy="54.7" r="0.8"/>
		<rect x="27.4" y="36.7" class="st4" width="4.3" height="16.1"/>
		<g>
			<g>
				<path class="st0" d="M32.8,35.2l-6.7,0.1l0.1-0.1l0.3,25.4l-0.4-0.4c2.2-0.1,4.5-0.1,6.7-0.1l-0.5,0.5c0-2.1,0-4.2,0-6.3
					c0-2.1,0-4.2,0.1-6.3C32.5,43.8,32.7,39.6,32.8,35.2z M32.9,35.1c0.2,4.1,0.3,8.3,0.4,12.6c0.1,2.1,0.1,4.3,0.1,6.4
					c0,2.1,0,4.3,0,6.4l0,0c0,0.3-0.2,0.5-0.5,0.5c-2.2,0-4.5,0-6.7-0.1l0,0c-0.2,0-0.4-0.2-0.4-0.4L26,35.2c0-0.1,0.1-0.1,0.1-0.1
					l0,0L32.9,35.1z"/>
			</g>
		</g>
		<g>
			<path class="st0" d="M27.4,38.2c0.7-0.1,1.4-0.2,2.2-0.3c0.4,0,0.7-0.1,1.1-0.1c0.4,0.1,0.7,0.1,1.1,0.3c0,0,0,0,0,0.1
				c0,0,0,0,0,0c-0.4,0.2-0.7,0.3-1.1,0.3c-0.4,0-0.7,0-1.1-0.1C28.8,38.5,28.1,38.4,27.4,38.2C27.3,38.3,27.3,38.3,27.4,38.2
				C27.3,38.3,27.3,38.2,27.4,38.2z"/>
		</g>
		<circle class="st4" cx="29.5" cy="54.7" r="0.8"/>
		<rect x="48.9" y="36.7" class="st4" width="4.3" height="16.1"/>
		<g>
			<g>
				<path class="st0" d="M54.4,35.2l-6.7,0.1l0.1-0.1l0.3,25.4l-0.4-0.4c2.2-0.1,4.5-0.1,6.7-0.1l-0.5,0.5c0-2.1,0-4.2,0-6.3
					c0-2.1,0-4.2,0.1-6.3C54.1,43.8,54.3,39.6,54.4,35.2z M54.5,35.1c0.2,4.1,0.3,8.3,0.4,12.6c0.1,2.1,0.1,4.3,0.1,6.4
					c0,2.1,0,4.3,0,6.4l0,0c0,0.3-0.2,0.5-0.5,0.5c-2.2,0-4.5,0-6.7-0.1l0,0c-0.2,0-0.4-0.2-0.4-0.4l0.3-25.4c0-0.1,0.1-0.1,0.1-0.1
					l0,0L54.5,35.1z"/>
			</g>
		</g>
		<g>
			<path class="st0" d="M48.9,38.2c0.7-0.1,1.4-0.2,2.2-0.3c0.4,0,0.7-0.1,1.1-0.1c0.4,0.1,0.7,0.1,1.1,0.3c0,0,0,0,0,0.1
				c0,0,0,0,0,0c-0.4,0.2-0.7,0.3-1.1,0.3c-0.4,0-0.7,0-1.1-0.1C50.4,38.5,49.6,38.4,48.9,38.2C48.9,38.3,48.9,38.3,48.9,38.2
				C48.9,38.3,48.9,38.2,48.9,38.2z"/>
		</g>
		<circle class="st4" cx="51.1" cy="54.7" r="0.8"/>
		<rect x="56.8" y="36.7" class="st4" width="4.3" height="16.1"/>
		<g>
			<g>
				<path class="st0" d="M62.2,35.2l-6.7,0.1l0.1-0.1L56,60.6l-0.4-0.4c2.2-0.1,4.5-0.1,6.7-0.1l-0.5,0.5c0-2.1,0-4.2,0-6.3
					c0-2.1,0-4.2,0.1-6.3C61.9,43.8,62.1,39.6,62.2,35.2z M62.3,35.1c0.2,4.1,0.3,8.3,0.4,12.6c0.1,2.1,0.1,4.3,0.1,6.4
					c0,2.1,0,4.3,0,6.4l0,0c0,0.3-0.2,0.5-0.5,0.5c-2.2,0-4.5,0-6.7-0.1l0,0c-0.2,0-0.4-0.2-0.4-0.4l0.3-25.4c0-0.1,0.1-0.1,0.1-0.1
					l0,0L62.3,35.1z"/>
			</g>
		</g>
		<g>
			<path class="st0" d="M56.8,38.2c0.7-0.1,1.4-0.2,2.2-0.3c0.4,0,0.7-0.1,1.1-0.1c0.4,0.1,0.7,0.1,1.1,0.3c0,0,0,0,0,0.1
				c0,0,0,0,0,0c-0.4,0.2-0.7,0.3-1.1,0.3c-0.4,0-0.7,0-1.1-0.1C58.2,38.5,57.5,38.4,56.8,38.2C56.7,38.3,56.7,38.3,56.8,38.2
				C56.7,38.3,56.7,38.2,56.8,38.2z"/>
		</g>
		<circle class="st4" cx="58.9" cy="54.7" r="0.8"/>
		<rect x="64.8" y="36.7" class="st4" width="4.3" height="16.1"/>
		<g>
			<g>
				<path class="st0" d="M70.2,35.2l-6.7,0.1l0.1-0.1L64,60.6l-0.4-0.4c2.2-0.1,4.5-0.1,6.7-0.1l-0.5,0.5c0-2.1,0-4.2,0-6.3
					c0-2.1,0-4.2,0.1-6.3C69.9,43.8,70.1,39.6,70.2,35.2z M70.3,35.1c0.2,4.1,0.3,8.3,0.4,12.6c0.1,2.1,0.1,4.3,0.1,6.4
					c0,2.1,0,4.3,0,6.4l0,0c0,0.3-0.2,0.5-0.5,0.5c-2.2,0-4.5,0-6.7-0.1l0,0c-0.2,0-0.4-0.2-0.4-0.4l0.3-25.4c0-0.1,0.1-0.1,0.1-0.1
					l0,0L70.3,35.1z"/>
			</g>
		</g>
		<g>
			<path class="st0" d="M64.8,38.2c0.7-0.1,1.4-0.2,2.2-0.3c0.4,0,0.7-0.1,1.1-0.1c0.4,0.1,0.7,0.1,1.1,0.3c0,0,0,0,0,0.1
				c0,0,0,0,0,0c-0.4,0.2-0.7,0.3-1.1,0.3c-0.4,0-0.7,0-1.1-0.1C66.2,38.5,65.5,38.4,64.8,38.2C64.7,38.3,64.7,38.3,64.8,38.2
				C64.7,38.3,64.7,38.2,64.8,38.2z"/>
		</g>
		<circle class="st4" cx="66.9" cy="54.7" r="0.8"/>
		<rect x="72.7" y="36.7" class="st4" width="4.3" height="16.1"/>
		<g>
			<g>
				<path class="st0" d="M78.2,35.2l-6.7,0.1l0.1-0.1l0.3,25.4l-0.4-0.4c2.2-0.1,4.5-0.1,6.7-0.1l-0.5,0.5c0-2.1,0-4.2,0-6.3
					c0-2.1,0-4.2,0.1-6.3C77.9,43.8,78,39.6,78.2,35.2z M78.3,35.1c0.2,4.1,0.3,8.3,0.4,12.6c0.1,2.1,0.1,4.3,0.1,6.4
					c0,2.1,0,4.3,0,6.4l0,0c0,0.3-0.2,0.5-0.5,0.5c-2.2,0-4.5,0-6.7-0.1l0,0c-0.2,0-0.4-0.2-0.4-0.4l0.3-25.4c0-0.1,0.1-0.1,0.1-0.1
					l0,0L78.3,35.1z"/>
			</g>
		</g>
		<g>
			<path class="st0" d="M72.7,38.2c0.7-0.1,1.4-0.2,2.2-0.3c0.4,0,0.7-0.1,1.1-0.1c0.4,0.1,0.7,0.1,1.1,0.3c0,0,0,0,0,0.1
				c0,0,0,0,0,0c-0.4,0.2-0.7,0.3-1.1,0.3c-0.4,0-0.7,0-1.1-0.1C74.2,38.5,73.4,38.4,72.7,38.2C72.7,38.3,72.7,38.3,72.7,38.2
				C72.7,38.3,72.7,38.2,72.7,38.2z"/>
		</g>
		<circle class="st4" cx="74.9" cy="54.7" r="0.8"/>
		<line class="st5" x1="11.9" y1="1.1" x2="11.9" y2="167.2"/>
		<line class="st5" x1="153.5" y1="1.1" x2="153.5" y2="167.2"/>
		<line class="st5" x1="82.7" y1="167.2" x2="82.7" y2="1.1"/>
		<g>
			<g>
				<g id="XMLID_47_">
					<path class="st0" d="M113.8,99.9c0.2,0.9,0.4,1.9,0.5,2.8c0.1,0.5,0.3,0.9,0.2,1.4c-0.1,0.5-0.3,0.9-0.7,1.4c0,0-0.1,0-0.1,0
						c0,0,0,0,0,0c-0.4-0.5-0.6-0.9-0.7-1.4c-0.1-0.5,0.1-0.9,0.2-1.4c0.1-0.9,0.3-1.9,0.5-2.8C113.7,99.9,113.7,99.9,113.8,99.9
						C113.8,99.9,113.8,99.9,113.8,99.9z"/>
				</g>
				<g id="XMLID_45_">
					<path class="st0" d="M116.6,102.8c-0.9,0.2-1.9,0.4-2.8,0.5c-0.5,0.1-0.9,0.3-1.4,0.1c-0.5-0.1-0.9-0.3-1.4-0.7
						c0,0,0-0.1,0-0.1c0,0,0,0,0,0c0.5-0.4,0.9-0.6,1.4-0.7c0.5-0.1,0.9,0.1,1.4,0.1c0.9,0.1,1.9,0.3,2.8,0.5
						C116.6,102.7,116.6,102.7,116.6,102.8C116.6,102.8,116.6,102.8,116.6,102.8z"/>
				</g>
			</g>
			<g id="XMLID_43_">
				<path class="st0" d="M125.4,98.5c0,0.4-0.2,0.8-0.4,1.1c-0.2,0.4-0.7,0.6-1.1,0.7c-1,0.1-2-0.7-2-1.8c0-0.5,0.1-1.1,0.5-1.5
					c0.4-0.4,1-0.7,1.5-0.6c0.6,0,1.1,0.4,1.3,0.9C125.5,97.7,125.5,98.1,125.4,98.5z M125.3,98.5c0-0.4-0.3-0.7-0.6-0.7
					c-0.3-0.1-0.6,0-0.7,0c-0.2,0-0.3,0.1-0.5,0.2c-0.2,0.1-0.3,0.3-0.3,0.5c-0.1,0.4,0.3,1,0.8,1.1c0.3,0,0.6,0,0.9-0.2
					C125.1,99.2,125.3,98.9,125.3,98.5z"/>
			</g>
			<g id="XMLID_34_">
				<path class="st0" d="M121.1,111.7c0,0.6-0.2,1.1-0.6,1.6c-0.4,0.5-1,0.9-1.6,0.9c-0.7,0-1.3-0.2-1.9-0.7
					c-0.5-0.5-0.8-1.1-0.9-1.9c0-0.7,0.2-1.5,0.7-2c0.5-0.6,1.3-0.9,2-0.9c0.8,0,1.5,0.5,1.8,1.1C121,110.5,121.1,111.1,121.1,111.7
					z M120.9,111.7c0-0.5-0.4-1-0.8-1.2c-0.4-0.2-0.9-0.2-1.2-0.2c-0.4,0-0.7,0.2-1,0.4c-0.3,0.2-0.5,0.6-0.6,1
					c-0.1,0.8,0.6,1.7,1.5,1.8c0.5,0,1-0.1,1.4-0.4C120.7,112.8,120.9,112.2,120.9,111.7z"/>
			</g>
		</g>
		<g>
			<path class="st0" d="M153.6,30.9L11.9,31.5c-0.4,0-0.7-0.3-0.7-0.7l0,0v0L11.1,1.1c0-0.4,0.4-0.8,0.8-0.8l0,0
				C23.7,0.2,35.5,0,47.3,0C59.1,0,70.9,0,82.7,0c11.8,0,23.6,0.1,35.4,0.2l17.7,0.1l17.7,0.2l0,0c0.3,0,0.5,0.2,0.5,0.6
				c0,5-0.1,10-0.2,15L153.6,30.9z M153.5,30.7l-0.2-14.9c-0.1-4.9-0.2-9.8-0.2-14.7l0.6,0.6l-17.7,0.2l-17.7,0.1
				C106.3,2,94.5,2.1,82.7,2.1c-11.8,0-23.6,0.1-35.4,0C35.5,2.1,23.7,2,11.9,1.9l0.8-0.8l-0.1,29.7l-0.7-0.7L153.5,30.7z"/>
		</g>
		<g>
			<path class="st0" d="M7.7,0l0.4,41.8l0.3,41.8c0.1,13.9,0.3,27.9,0.2,41.8c-0.2,13.9-0.3,27.9-0.9,41.8H7.5
				c-0.6-13.9-0.7-27.9-0.9-41.8c-0.1-13.9,0.1-27.9,0.2-41.8l0.3-41.8L7.5,0H7.7z"/>
		</g>
	</g>
</g>
</svg>
