<?xml version="1.0" encoding="utf-8"?>
<!-- Generator: Adobe Illustrator 21.0.0, SVG Export Plug-In . SVG Version: 6.00 Build 0)  -->
<svg version="1.1" id="Layer_1" xmlns="http://www.w3.org/2000/svg" xmlns:xlink="http://www.w3.org/1999/xlink" x="0px" y="0px"
	 viewBox="0 0 160.3 167.7" style="enable-background:new 0 0 160.3 167.7;" xml:space="preserve">
<style type="text/css">
	.st0{fill:#FAFBFC;}
	.st1{fill:none;stroke:#8E94AA;stroke-width:1.5;stroke-linecap:round;stroke-linejoin:round;stroke-miterlimit:10;}
	.st2{fill:none;stroke:#231F20;stroke-width:0.25;stroke-miterlimit:10;}
	.st3{fill:#8E94AA;}
	.st4{fill:#FFEFD7;}
	.st5{fill:#FDE1DF;}
	.st6{fill:#EBF4FF;}
</style>
<g>
	<g>
		<rect x="38.8" y="56" class="st0" width="8" height="29.8"/>
		<rect x="53.3" y="56" class="st0" width="6.1" height="29.8"/>
		<rect x="63.6" y="56" class="st0" width="5.7" height="29.8"/>
		<rect x="72" y="56" class="st0" width="5.2" height="29.8"/>
		<rect x="79.4" y="56" class="st0" width="3.7" height="29.8"/>
		
			<rect x="26.1" y="56" transform="matrix(-1 4.500566e-11 -4.500566e-11 -1 58.3542 141.875)" class="st0" width="6.1" height="29.8"/>
		
			<rect x="16.2" y="56" transform="matrix(-1 4.477517e-11 -4.477517e-11 -1 38.1042 141.875)" class="st0" width="5.7" height="29.8"/>
		
			<rect x="8.3" y="56" transform="matrix(-1 4.473076e-11 -4.473076e-11 -1 21.7115 141.875)" class="st0" width="5.2" height="29.8"/>
		
			<rect x="2.3" y="56" transform="matrix(-1 4.482180e-11 -4.482180e-11 -1 8.4331 141.875)" class="st0" width="3.7" height="29.8"/>
		<line class="st1" x1="42.8" y1="153.6" x2="42.8" y2="166.9"/>
		<line class="st2" x1="2.3" y1="50.6" x2="83.2" y2="50.6"/>
		<line class="st1" x1="0.8" y1="100" x2="84.8" y2="100"/>
		<g>
			<g>
				<path class="st3" d="M83.1,53.2l-4.9,0l0.1-0.1l0.2,46.9l-0.3-0.3l4.9-0.1l-0.4,0.4l0-11.6c0-3.9,0-7.8,0-11.7L83.1,53.2z
					 M83.2,53.2l0.2,11.6l0.1,11.7c0.1,3.9,0,7.9,0,11.8l0,11.8c0,0.2-0.2,0.3-0.3,0.4l0,0l-4.9-0.1c-0.2,0-0.3-0.1-0.3-0.3
					l0.2-46.9c0,0,0-0.1,0.1-0.1h0L83.2,53.2z"/>
			</g>
		</g>
		<g>
			<g>
				<path class="st3" d="M77.2,53.2l-6.6,0l0.1-0.1l0.2,46.9l-0.3-0.3l6.7-0.1l-0.4,0.4l0-11.6c0-3.9,0-7.8,0.1-11.7L77.2,53.2z
					 M77.3,53.2l0.3,23.3c0.1,3.9,0,7.9,0.1,11.8l0,11.8c0,0.2-0.2,0.4-0.4,0.4l0,0l-6.7-0.1c-0.2,0-0.3-0.1-0.3-0.3l0.2-46.9
					c0,0,0-0.1,0.1-0.1h0L77.3,53.2z"/>
			</g>
		</g>
		<g>
			<g>
				<path class="st3" d="M69.3,53.2l-7.6,0.1l0.1-0.1l0.2,46.9l-0.3-0.3l7.7-0.1l-0.4,0.4l0-11.6c0-3.9,0-7.8,0.1-11.7L69.3,53.2z
					 M69.3,53.2l0.3,23.3c0.1,3.9,0,7.8,0.1,11.8l0,11.8c0,0.2-0.2,0.4-0.4,0.4h0l-7.7-0.1c-0.2,0-0.3-0.1-0.3-0.3l0.2-46.9
					c0,0,0-0.1,0.1-0.1h0L69.3,53.2z"/>
			</g>
		</g>
		<g>
			<g>
				<path class="st3" d="M59.9,53.2l-8.3,0.1l0.1-0.1l0.2,46.9l-0.3-0.3l8.4-0.1l-0.4,0.4c0-7.8,0-15.5,0.1-23.3L59.9,53.2z
					 M59.9,53.2l0.3,23.3c0.1,7.8,0,15.7,0.1,23.6c0,0.2-0.2,0.4-0.4,0.4l0,0l-8.4-0.1c-0.2,0-0.3-0.1-0.3-0.3l0.2-46.9
					c0,0,0-0.1,0.1-0.1h0L59.9,53.2z"/>
			</g>
		</g>
		<g>
			<g>
				<path class="st3" d="M48.9,53.2l-12.3,0.1l0.1-0.1l0.2,46.9l-0.3-0.3c4.1,0,8.2-0.1,12.3-0.1l-0.4,0.4l0-11.6
					c0-3.9,0-7.8,0.1-11.7L48.9,53.2z M48.9,53.2l0.3,23.3c0.1,3.9,0.1,7.8,0.1,11.8l0,11.8c0,0.2-0.2,0.4-0.4,0.4
					c-4.1,0-8.2,0-12.3-0.1c-0.2,0-0.3-0.1-0.3-0.3l0.2-46.9c0-0.1,0-0.1,0.1-0.1h0L48.9,53.2z"/>
			</g>
		</g>
		<g>
			<path class="st3" d="M38.7,58.9c1.3-0.1,2.7-0.3,4-0.4c0.7,0,1.3-0.2,2-0.1c0.7,0.1,1.3,0.2,2,0.4c0,0,0,0,0,0.1c0,0,0,0,0,0
				c-0.7,0.3-1.3,0.4-2,0.5c-0.7,0.1-1.3-0.1-2-0.1c-1.3-0.1-2.7-0.2-4-0.4C38.7,59,38.7,58.9,38.7,58.9
				C38.7,58.9,38.7,58.9,38.7,58.9z"/>
		</g>
		<circle class="st0" cx="42.8" cy="89.2" r="1.4"/>
		<g>
			<path class="st3" d="M53.3,58.9c1-0.1,2-0.3,3-0.4c0.5,0,1-0.2,1.5-0.1c0.5,0.1,1,0.2,1.5,0.4c0,0,0,0,0,0.1c0,0,0,0,0,0
				c-0.5,0.3-1,0.4-1.5,0.5c-0.5,0.1-1-0.1-1.5-0.1c-1-0.1-2-0.2-3-0.4C53.3,59,53.2,58.9,53.3,58.9C53.3,58.9,53.3,58.9,53.3,58.9z
				"/>
		</g>
		<ellipse class="st0" cx="56.5" cy="89.2" rx="1.1" ry="1.4"/>
		<g>
			<path class="st3" d="M63.6,58.9c0.9-0.1,1.9-0.3,2.8-0.4c0.5,0,0.9-0.2,1.4-0.1c0.5,0.1,0.9,0.2,1.4,0.4c0,0,0,0.1,0,0.1
				c0,0,0,0,0,0c-0.5,0.3-0.9,0.4-1.4,0.5c-0.5,0.1-0.9-0.1-1.4-0.1c-0.9-0.1-1.9-0.2-2.8-0.4C63.6,59,63.6,58.9,63.6,58.9
				C63.6,58.9,63.6,58.9,63.6,58.9z"/>
		</g>
		<ellipse class="st0" cx="66.6" cy="89.2" rx="1" ry="1.4"/>
		<g>
			<path class="st3" d="M72,58.9c0.9-0.1,1.7-0.3,2.6-0.4c0.4,0,0.9-0.2,1.3-0.1c0.4,0.1,0.9,0.2,1.3,0.4c0,0,0,0.1,0,0.1
				c0,0,0,0,0,0c-0.4,0.3-0.9,0.4-1.3,0.5c-0.4,0.1-0.9-0.1-1.3-0.1c-0.9-0.1-1.7-0.2-2.6-0.4C72,59,72,58.9,72,58.9
				C72,58.9,72,58.9,72,58.9z"/>
		</g>
		<ellipse class="st0" cx="74.8" cy="89.2" rx="0.9" ry="1.4"/>
		<g>
			<path class="st3" d="M79.4,58.9c0.6-0.1,1.2-0.3,1.9-0.4c0.3,0,0.6-0.2,0.9-0.1c0.3,0.1,0.6,0.2,0.9,0.4c0,0,0,0.1,0,0.1
				c0,0,0,0,0,0c-0.3,0.3-0.6,0.4-0.9,0.5c-0.3,0.1-0.6-0.1-0.9-0.1c-0.6-0.1-1.2-0.2-1.9-0.4C79.4,59,79.4,58.9,79.4,58.9
				C79.4,58.9,79.4,58.9,79.4,58.9z"/>
		</g>
		<ellipse class="st0" cx="81.4" cy="89.2" rx="0.7" ry="1.4"/>
		<g>
			<g>
				<path class="st3" d="M2.3,53.2l4.9,0c0,0,0.1,0,0.1,0.1v0L7.6,100c0,0.2-0.1,0.3-0.3,0.3l-4.9,0.1c-0.2,0-0.3-0.2-0.4-0.3l0,0
					l0-11.8c0-3.9,0-7.9,0-11.8l0.1-11.7L2.3,53.2z M2.4,53.2l0.3,23.5c0.1,3.9,0,7.8,0,11.7l0,11.6l-0.4-0.4l4.9,0.1L7,100
					l0.2-46.9l0.1,0.1L2.4,53.2z"/>
			</g>
		</g>
		<g>
			<g>
				<path class="st3" d="M8.2,53.2l6.7,0c0,0,0.1,0,0.1,0.1v0l0.2,46.9c0,0.2-0.1,0.3-0.3,0.3l-6.7,0.1c-0.2,0-0.4-0.2-0.4-0.4l0,0
					l0-11.8c0-3.9,0-7.9,0.1-11.8L8.2,53.2z M8.3,53.2l0.3,23.5c0.1,3.9,0,7.8,0.1,11.7l0,11.6l-0.4-0.4l6.7,0.1l-0.3,0.3l0.2-46.9
					l0.1,0.1L8.3,53.2z"/>
			</g>
		</g>
		<g>
			<g>
				<path class="st3" d="M16.2,53.2l7.7-0.1c0,0,0.1,0,0.1,0.1v0l0.2,46.9c0,0.2-0.1,0.3-0.3,0.3l-7.7,0.1c-0.2,0-0.4-0.2-0.4-0.4v0
					l0-11.8c0-3.9,0-7.9,0.1-11.8L16.2,53.2z M16.2,53.2l0.3,23.5c0.1,3.9,0,7.8,0.1,11.7l0,11.6l-0.4-0.4l7.7,0.1l-0.3,0.3
					l0.2-46.9l0.1,0.1L16.2,53.2z"/>
			</g>
		</g>
		<g>
			<g>
				<path class="st3" d="M25.6,53.2l8.4-0.1c0,0,0.1,0,0.1,0.1v0l0.2,46.9c0,0.2-0.1,0.3-0.3,0.3l-8.4,0.1c-0.2,0-0.4-0.2-0.4-0.4v0
					c0-7.8,0-15.7,0.1-23.6L25.6,53.2z M25.6,53.2l0.3,23.5c0.1,7.8,0,15.5,0.1,23.3l-0.4-0.4l8.4,0.1l-0.3,0.3l0.2-46.9l0.1,0.1
					L25.6,53.2z"/>
			</g>
		</g>
		<g>
			<path class="st3" d="M32.2,59c-1,0.1-2,0.3-3,0.4c-0.5,0-1,0.2-1.5,0.1c-0.5-0.1-1-0.2-1.5-0.5c0,0,0,0,0-0.1c0,0,0,0,0,0
				c0.5-0.3,1-0.4,1.5-0.4c0.5-0.1,1,0.1,1.5,0.1c1,0.1,2,0.2,3,0.4C32.2,58.9,32.3,58.9,32.2,59C32.2,58.9,32.2,59,32.2,59z"/>
		</g>
		<ellipse class="st0" cx="29" cy="89.2" rx="1.1" ry="1.4"/>
		<g>
			<path class="st3" d="M21.9,59c-0.9,0.1-1.9,0.3-2.8,0.4c-0.5,0-0.9,0.2-1.4,0.1c-0.5-0.1-0.9-0.2-1.4-0.5c0,0,0-0.1,0-0.1
				c0,0,0,0,0,0c0.5-0.3,0.9-0.4,1.4-0.4c0.5-0.1,0.9,0.1,1.4,0.1c0.9,0.1,1.9,0.2,2.8,0.4C21.9,58.9,21.9,58.9,21.9,59
				C21.9,58.9,21.9,59,21.9,59z"/>
		</g>
		<ellipse class="st0" cx="18.9" cy="89.2" rx="1" ry="1.4"/>
		<g>
			<path class="st3" d="M13.5,59c-0.9,0.1-1.7,0.3-2.6,0.4c-0.4,0-0.9,0.2-1.3,0.1c-0.4-0.1-0.9-0.2-1.3-0.5c0,0,0-0.1,0-0.1
				c0,0,0,0,0,0c0.4-0.3,0.9-0.4,1.3-0.4c0.4-0.1,0.9,0.1,1.3,0.1c0.9,0.1,1.7,0.2,2.6,0.4C13.5,58.9,13.5,58.9,13.5,59
				C13.5,58.9,13.5,59,13.5,59z"/>
		</g>
		<ellipse class="st0" cx="10.7" cy="89.2" rx="0.9" ry="1.4"/>
		<g>
			<path class="st3" d="M6.1,59c-0.6,0.1-1.2,0.3-1.9,0.4c-0.3,0-0.6,0.2-0.9,0.1C3,59.3,2.7,59.2,2.3,59c0,0,0-0.1,0-0.1
				c0,0,0,0,0,0c0.3-0.3,0.6-0.4,0.9-0.4c0.3-0.1,0.6,0.1,0.9,0.1c0.6,0.1,1.2,0.2,1.9,0.4C6.1,58.9,6.1,58.9,6.1,59
				C6.1,58.9,6.1,59,6.1,59z"/>
		</g>
		<ellipse class="st0" cx="4.1" cy="89.2" rx="0.7" ry="1.4"/>
		<rect x="38.8" y="6.6" class="st4" width="8" height="29.8"/>
		<rect x="53.3" y="6.6" class="st4" width="6.1" height="29.8"/>
		<rect x="63.6" y="6.6" class="st4" width="5.7" height="29.8"/>
		<rect x="72" y="6.6" class="st4" width="5.2" height="29.8"/>
		<rect x="79.4" y="6.6" class="st4" width="3.7" height="29.8"/>
		
			<rect x="26.1" y="6.6" transform="matrix(-1 4.500566e-11 -4.500566e-11 -1 58.3542 43.0122)" class="st4" width="6.1" height="29.8"/>
		
			<rect x="16.2" y="6.6" transform="matrix(-1 4.477517e-11 -4.477517e-11 -1 38.1042 43.0122)" class="st4" width="5.7" height="29.8"/>
		
			<rect x="8.3" y="6.6" transform="matrix(-1 4.508026e-11 -4.508026e-11 -1 21.7115 43.0122)" class="st4" width="5.2" height="29.8"/>
		
			<rect x="2.3" y="6.6" transform="matrix(-1 4.482180e-11 -4.482180e-11 -1 8.4331 43.0122)" class="st4" width="3.7" height="29.8"/>
		<line class="st1" x1="0.8" y1="50.6" x2="84.8" y2="50.6"/>
		<g>
			<g>
				<path class="st3" d="M83.1,3.8l-4.9,0l0.1-0.1l0.2,46.9l-0.3-0.3l4.9-0.1l-0.4,0.4l0-11.6c0-3.9,0-7.8,0-11.7L83.1,3.8z
					 M83.2,3.7l0.2,11.6l0.1,11.7c0.1,3.9,0,7.9,0,11.8l0,11.8c0,0.2-0.2,0.3-0.3,0.4l0,0l-4.9-0.1c-0.2,0-0.3-0.1-0.3-0.3l0.2-46.9
					c0,0,0-0.1,0.1-0.1h0L83.2,3.7z"/>
			</g>
		</g>
		<g>
			<g>
				<path class="st3" d="M77.2,3.8l-6.6,0l0.1-0.1l0.2,46.9l-0.3-0.3l6.7-0.1l-0.4,0.4l0-11.6c0-3.9,0-7.8,0.1-11.7L77.2,3.8z
					 M77.3,3.7l0.3,23.3c0.1,3.9,0,7.9,0.1,11.8l0,11.8c0,0.2-0.2,0.4-0.4,0.4l0,0l-6.7-0.1c-0.2,0-0.3-0.1-0.3-0.3l0.2-46.9
					c0,0,0-0.1,0.1-0.1h0L77.3,3.7z"/>
			</g>
		</g>
		<g>
			<g>
				<path class="st3" d="M69.3,3.8l-7.6,0.1l0.1-0.1l0.2,46.9l-0.3-0.3l7.7-0.1l-0.4,0.4l0-11.6c0-3.9,0-7.8,0.1-11.7L69.3,3.8z
					 M69.3,3.7l0.3,23.3c0.1,3.9,0,7.8,0.1,11.8l0,11.8c0,0.2-0.2,0.4-0.4,0.4l0,0l-7.7-0.1c-0.2,0-0.3-0.1-0.3-0.3l0.2-46.9
					c0,0,0-0.1,0.1-0.1l0,0L69.3,3.7z"/>
			</g>
		</g>
		<g>
			<g>
				<path class="st3" d="M59.9,3.8l-8.3,0.1l0.1-0.1l0.2,46.9l-0.3-0.3l8.4-0.1l-0.4,0.4c0-7.8,0-15.5,0.1-23.3L59.9,3.8z M59.9,3.7
					l0.3,23.3c0.1,7.8,0,15.7,0.1,23.6c0,0.2-0.2,0.4-0.4,0.4l0,0l-8.4-0.1c-0.2,0-0.3-0.1-0.3-0.3l0.2-46.9c0,0,0-0.1,0.1-0.1h0
					L59.9,3.7z"/>
			</g>
		</g>
		<g>
			<g>
				<path class="st3" d="M48.9,3.8L36.6,3.9l0.1-0.1l0.2,46.9l-0.3-0.3c4.1,0,8.2-0.1,12.3-0.1l-0.4,0.4l0-11.6
					c0-3.9,0-7.8,0.1-11.7L48.9,3.8z M48.9,3.7l0.3,23.3c0.1,3.9,0.1,7.8,0.1,11.8l0,11.8c0,0.2-0.2,0.4-0.4,0.4
					c-4.1,0-8.2,0-12.3-0.1c-0.2,0-0.3-0.1-0.3-0.3l0.2-46.9c0-0.1,0-0.1,0.1-0.1h0L48.9,3.7z"/>
			</g>
		</g>
		<circle class="st4" cx="42.8" cy="39.8" r="1.4"/>
		<ellipse class="st4" cx="56.5" cy="39.8" rx="1.1" ry="1.4"/>
		<ellipse class="st4" cx="66.6" cy="39.8" rx="1" ry="1.4"/>
		<ellipse class="st4" cx="74.8" cy="39.8" rx="0.9" ry="1.4"/>
		<ellipse class="st4" cx="81.4" cy="39.8" rx="0.7" ry="1.4"/>
		<g>
			<g>
				<path class="st3" d="M2.3,3.7l4.9,0c0,0,0.1,0,0.1,0.1v0l0.2,46.9c0,0.2-0.1,0.3-0.3,0.3L2.3,51C2.2,51,2,50.8,2,50.6l0,0
					l0-11.8c0-3.9,0-7.9,0-11.8l0.1-11.7L2.3,3.7z M2.4,3.8l0.3,23.5c0.1,3.9,0,7.8,0,11.7l0,11.6l-0.4-0.4l4.9,0.1L7,50.6L7.2,3.8
					l0.1,0.1L2.4,3.8z"/>
			</g>
		</g>
		<g>
			<g>
				<path class="st3" d="M8.2,3.7l6.7,0c0,0,0.1,0,0.1,0.1v0l0.2,46.9c0,0.2-0.1,0.3-0.3,0.3L8.3,51c-0.2,0-0.4-0.2-0.4-0.4l0,0
					l0-11.8c0-3.9,0-7.9,0.1-11.8L8.2,3.7z M8.3,3.8l0.3,23.5c0.1,3.9,0,7.8,0.1,11.7l0,11.6l-0.4-0.4l6.7,0.1l-0.3,0.3l0.2-46.9
					l0.1,0.1L8.3,3.8z"/>
			</g>
		</g>
		<g>
			<g>
				<path class="st3" d="M16.2,3.7l7.7-0.1c0,0,0.1,0,0.1,0.1v0l0.2,46.9c0,0.2-0.1,0.3-0.3,0.3L16.2,51c-0.2,0-0.4-0.2-0.4-0.4v0
					l0-11.8c0-3.9,0-7.9,0.1-11.8L16.2,3.7z M16.2,3.8l0.3,23.5c0.1,3.9,0,7.8,0.1,11.7l0,11.6l-0.4-0.4l7.7,0.1l-0.3,0.3l0.2-46.9
					l0.1,0.1L16.2,3.8z"/>
			</g>
		</g>
		<g>
			<g>
				<path class="st3" d="M25.6,3.7L34,3.7c0,0,0.1,0,0.1,0.1v0l0.2,46.9c0,0.2-0.1,0.3-0.3,0.3L25.6,51c-0.2,0-0.4-0.2-0.4-0.4v0
					c0-7.8,0-15.7,0.1-23.6L25.6,3.7z M25.6,3.8l0.3,23.5c0.1,7.8,0,15.5,0.1,23.3l-0.4-0.4l8.4,0.1l-0.3,0.3l0.2-46.9L34,3.8
					L25.6,3.8z"/>
			</g>
		</g>
		<ellipse class="st4" cx="29" cy="39.8" rx="1.1" ry="1.4"/>
		<ellipse class="st4" cx="18.9" cy="39.8" rx="1" ry="1.4"/>
		<ellipse class="st4" cx="10.7" cy="39.8" rx="0.9" ry="1.4"/>
		<ellipse class="st4" cx="4.1" cy="39.8" rx="0.7" ry="1.4"/>
		<line class="st1" x1="0.8" y1="0.8" x2="84.8" y2="0.8"/>
		<rect x="38.8" y="105.9" class="st5" width="8" height="29.8"/>
		<rect x="53.3" y="105.9" class="st5" width="6.1" height="29.8"/>
		<rect x="63.6" y="105.9" class="st5" width="5.7" height="29.8"/>
		<rect x="72" y="105.9" class="st5" width="5.2" height="29.8"/>
		<rect x="79.4" y="105.9" class="st5" width="3.7" height="29.8"/>
		
			<rect x="26.1" y="105.9" transform="matrix(-1 4.500566e-11 -4.500566e-11 -1 58.3542 241.6102)" class="st5" width="6.1" height="29.8"/>
		
			<rect x="16.2" y="105.9" transform="matrix(-1 4.477517e-11 -4.477517e-11 -1 38.1042 241.6102)" class="st5" width="5.7" height="29.8"/>
		
			<rect x="8.3" y="105.9" transform="matrix(-1 4.542976e-11 -4.542976e-11 -1 21.7115 241.6102)" class="st5" width="5.2" height="29.8"/>
		
			<rect x="2.3" y="105.9" transform="matrix(-1 4.482180e-11 -4.482180e-11 -1 8.4331 241.6102)" class="st5" width="3.7" height="29.8"/>
		<g>
			<g>
				<path class="st3" d="M83.1,103.1l-4.9,0l0.1-0.1l0.2,46.9l-0.3-0.3l4.9-0.1l-0.4,0.4l0-11.6c0-3.9,0-7.8,0-11.7L83.1,103.1z
					 M83.2,103l0.2,11.6l0.1,11.7c0.1,3.9,0,7.9,0,11.8l0,11.8c0,0.2-0.2,0.3-0.3,0.4l0,0l-4.9-0.1c-0.2,0-0.3-0.1-0.3-0.3l0.2-46.9
					c0,0,0-0.1,0.1-0.1l0,0L83.2,103z"/>
			</g>
		</g>
		<g>
			<g>
				<path class="st3" d="M77.2,103.1l-6.6,0l0.1-0.1l0.2,46.9l-0.3-0.3l6.7-0.1l-0.4,0.4l0-11.6c0-3.9,0-7.8,0.1-11.7L77.2,103.1z
					 M77.3,103l0.3,23.3c0.1,3.9,0,7.9,0.1,11.8l0,11.8c0,0.2-0.2,0.4-0.4,0.4l0,0l-6.7-0.1c-0.2,0-0.3-0.1-0.3-0.3l0.2-46.9
					c0,0,0-0.1,0.1-0.1h0L77.3,103z"/>
			</g>
		</g>
		<g>
			<g>
				<path class="st3" d="M69.3,103.1l-7.6,0.1l0.1-0.1l0.2,46.9l-0.3-0.3l7.7-0.1l-0.4,0.4l0-11.6c0-3.9,0-7.8,0.1-11.7L69.3,103.1z
					 M69.3,103l0.3,23.3c0.1,3.9,0,7.8,0.1,11.8l0,11.8c0,0.2-0.2,0.4-0.4,0.4l0,0l-7.7-0.1c-0.2,0-0.3-0.1-0.3-0.3l0.2-46.9
					c0,0,0-0.1,0.1-0.1l0,0L69.3,103z"/>
			</g>
		</g>
		<g>
			<g>
				<path class="st3" d="M59.9,103.1l-8.3,0.1l0.1-0.1l0.2,46.9l-0.3-0.3l8.4-0.1l-0.4,0.4c0-7.8,0-15.5,0.1-23.3L59.9,103.1z
					 M59.9,103l0.3,23.3c0.1,7.8,0,15.7,0.1,23.6c0,0.2-0.2,0.4-0.4,0.4h0l-8.4-0.1c-0.2,0-0.3-0.1-0.3-0.3l0.2-46.9
					c0,0,0-0.1,0.1-0.1h0L59.9,103z"/>
			</g>
		</g>
		<g>
			<g>
				<path class="st3" d="M48.9,103.1l-12.3,0.1l0.1-0.1l0.2,46.9l-0.3-0.3c4.1,0,8.2-0.1,12.3-0.1l-0.4,0.4l0-11.6
					c0-3.9,0-7.8,0.1-11.7L48.9,103.1z M48.9,103l0.3,23.3c0.1,3.9,0.1,7.8,0.1,11.8l0,11.8c0,0.2-0.2,0.4-0.4,0.4
					c-4.1,0-8.2,0-12.3-0.1c-0.2,0-0.3-0.1-0.3-0.3l0.2-46.9c0-0.1,0-0.1,0.1-0.1h0L48.9,103z"/>
			</g>
		</g>
		<g>
			<path class="st3" d="M38.7,108.7c1.3-0.1,2.7-0.3,4-0.4c0.7,0,1.3-0.2,2-0.1c0.7,0.1,1.3,0.2,2,0.5c0,0,0,0,0,0.1c0,0,0,0,0,0
				c-0.7,0.3-1.3,0.4-2,0.5c-0.7,0.1-1.3-0.1-2-0.1C41.4,109.1,40.1,109,38.7,108.7C38.7,108.8,38.7,108.8,38.7,108.7
				C38.7,108.8,38.7,108.7,38.7,108.7z"/>
		</g>
		<circle class="st5" cx="42.8" cy="139.1" r="1.4"/>
		<g>
			<path class="st3" d="M53.3,108.7c1-0.1,2-0.3,3-0.4c0.5,0,1-0.2,1.5-0.1c0.5,0.1,1,0.2,1.5,0.5c0,0,0,0,0,0.1c0,0,0,0,0,0
				c-0.5,0.3-1,0.4-1.5,0.5c-0.5,0.1-1-0.1-1.5-0.1C55.3,109.1,54.3,109,53.3,108.7C53.3,108.8,53.2,108.8,53.3,108.7
				C53.3,108.8,53.3,108.7,53.3,108.7z"/>
		</g>
		<ellipse class="st5" cx="56.5" cy="139.1" rx="1.1" ry="1.4"/>
		<g>
			<path class="st3" d="M63.6,108.7c0.9-0.1,1.9-0.3,2.8-0.4c0.5,0,0.9-0.2,1.4-0.1c0.5,0.1,0.9,0.2,1.4,0.5c0,0,0,0.1,0,0.1
				c0,0,0,0,0,0c-0.5,0.3-0.9,0.4-1.4,0.5c-0.5,0.1-0.9-0.1-1.4-0.1C65.5,109.1,64.6,109,63.6,108.7
				C63.6,108.8,63.6,108.8,63.6,108.7C63.6,108.8,63.6,108.7,63.6,108.7z"/>
		</g>
		<ellipse class="st5" cx="66.6" cy="139.1" rx="1" ry="1.4"/>
		<g>
			<path class="st3" d="M72,108.7c0.9-0.1,1.7-0.3,2.6-0.4c0.4,0,0.9-0.2,1.3-0.1c0.4,0.1,0.9,0.2,1.3,0.5c0,0,0,0.1,0,0.1
				c0,0,0,0,0,0c-0.4,0.3-0.9,0.4-1.3,0.5c-0.4,0.1-0.9-0.1-1.3-0.1C73.8,109.1,72.9,109,72,108.7C72,108.8,72,108.8,72,108.7
				C72,108.8,72,108.7,72,108.7z"/>
		</g>
		<ellipse class="st5" cx="74.8" cy="139.1" rx="0.9" ry="1.4"/>
		<g>
			<path class="st3" d="M79.4,108.7c0.6-0.1,1.2-0.3,1.9-0.4c0.3,0,0.6-0.2,0.9-0.1c0.3,0.1,0.6,0.2,0.9,0.5c0,0,0,0.1,0,0.1
				c0,0,0,0,0,0c-0.3,0.3-0.6,0.4-0.9,0.5c-0.3,0.1-0.6-0.1-0.9-0.1C80.7,109.1,80,109,79.4,108.7C79.4,108.8,79.4,108.8,79.4,108.7
				C79.4,108.8,79.4,108.7,79.4,108.7z"/>
		</g>
		<ellipse class="st5" cx="81.4" cy="139.1" rx="0.7" ry="1.4"/>
		<g>
			<g>
				<path class="st3" d="M2.3,103l4.9,0c0,0,0.1,0,0.1,0.1v0l0.2,46.9c0,0.2-0.1,0.3-0.3,0.3l-4.9,0.1c-0.2,0-0.3-0.2-0.4-0.3l0,0
					l0-11.8c0-3.9,0-7.9,0-11.8l0.1-11.7L2.3,103z M2.4,103.1l0.3,23.5c0.1,3.9,0,7.8,0,11.7l0,11.6l-0.4-0.4l4.9,0.1L7,149.9
					L7.2,103l0.1,0.1L2.4,103.1z"/>
			</g>
		</g>
		<g>
			<g>
				<path class="st3" d="M8.2,103l6.7,0c0,0,0.1,0,0.1,0.1v0l0.2,46.9c0,0.2-0.1,0.3-0.3,0.3l-6.7,0.1c-0.2,0-0.4-0.2-0.4-0.4l0,0
					l0-11.8c0-3.9,0-7.9,0.1-11.8L8.2,103z M8.3,103.1l0.3,23.5c0.1,3.9,0,7.8,0.1,11.7l0,11.6l-0.4-0.4l6.7,0.1l-0.3,0.3l0.2-46.9
					l0.1,0.1L8.3,103.1z"/>
			</g>
		</g>
		<g>
			<g>
				<path class="st3" d="M16.2,103l7.7-0.1c0,0,0.1,0,0.1,0.1v0l0.2,46.9c0,0.2-0.1,0.3-0.3,0.3l-7.7,0.1c-0.2,0-0.4-0.2-0.4-0.4v0
					l0-11.8c0-3.9,0-7.9,0.1-11.8L16.2,103z M16.2,103.1l0.3,23.5c0.1,3.9,0,7.8,0.1,11.7l0,11.6l-0.4-0.4l7.7,0.1l-0.3,0.3
					l0.2-46.9l0.1,0.1L16.2,103.1z"/>
			</g>
		</g>
		<g>
			<g>
				<path class="st3" d="M25.6,103L34,103c0,0,0.1,0,0.1,0.1v0l0.2,46.9c0,0.2-0.1,0.3-0.3,0.3l-8.4,0.1c-0.2,0-0.4-0.2-0.4-0.4v0
					c0-7.8,0-15.7,0.1-23.6L25.6,103z M25.6,103.1l0.3,23.5c0.1,7.8,0,15.5,0.1,23.3l-0.4-0.4l8.4,0.1l-0.3,0.3l0.2-46.9l0.1,0.1
					L25.6,103.1z"/>
			</g>
		</g>
		<g>
			<path class="st3" d="M32.2,108.8c-1,0.1-2,0.3-3,0.4c-0.5,0-1,0.2-1.5,0.1c-0.5-0.1-1-0.2-1.5-0.5c0,0,0,0,0-0.1c0,0,0,0,0,0
				c0.5-0.3,1-0.4,1.5-0.5c0.5-0.1,1,0.1,1.5,0.1C30.2,108.5,31.2,108.6,32.2,108.8C32.2,108.7,32.3,108.8,32.2,108.8
				C32.2,108.8,32.2,108.8,32.2,108.8z"/>
		</g>
		<ellipse class="st5" cx="29" cy="139.1" rx="1.1" ry="1.4"/>
		<g>
			<path class="st3" d="M21.9,108.8c-0.9,0.1-1.9,0.3-2.8,0.4c-0.5,0-0.9,0.2-1.4,0.1c-0.5-0.1-0.9-0.2-1.4-0.5c0,0,0-0.1,0-0.1
				c0,0,0,0,0,0c0.5-0.3,0.9-0.4,1.4-0.5c0.5-0.1,0.9,0.1,1.4,0.1C20,108.5,20.9,108.6,21.9,108.8C21.9,108.7,21.9,108.8,21.9,108.8
				C21.9,108.8,21.9,108.8,21.9,108.8z"/>
		</g>
		<ellipse class="st5" cx="18.9" cy="139.1" rx="1" ry="1.4"/>
		<g>
			<path class="st3" d="M13.5,108.8c-0.9,0.1-1.7,0.3-2.6,0.4c-0.4,0-0.9,0.2-1.3,0.1c-0.4-0.1-0.9-0.2-1.3-0.5c0,0,0-0.1,0-0.1
				c0,0,0,0,0,0c0.4-0.3,0.9-0.4,1.3-0.5c0.4-0.1,0.9,0.1,1.3,0.1C11.7,108.5,12.6,108.6,13.5,108.8
				C13.5,108.7,13.5,108.8,13.5,108.8C13.5,108.8,13.5,108.8,13.5,108.8z"/>
		</g>
		<ellipse class="st5" cx="10.7" cy="139.1" rx="0.9" ry="1.4"/>
		<g>
			<path class="st3" d="M6.1,108.8c-0.6,0.1-1.2,0.3-1.9,0.4c-0.3,0-0.6,0.2-0.9,0.1c-0.3-0.1-0.6-0.2-0.9-0.5c0,0,0-0.1,0-0.1
				c0,0,0,0,0,0c0.3-0.3,0.6-0.4,0.9-0.5c0.3-0.1,0.6,0.1,0.9,0.1C4.8,108.5,5.5,108.6,6.1,108.8C6.1,108.7,6.1,108.8,6.1,108.8
				C6.1,108.8,6.1,108.8,6.1,108.8z"/>
		</g>
		<ellipse class="st5" cx="4.1" cy="139.1" rx="0.7" ry="1.4"/>
		<line class="st1" x1="0.8" y1="149.9" x2="84.8" y2="149.9"/>
		<g>
			<path class="st3" d="M19.9,166.9c7.6-0.6,15.1-0.7,22.7-0.7c7.6,0,15.1,0.2,22.7,0.7c-7.6,0.6-15.1,0.7-22.7,0.7
				C35,167.6,27.5,167.5,19.9,166.9z"/>
		</g>
		<rect x="120.5" y="62.8" class="st0" width="6.8" height="25.3"/>
		<rect x="132.8" y="62.8" class="st0" width="5.1" height="25.3"/>
		<rect x="141.6" y="62.8" class="st0" width="4.8" height="25.3"/>
		<rect x="148.7" y="62.8" class="st0" width="4.4" height="25.3"/>
		<rect x="155" y="62.8" class="st0" width="3.2" height="25.3"/>
		
			<rect x="109.8" y="62.8" transform="matrix(-1 4.525079e-11 -4.525079e-11 -1 224.6761 150.9152)" class="st0" width="5.1" height="25.3"/>
		
			<rect x="101.3" y="62.8" transform="matrix(-1 4.446609e-11 -4.446609e-11 -1 207.4896 150.9152)" class="st0" width="4.8" height="25.3"/>
		
			<rect x="94.6" y="62.8" transform="matrix(-1 4.529254e-11 -4.529254e-11 -1 193.5769 150.9152)" class="st0" width="4.4" height="25.3"/>
		
			<rect x="89.6" y="62.8" transform="matrix(-1 4.477473e-11 -4.477473e-11 -1 182.3072 150.9152)" class="st0" width="3.2" height="25.3"/>
		<line class="st1" x1="123.9" y1="145.6" x2="123.9" y2="156.9"/>
		<line class="st2" x1="89.6" y1="58.2" x2="158.1" y2="58.2"/>
		<line class="st1" x1="88.2" y1="100.2" x2="159.5" y2="100.2"/>
		<g>
			<g>
				<path class="st3" d="M158.1,60.4l-4.1,0l0.1-0.1l0.2,39.8l-0.3-0.3l4.2-0.1l-0.4,0.4c-0.1-6.6,0-13.1,0-19.8l0.1-9.9L158.1,60.4
					z M158.2,60.4l0.2,9.8l0.1,9.9c0.1,6.7,0.1,13.4,0,20l0,0c0,0.2-0.2,0.3-0.4,0.3h0l-4.2-0.1l0,0c-0.2,0-0.3-0.1-0.3-0.3
					l0.2-39.8c0,0,0-0.1,0.1-0.1h0L158.2,60.4z"/>
			</g>
		</g>
		<g>
			<g>
				<path class="st3" d="M153.1,60.4l-5.6,0l0.1-0.1l0.2,39.8l-0.3-0.3l5.7-0.1l-0.4,0.4c0-3.3,0-6.6,0-9.9l0.1-9.9
					C152.9,73.8,153,67.2,153.1,60.4z M153.2,60.4c0.1,6.5,0.2,13.1,0.3,19.8l0.1,10c0,3.3,0,6.7,0,10l0,0c0,0.2-0.2,0.4-0.4,0.4
					l0,0l-5.7-0.1l0,0c-0.2,0-0.3-0.1-0.3-0.3l0.2-39.8c0,0,0-0.1,0.1-0.1h0L153.2,60.4z"/>
			</g>
		</g>
		<g>
			<g>
				<path class="st3" d="M146.4,60.4l-6.5,0.1l0.1-0.1l0.2,39.8l-0.3-0.3l6.5-0.1l-0.4,0.4C145.9,87,146.1,73.9,146.4,60.4z
					 M146.4,60.4c0.2,13,0.4,26.5,0.3,39.8l0,0c0,0.2-0.2,0.4-0.4,0.4h0l-6.5-0.1c-0.2,0-0.3-0.1-0.3-0.3l0.2-39.8
					c0,0,0-0.1,0.1-0.1h0L146.4,60.4z"/>
			</g>
		</g>
		<g>
			<g>
				<path class="st3" d="M138.4,60.4l-7.1,0.1l0.1-0.1l0.2,39.8l-0.3-0.3l7.1-0.1l-0.4,0.4C138,87,138.2,73.9,138.4,60.4z
					 M138.5,60.4c0.2,13,0.4,26.5,0.3,39.8v0c0,0.2-0.2,0.4-0.4,0.4l0,0l-7.1-0.1c-0.2,0-0.3-0.1-0.3-0.3l0.2-39.8
					c0,0,0-0.1,0.1-0.1l0,0L138.5,60.4z"/>
			</g>
		</g>
		<g>
			<g>
				<path class="st3" d="M129.1,60.4l-10.4,0.1l0.1-0.1l0.2,39.8l-0.3-0.3c3.5,0,7-0.1,10.5-0.1l-0.4,0.4l0-9.9c0-3.3,0-6.6,0.1-9.9
					L129.1,60.4z M129.1,60.4l0.1,9.9l0.1,9.9c0.1,3.3,0.1,6.7,0.1,10l0,10c0,0.2-0.2,0.4-0.4,0.4c-3.5,0-7,0-10.5-0.1
					c-0.2,0-0.3-0.1-0.3-0.3l0.2-39.8c0-0.1,0-0.1,0.1-0.1l0,0L129.1,60.4z"/>
			</g>
		</g>
		<g>
			<path class="st3" d="M120.5,65.2c1.1-0.1,2.3-0.3,3.4-0.4c0.6,0,1.1-0.2,1.7-0.1c0.6,0.1,1.1,0.2,1.7,0.5c0,0,0,0,0,0.1
				c0,0,0,0,0,0c-0.6,0.3-1.1,0.4-1.7,0.5c-0.6,0.1-1.1-0.1-1.7-0.1C122.7,65.6,121.6,65.4,120.5,65.2
				C120.4,65.3,120.4,65.3,120.5,65.2C120.4,65.2,120.4,65.2,120.5,65.2z"/>
		</g>
		<circle class="st0" cx="123.9" cy="91" r="1.2"/>
		<g>
			<path class="st3" d="M132.8,65.2c0.9-0.1,1.7-0.3,2.6-0.4c0.4,0,0.9-0.2,1.3-0.1c0.4,0.1,0.9,0.2,1.3,0.5c0,0,0,0.1,0,0.1
				c0,0,0,0,0,0c-0.4,0.3-0.9,0.4-1.3,0.5c-0.4,0.1-0.9-0.1-1.3-0.1C134.5,65.6,133.7,65.4,132.8,65.2
				C132.8,65.3,132.8,65.3,132.8,65.2C132.8,65.2,132.8,65.2,132.8,65.2z"/>
		</g>
		<ellipse class="st0" cx="135.5" cy="91" rx="0.9" ry="1.2"/>
		<g>
			<path class="st3" d="M141.6,65.2c0.8-0.1,1.6-0.3,2.4-0.4c0.4,0,0.8-0.2,1.2-0.1c0.4,0.1,0.8,0.2,1.2,0.5c0,0,0,0.1,0,0.1
				c0,0,0,0,0,0c-0.4,0.3-0.8,0.4-1.2,0.5c-0.4,0.1-0.8-0.1-1.2-0.1C143.2,65.6,142.4,65.4,141.6,65.2
				C141.5,65.3,141.5,65.3,141.6,65.2C141.5,65.2,141.5,65.2,141.6,65.2z"/>
		</g>
		<ellipse class="st0" cx="144.1" cy="91" rx="0.9" ry="1.2"/>
		<g>
			<path class="st3" d="M148.7,65.2c0.7-0.1,1.5-0.3,2.2-0.4c0.4,0,0.7-0.2,1.1-0.1c0.4,0.1,0.7,0.2,1.1,0.5c0,0,0,0.1,0,0.1
				c0,0,0,0,0,0c-0.4,0.3-0.7,0.4-1.1,0.5c-0.4,0.1-0.7-0.1-1.1-0.1C150.2,65.6,149.5,65.4,148.7,65.2
				C148.7,65.3,148.7,65.3,148.7,65.2C148.7,65.2,148.7,65.2,148.7,65.2z"/>
		</g>
		<ellipse class="st0" cx="151.1" cy="91" rx="0.8" ry="1.2"/>
		<g>
			<path class="st3" d="M155,65.2c0.5-0.1,1.1-0.3,1.6-0.4c0.3,0,0.5-0.2,0.8-0.1c0.3,0.1,0.5,0.2,0.8,0.5c0,0,0,0.1,0,0.1
				c-0.3,0.3-0.5,0.4-0.8,0.5c-0.3,0.1-0.5-0.1-0.8-0.1C156,65.6,155.5,65.4,155,65.2C155,65.3,154.9,65.3,155,65.2
				C154.9,65.2,155,65.2,155,65.2z"/>
		</g>
		<ellipse class="st0" cx="156.7" cy="91" rx="0.6" ry="1.2"/>
		<g>
			<g>
				<path class="st3" d="M89.5,60.4l4.2,0c0,0,0.1,0,0.1,0.1v0l0.2,39.8c0,0.2-0.1,0.3-0.3,0.3l0,0l-4.2,0.1c-0.2,0-0.3-0.2-0.4-0.3
					v0l0,0c-0.1-6.7,0-13.4,0-20l0.1-9.9L89.5,60.4z M89.6,60.4l0.2,10.1l0.1,9.9c0.1,6.6,0.1,13.2,0,19.8l-0.4-0.4l4.2,0.1
					l-0.3,0.3l0.2-39.8l0.1,0.1L89.6,60.4z"/>
			</g>
		</g>
		<g>
			<g>
				<path class="st3" d="M94.6,60.4l5.7,0c0,0,0.1,0,0.1,0.1v0l0.2,39.8c0,0.2-0.1,0.3-0.3,0.3l0,0l-5.7,0.1c-0.2,0-0.4-0.2-0.4-0.4
					l0,0v0c0-3.3,0-6.7,0-10l0.1-10C94.3,73.5,94.4,66.9,94.6,60.4z M94.6,60.4c0.1,6.8,0.2,13.4,0.3,20l0.1,9.9c0,3.3,0,6.6,0,9.9
					l-0.4-0.4l5.7,0.1l-0.3,0.3l0.2-39.8l0.1,0.1L94.6,60.4z"/>
			</g>
		</g>
		<g>
			<g>
				<path class="st3" d="M101.3,60.4l6.5-0.1c0,0,0.1,0,0.1,0.1v0l0.2,39.8c0,0.2-0.1,0.3-0.3,0.3l-6.5,0.1c-0.2,0-0.4-0.2-0.4-0.4
					l0,0v0C100.9,86.8,101.1,73.4,101.3,60.4z M101.4,60.4c0.2,13.5,0.4,26.6,0.3,39.8l-0.4-0.4l6.5,0.1l-0.3,0.3l0.2-39.8l0.1,0.1
					L101.4,60.4z"/>
			</g>
		</g>
		<g>
			<g>
				<path class="st3" d="M109.3,60.4l7.1-0.1c0,0,0.1,0,0.1,0.1v0l0.2,39.8c0,0.2-0.1,0.3-0.3,0.3l-7.1,0.1c-0.2,0-0.4-0.2-0.4-0.4
					v0l0,0C108.8,86.8,109,73.4,109.3,60.4z M109.3,60.4c0.2,13.5,0.4,26.6,0.3,39.8l-0.4-0.4l7.1,0.1l-0.3,0.3l0.2-39.8l0.1,0.1
					L109.3,60.4z"/>
			</g>
		</g>
		<g>
			<path class="st3" d="M114.9,65.3c-0.9,0.1-1.7,0.3-2.6,0.4c-0.4,0-0.9,0.2-1.3,0.1c-0.4-0.1-0.9-0.2-1.3-0.5c0,0,0-0.1,0-0.1
				c0,0,0,0,0,0c0.4-0.3,0.9-0.4,1.3-0.5c0.4-0.1,0.9,0.1,1.3,0.1C113.2,64.9,114.1,65.1,114.9,65.3C114.9,65.2,115,65.2,114.9,65.3
				C114.9,65.3,114.9,65.3,114.9,65.3z"/>
		</g>
		<ellipse class="st0" cx="112.2" cy="91" rx="0.9" ry="1.2"/>
		<g>
			<path class="st3" d="M106.2,65.3c-0.8,0.1-1.6,0.3-2.4,0.4c-0.4,0-0.8,0.2-1.2,0.1c-0.4-0.1-0.8-0.2-1.2-0.5c0,0,0-0.1,0-0.1
				c0,0,0,0,0,0c0.4-0.3,0.8-0.4,1.2-0.5c0.4-0.1,0.8,0.1,1.2,0.1C104.5,64.9,105.4,65.1,106.2,65.3
				C106.2,65.2,106.2,65.2,106.2,65.3C106.2,65.3,106.2,65.3,106.2,65.3z"/>
		</g>
		<ellipse class="st0" cx="103.6" cy="91" rx="0.9" ry="1.2"/>
		<g>
			<path class="st3" d="M99,65.3c-0.7,0.1-1.5,0.3-2.2,0.4c-0.4,0-0.7,0.2-1.1,0.1c-0.4-0.1-0.7-0.2-1.1-0.5c0,0,0-0.1,0-0.1
				c0,0,0,0,0,0c0.4-0.3,0.7-0.4,1.1-0.5c0.4-0.1,0.7,0.1,1.1,0.1C97.5,64.9,98.3,65.1,99,65.3C99,65.2,99,65.2,99,65.3
				C99,65.3,99,65.3,99,65.3z"/>
		</g>
		<ellipse class="st0" cx="96.7" cy="91" rx="0.8" ry="1.2"/>
		<g>
			<path class="st3" d="M92.7,65.3c-0.5,0.1-1.1,0.3-1.6,0.4c-0.3,0-0.5,0.2-0.8,0.1c-0.3-0.1-0.5-0.2-0.8-0.5c0,0,0-0.1,0-0.1
				c0.3-0.3,0.5-0.4,0.8-0.5c0.3-0.1,0.5,0.1,0.8,0.1C91.7,64.9,92.2,65.1,92.7,65.3C92.8,65.2,92.8,65.2,92.7,65.3
				C92.8,65.3,92.8,65.3,92.7,65.3z"/>
		</g>
		<ellipse class="st0" cx="91.1" cy="91" rx="0.6" ry="1.2"/>
		<line class="st1" x1="88.2" y1="58.2" x2="159.5" y2="58.2"/>
		<rect x="120.5" y="105.1" class="st6" width="6.8" height="25.3"/>
		<rect x="132.8" y="105.1" class="st6" width="5.1" height="25.3"/>
		<rect x="141.6" y="105.1" class="st6" width="4.8" height="25.3"/>
		<rect x="148.7" y="105.1" class="st6" width="4.4" height="25.3"/>
		<rect x="155" y="105.1" class="st6" width="3.2" height="25.3"/>
		
			<rect x="109.8" y="105.1" transform="matrix(-1 4.454380e-11 -4.454380e-11 -1 224.6761 235.5621)" class="st6" width="5.1" height="25.3"/>
		
			<rect x="101.3" y="105.1" transform="matrix(-1 4.446609e-11 -4.446609e-11 -1 207.4896 235.5621)" class="st6" width="4.8" height="25.3"/>
		
			<rect x="94.6" y="105.1" transform="matrix(-1 4.529254e-11 -4.529254e-11 -1 193.5769 235.5621)" class="st6" width="4.4" height="25.3"/>
		
			<rect x="89.6" y="105.1" transform="matrix(-1 4.477473e-11 -4.477473e-11 -1 182.3072 235.5621)" class="st6" width="3.2" height="25.3"/>
		<g>
			<g>
				<path class="st3" d="M158.1,102.7l-4.1,0l0.1-0.1l0.2,39.8l-0.3-0.3l4.2-0.1l-0.4,0.4c-0.1-6.6,0-13.1,0-19.8l0.1-9.9
					L158.1,102.7z M158.2,102.7l0.2,9.8l0.1,9.9c0.1,6.7,0.1,13.4,0,20l0,0c0,0.2-0.2,0.3-0.4,0.3h0l-4.2-0.1l0,0
					c-0.2,0-0.3-0.1-0.3-0.3l0.2-39.8c0,0,0-0.1,0.1-0.1l0,0L158.2,102.7z"/>
			</g>
		</g>
		<g>
			<g>
				<path class="st3" d="M153.1,102.7l-5.6,0l0.1-0.1l0.2,39.8l-0.3-0.3l5.7-0.1l-0.4,0.4c0-3.3,0-6.6,0-9.9l0.1-9.9
					C152.9,116.1,153,109.5,153.1,102.7z M153.2,102.7c0.1,6.5,0.2,13.1,0.3,19.8l0.1,10c0,3.3,0,6.7,0,10l0,0
					c0,0.2-0.2,0.4-0.4,0.4l0,0l-5.7-0.1l0,0c-0.2,0-0.3-0.1-0.3-0.3l0.2-39.8c0,0,0-0.1,0.1-0.1h0L153.2,102.7z"/>
			</g>
		</g>
		<g>
			<g>
				<path class="st3" d="M146.4,102.7l-6.5,0.1l0.1-0.1l0.2,39.8l-0.3-0.3l6.5-0.1l-0.4,0.4C145.9,129.3,146.1,116.2,146.4,102.7z
					 M146.4,102.7c0.2,13,0.4,26.5,0.3,39.8l0,0c0,0.2-0.2,0.4-0.4,0.4l0,0l-6.5-0.1c-0.2,0-0.3-0.1-0.3-0.3l0.2-39.8
					c0,0,0-0.1,0.1-0.1h0L146.4,102.7z"/>
			</g>
		</g>
		<g>
			<g>
				<path class="st3" d="M138.4,102.7l-7.1,0.1l0.1-0.1l0.2,39.8l-0.3-0.3l7.1-0.1l-0.4,0.4C138,129.3,138.2,116.2,138.4,102.7z
					 M138.5,102.7c0.2,13,0.4,26.5,0.3,39.8v0c0,0.2-0.2,0.4-0.4,0.4l0,0l-7.1-0.1c-0.2,0-0.3-0.1-0.3-0.3l0.2-39.8
					c0,0,0-0.1,0.1-0.1h0L138.5,102.7z"/>
			</g>
		</g>
		<g>
			<g>
				<path class="st3" d="M129.1,102.7l-10.4,0.1l0.1-0.1l0.2,39.8l-0.3-0.3c3.5,0,7-0.1,10.5-0.1l-0.4,0.4l0-9.9
					c0-3.3,0-6.6,0.1-9.9L129.1,102.7z M129.1,102.7l0.1,9.9l0.1,9.9c0.1,3.3,0.1,6.7,0.1,10l0,10c0,0.2-0.2,0.4-0.4,0.4
					c-3.5,0-7,0-10.5-0.1c-0.2,0-0.3-0.1-0.3-0.3l0.2-39.8c0-0.1,0-0.1,0.1-0.1h0L129.1,102.7z"/>
			</g>
		</g>
		<g>
			<path class="st3" d="M120.5,107.5c1.1-0.1,2.3-0.3,3.4-0.4c0.6,0,1.1-0.2,1.7-0.1c0.6,0.1,1.1,0.2,1.7,0.5c0,0,0,0,0,0.1
				c0,0,0,0,0,0c-0.6,0.3-1.1,0.4-1.7,0.5c-0.6,0.1-1.1-0.1-1.7-0.1C122.7,107.9,121.6,107.8,120.5,107.5
				C120.4,107.6,120.4,107.6,120.5,107.5C120.4,107.5,120.4,107.5,120.5,107.5z"/>
		</g>
		<circle class="st6" cx="123.9" cy="133.3" r="1.2"/>
		<g>
			<path class="st3" d="M132.8,107.5c0.9-0.1,1.7-0.3,2.6-0.4c0.4,0,0.9-0.2,1.3-0.1c0.4,0.1,0.9,0.2,1.3,0.5c0,0,0,0.1,0,0.1
				c0,0,0,0,0,0c-0.4,0.3-0.9,0.4-1.3,0.5c-0.4,0.1-0.9-0.1-1.3-0.1C134.5,107.9,133.7,107.8,132.8,107.5
				C132.8,107.6,132.8,107.6,132.8,107.5C132.8,107.5,132.8,107.5,132.8,107.5z"/>
		</g>
		<ellipse class="st6" cx="135.5" cy="133.3" rx="0.9" ry="1.2"/>
		<g>
			<path class="st3" d="M141.6,107.5c0.8-0.1,1.6-0.3,2.4-0.4c0.4,0,0.8-0.2,1.2-0.1c0.4,0.1,0.8,0.2,1.2,0.5c0,0,0,0.1,0,0.1
				c0,0,0,0,0,0c-0.4,0.3-0.8,0.4-1.2,0.5c-0.4,0.1-0.8-0.1-1.2-0.1C143.2,107.9,142.4,107.8,141.6,107.5
				C141.5,107.6,141.5,107.6,141.6,107.5C141.5,107.5,141.5,107.5,141.6,107.5z"/>
		</g>
		<ellipse class="st6" cx="144.1" cy="133.3" rx="0.9" ry="1.2"/>
		<g>
			<path class="st3" d="M148.7,107.5c0.7-0.1,1.5-0.3,2.2-0.4c0.4,0,0.7-0.2,1.1-0.1c0.4,0.1,0.7,0.2,1.1,0.5c0,0,0,0.1,0,0.1
				c0,0,0,0,0,0c-0.4,0.3-0.7,0.4-1.1,0.5c-0.4,0.1-0.7-0.1-1.1-0.1C150.2,107.9,149.5,107.8,148.7,107.5
				C148.7,107.6,148.7,107.6,148.7,107.5C148.7,107.5,148.7,107.5,148.7,107.5z"/>
		</g>
		<ellipse class="st6" cx="151.1" cy="133.3" rx="0.8" ry="1.2"/>
		<g>
			<path class="st3" d="M155,107.5c0.5-0.1,1.1-0.3,1.6-0.4c0.3,0,0.5-0.2,0.8-0.1c0.3,0.1,0.5,0.2,0.8,0.5c0,0,0,0.1,0,0.1
				c-0.3,0.3-0.5,0.4-0.8,0.5c-0.3,0.1-0.5-0.1-0.8-0.1C156,107.9,155.5,107.8,155,107.5C155,107.6,154.9,107.6,155,107.5
				C154.9,107.5,155,107.5,155,107.5z"/>
		</g>
		<ellipse class="st6" cx="156.7" cy="133.3" rx="0.6" ry="1.2"/>
		<g>
			<g>
				<path class="st3" d="M89.5,102.7l4.2,0c0,0,0.1,0,0.1,0.1v0l0.2,39.8c0,0.2-0.1,0.3-0.3,0.3l0,0l-4.2,0.1
					c-0.2,0-0.3-0.2-0.4-0.3v0l0,0c-0.1-6.7,0-13.4,0-20l0.1-9.9L89.5,102.7z M89.6,102.7l0.2,10.1l0.1,9.9c0.1,6.6,0.1,13.2,0,19.8
					l-0.4-0.4l4.2,0.1l-0.3,0.3l0.2-39.8l0.1,0.1L89.6,102.7z"/>
			</g>
		</g>
		<g>
			<g>
				<path class="st3" d="M94.6,102.7l5.7,0c0,0,0.1,0,0.1,0.1v0l0.2,39.8c0,0.2-0.1,0.3-0.3,0.3l0,0l-5.7,0.1
					c-0.2,0-0.4-0.2-0.4-0.4l0,0v0c0-3.3,0-6.7,0-10l0.1-10C94.3,115.8,94.4,109.2,94.6,102.7z M94.6,102.7c0.1,6.8,0.2,13.4,0.3,20
					l0.1,9.9c0,3.3,0,6.6,0,9.9l-0.4-0.4l5.7,0.1l-0.3,0.3l0.2-39.8l0.1,0.1L94.6,102.7z"/>
			</g>
		</g>
		<g>
			<g>
				<path class="st3" d="M101.3,102.7l6.5-0.1c0,0,0.1,0,0.1,0.1v0l0.2,39.8c0,0.2-0.1,0.3-0.3,0.3l-6.5,0.1c-0.2,0-0.4-0.2-0.4-0.4
					l0,0v0C100.9,129.1,101.1,115.7,101.3,102.7z M101.4,102.7c0.2,13.5,0.4,26.6,0.3,39.8l-0.4-0.4l6.5,0.1l-0.3,0.3l0.2-39.8
					l0.1,0.1L101.4,102.7z"/>
			</g>
		</g>
		<g>
			<g>
				<path class="st3" d="M109.3,102.7l7.1-0.1c0,0,0.1,0,0.1,0.1v0l0.2,39.8c0,0.2-0.1,0.3-0.3,0.3l-7.1,0.1c-0.2,0-0.4-0.2-0.4-0.4
					v0l0,0C108.8,129.1,109,115.7,109.3,102.7z M109.3,102.7c0.2,13.5,0.4,26.6,0.3,39.8l-0.4-0.4l7.1,0.1l-0.3,0.3l0.2-39.8
					l0.1,0.1L109.3,102.7z"/>
			</g>
		</g>
		<g>
			<path class="st3" d="M114.9,107.6c-0.9,0.1-1.7,0.3-2.6,0.4c-0.4,0-0.9,0.2-1.3,0.1c-0.4-0.1-0.9-0.2-1.3-0.5c0,0,0-0.1,0-0.1
				c0,0,0,0,0,0c0.4-0.3,0.9-0.4,1.3-0.5c0.4-0.1,0.9,0.1,1.3,0.1C113.2,107.3,114.1,107.4,114.9,107.6
				C114.9,107.5,115,107.6,114.9,107.6C114.9,107.6,114.9,107.6,114.9,107.6z"/>
		</g>
		<ellipse class="st6" cx="112.2" cy="133.3" rx="0.9" ry="1.2"/>
		<g>
			<path class="st3" d="M106.2,107.6c-0.8,0.1-1.6,0.3-2.4,0.4c-0.4,0-0.8,0.2-1.2,0.1c-0.4-0.1-0.8-0.2-1.2-0.5c0,0,0-0.1,0-0.1
				c0,0,0,0,0,0c0.4-0.3,0.8-0.4,1.2-0.5c0.4-0.1,0.8,0.1,1.2,0.1C104.5,107.3,105.4,107.4,106.2,107.6
				C106.2,107.5,106.2,107.6,106.2,107.6C106.2,107.6,106.2,107.6,106.2,107.6z"/>
		</g>
		<ellipse class="st6" cx="103.6" cy="133.3" rx="0.9" ry="1.2"/>
		<g>
			<path class="st3" d="M99,107.6c-0.7,0.1-1.5,0.3-2.2,0.4c-0.4,0-0.7,0.2-1.1,0.1c-0.4-0.1-0.7-0.2-1.1-0.5c0,0,0-0.1,0-0.1
				c0,0,0,0,0,0c0.4-0.3,0.7-0.4,1.1-0.5c0.4-0.1,0.7,0.1,1.1,0.1C97.5,107.3,98.3,107.4,99,107.6C99,107.5,99,107.6,99,107.6
				C99,107.6,99,107.6,99,107.6z"/>
		</g>
		<ellipse class="st6" cx="96.7" cy="133.3" rx="0.8" ry="1.2"/>
		<g>
			<path class="st3" d="M92.7,107.6c-0.5,0.1-1.1,0.3-1.6,0.4c-0.3,0-0.5,0.2-0.8,0.1c-0.3-0.1-0.5-0.2-0.8-0.5c0,0,0-0.1,0-0.1
				c0.3-0.3,0.5-0.4,0.8-0.5c0.3-0.1,0.5,0.1,0.8,0.1C91.7,107.3,92.2,107.4,92.7,107.6C92.8,107.5,92.8,107.6,92.7,107.6
				C92.8,107.6,92.8,107.6,92.7,107.6z"/>
		</g>
		<ellipse class="st6" cx="91.1" cy="133.3" rx="0.6" ry="1.2"/>
		<line class="st1" x1="88.2" y1="142.5" x2="159.5" y2="142.5"/>
		<g>
			<path class="st3" d="M104.5,156.9c6.4-0.6,12.9-0.7,19.3-0.7c6.4,0,12.9,0.2,19.3,0.7c-6.4,0.6-12.9,0.7-19.3,0.7
				C117.3,157.6,110.9,157.5,104.5,156.9z"/>
		</g>
	</g>
	<g>
		<g>
			<g id="XMLID_31_">
				<path class="st3" d="M127.5,32.8c0.1,0.9,0.3,1.9,0.3,2.8c0,0.5,0.2,0.9,0.1,1.4c-0.1,0.5-0.2,0.9-0.5,1.4c0,0-0.1,0-0.1,0
					c0,0,0,0,0,0c-0.3-0.5-0.4-0.9-0.4-1.4c-0.1-0.5,0.1-0.9,0.1-1.4c0.1-0.9,0.2-1.9,0.3-2.8C127.4,32.8,127.5,32.8,127.5,32.8
					C127.5,32.8,127.5,32.8,127.5,32.8z"/>
			</g>
			<g id="XMLID_29_">
				<path class="st3" d="M124.7,35.6c0.9-0.1,1.9-0.3,2.8-0.4c0.5,0,0.9-0.2,1.4-0.1c0.5,0.1,0.9,0.2,1.4,0.5c0,0,0,0.1,0,0.1
					c0,0,0,0,0,0c-0.5,0.3-0.9,0.4-1.4,0.4c-0.5,0.1-0.9-0.1-1.4-0.1c-0.9-0.1-1.9-0.2-2.8-0.3C124.6,35.7,124.6,35.7,124.7,35.6
					C124.6,35.6,124.6,35.6,124.7,35.6z"/>
			</g>
		</g>
		<g id="XMLID_27_">
			<path class="st3" d="M115.9,31.4c0,0.4,0.2,0.7,0.4,0.9c0.3,0.2,0.6,0.3,0.9,0.2c0.6,0,1.1-0.6,1-1.2c-0.1-0.6-0.6-0.9-1-0.9
				c-0.2,0-0.5,0-0.8,0.1C116.2,30.7,115.9,31,115.9,31.4z M115.8,31.4c0-0.4,0-0.8,0.3-1.2c0.2-0.4,0.7-0.7,1.2-0.7
				c0.5,0,1,0.2,1.4,0.6c0.3,0.4,0.5,0.9,0.5,1.4c0,1-0.9,1.8-1.8,1.7c-0.4,0-0.9-0.3-1.1-0.6C116,32.2,115.8,31.8,115.8,31.4z"/>
		</g>
		<g id="XMLID_18_">
			<path class="st3" d="M120.3,44.6c0,0.6,0.2,1.1,0.7,1.4c0.4,0.3,0.9,0.5,1.4,0.5c1,0,1.8-1,1.7-1.9c0-1-0.9-1.6-1.7-1.6
				c-0.4,0-0.9,0-1.3,0.3C120.6,43.5,120.3,44,120.3,44.6z M120.2,44.6c0-0.6,0.1-1.2,0.5-1.7c0.4-0.5,1-0.9,1.7-0.9
				c0.7,0,1.4,0.3,1.9,0.8c0.5,0.5,0.7,1.2,0.7,1.9c0,1.4-1.3,2.5-2.5,2.4c-0.6,0-1.2-0.3-1.6-0.8C120.4,45.7,120.2,45.2,120.2,44.6
				z"/>
		</g>
	</g>
</g>
</svg>
