<?xml version="1.0" encoding="utf-8"?>
<!-- Generator: Adobe Illustrator 22.0.1, SVG Export Plug-In . SVG Version: 6.00 Build 0)  -->
<svg version="1.1" id="Layer_1" xmlns="http://www.w3.org/2000/svg" xmlns:xlink="http://www.w3.org/1999/xlink" x="0px" y="0px"
	 viewBox="0 0 162.1 187" style="enable-background:new 0 0 162.1 187;" xml:space="preserve">
<style type="text/css">
	.st0{fill:#eee;}
	.st1{fill:#FFA3AA;}
	.st2{fill:#eee;stroke:#8E94AA;stroke-width:3;stroke-linecap:round;stroke-linejoin:round;stroke-miterlimit:10;}
	.st3{fill:#999999;stroke:#eee;stroke-width:7;stroke-linecap:round;stroke-linejoin:round;stroke-miterlimit:10;}
	.st4{fill:none;stroke:#8E94AA;stroke-width:3;stroke-linecap:round;stroke-linejoin:round;stroke-miterlimit:10;}
</style>
<g>
	<g>
		<polygon class="st0" points="126.7,0.2 11.5,0.2 11.5,175.5 161.8,175.5 161.8,35.1 		"/>
		<path class="st1" d="M126.6,0.3L97.7,0.8L68.9,1.3c-9.6,0.1-19.2,0.3-28.7,0.4L11.5,1.9l1.7-1.7L13.6,44l0.2,22l0.1,21.9l0.3,87.7
			l-2.6-2.6c12.5,0,25.1-0.1,37.6,0l37.6,0.1l75.2,0.2l-2.3,2.3c0-11.7,0.2-23.4,0.3-35.1l0.3-35.1l0.3-35.1l0.5-35.1l0.3,0.7
			l-17.2-17.6L126.6,0.3z M126.7,0.1L162,35l0.1,0.1l0.1,140.4c0,0.1-0.1,0.2-0.2,0.2l0,0H11.7c-0.2,0-0.3-0.1-0.3-0.3l0,0L11.3,0.2
			c0-0.1,0.1-0.2,0.2-0.2l0,0L126.7,0.1z"/>
	</g>
	<polygon class="st2" points="116.7,10.2 1.5,10.2 1.5,185.5 151.8,185.5 151.8,45.1 	"/>
	<g>
		<path id="Path_246" class="st2" d="M25.3,106.6c2.3,4.2,19.4,33.8,50.9,33.8c31.9,0,48.6-30.1,50.9-33.8
			c-2.3-4.2-19.4-33.8-50.9-33.8S27.6,102.4,25.3,106.6z"/>
		<circle id="Ellipse_32" class="st2" cx="76.2" cy="106.6" r="18"/>
		<path class="st3" d="M36.9,146.8c-0.4,0-0.8-0.1-1.1-0.4c-0.6-0.6-0.6-1.5,0-2.1l77.5-77.5c0.6-0.6,1.5-0.6,2.1,0s0.6,1.5,0,2.1
			L38,146.4C37.7,146.7,37.3,146.8,36.9,146.8z"/>
		<line class="st4" x1="115.7" y1="66.1" x2="36.2" y2="145.6"/>
	</g>
</g>
</svg>
