<?xml version="1.0" encoding="utf-8"?>
<!-- Generator: Adobe Illustrator 21.0.0, SVG Export Plug-In . SVG Version: 6.00 Build 0)  -->
<svg version="1.1" id="Layer_1" xmlns="http://www.w3.org/2000/svg" xmlns:xlink="http://www.w3.org/1999/xlink" x="0px" y="0px"
	 viewBox="80 0 150 84.9" style="enable-background:new 80 0 150 84.9;" xml:space="preserve">
<style type="text/css">
	.st0{fill:#8E94AA;}
	.st1{fill:transparent;}
	.st2{fill:#fff;stroke:#8E94AA;stroke-width:2;stroke-linecap:round;stroke-linejoin:round;stroke-miterlimit:10;}
	.st3{fill:#99C6FF;}
	.st4{fill:transparent;stroke:#E8EAEE;stroke-width:2;stroke-linejoin:round;stroke-miterlimit:10;}
</style>
<g>
	<g>
		<polyline class="st1" points="160.6,24.3 154.7,18.4 105.9,18.4 		"/>
		<path class="st0" d="M160.6,24.3l-6.1-5.7l0.2,0.1c-8.1,0.3-16.3,0.3-24.4,0.6c-2,0.1-4.1,0.1-6.1,0.1c-2,0-4.1,0-6.1-0.1
			c-4.1-0.1-8.1-0.4-12.2-0.8c-0.1,0-0.1-0.1-0.1-0.1c0,0,0-0.1,0.1-0.1c4.1-0.5,8.1-0.7,12.2-0.8c2-0.1,4.1-0.1,6.1-0.1
			c2,0,4.1,0.1,6.1,0.1c8.1,0.2,16.3,0.3,24.4,0.6l0,0c0.1,0,0.2,0,0.2,0.1l5.7,6.1c0,0,0,0.1,0,0.1
			C160.7,24.4,160.6,24.4,160.6,24.3z"/>
	</g>
	<polyline class="st2" points="94.8,72.4 94.8,14.3 119.7,14.3 129.8,24.3 165.4,24.3 165.4,72.3 	"/>
	<polyline class="st4" points="165.4,72.3 165.4,83.9 94.8,83.9 94.8,72.4 	"/>
	<g>
		<path class="st0" d="M73.3,72.3l26.6-0.4l26.6-0.3c8.9-0.1,17.8-0.3,26.6-0.2c8.9,0.2,17.8,0.3,26.6,0.9c0.1,0,0.1,0.1,0.1,0.1
			c0,0.1,0,0.1-0.1,0.1c-8.9,0.6-17.8,0.7-26.6,0.9c-8.9,0.1-17.8-0.1-26.6-0.2L100,72.9l-26.6-0.4C73.3,72.5,73.3,72.5,73.3,72.3
			C73.3,72.4,73.3,72.3,73.3,72.3z"/>
	</g>
</g>
</svg>
