<?xml version="1.0" encoding="utf-8"?>
<!-- Generator: Adobe Illustrator 22.0.1, SVG Export Plug-In . SVG Version: 6.00 Build 0)  -->
<svg version="1.1" id="Layer_1" xmlns="http://www.w3.org/2000/svg" xmlns:xlink="http://www.w3.org/1999/xlink" x="0px" y="0px"
	 viewBox="0 0 150.9 175.8" style="enable-background:new 0 0 150.9 175.8;" xml:space="preserve">
<style type="text/css">
	.st0{fill:#FFFFFF;}
	.st1{fill:#8E94AA;}
	.st2{fill:#FFD69A;}
</style>
<polygon class="st0" points="110.3,11.6 10,11.6 10,164.2 140.9,164.2 140.9,42 "/>
<g>
	<polygon class="st0" points="150.5,0.2 0.3,0.2 0.3,175.5 150.6,175.5 	"/>
	<g>
		<path class="st1" d="M150.4,0.3L75,1.2L37.6,1.7L0.3,1.9L2,0.2L2.4,44L2.6,66l0.1,21.9l0.3,87.7l-2.6-2.6l18.8-0.1l18.8,0.1
			l37.6,0.1l75.2,0.2l-2.3,2.3l0.8-87.1L150.4,0.3z M150.6,0.1l0.3,175.4c0,0.1-0.1,0.2-0.2,0.2h0L0.3,175.8c-0.2,0-0.3-0.1-0.3-0.3
			v0L0.1,0.2C0.1,0.1,0.2,0,0.3,0h0L150.6,0.1z"/>
	</g>
</g>
<g>
	<path class="st2" d="M124.9,82.4c-1.1,12.3-13.9,23.2-28.6,24.4C81.7,108,70.8,97.1,72,82.5c1.2-14.7,14-25.6,28.6-24.4
		C115.2,59.3,126.1,70.1,124.9,82.4z"/>
</g>
<g>
	<path class="st1" d="M22.2,111.4c1.2-2.6,3-4.9,5.1-6.7s4.9-3.1,7.6-3.8c2.8-0.7,5.7-0.7,8.5,0c2.8,0.7,5.5,1.9,7.7,3.8l-0.8,0.3
		c1.8-4.7,5-8.9,9.2-11.9c4.2-3,9.2-4.7,14.3-4.9c5.1-0.1,10.3,1.2,14.6,4c4.3,2.7,7.8,6.7,10,11.6l-1.2-0.7
		c4.3-0.9,8.9-0.3,12.8,1.9s6.9,5.8,8.4,10c0.3,0.7-0.1,1.5-0.8,1.6c-0.1,0-0.3,0.1-0.4,0.1l0,0c-6.2,0-12.3,0.1-18.5,0
		c-6.2,0-12.3-0.1-18.5-0.3l-9.2-0.1l-9.2-0.3c-6.2-0.1-12.3-0.4-18.5-0.7c-0.1,0-0.1,0-0.1-0.1s0-0.1,0.1-0.1
		c6.2-0.3,12.3-0.5,18.5-0.7l9.2-0.3l9.2-0.1c6.2-0.1,12.3-0.3,18.5-0.3c6.2,0,12.3,0,18.5,0l-1.2,1.8c-1.2-3.6-3.8-6.9-7-8.8
		c-1.6-0.9-3.5-1.6-5.4-2c-1.9-0.3-3.9-0.3-5.8,0.1l0,0c-0.5,0.1-0.9-0.1-1.2-0.7c-1.9-4.3-5-8.2-9-10.8c-4-2.7-8.8-4-13.6-3.9
		c-4.9,0-9.6,1.5-13.6,4.3c-4,2.7-7.2,6.6-8.9,11.2l0,0c-0.1,0.3-0.4,0.4-0.7,0.3c0,0-0.1,0-0.1-0.1c-2.2-1.8-4.6-3.1-7.3-3.6
		c-2.7-0.7-5.5-0.7-8.2-0.1s-5.3,1.8-7.4,3.5S23.5,108.8,22.2,111.4c0,0-0.1,0.1-0.1,0C22.2,111.5,22,111.4,22.2,111.4z"/>
</g>
</svg>
