<?xml version="1.0" encoding="utf-8"?>
<!-- Generator: Adobe Illustrator 21.0.0, SVG Export Plug-In . SVG Version: 6.00 Build 0)  -->
<svg version="1.1" id="Layer_1" xmlns="http://www.w3.org/2000/svg" xmlns:xlink="http://www.w3.org/1999/xlink" x="0px" y="0px"
	 viewBox="0 0 161.1 167.7" style="enable-background:new 0 0 161.1 167.7;" xml:space="preserve">
<style type="text/css">
	.st0{fill:none;stroke:#8E94AA;stroke-width:1.5;stroke-linecap:round;stroke-linejoin:round;stroke-miterlimit:10;}
	.st1{fill:#FFFFFF;}
	.st2{fill:#8E94AA;}
	.st3{fill:#E2F2E3;}
	.st4{fill:#EBF4FF;}
	.st5{fill:#FFFFFF;stroke:#8E94AA;stroke-linejoin:round;stroke-miterlimit:10;}
	.st6{fill:none;stroke:#8E94AA;stroke-linecap:round;stroke-linejoin:round;stroke-miterlimit:10;}
</style>
<g>
	<rect x="24.3" y="0.8" class="st0" width="80.8" height="161.6"/>
	<g>
		<rect x="64.7" y="5.1" class="st1" width="36" height="148.1"/>
		<path class="st2" d="M100.8,153.2l-36.1,0.1c-0.1,0-0.1-0.1-0.1-0.1v0L64.3,5.1c0-0.2,0.2-0.4,0.4-0.4c12,0,24-0.1,36-0.1
			c0.3,0,0.5,0.2,0.5,0.5l0,37.1l0,18.6l-0.1,18.5L100.8,153.2z M100.7,153.2L100.4,79l-0.1-18.5l0-18.5l0-36.9l0.5,0.5
			c-12,0-24-0.1-36-0.1l0.4-0.4l-0.3,148.1l-0.1-0.1L100.7,153.2z"/>
	</g>
	<g>
		<rect x="24.3" y="153.2" class="st3" width="80.8" height="9.2"/>
		<path class="st2" d="M105.2,162.4l-80.9,0.5c-0.3,0-0.6-0.2-0.6-0.5v0l0,0l0-9.2c0-0.3,0.3-0.6,0.6-0.6l0,0
			c6.7-0.1,13.5-0.2,20.2-0.2c6.7-0.1,13.5,0,20.2,0c6.7,0,13.5,0.1,20.2,0.2c6.7,0.1,13.5,0.2,20.2,0.3l0,0c0.2,0,0.3,0.1,0.3,0.3
			l0,0L105.2,162.4z M105.1,162.3l-0.2-9.1l0.3,0.3c-6.7,0.1-13.5,0.2-20.2,0.3c-6.7,0-13.5,0.2-20.2,0.2c-6.7,0-13.5,0.1-20.2,0
			c-6.7,0-13.5-0.1-20.2-0.2l0.6-0.6l0,9.2l-0.6-0.6L105.1,162.3z"/>
	</g>
	<g>
		<rect x="100.7" y="5.1" class="st1" width="36" height="148.1"/>
		<path class="st2" d="M136.8,153.2l-36.1,0.1c-0.1,0-0.1-0.1-0.1-0.1v0L100.3,5.1c0-0.2,0.2-0.4,0.4-0.4c12,0,24-0.1,36-0.1
			c0.3,0,0.5,0.2,0.5,0.5l0,37.1l0,18.6l-0.1,18.5L136.8,153.2z M136.7,153.2L136.4,79l-0.1-18.5l0-18.5l0-36.9l0.5,0.5
			c-12,0-24-0.1-36-0.1l0.4-0.4l-0.3,148.1l-0.1-0.1L136.7,153.2z"/>
	</g>
	<g>
		<rect x="65.9" y="11" class="st4" width="4.3" height="16.1"/>
		<g>
			<g>
				<path class="st2" d="M71.4,9.5l-6.7,0.1l0.1-0.1l0.2,25.4l-0.3-0.3c2.2,0,4.5-0.1,6.7-0.1l-0.4,0.4c0-4.2,0-8.4,0.1-12.6
					C71.2,18.1,71.3,13.8,71.4,9.5z M71.5,9.4c0.1,4.1,0.2,8.3,0.3,12.6c0.1,4.3,0.1,8.6,0.1,12.8c0,0.2-0.2,0.4-0.4,0.4
					c-2.2,0-4.5,0-6.7-0.1l0,0c-0.2,0-0.3-0.1-0.3-0.3l0.2-25.4c0-0.1,0-0.1,0.1-0.1l0,0L71.5,9.4z"/>
			</g>
		</g>
		<g>
			<path class="st2" d="M65.9,12.5c0.7-0.1,1.4-0.2,2.2-0.3c0.4,0,0.7-0.1,1.1-0.1c0.4,0.1,0.7,0.1,1.1,0.3c0,0,0,0,0,0.1
				c0,0,0,0,0,0c-0.4,0.2-0.7,0.3-1.1,0.3c-0.4,0-0.7,0-1.1-0.1C67.4,12.8,66.7,12.7,65.9,12.5C65.9,12.6,65.9,12.6,65.9,12.5
				C65.9,12.5,65.9,12.5,65.9,12.5z"/>
		</g>
		<circle class="st4" cx="68.1" cy="29" r="0.8"/>
	</g>
	<line class="st5" x1="64.7" y1="34.8" x2="100.7" y2="34.8"/>
	<line class="st5" x1="64.7" y1="64.6" x2="100.7" y2="64.6"/>
	<line class="st5" x1="64.7" y1="94.4" x2="100.7" y2="94.4"/>
	<line class="st5" x1="64.7" y1="124.1" x2="100.7" y2="124.1"/>
	<g>
		<rect x="73.8" y="11" class="st4" width="4.3" height="16.1"/>
		<g>
			<g>
				<path class="st2" d="M79.3,9.5l-6.7,0.1l0.1-0.1l0.2,25.4l-0.3-0.3c2.2,0,4.5-0.1,6.7-0.1l-0.4,0.4c0-4.2,0-8.4,0.1-12.6
					C79,18.1,79.2,13.8,79.3,9.5z M79.3,9.4c0.1,4.1,0.2,8.3,0.3,12.6c0.1,4.3,0.1,8.6,0.1,12.8c0,0.2-0.2,0.4-0.4,0.4
					c-2.2,0-4.5,0-6.7-0.1l0,0c-0.2,0-0.3-0.1-0.3-0.3l0.2-25.4c0-0.1,0-0.1,0.1-0.1l0,0L79.3,9.4z"/>
			</g>
		</g>
		<g>
			<path class="st2" d="M73.8,12.5c0.7-0.1,1.4-0.2,2.2-0.3c0.4,0,0.7-0.1,1.1-0.1c0.4,0.1,0.7,0.1,1.1,0.3c0,0,0,0,0,0.1
				c0,0,0,0,0,0c-0.4,0.2-0.7,0.3-1.1,0.3c-0.4,0-0.7,0-1.1-0.1C75.2,12.8,74.5,12.7,73.8,12.5C73.8,12.6,73.7,12.6,73.8,12.5
				C73.7,12.5,73.8,12.5,73.8,12.5z"/>
		</g>
		<circle class="st4" cx="75.9" cy="29" r="0.8"/>
	</g>
	<g>
		<rect x="81.8" y="11" class="st4" width="4.3" height="16.1"/>
		<g>
			<g>
				<path class="st2" d="M87.3,9.5l-6.7,0.1l0.1-0.1l0.2,25.4l-0.3-0.3c2.2,0,4.5-0.1,6.7-0.1l-0.4,0.4c0-4.2,0-8.4,0.1-12.6
					C87,18.1,87.2,13.8,87.3,9.5z M87.3,9.4c0.1,4.1,0.2,8.3,0.3,12.6c0.1,4.3,0.1,8.6,0.1,12.8c0,0.2-0.2,0.4-0.4,0.4
					c-2.2,0-4.5,0-6.7-0.1l0,0c-0.2,0-0.3-0.1-0.3-0.3l0.2-25.4c0-0.1,0-0.1,0.1-0.1l0,0L87.3,9.4z"/>
			</g>
		</g>
		<g>
			<path class="st2" d="M81.8,12.5c0.7-0.1,1.4-0.2,2.2-0.3c0.4,0,0.7-0.1,1.1-0.1c0.4,0.1,0.7,0.1,1.1,0.3c0,0,0,0,0,0.1
				c0,0,0,0,0,0c-0.4,0.2-0.7,0.3-1.1,0.3c-0.4,0-0.7,0-1.1-0.1C83.2,12.8,82.5,12.7,81.8,12.5C81.8,12.6,81.8,12.6,81.8,12.5
				C81.8,12.5,81.8,12.5,81.8,12.5z"/>
		</g>
		<circle class="st4" cx="84" cy="29" r="0.8"/>
	</g>
	<g>
		<rect x="89.7" y="11" class="st4" width="4.3" height="16.1"/>
		<g>
			<g>
				<path class="st2" d="M95.2,9.5l-6.7,0.1l0.1-0.1l0.2,25.4l-0.3-0.3c2.2,0,4.5-0.1,6.7-0.1l-0.4,0.4c0-4.2,0-8.4,0.1-12.6
					C95,18.1,95.1,13.8,95.2,9.5z M95.3,9.4c0.1,4.1,0.2,8.3,0.3,12.6c0.1,4.3,0.1,8.6,0.1,12.8c0,0.2-0.2,0.4-0.4,0.4
					c-2.2,0-4.5,0-6.7-0.1l0,0c-0.2,0-0.3-0.1-0.3-0.3l0.2-25.4c0-0.1,0-0.1,0.1-0.1l0,0L95.3,9.4z"/>
			</g>
		</g>
		<g>
			<path class="st2" d="M89.7,12.5c0.7-0.1,1.4-0.2,2.2-0.3c0.4,0,0.7-0.1,1.1-0.1c0.4,0.1,0.7,0.1,1.1,0.3c0,0,0,0,0,0.1
				c0,0,0,0,0,0c-0.4,0.2-0.7,0.3-1.1,0.3c-0.4,0-0.7,0-1.1-0.1C91.2,12.8,90.5,12.7,89.7,12.5C89.7,12.6,89.7,12.6,89.7,12.5
				C89.7,12.5,89.7,12.5,89.7,12.5z"/>
		</g>
		<circle class="st4" cx="91.9" cy="29" r="0.8"/>
	</g>
	<rect x="68.7" y="40.7" class="st3" width="4.3" height="16.1"/>
	<g>
		<g>
			<path class="st2" d="M74.2,39.2l-6.7,0.1l0.1-0.1l0.2,25.4l-0.3-0.3c2.2,0,4.5-0.1,6.7-0.1l-0.4,0.4c0-4.2,0-8.4,0.1-12.6
				C73.9,47.8,74,43.6,74.2,39.2z M74.2,39.2c0.1,4.1,0.2,8.3,0.3,12.6c0.1,4.3,0.1,8.6,0.1,12.8c0,0.2-0.2,0.4-0.4,0.4
				c-2.2,0-4.5,0-6.7-0.1l0,0c-0.2,0-0.3-0.1-0.3-0.3l0.2-25.4c0-0.1,0-0.1,0.1-0.1h0L74.2,39.2z"/>
		</g>
	</g>
	<g>
		<path class="st2" d="M68.7,42.3c0.7-0.1,1.4-0.2,2.2-0.3c0.4,0,0.7-0.1,1.1-0.1c0.4,0.1,0.7,0.1,1.1,0.3c0,0,0,0,0,0.1
			c0,0,0,0,0,0c-0.4,0.2-0.7,0.3-1.1,0.3c-0.4,0-0.7,0-1.1-0.1C70.1,42.5,69.4,42.5,68.7,42.3C68.6,42.3,68.6,42.3,68.7,42.3
			C68.6,42.3,68.7,42.3,68.7,42.3z"/>
	</g>
	<circle class="st4" cx="70.8" cy="58.7" r="0.8"/>
	<rect x="76.5" y="40.7" class="st3" width="4.3" height="16.1"/>
	<g>
		<g>
			<path class="st2" d="M82,39.2l-6.7,0.1l0.1-0.1l0.2,25.4l-0.3-0.3c2.2,0,4.5-0.1,6.7-0.1l-0.4,0.4c0-4.2,0-8.4,0.1-12.6
				C81.8,47.8,81.9,43.6,82,39.2z M82,39.2c0.1,4.1,0.2,8.3,0.3,12.6c0.1,4.3,0.1,8.6,0.1,12.8c0,0.2-0.2,0.4-0.4,0.4
				c-2.2,0-4.5,0-6.7-0.1l0,0c-0.2,0-0.3-0.1-0.3-0.3l0.2-25.4c0-0.1,0-0.1,0.1-0.1h0L82,39.2z"/>
		</g>
	</g>
	<g>
		<path class="st2" d="M76.5,42.3c0.7-0.1,1.4-0.2,2.2-0.3c0.4,0,0.7-0.1,1.1-0.1c0.4,0.1,0.7,0.1,1.1,0.3c0,0,0,0,0,0.1
			c0,0,0,0,0,0c-0.4,0.2-0.7,0.3-1.1,0.3c-0.4,0-0.7,0-1.1-0.1C77.9,42.5,77.2,42.5,76.5,42.3C76.5,42.3,76.5,42.3,76.5,42.3
			C76.5,42.3,76.5,42.3,76.5,42.3z"/>
	</g>
	<circle class="st4" cx="78.7" cy="58.7" r="0.8"/>
	<rect x="84.5" y="40.7" class="st3" width="4.3" height="16.1"/>
	<g>
		<g>
			<path class="st2" d="M90,39.2l-6.7,0.1l0.1-0.1l0.2,25.4l-0.3-0.3c2.2,0,4.5-0.1,6.7-0.1l-0.4,0.4c0-4.2,0-8.4,0.1-12.6
				C89.8,47.8,89.9,43.6,90,39.2z M90,39.2c0.1,4.1,0.2,8.3,0.3,12.6c0.1,4.3,0.1,8.6,0.1,12.8c0,0.2-0.2,0.4-0.4,0.4
				c-2.2,0-4.5,0-6.7-0.1l0,0c-0.2,0-0.3-0.1-0.3-0.3l0.2-25.4c0-0.1,0-0.1,0.1-0.1h0L90,39.2z"/>
		</g>
	</g>
	<g>
		<path class="st2" d="M84.5,42.3c0.7-0.1,1.4-0.2,2.2-0.3c0.4,0,0.7-0.1,1.1-0.1c0.4,0.1,0.7,0.1,1.1,0.3c0,0,0,0,0,0.1
			c0,0,0,0,0,0c-0.4,0.2-0.7,0.3-1.1,0.3c-0.4,0-0.7,0-1.1-0.1C86,42.5,85.2,42.5,84.5,42.3C84.5,42.3,84.5,42.3,84.5,42.3
			C84.5,42.3,84.5,42.3,84.5,42.3z"/>
	</g>
	<circle class="st4" cx="86.7" cy="58.7" r="0.8"/>
	<rect x="92.5" y="40.7" class="st3" width="4.3" height="16.1"/>
	<g>
		<g>
			<path class="st2" d="M98,39.2l-6.7,0.1l0.1-0.1l0.2,25.4l-0.3-0.3c2.2,0,4.5-0.1,6.7-0.1l-0.4,0.4c0-4.2,0-8.4,0.1-12.6
				C97.7,47.8,97.8,43.6,98,39.2z M98,39.2c0.1,4.1,0.2,8.3,0.3,12.6c0.1,4.3,0.1,8.6,0.1,12.8c0,0.2-0.2,0.4-0.4,0.4
				c-2.2,0-4.5,0-6.7-0.1l0,0c-0.2,0-0.3-0.1-0.3-0.3l0.2-25.4c0-0.1,0-0.1,0.1-0.1h0L98,39.2z"/>
		</g>
	</g>
	<g>
		<path class="st2" d="M92.5,42.3c0.7-0.1,1.4-0.2,2.2-0.3c0.4,0,0.7-0.1,1.1-0.1c0.4,0.1,0.7,0.1,1.1,0.3c0,0,0,0,0,0.1
			c0,0,0,0,0,0c-0.4,0.2-0.7,0.3-1.1,0.3c-0.4,0-0.7,0-1.1-0.1C93.9,42.5,93.2,42.5,92.5,42.3C92.4,42.3,92.4,42.3,92.5,42.3
			C92.4,42.3,92.4,42.3,92.5,42.3z"/>
	</g>
	<circle class="st4" cx="94.6" cy="58.7" r="0.8"/>
	<g>
		<path class="st2" d="M0,166.9c6.7-0.2,13.4-0.2,20.1-0.4l20.1-0.2c13.4-0.1,26.8-0.1,40.3-0.2c13.4,0.1,26.8,0.1,40.3,0.2
			l20.1,0.2c6.7,0.1,13.4,0.2,20.1,0.4c-6.7,0.2-13.4,0.2-20.1,0.4l-20.1,0.2c-13.4,0.1-26.8,0.1-40.3,0.2
			c-13.4-0.1-26.8-0.1-40.3-0.2l-20.1-0.2C13.4,167.2,6.7,167.1,0,166.9z"/>
	</g>
	<g>
		<g>
			<g id="XMLID_39_">
				<path class="st2" d="M149.5,145.7c0.1,0.9,0.3,1.9,0.3,2.8c0,0.5,0.2,0.9,0.1,1.4c-0.1,0.5-0.2,0.9-0.5,1.4c0,0-0.1,0-0.1,0
					c0,0,0,0,0,0c-0.3-0.5-0.4-0.9-0.4-1.4c-0.1-0.5,0.1-0.9,0.1-1.4c0.1-0.9,0.2-1.9,0.3-2.8C149.4,145.7,149.4,145.7,149.5,145.7
					C149.5,145.7,149.5,145.7,149.5,145.7z"/>
			</g>
			<g id="XMLID_37_">
				<path class="st2" d="M152.3,148.6c-0.9,0.1-1.9,0.3-2.8,0.4c-0.5,0-0.9,0.2-1.4,0.1c-0.5-0.1-0.9-0.2-1.4-0.4c0,0,0-0.1,0-0.1
					c0,0,0,0,0,0c0.5-0.3,0.9-0.4,1.4-0.5c0.5-0.1,0.9,0.1,1.4,0.1c0.9,0.1,1.9,0.2,2.8,0.4C152.3,148.5,152.3,148.6,152.3,148.6
					C152.3,148.6,152.3,148.6,152.3,148.6z"/>
			</g>
		</g>
		<g id="XMLID_35_">
			<path class="st2" d="M161.1,144.3c0,0.4-0.2,0.8-0.4,1.1c-0.2,0.3-0.7,0.6-1.1,0.6c-0.9,0.1-1.8-0.7-1.8-1.7c0-0.5,0.1-1,0.5-1.4
				c0.3-0.4,0.9-0.6,1.4-0.6c0.5,0,1,0.3,1.2,0.7C161.1,143.5,161.2,143.9,161.1,144.3z M161,144.3c0-0.4-0.3-0.7-0.6-0.8
				c-0.3-0.1-0.6-0.1-0.8-0.1c-0.5,0.1-1,0.4-1,0.9c-0.1,0.6,0.4,1.2,1,1.2c0.3,0,0.7,0,0.9-0.2C160.9,145.1,161.1,144.7,161,144.3z
				"/>
		</g>
		<g id="XMLID_26_">
			<path class="st2" d="M156.7,157.5c0,0.6-0.2,1.1-0.6,1.6c-0.4,0.5-1,0.8-1.6,0.8c-1.3,0.1-2.5-1-2.5-2.4c0-0.7,0.2-1.4,0.7-1.9
				c0.5-0.5,1.2-0.8,1.9-0.8c0.7,0,1.3,0.4,1.7,0.9C156.6,156.3,156.8,157,156.7,157.5z M156.6,157.5c0-0.6-0.3-1.1-0.8-1.3
				c-0.4-0.3-0.9-0.3-1.3-0.3c-0.8,0-1.7,0.7-1.7,1.6c-0.1,0.9,0.7,1.9,1.7,1.9c0.5,0,1-0.1,1.4-0.5
				C156.4,158.6,156.7,158.1,156.6,157.5z"/>
		</g>
	</g>
	<rect x="28.7" y="5.1" class="st6" width="36" height="148.1"/>
	<g>
		<path class="st2" d="M54.2,79.2l5.7-0.2l0.2,0l0,0.2l0.2,7.8l0,0.4l-0.4,0c-0.9,0.1-1.9,0.1-2.8,0.1c-0.9,0-1.9,0-2.8,0l-0.5,0
			l0-0.5c0-1.4,0.1-2.7,0.2-4.1C54,81.7,54.1,80.4,54.2,79.2z M54.3,79.3l0.3,4c0.1,1.3,0.2,2.5,0.2,3.8l-0.5-0.5c0.9,0,1.9,0,2.8,0
			c0.9,0,1.9,0,2.8,0.1l-0.4,0.4l0.2-7.8l0.2,0.2L54.3,79.3z"/>
	</g>
</g>
</svg>
