<?xml version="1.0" encoding="utf-8"?>
<!-- Generator: Adobe Illustrator 21.0.0, SVG Export Plug-In . SVG Version: 6.00 Build 0)  -->
<svg version="1.1" id="Layer_1" xmlns="http://www.w3.org/2000/svg" xmlns:xlink="http://www.w3.org/1999/xlink" x="0px" y="0px"
	 viewBox="0 0 362.9 225.9" style="enable-background:new 0 0 362.9 225.9;" xml:space="preserve">
<style type="text/css">
	.st0{fill:#FFFFFF;}
	.st1{fill:#FFD69A;}
	.st2{fill:#99C6FF;}
	.st3{fill:#FBB4AF;}
	.st4{fill:#BCADDB;}
	.st5{fill:#B7DFB9;}
	.st6{fill:#FFFFFF;stroke:#8E94AA;stroke-width:2.5;stroke-linecap:round;stroke-linejoin:round;stroke-miterlimit:10;}
	.st7{fill:#8E94AA;}
	.st8{fill:#E6E7E8;}
</style>
<g>
	<g>
		<polygon class="st0" points="143.2,187.1 61,208.4 61,34.2 143.2,12.9 		"/>
		<g>
			<path class="st1" d="M143.3,187.1l-82.2,21.6c-0.2,0.1-0.4-0.1-0.4-0.3c0,0,0-0.1,0-0.1L60.2,34.2c0-0.4,0.3-0.7,0.6-0.8l0,0
				l41.1-10.9l41.1-10.7c0.6-0.1,1.1,0.2,1.3,0.8c0,0.1,0,0.2,0,0.3l-0.1,43.7l-0.2,43.6l-0.3,43.5L143.3,187.1z M143.1,187
				l-0.4-43.7l-0.3-43.5l-0.2-43.4l-0.1-43.4l1.3,1l-41.1,10.6L61.2,35l0.6-0.8l-0.4,174.2l-0.5-0.4L143.1,187z"/>
		</g>
	</g>
	<g>
		<polygon class="st0" points="157.5,192 98.1,216.3 98.1,42.2 157.5,17.8 		"/>
		<g>
			<path class="st1" d="M157.6,192l-59.3,24.6c-0.2,0.1-0.3,0-0.4-0.2c0,0,0-0.1,0-0.1L97.3,42.2c0-0.3,0.2-0.6,0.5-0.7l0,0
				l29.6-12.4l29.7-12.2c0.5-0.2,1.2,0,1.4,0.6c0.1,0.1,0.1,0.3,0.1,0.4l-0.1,43.7l-0.2,43.6l-0.3,43.5L157.6,192z M157.4,191.9
				l-0.4-43.7l-0.3-43.5l-0.2-43.4l-0.1-43.4l1.5,1l-29.7,12.1l-29.8,12l0.5-0.7l-0.5,174.2L98,216L157.4,191.9z"/>
		</g>
	</g>
	<g>
		<polygon class="st0" points="200.3,175.2 113.1,207 113.1,32.9 200.3,1 		"/>
		<g>
			<path class="st2" d="M200.4,175.3l-87.2,32.1c-0.2,0.1-0.4,0-0.5-0.2c0,0,0-0.1,0-0.1l-0.4-174.2c0-0.3,0.2-0.6,0.5-0.7l0,0
				c14.5-5.4,29-10.8,43.6-16.1L200,0.1c0.5-0.2,1.1,0.1,1.3,0.6c0,0.1,0.1,0.2,0.1,0.4l-0.1,43.7l-0.2,43.6l-0.3,43.5L200.4,175.3z
				 M200.2,175.1l-0.4-43.7l-0.3-43.5l-0.2-43.4L199.3,1l1.4,1L157,17.9c-14.5,5.3-29.1,10.5-43.7,15.7l0.5-0.8L113.4,207l-0.5-0.4
				L200.2,175.1z"/>
		</g>
	</g>
	<g>
		<polygon class="st0" points="215.5,178.2 152.5,210.2 152.5,36 215.5,4.1 		"/>
		<g>
			<path class="st2" d="M215.6,178.3l-63,32.2c-0.2,0.1-0.4,0-0.4-0.1c0,0,0-0.1,0-0.2L151.7,36c0-0.3,0.2-0.6,0.4-0.7l0,0
				l31.4-16.1l31.5-16c0.5-0.3,1.2-0.1,1.4,0.5c0.1,0.2,0.1,0.3,0.1,0.5l-0.1,43.7l-0.2,43.6l-0.3,43.5L215.6,178.3z M215.4,178.2
				l-0.4-43.7l-0.3-43.5l-0.2-43.4l-0.1-43.4L216,5l-31.5,15.9l-31.6,15.8l0.4-0.7l-0.5,174.2l-0.5-0.3L215.4,178.2z"/>
		</g>
	</g>
	<g>
		<polygon class="st0" points="208.1,186.5 161,210.1 161,35.9 208.1,12.3 		"/>
		<g>
			<path class="st3" d="M208.2,186.5l-47,23.8c-0.1,0.1-0.3,0-0.4-0.1c0,0,0-0.1,0-0.1l-0.5-174.2c0-0.3,0.2-0.6,0.4-0.7l0,0
				l23.5-11.9l23.5-11.8c0.5-0.3,1.1-0.1,1.4,0.5c0.1,0.1,0.1,0.3,0.1,0.5l0,0c0.1,14.6,0,29.1,0,43.7l-0.2,43.6l-0.1,21.8
				l-0.2,21.7L208.2,186.5z M208,186.4l-0.5-43.7l-0.2-21.8l-0.1-21.7l-0.2-43.4c0-14.5-0.1-28.9,0-43.4l1.5,0.9L185,25l-23.6,11.6
				l0.4-0.7l-0.5,174.2l-0.4-0.3L208,186.4z"/>
		</g>
	</g>
	<g>
		<polygon class="st0" points="230.3,188.9 201.3,213.9 201.3,39.8 230.3,14.7 		"/>
		<g>
			<path class="st3" d="M230.4,188.9l-28.9,25.2c-0.1,0.1-0.3,0.1-0.3,0c0,0-0.1-0.1-0.1-0.2l-0.6-174.2c0-0.2,0.1-0.5,0.3-0.6l0,0
				c9.6-8.4,19.2-16.8,28.9-25.2c0.4-0.4,1.1-0.3,1.4,0.1c0.2,0.2,0.2,0.4,0.2,0.7l0.1,21.8l0,21.8c0,14.5,0,29.1-0.1,43.6
				l-0.3,43.5L230.4,188.9z M230.2,188.9l-0.5-43.7l-0.3-43.5c-0.1-14.5-0.1-29-0.1-43.5l0-21.7l0.1-21.7l1.7,0.8
				c-9.7,8.3-19.4,16.6-29.2,24.9l0.3-0.6l-0.6,174.2l-0.4-0.2L230.2,188.9z"/>
		</g>
	</g>
	<g>
		<polygon class="st0" points="235.8,188.2 210.3,210.1 210.3,35.9 235.8,14 		"/>
		<g>
			<path class="st4" d="M235.9,188.2l-25.4,22c-0.1,0.1-0.2,0.1-0.3,0c0,0-0.1-0.1-0.1-0.2l-0.6-174.2c0-0.2,0.1-0.5,0.3-0.6l0,0
				l25.3-22c0.4-0.4,1-0.3,1.4,0.1c0.2,0.2,0.2,0.4,0.2,0.7l0,0c0,14.5,0.1,29.1,0,43.6l-0.1,43.6l-0.3,43.5L235.9,188.2z
				 M235.7,188.1l-0.5-43.7l-0.3-43.5l-0.1-43.5c0-14.5,0-28.9,0-43.4l1.7,0.8l-25.6,21.7l0.3-0.6l-0.6,174.2l-0.4-0.2L235.7,188.1z
				"/>
		</g>
	</g>
	<g>
		<polygon class="st0" points="249.4,184.7 252.7,210.3 252.7,36.1 249.4,10.5 		"/>
		<g>
			<path class="st4" d="M249.6,184.7l3.3,25.6l-0.3,0l-0.5-87.1l-0.3-87.1l0,0.1l-3.4-25.6l2.2-0.1l0.2,43.5c0,14.5,0,29-0.2,43.5
				c-0.1,14.5-0.4,29-0.6,43.5C249.8,155.7,249.7,170.2,249.6,184.7z M249.3,184.7c-0.1-14.5-0.2-29-0.4-43.5
				c-0.2-14.5-0.5-29-0.6-43.5c-0.2-14.5-0.1-29-0.2-43.6l0.2-43.6l0,0c0-0.6,0.5-1.1,1.1-1.1c0.6,0,1,0.4,1.1,1l3.1,25.6l0,0
				c0,0,0,0.1,0,0.1l-0.3,87.1l-0.5,87.1c0,0.1-0.1,0.1-0.1,0.1c-0.1,0-0.1,0-0.1-0.1L249.3,184.7z"/>
		</g>
	</g>
	<g>
		<polygon class="st0" points="264.5,187.8 294.9,210.6 294.9,36.4 264.5,13.7 		"/>
		<g>
			<path class="st5" d="M264.6,187.8l30.5,22.5l-0.5,0.2l-0.7-174.2l0.4,0.8L279,26l-15.3-11.3l2-1l0.1,21.7l0,21.7l0,21.7
				l-0.1,21.7c-0.1,14.5-0.2,29-0.4,43.5C265.1,158.6,264.9,173.1,264.6,187.8z M264.4,187.9c-0.3-14.4-0.5-28.8-0.6-43.3
				c-0.2-14.5-0.3-29-0.4-43.5l-0.1-21.8l0-21.8l0-21.8l0.1-21.8l0,0c0-0.7,0.6-1.3,1.3-1.3c0.3,0,0.5,0.1,0.8,0.3l15.2,11.4
				l15.1,11.5l0,0c0.3,0.2,0.4,0.5,0.4,0.8l-0.7,174.2c0,0.2-0.1,0.3-0.3,0.3c-0.1,0-0.1,0-0.2-0.1L264.4,187.9z"/>
		</g>
	</g>
	<polygon class="st6" points="294.9,210.6 252.6,210.3 252.6,36.2 294.9,36.4 	"/>
	<rect x="257.4" y="64.9" class="st5" width="32.7" height="7.4"/>
	<g>
		<circle class="st0" cx="273.7" cy="175.8" r="7.5"/>
		<path class="st7" d="M281.4,175.8c-0.1,2-0.8,4-2.1,5.5c-1.3,1.6-3.4,2.6-5.5,2.7c-2.2,0.1-4.4-0.7-6-2.3c-1.6-1.5-2.6-3.7-2.7-6
			c-0.1-2.3,0.8-4.6,2.4-6.4c1.6-1.7,4-2.8,6.4-2.7c2.4,0.1,4.6,1.4,5.9,3.1C280.9,171.7,281.5,173.8,281.4,175.8z M281.1,175.8
			c0-1.9-1.1-3.8-2.6-4.7c-1.5-1-3.2-1.3-4.7-1.3c-1.6,0.1-3.1,0.7-4.3,1.8c-1.2,1-2,2.6-2.1,4.3c-0.1,1.7,0.5,3.4,1.7,4.6
			c1.2,1.3,2.8,2.1,4.6,2.1c1.8,0.1,3.6-0.4,5.1-1.7C280.3,179.7,281.2,177.7,281.1,175.8z"/>
	</g>
	<g>
		<path class="st7" d="M290.1,82c-1.9,0.2-3.8,0.3-5.6,0.4l-5.6,0.3c-1.9,0.1-3.8,0.3-5.6,0.2c-1.9-0.1-3.8-0.3-5.6-0.9
			c-0.1,0-0.1-0.1-0.1-0.1c0,0,0-0.1,0.1-0.1c1.9-0.6,3.8-0.8,5.6-0.9c1.9-0.1,3.8,0.1,5.6,0.2l5.6,0.3c1.9,0.1,3.8,0.2,5.6,0.4
			C290.1,81.8,290.2,81.9,290.1,82C290.2,82,290.1,82,290.1,82z"/>
	</g>
	<g>
		<line class="st0" x1="263.6" y1="91.4" x2="290.1" y2="91.4"/>
		<path class="st7" d="M263.6,91.3c2.2-0.2,4.4-0.3,6.6-0.4l6.6-0.3c2.2-0.1,4.4-0.3,6.6-0.2c2.2,0.1,4.4,0.3,6.6,0.9
			c0.1,0,0.1,0.1,0.1,0.1c0,0,0,0.1-0.1,0.1c-2.2,0.6-4.4,0.8-6.6,0.9c-2.2,0.1-4.4-0.1-6.6-0.2l-6.6-0.3c-2.2-0.1-4.4-0.2-6.6-0.4
			C263.5,91.5,263.5,91.5,263.6,91.3C263.5,91.4,263.5,91.4,263.6,91.3z"/>
	</g>
	<g>
		<path class="st7" d="M290.1,101.3c-2.3,0.2-4.7,0.3-7,0.4l-7,0.3c-2.3,0.1-4.7,0.3-7,0.2c-2.3-0.1-4.7-0.3-7-0.9
			c-0.1,0-0.1-0.1-0.1-0.1c0,0,0-0.1,0.1-0.1c2.3-0.6,4.7-0.8,7-0.9c2.3-0.1,4.7,0.1,7,0.2l7,0.3c2.3,0.1,4.7,0.2,7,0.4
			C290.1,101.1,290.2,101.1,290.1,101.3C290.2,101.3,290.1,101.3,290.1,101.3z"/>
	</g>
	<g>
		<line class="st0" x1="290.1" y1="111.6" x2="267.5" y2="111.6"/>
		<path class="st7" d="M290.1,111.7c-1.9,0.2-3.8,0.3-5.6,0.4l-5.6,0.3c-1.9,0.1-3.8,0.3-5.6,0.2c-1.9-0.1-3.8-0.3-5.6-0.9
			c-0.1,0-0.1-0.1-0.1-0.1c0,0,0-0.1,0.1-0.1c1.9-0.6,3.8-0.8,5.6-0.9c1.9-0.1,3.8,0.1,5.6,0.2l5.6,0.3c1.9,0.1,3.8,0.2,5.6,0.4
			C290.1,111.5,290.2,111.6,290.1,111.7C290.2,111.7,290.1,111.7,290.1,111.7z"/>
	</g>
	<polygon class="st6" points="252.7,210.3 210.3,210.1 210.3,35.9 252.7,36.1 	"/>
	<rect x="215.2" y="64.6" class="st4" width="32.7" height="7.4"/>
	<g>
		<circle class="st0" cx="232.5" cy="175.5" r="7.5"/>
		<path class="st7" d="M240.1,175.5c-0.1,2-0.8,4-2.1,5.5c-1.3,1.6-3.4,2.6-5.5,2.7c-2.2,0.1-4.4-0.7-6-2.3c-1.6-1.5-2.6-3.7-2.7-6
			c-0.1-2.3,0.8-4.6,2.4-6.4c1.6-1.7,4-2.8,6.4-2.7c2.4,0.1,4.6,1.4,5.9,3.1C239.7,171.4,240.2,173.5,240.1,175.5z M239.8,175.5
			c0-1.9-1.1-3.8-2.6-4.7c-1.5-1-3.2-1.3-4.7-1.3c-1.6,0.1-3.1,0.7-4.3,1.8c-1.2,1-2,2.6-2.1,4.3c-0.1,1.7,0.5,3.4,1.7,4.6
			c1.2,1.3,2.8,2.1,4.6,2.1c1.8,0.1,3.6-0.4,5.1-1.7C239,179.4,239.9,177.5,239.8,175.5z"/>
	</g>
	<g>
		<path class="st7" d="M247.9,81.8c-2.3,0.2-4.5,0.3-6.8,0.4l-6.8,0.3c-2.3,0.1-4.5,0.3-6.8,0.2c-2.3-0.1-4.5-0.3-6.8-0.9
			c-0.1,0-0.1-0.1-0.1-0.1c0,0,0-0.1,0.1-0.1c2.3-0.6,4.5-0.8,6.8-0.9c2.3-0.1,4.5,0.1,6.8,0.2l6.8,0.3c2.3,0.1,4.5,0.2,6.8,0.4
			C247.9,81.6,248,81.6,247.9,81.8C248,81.7,247.9,81.8,247.9,81.8z"/>
	</g>
	<g>
		<line class="st0" x1="220.8" y1="91.2" x2="247.9" y2="91.2"/>
		<path class="st7" d="M220.8,91.1c2.3-0.2,4.5-0.3,6.8-0.4l6.8-0.3c2.3-0.1,4.5-0.3,6.8-0.2c2.3,0.1,4.5,0.3,6.8,0.9
			c0.1,0,0.1,0.1,0.1,0.1c0,0,0,0.1-0.1,0.1c-2.3,0.6-4.5,0.8-6.8,0.9c-2.3,0.1-4.5-0.1-6.8-0.2l-6.8-0.3c-2.3-0.1-4.5-0.2-6.8-0.4
			C220.8,91.3,220.7,91.2,220.8,91.1C220.8,91.1,220.8,91.1,220.8,91.1z"/>
	</g>
	<g>
		<path class="st7" d="M247.9,101c-2.3,0.2-4.5,0.3-6.8,0.4l-6.8,0.3c-2.3,0.1-4.5,0.3-6.8,0.2c-2.3-0.1-4.5-0.3-6.8-0.9
			c-0.1,0-0.1-0.1-0.1-0.1c0,0,0-0.1,0.1-0.1c2.3-0.6,4.5-0.8,6.8-0.9c2.3-0.1,4.5,0.1,6.8,0.2l6.8,0.3c2.3,0.1,4.5,0.2,6.8,0.4
			C247.9,100.8,248,100.9,247.9,101C248,101,247.9,101,247.9,101z"/>
	</g>
	<g>
		<line class="st0" x1="220.8" y1="111.2" x2="247.9" y2="111.2"/>
		<path class="st7" d="M220.8,111.1c2.3-0.2,4.5-0.3,6.8-0.4l6.8-0.3c2.3-0.1,4.5-0.3,6.8-0.2c2.3,0.1,4.5,0.3,6.8,0.9
			c0.1,0,0.1,0.1,0.1,0.1c0,0,0,0.1-0.1,0.1c-2.3,0.6-4.5,0.8-6.8,0.9c-2.3,0.1-4.5-0.1-6.8-0.2l-6.8-0.3c-2.3-0.1-4.5-0.2-6.8-0.4
			C220.8,111.3,220.7,111.2,220.8,111.1C220.8,111.1,220.8,111.1,220.8,111.1z"/>
	</g>
	<polygon class="st6" points="201.3,213.9 161,210.1 161,35.9 201.3,39.8 	"/>
	<polygon class="st3" points="196.7,68.6 196.7,76 165.6,73 165.6,65.6 	"/>
	<g>
		
			<ellipse transform="matrix(0.6433 -0.7656 0.7656 0.6433 -72.2942 200.4676)" class="st0" cx="179" cy="177.8" rx="6.9" ry="7.5"/>
		<path class="st7" d="M173.1,172.9c1.3-1.4,3.1-2.3,5.1-2.5c2-0.2,4.1,0.3,5.7,1.6c1.6,1.3,2.8,3.1,3.2,5.2
			c0.4,2.1-0.1,4.5-1.5,6.2c-1.4,1.8-3.6,2.9-5.9,3c-2.3,0.2-4.6-0.7-6.2-2.2c-1.7-1.5-2.6-3.7-2.6-5.8
			C171,176.3,171.8,174.3,173.1,172.9z M173.4,173.1c-1.2,1.5-1.4,3.5-0.8,5.1c0.6,1.6,1.7,2.9,2.9,3.8c1.2,0.9,2.7,1.5,4.2,1.5
			c1.5,0.1,3-0.5,4.1-1.6c1.1-1.1,1.6-2.8,1.4-4.4c-0.2-1.6-1-3.2-2.3-4.4c-1.3-1.2-2.9-2-4.7-2.1
			C176.4,170.8,174.5,171.6,173.4,173.1z"/>
	</g>
	<g>
		<line class="st0" x1="165.6" y1="81.7" x2="192.2" y2="84.9"/>
		<path class="st7" d="M165.6,81.6c2.2,0.1,4.5,0.3,6.7,0.4l6.7,0.5c2.2,0.2,4.5,0.2,6.7,0.6c2.2,0.4,4.4,0.9,6.6,1.7
			c0.1,0,0.1,0.1,0.1,0.1c0,0,0,0.1-0.1,0.1c-2.3,0.3-4.5,0.2-6.8,0.1c-2.2-0.1-4.4-0.7-6.6-1l-6.6-1.1c-2.2-0.4-4.4-0.8-6.6-1.2
			c-0.1,0-0.1-0.1-0.1-0.1C165.5,81.6,165.5,81.6,165.6,81.6z"/>
	</g>
	<g>
		<line class="st0" x1="165.6" y1="91.2" x2="192.5" y2="94.9"/>
		<path class="st7" d="M165.6,91.1c2.3,0.2,4.5,0.4,6.8,0.5l6.8,0.6c2.3,0.2,4.5,0.3,6.8,0.7c2.2,0.4,4.4,1,6.6,1.8
			c0.1,0,0.1,0.1,0.1,0.1c0,0,0,0.1-0.1,0.1c-2.3,0.2-4.6,0.1-6.9,0c-2.3-0.2-4.5-0.7-6.7-1.1l-6.7-1.2c-2.2-0.4-4.5-0.9-6.7-1.3
			c-0.1,0-0.1-0.1-0.1-0.1C165.5,91.1,165.5,91.1,165.6,91.1z"/>
	</g>
	<g>
		<line class="st0" x1="165.6" y1="100.5" x2="192.1" y2="104"/>
		<path class="st7" d="M165.6,100.4c2.2,0.1,4.5,0.3,6.7,0.5l6.7,0.6c2.2,0.2,4.5,0.2,6.7,0.7c2.2,0.4,4.4,0.9,6.5,1.8
			c0.1,0,0.1,0.1,0.1,0.1c0,0,0,0.1-0.1,0.1c-2.3,0.3-4.5,0.2-6.7,0c-2.2-0.2-4.4-0.7-6.6-1.1l-6.6-1.2c-2.2-0.4-4.4-0.8-6.6-1.3
			c-0.1,0-0.1-0.1-0.1-0.1C165.5,100.4,165.5,100.4,165.6,100.4z"/>
	</g>
	<g>
		<line class="st0" x1="165.6" y1="111.2" x2="191.9" y2="114.3"/>
		<path class="st7" d="M165.6,111.1c2.2,0.1,4.4,0.3,6.6,0.4l6.6,0.5c2.2,0.2,4.4,0.2,6.6,0.6c2.2,0.4,4.4,0.9,6.5,1.7
			c0.1,0,0.1,0.1,0.1,0.1c0,0,0,0.1-0.1,0.1c-2.3,0.3-4.5,0.2-6.7,0.1c-2.2-0.1-4.4-0.6-6.6-1l-6.6-1.1c-2.2-0.4-4.4-0.8-6.5-1.2
			c-0.1,0-0.1-0.1-0.1-0.1C165.5,111.1,165.5,111.1,165.6,111.1z"/>
	</g>
	<polygon class="st6" points="152.5,210.2 113.1,207 113.1,32.9 152.5,36 	"/>
	<polygon class="st2" points="146,64.4 146,72 117.8,69.8 117.8,62.1 	"/>
	<g>
		<path class="st0" d="M136.9,179c0.3,4.2-2.6,7.7-6.4,7.7c-3.8,0-7.1-3.4-7.3-7.7c-0.3-4.2,2.6-7.7,6.4-7.7S136.7,174.8,136.9,179z
			"/>
		<path class="st7" d="M137.1,179c0,1.9-0.4,3.9-1.5,5.6c-1.1,1.7-3.1,2.9-5.3,2.9c-2.2,0-4.2-1-5.7-2.6c-1.5-1.6-2.4-3.6-2.6-5.8
			c-0.2-2.1,0.3-4.5,1.7-6.4c0.7-0.9,1.6-1.7,2.7-2.2c1.1-0.5,2.3-0.7,3.5-0.6c2.4,0.2,4.4,1.7,5.5,3.4
			C136.6,175.1,137,177.1,137.1,179z M136.8,179c-0.2-1.9-1.2-3.6-2.6-4.7c-1.4-1.1-3-1.6-4.4-1.5c-1.4,0-2.8,0.6-3.8,1.8
			c-1,1.1-1.6,2.7-1.6,4.3c0,1.6,0.6,3.3,1.7,4.6c1,1.3,2.6,2.2,4.3,2.4c1.7,0.2,3.5-0.4,4.7-1.8C136.4,182.9,137,180.9,136.8,179z"
			/>
	</g>
	<g>
		<line class="st0" x1="117.8" y1="78.4" x2="143.7" y2="81.7"/>
		<path class="st7" d="M117.8,78.3c2.2,0.1,4.4,0.3,6.5,0.4l6.5,0.5c2.2,0.2,4.4,0.2,6.5,0.6c2.1,0.4,4.3,0.9,6.4,1.7
			c0.1,0,0.1,0.1,0.1,0.1c0,0,0,0.1-0.1,0.1c-2.2,0.3-4.4,0.2-6.6,0.1c-2.2-0.1-4.3-0.7-6.5-1l-6.5-1.1c-2.1-0.4-4.3-0.8-6.4-1.2
			c-0.1,0-0.1-0.1-0.1-0.1C117.7,78.3,117.7,78.3,117.8,78.3z"/>
	</g>
	<g>
		<line class="st0" x1="117.8" y1="87.1" x2="141.6" y2="89.9"/>
		<path class="st7" d="M117.8,87c2,0.1,4,0.2,6,0.3l6,0.4c2,0.1,4,0.1,6,0.5c2,0.4,3.9,0.8,5.9,1.6c0.1,0,0.1,0.1,0.1,0.1
			c0,0,0,0.1-0.1,0.1c-2.1,0.3-4.1,0.3-6.1,0.2c-2-0.1-4-0.6-5.9-0.9l-5.9-1c-2-0.4-3.9-0.7-5.9-1.1c-0.1,0-0.1-0.1-0.1-0.1
			C117.7,87,117.7,87,117.8,87z"/>
	</g>
	<g>
		<line class="st0" x1="117.8" y1="95.9" x2="139.9" y2="98.3"/>
		<path class="st7" d="M117.8,95.8c1.9,0,3.7,0.1,5.6,0.2l5.6,0.3c1.9,0.1,3.7,0.1,5.6,0.4c1.8,0.3,3.7,0.8,5.4,1.5
			c0.1,0,0.1,0.1,0.1,0.1c0,0,0,0.1-0.1,0.1c-1.9,0.3-3.8,0.4-5.6,0.3c-1.9-0.1-3.7-0.5-5.5-0.8l-5.5-0.9c-1.8-0.3-3.7-0.6-5.5-1
			c-0.1,0-0.1-0.1-0.1-0.1C117.7,95.8,117.7,95.8,117.8,95.8z"/>
	</g>
	<g>
		<line class="st0" x1="117.8" y1="105.3" x2="139.9" y2="107.9"/>
		<path class="st7" d="M117.8,105.2c1.9,0.1,3.7,0.2,5.6,0.2l5.6,0.3c1.9,0.1,3.7,0.1,5.6,0.4c1.8,0.3,3.7,0.8,5.4,1.5
			c0.1,0,0.1,0.1,0.1,0.1c0,0,0,0.1-0.1,0.1c-1.9,0.3-3.8,0.3-5.7,0.2c-1.9-0.1-3.7-0.5-5.5-0.8l-5.5-0.9c-1.8-0.3-3.7-0.7-5.5-1
			c-0.1,0-0.1-0.1-0.1-0.1C117.7,105.3,117.7,105.2,117.8,105.2z"/>
	</g>
	<polygon class="st6" points="98.1,216.3 61,208.4 61,34.2 98.1,42.2 	"/>
	<polygon class="st1" points="93.3,67.9 93.3,76 65.9,70.2 65.9,62.1 	"/>
	<g>
		<path class="st0" d="M87.9,181.5c0.3,4.2-2.6,7.7-6.4,7.7c-3.8,0-7.1-3.4-7.3-7.7c-0.3-4.2,2.6-7.7,6.4-7.7S87.7,177.2,87.9,181.5
			z"/>
		<path class="st7" d="M88.1,181.4c0,1.9-0.4,3.9-1.5,5.6c-1.1,1.7-3.1,2.9-5.3,2.9c-2.2,0-4.2-1-5.7-2.6c-1.5-1.6-2.4-3.6-2.6-5.8
			c-0.2-2.1,0.3-4.5,1.7-6.4c0.7-0.9,1.6-1.7,2.7-2.2c1.1-0.5,2.3-0.7,3.5-0.6c2.4,0.2,4.4,1.7,5.5,3.4
			C87.6,177.5,88,179.5,88.1,181.4z M87.8,181.5c-0.2-1.9-1.2-3.6-2.6-4.7c-1.4-1.1-3-1.6-4.4-1.5c-1.4,0-2.8,0.6-3.8,1.8
			c-1,1.1-1.6,2.7-1.6,4.3c0,1.6,0.6,3.3,1.7,4.6c1,1.3,2.6,2.2,4.3,2.4c1.7,0.2,3.5-0.4,4.7-1.8C87.4,185.3,88,183.3,87.8,181.5z"
			/>
	</g>
	<g>
		<line class="st0" x1="65.9" y1="78.7" x2="90.8" y2="84.6"/>
		<path class="st7" d="M65.9,78.6c2.1,0.3,4.2,0.7,6.3,1.1l6.3,1.2c2.1,0.4,4.2,0.7,6.3,1.3c2,0.6,4.1,1.3,6,2.4
			c0.1,0,0.1,0.1,0,0.1c0,0-0.1,0.1-0.1,0.1c-2.2,0-4.3-0.2-6.4-0.6c-2.1-0.4-4.1-1.1-6.2-1.7L72,80.7c-2-0.6-4.1-1.2-6.1-1.9
			c-0.1,0-0.1-0.1-0.1-0.1C65.8,78.6,65.8,78.6,65.9,78.6z"/>
	</g>
	<g>
		<line class="st0" x1="65.9" y1="86.6" x2="90.2" y2="93.2"/>
		<path class="st7" d="M65.9,86.5c2.1,0.4,4.1,0.8,6.2,1.3l6.2,1.3c2.1,0.5,4.1,0.8,6.1,1.4c2,0.7,4,1.4,5.9,2.5c0,0,0.1,0.1,0,0.1
			c0,0-0.1,0.1-0.1,0.1c-2.2,0-4.3-0.4-6.3-0.8c-2.1-0.4-4-1.2-6-1.8l-6-1.9c-2-0.7-4-1.3-6-2c-0.1,0-0.1-0.1-0.1-0.1
			C65.8,86.5,65.9,86.5,65.9,86.5z"/>
	</g>
	<g>
		<line class="st0" x1="65.9" y1="96.2" x2="89.5" y2="102.6"/>
		<path class="st7" d="M65.9,96.1c2,0.4,4,0.8,6,1.2l6,1.3c2,0.4,4,0.7,6,1.4c1.9,0.7,3.8,1.4,5.7,2.5c0,0,0.1,0.1,0,0.1
			c0,0-0.1,0.1-0.1,0.1c-2.1,0-4.1-0.3-6.1-0.7c-2-0.4-3.9-1.2-5.8-1.8l-5.8-1.9c-1.9-0.7-3.9-1.3-5.8-2c-0.1,0-0.1-0.1-0.1-0.1
			C65.8,96.1,65.9,96.1,65.9,96.1z"/>
	</g>
	<g>
		<line class="st0" x1="65.9" y1="106.1" x2="89.8" y2="112"/>
		<path class="st7" d="M65.9,106c2,0.3,4,0.7,6.1,1.1l6,1.2c2,0.4,4.1,0.7,6,1.3c2,0.6,3.9,1.3,5.8,2.4c0,0,0.1,0.1,0,0.1
			c0,0-0.1,0.1-0.1,0.1c-2.1,0-4.2-0.2-6.2-0.6c-2-0.4-4-1.1-5.9-1.7l-5.9-1.8c-2-0.6-3.9-1.2-5.9-1.9c-0.1,0-0.1-0.1-0.1-0.1
			C65.8,106,65.8,106,65.9,106z"/>
	</g>
	<g>
		<path class="st7" d="M290.2,125.6l-32.8,0.2c-0.2,0-0.4-0.2-0.4-0.4l0,0l-0.4-64c0-0.4,0.3-0.8,0.8-0.8l0,0
			c5.4-0.1,10.9-0.2,16.3-0.2c5.4,0,10.9-0.1,16.3,0l0,0c0.6,0,1,0.5,1,1l-0.1,16.2l-0.2,16.1c-0.1,5.4-0.2,10.7-0.3,16L290.2,125.6
			z M290,125.5l-0.4-16.2c-0.1-5.4-0.3-10.7-0.3-16l-0.2-15.9L289,61.5l1,1c-5.4,0-10.9,0-16.3-0.1c-5.4,0-10.9-0.1-16.3-0.2
			l0.8-0.8l-0.4,64l-0.4-0.4L290,125.5z"/>
	</g>
	<g>
		<path class="st7" d="M247.9,125.4l-32.8,0.2c-0.2,0-0.4-0.2-0.4-0.4v0l-0.4-64c0-0.4,0.3-0.8,0.8-0.8l0,0
			c5.4-0.1,10.9-0.2,16.3-0.2c5.4,0,10.9-0.1,16.3,0l0,0c0.6,0,1,0.5,1,1l-0.1,16.2l-0.2,16.1c-0.1,5.4-0.2,10.7-0.3,16L247.9,125.4
			z M247.8,125.2l-0.4-16.2c-0.1-5.4-0.3-10.7-0.3-16l-0.2-15.9l-0.1-15.8l1,1c-5.4,0-10.9,0-16.3-0.1c-5.4,0-10.9-0.1-16.3-0.2
			l0.8-0.8l-0.4,64l-0.4-0.4L247.8,125.2z"/>
	</g>
	<g>
		<path class="st7" d="M196.8,128.2l-31.3-2.7c-0.2,0-0.3-0.2-0.3-0.4v0l-0.4-63.4c0-0.4,0.4-0.8,0.8-0.8l0.1,0l0,0
			c5.2,0.4,10.4,0.8,15.6,1.3c5.2,0.5,10.4,0.9,15.6,1.5l0,0c0.5,0.1,0.9,0.5,0.9,1l-0.1,16l-0.2,16c-0.1,5.3-0.2,10.6-0.3,15.8
			L196.8,128.2z M196.6,128l-0.4-16.1c-0.1-5.3-0.3-10.6-0.3-15.9l-0.2-15.7l-0.1-15.7l1,1c-5.2-0.5-10.4-1-15.6-1.5
			c-5.2-0.5-10.4-1.1-15.6-1.7l0.9-0.8l-0.4,63.4l-0.3-0.4L196.6,128z"/>
	</g>
	<g>
		<path class="st7" d="M146,124.3l-28.3-2c-0.2,0-0.3-0.2-0.3-0.3l0,0L117,58.1c0-0.4,0.4-0.8,0.8-0.8l0.1,0l0,0l7.1,0.4l7.1,0.5
			c4.7,0.4,9.4,0.7,14.1,1.1l0,0c0.6,0,1,0.5,1,1.1l-0.1,16.2l-0.2,16.1c-0.1,5.4-0.2,10.7-0.3,15.9L146,124.3z M145.9,124.2
			l-0.4-16.2l-0.3-16L145,76.2l-0.1-15.8l1,1.1c-4.7-0.4-9.4-0.8-14.1-1.2l-7-0.6l-7-0.7l0.9-0.8l-0.5,63.8l-0.3-0.3L145.9,124.2z"
			/>
	</g>
	<g>
		<path class="st7" d="M93.3,128.3l-27.5-5.6c-0.2,0-0.3-0.2-0.3-0.3v0l-0.5-64.2c0-0.4,0.4-0.8,0.8-0.8c0.1,0,0.1,0,0.2,0l0,0
			l6.9,1.3l6.9,1.4l6.9,1.4c2.3,0.5,4.6,0.9,6.9,1.4l0,0c0.5,0.1,0.8,0.5,0.8,1l-0.1,16.3L94,96.4l-0.3,16L93.3,128.3z M93.2,128.1
			l-0.4-16.3l-0.3-16.1l-0.2-15.9L92.2,64l0.8,1c-2.3-0.5-4.6-1-6.8-1.5L79.4,62l-6.8-1.5l-6.8-1.6l1-0.8l-0.5,64.2l-0.3-0.3
			L93.2,128.1z"/>
	</g>
</g>
</svg>
