<?xml version="1.0" encoding="utf-8"?>
<!-- Generator: Adobe Illustrator 21.0.0, SVG Export Plug-In . SVG Version: 6.00 Build 0)  -->
<svg version="1.1" id="Layer_1" xmlns="http://www.w3.org/2000/svg" xmlns:xlink="http://www.w3.org/1999/xlink" x="0px" y="0px"
	 viewBox="0 0 253.3 111.4" style="enable-background:new 0 0 253.3 111.4;" xml:space="preserve">
<style type="text/css">
	.st0{fill:#E6E6E6;}
	.st1{fill:#FFFFFF;stroke:#E6E6E6;stroke-width:1.5;stroke-linecap:round;stroke-linejoin:round;stroke-miterlimit:10;}
	.st2{fill:#FFFFFF;stroke:#EBF4FF;stroke-linecap:round;stroke-linejoin:round;stroke-miterlimit:10;}
	.st3{fill:#FFFFFF;stroke:#8E94AA;stroke-width:2;stroke-linecap:round;stroke-linejoin:round;stroke-miterlimit:10;}
	.st4{fill:#FFFFFF;stroke:#99C6FF;stroke-width:1.5;stroke-linecap:round;stroke-linejoin:round;stroke-miterlimit:10;}
</style>
<g>
	<g>
		<path class="st0" d="M0.1,74.7l126.5-0.8c21.1-0.1,42.2-0.4,63.3-0.3c21.1,0.2,42.2,0.3,63.3,0.8c0.1,0,0.1,0,0.1,0.1
			c0,0.1,0,0.1-0.1,0.1c-21.1,0.6-42.2,0.8-63.3,1c-21.1,0.1-42.2-0.1-63.3-0.1L0.1,74.9C0,74.9,0,74.9,0.1,74.7
			C0,74.8,0,74.7,0.1,74.7z"/>
	</g>
	<g>
		<g>
			<path class="st1" d="M201.6,79l-30.4,31.6c-8.6-1.1-17.8-4.9-26-11.5c-10.2-8.1-16.7-18.8-18.6-28.9l31.1-32.4
				c0,0,8.9,21.8,19,29.9C184.5,74,193.3,77.8,201.6,79z"/>
			<line class="st2" x1="136.7" y1="78.3" x2="159.7" y2="54.3"/>
			<line class="st2" x1="139.9" y1="84.6" x2="162.8" y2="60.7"/>
			<line class="st2" x1="143.5" y1="90.2" x2="166.5" y2="66.3"/>
			<line class="st2" x1="148.2" y1="95.2" x2="162" y2="80.8"/>
		</g>
		<g>
			<line class="st3" x1="133.1" y1="1" x2="133.1" y2="6.7"/>
			<line class="st3" x1="161.3" y1="11.3" x2="157.2" y2="15.3"/>
			<line class="st3" x1="104.9" y1="11.3" x2="108.9" y2="15.3"/>
		</g>
		<g>
			<path class="st3" d="M139,80.2c-2.2,1.6-4.6,2.6-7.1,3.2c-1,0.2-2,0.4-3,0.5c-10.9,1.2-22.4-4-23.3-4.5c-12,3-24,6.1-36,9.1
				c4.5-12.6,2-31.5-12.1-47.7c25.7-6.5,51.5-13.1,77.2-19.6C154.2,43.7,151.7,71,139,80.2z"/>
			<path class="st3" d="M54.7,103c-11.6,2.8-25.3-3.4-26.3-3.9c13.8-3.5,27.5-7,41.3-10.5c12-3,24-6.1,36-9.1
				c0.9,0.4,12.5,5.7,23.3,4.5C105.3,89.9,54.7,103,54.7,103z"/>
			<line class="st4" x1="78.7" y1="53.9" x2="132.2" y2="40.3"/>
			<line class="st4" x1="81.8" y1="61.7" x2="135.3" y2="48.2"/>
			<line class="st4" x1="83.8" y1="69.6" x2="137.3" y2="56"/>
			<line class="st4" x1="83.8" y1="77.4" x2="115.5" y2="69.4"/>
		</g>
		<g>
			<g>
				<g id="XMLID_38_">
					<path class="st0" d="M39.5,29.3c0.1,1.2,0.3,2.4,0.3,3.5c0,0.6,0.2,1.2,0.1,1.8c-0.1,0.6-0.2,1.2-0.4,1.8c0,0,0,0-0.1,0
						c0,0,0,0,0,0c-0.3-0.6-0.4-1.2-0.4-1.8C38.9,34,39,33.4,39,32.8c0.1-1.2,0.2-2.4,0.3-3.5C39.4,29.2,39.4,29.2,39.5,29.3
						C39.5,29.2,39.5,29.2,39.5,29.3z"/>
				</g>
				<g id="XMLID_34_">
					<path class="st0" d="M43,32.8c-1.2,0.1-2.4,0.3-3.5,0.3c-0.6,0-1.2,0.2-1.8,0.1c-0.6-0.1-1.2-0.2-1.8-0.5c0,0,0,0,0-0.1
						c0,0,0,0,0,0c0.6-0.3,1.2-0.4,1.8-0.4c0.6-0.1,1.2,0.1,1.8,0.1c1.2,0.1,2.4,0.2,3.5,0.3C43,32.7,43,32.8,43,32.8
						C43,32.8,43,32.8,43,32.8z"/>
				</g>
			</g>
			<g id="XMLID_12_">
				<path class="st0" d="M54,27.5c0,0.5-0.2,1-0.5,1.3c-0.3,0.4-0.8,0.7-1.3,0.7c-1.1,0.1-2.2-0.9-2.2-2.1c0-0.6,0.2-1.2,0.6-1.6
					c0.4-0.4,1-0.7,1.6-0.7c0.6,0,1.2,0.4,1.5,0.8C53.9,26.5,54,27,54,27.5z M53.9,27.5c0-0.5-0.3-0.9-0.7-1.1
					c-0.4-0.2-0.7-0.2-1.1-0.2c-0.7,0-1.3,0.5-1.4,1.3c-0.1,0.7,0.6,1.5,1.4,1.6c0.4,0,0.8-0.1,1.2-0.4
					C53.7,28.4,53.9,27.9,53.9,27.5z"/>
			</g>
			<g id="XMLID_1_">
				<path class="st0" d="M48.5,43.9c0,0.7-0.3,1.4-0.8,2c-0.5,0.6-1.2,0.9-2,1c-0.8,0-1.5-0.3-2.1-0.8c-0.6-0.5-0.9-1.3-1-2.1
					c0-0.8,0.3-1.6,0.8-2.2c0.6-0.6,1.4-1,2.2-0.9c0.8,0,1.6,0.5,2.1,1.1C48.3,42.5,48.5,43.2,48.5,43.9z M48.4,43.9
					c0-0.7-0.4-1.3-0.9-1.7c-0.5-0.4-1.1-0.5-1.7-0.5c-1.1,0-2.2,0.9-2.3,2.2c-0.1,1.2,1,2.4,2.3,2.4c0.6,0,1.3-0.2,1.8-0.6
					C48.1,45.3,48.4,44.6,48.4,43.9z"/>
			</g>
		</g>
	</g>
</g>
</svg>
