<?xml version="1.0" encoding="utf-8"?>
<!-- Generator: Adobe Illustrator 21.0.0, SVG Export Plug-In . SVG Version: 6.00 Build 0)  -->
<svg version="1.1" id="Layer_1" xmlns="http://www.w3.org/2000/svg" xmlns:xlink="http://www.w3.org/1999/xlink" x="0px" y="0px"
	 viewBox="0 0 253.3 84.9" style="enable-background:new 0 0 253.3 84.9;" xml:space="preserve">
<style type="text/css">
	.st0{fill:#8E94AA;}
	.st1{fill:#FFFFFF;}
	.st2{fill:#FFFFFF;stroke:#8E94AA;stroke-width:2;stroke-linecap:round;stroke-linejoin:round;stroke-miterlimit:10;}
	.st3{fill:#99C6FF;}
	.st4{fill:#FFFFFF;stroke:#E8EAEE;stroke-width:2;stroke-linejoin:round;stroke-miterlimit:10;}
</style>
<g>
	<g>
		<path class="st0" d="M0.1,64.6l126.5-0.8c21.1-0.1,42.2-0.4,63.3-0.3c21.1,0.2,42.2,0.3,63.3,0.8c0.1,0,0.1,0,0.1,0.1
			c0,0.1,0,0.1-0.1,0.1c-21.1,0.6-42.2,0.8-63.3,1c-21.1,0.1-42.2-0.1-63.3-0.1L0.1,64.8C0,64.8,0,64.7,0.1,64.6
			C0,64.6,0,64.6,0.1,64.6z"/>
	</g>
	<g>
		<path class="st0" d="M171.9,29.5l12.9-0.3l6.4-0.1l1.6,0c0.5,0,1.1,0,1.6-0.1c0.5,0,1-0.2,1.4-0.3c0.4-0.2,0.9-0.4,1.3-0.7
			c1.6-1.1,2.6-3,2.6-4.9c-0.1-1.9-1.5-3.4-3.2-3.9c-1.8-0.4-3.9,0.5-4.7,2.2c-0.9,1.7-0.3,4.1,1.7,5c0,0,0.1,0.1,0,0.1
			c0,0-0.1,0-0.1,0c-1.1-0.3-2-1.1-2.5-2.1c-0.5-1.1-0.5-2.3-0.1-3.5c0.4-1.1,1.3-2.1,2.4-2.7c1.1-0.6,2.3-0.8,3.6-0.6
			c0.3,0.1,0.6,0.1,0.9,0.3l0.8,0.4c0.3,0.1,0.5,0.4,0.8,0.5c0.1,0.1,0.2,0.2,0.4,0.3l0.3,0.4c0.8,1,1.2,2.2,1.3,3.4
			c0,1.2-0.4,2.4-0.9,3.4c-0.6,1-1.4,1.9-2.4,2.5c-0.5,0.3-1,0.5-1.6,0.8c-0.6,0.1-1.1,0.3-1.7,0.3c-0.6,0.1-1.1,0.1-1.7,0l-1.6,0
			l-6.5-0.1l-12.9-0.3C171.9,29.7,171.8,29.6,171.9,29.5C171.8,29.5,171.9,29.5,171.9,29.5z"/>
	</g>
	<g>
		<g id="XMLID_11_">
			<path class="st0" d="M72.8,4.1c0.1,1.2,0.3,2.4,0.3,3.5c0,0.6,0.2,1.2,0.1,1.8c-0.1,0.6-0.2,1.2-0.4,1.8c0,0,0,0-0.1,0
				c0,0,0,0,0,0c-0.3-0.6-0.4-1.2-0.5-1.8c-0.1-0.6,0.1-1.2,0.1-1.8c0.1-1.2,0.2-2.4,0.3-3.5C72.7,4.1,72.7,4,72.8,4.1
				C72.7,4,72.8,4.1,72.8,4.1z"/>
		</g>
		<g id="XMLID_9_">
			<path class="st0" d="M76.2,7.7c-1.2,0.1-2.4,0.3-3.5,0.4c-0.6,0-1.2,0.2-1.8,0.1c-0.6-0.1-1.2-0.2-1.8-0.4c0,0,0,0,0-0.1
				c0,0,0,0,0,0c0.6-0.3,1.2-0.4,1.8-0.5c0.6-0.1,1.2,0.1,1.8,0.1c1.2,0.1,2.4,0.2,3.5,0.4C76.3,7.6,76.3,7.6,76.2,7.7
				C76.3,7.6,76.3,7.7,76.2,7.7z"/>
		</g>
	</g>
	<g id="XMLID_7_">
		<path class="st0" d="M87.2,2.3c0,0.5-0.2,1-0.5,1.3c-0.3,0.4-0.8,0.7-1.3,0.7c-1.1,0.1-2.2-0.9-2.2-2.1c0-0.6,0.2-1.2,0.6-1.6
			c0.4-0.4,1-0.7,1.6-0.7c0.6,0,1.2,0.4,1.5,0.8C87.2,1.3,87.3,1.8,87.2,2.3z M87.1,2.3c0-0.5-0.3-0.9-0.7-1.1C86.1,1,85.7,1,85.4,1
			c-0.7,0-1.3,0.5-1.4,1.3c-0.1,0.7,0.6,1.5,1.4,1.6c0.4,0,0.8-0.1,1.2-0.4C86.9,3.2,87.2,2.8,87.1,2.3z"/>
	</g>
	<g id="XMLID_1_">
		<path class="st0" d="M81.8,18.7c0,0.7-0.3,1.4-0.8,2c-0.5,0.6-1.2,0.9-2,1c-0.8,0-1.5-0.3-2.1-0.8c-0.6-0.5-0.9-1.3-1-2.1
			c0-0.8,0.3-1.6,0.8-2.2c0.6-0.6,1.4-1,2.2-0.9c0.8,0,1.6,0.5,2.1,1.1C81.6,17.3,81.8,18,81.8,18.7z M81.7,18.7
			c0-0.7-0.4-1.3-0.9-1.7c-0.5-0.4-1.1-0.5-1.7-0.5c-1.1,0-2.2,0.9-2.3,2.2c-0.1,1.2,1,2.4,2.3,2.4c0.6,0,1.3-0.2,1.8-0.6
			C81.4,20.1,81.7,19.4,81.7,18.7z"/>
	</g>
	<g>
		<path class="st0" d="M31.8,53.9l22.5-0.3l11.2-0.1l2.8,0c0.9,0,1.9,0,2.8-0.1c1.8-0.2,3.5-0.8,5-1.8c3-1.9,4.9-5.5,4.7-8.9
			c-0.1-1.7-0.7-3.4-1.8-4.7c-0.5-0.7-1.2-1.2-1.9-1.6c-0.7-0.4-1.5-0.8-2.4-1c-1.7-0.3-3.5-0.1-5,0.6c-0.8,0.4-1.5,0.9-2.1,1.5
			c-0.6,0.6-1.1,1.3-1.5,2.1c-0.8,1.6-0.9,3.5-0.3,5.1c0.6,1.7,1.9,3.1,3.6,3.9c0,0,0.1,0.1,0,0.1c0,0-0.1,0.1-0.1,0
			c-1.8-0.5-3.4-2-4.2-3.8c-0.8-1.8-0.8-4,0-5.8c0.7-1.9,2.2-3.4,4-4.4c1.8-0.9,3.9-1.3,5.9-0.9c1,0.2,2,0.6,2.8,1.1
			c0.9,0.5,1.7,1.2,2.4,1.9c1.3,1.6,2,3.6,2.1,5.7c0,4.1-2.2,7.9-5.6,10c-1.7,1.1-3.6,1.7-5.5,1.9c-1,0.1-1.9,0.1-2.9,0.1l-2.8,0
			l-11.2-0.1L31.8,54C31.8,54,31.8,54,31.8,53.9C31.8,53.9,31.8,53.9,31.8,53.9z"/>
	</g>
	<g>
		<path class="st0" d="M167,68.3l11.5-0.4l11.5-0.3c3.8-0.1,7.6-0.4,11.5-0.2c3.8,0.1,7.6,0.3,11.5,0.9c0.1,0,0.1,0.1,0.1,0.1
			c0,0,0,0.1-0.1,0.1c-3.8,0.6-7.6,0.8-11.5,0.9c-3.8,0.2-7.6-0.1-11.5-0.2l-11.5-0.3L167,68.5C167,68.5,166.9,68.4,167,68.3
			C166.9,68.3,167,68.3,167,68.3z"/>
	</g>
	<g>
		<path class="st0" d="M62.7,68.4c1.9-0.2,3.8-0.3,5.7-0.4l5.7-0.3c1.9-0.1,3.8-0.4,5.7-0.2c1.9,0.1,3.8,0.3,5.7,0.9
			c0.1,0,0.1,0.1,0.1,0.1c0,0,0,0.1-0.1,0.1c-1.9,0.6-3.8,0.8-5.7,0.9c-1.9,0.2-3.8-0.1-5.7-0.2L68.5,69c-1.9-0.1-3.8-0.2-5.7-0.4
			C62.7,68.6,62.6,68.5,62.7,68.4C62.7,68.4,62.7,68.4,62.7,68.4z"/>
	</g>
	<g>
		<polyline class="st1" points="160.6,24.3 154.7,18.4 105.9,18.4 		"/>
		<path class="st0" d="M160.6,24.3l-6.1-5.7l0.2,0.1c-8.1,0.3-16.3,0.3-24.4,0.6c-2,0.1-4.1,0.1-6.1,0.1c-2,0-4.1,0-6.1-0.1
			c-4.1-0.1-8.1-0.4-12.2-0.8c-0.1,0-0.1-0.1-0.1-0.1c0,0,0-0.1,0.1-0.1c4.1-0.5,8.1-0.7,12.2-0.8c2-0.1,4.1-0.1,6.1-0.1
			c2,0,4.1,0.1,6.1,0.1c8.1,0.2,16.3,0.3,24.4,0.6l0,0c0.1,0,0.2,0,0.2,0.1l5.7,6.1c0,0,0,0.1,0,0.1
			C160.7,24.4,160.6,24.4,160.6,24.3z"/>
	</g>
	<polyline class="st2" points="94.8,72.4 94.8,14.3 119.7,14.3 129.8,24.3 165.4,24.3 165.4,72.3 	"/>
	<g>
		<path class="st1" d="M141,49c0.3-2.4-0.1-4.9-1.4-7.1c-3.1-5.3-9.8-7.1-15.1-4c-5.3,3.1-7.1,9.8-4,15.1s9.8,7.1,15.1,4
			C138.7,55.3,140.6,52.3,141,49z"/>
		<g>
			<path class="st3" d="M141,49c0.2-1.4,0.1-2.9-0.2-4.3c-0.4-1.4-1.1-2.7-1.9-3.8c-1.8-2.2-4.4-3.7-7.2-4c-2.8-0.4-5.6,0.4-7.8,2.1
				c-2.2,1.7-3.7,4.2-4,7c-0.4,2.7,0.4,5.5,2.1,7.7c1.6,2.1,4.1,3.6,6.8,4c2.7,0.4,5.5-0.1,7.8-1.7c1.2-0.8,2.2-1.8,3-3
				C140.2,51.8,140.7,50.4,141,49z M141.1,49.1c-0.4,2.9-1.8,5.7-4.1,7.6c-1.2,0.9-2.5,1.7-4,2.1c-1.5,0.4-3,0.6-4.6,0.4
				c-1.5-0.2-3-0.7-4.4-1.5c-1.3-0.8-2.5-1.9-3.4-3.1c-1.8-2.5-2.6-5.7-2.1-8.7c0.5-3,2.2-5.8,4.6-7.6c2.4-1.8,5.6-2.5,8.5-2.1
				c3,0.5,5.7,2.2,7.3,4.6C140.8,43.1,141.5,46.2,141.1,49.1z"/>
		</g>
	</g>
	<polyline class="st4" points="165.4,72.3 165.4,83.9 94.8,83.9 94.8,72.4 	"/>
	<g>
		<path class="st0" d="M73.3,72.3l26.6-0.4l26.6-0.3c8.9-0.1,17.8-0.3,26.6-0.2c8.9,0.2,17.8,0.3,26.6,0.9c0.1,0,0.1,0.1,0.1,0.1
			c0,0.1,0,0.1-0.1,0.1c-8.9,0.6-17.8,0.7-26.6,0.9c-8.9,0.1-17.8-0.1-26.6-0.2L100,72.9l-26.6-0.4C73.3,72.5,73.3,72.5,73.3,72.3
			C73.3,72.4,73.3,72.3,73.3,72.3z"/>
	</g>
</g>
</svg>
