<?xml version="1.0" encoding="utf-8"?>
<!-- Generator: Adobe Illustrator 22.0.1, SVG Export Plug-In . SVG Version: 6.00 Build 0)  -->
<svg version="1.1" id="Layer_1" xmlns="http://www.w3.org/2000/svg" xmlns:xlink="http://www.w3.org/1999/xlink" x="0px" y="0px"
	 viewBox="0 0 150.9 175.8" style="enable-background:new 0 0 150.9 175.8;" xml:space="preserve">
<style type="text/css">
	.st0{fill:#FFFFFF;}
	.st1{fill:#8E94AA;}
	.st2{fill:#FFA3AA;}
	.st3{font-family:'BlackJack';}
	.st4{font-size:37.57px;}
</style>
<g>
	<polygon class="st0" points="115.5,0.2 0.3,0.2 0.3,175.5 150.6,175.5 150.6,35.1 	"/>
	<g>
		<path class="st1" d="M115.4,0.3L86.5,0.8L57.7,1.3C48.1,1.4,38.5,1.6,29,1.7L0.3,1.9L2,0.2L2.4,44l0.2,22l0.1,21.9L3,175.6
			L0.4,173c12.5,0,25.1-0.1,37.6,0l37.6,0.1l75.2,0.2l-2.3,2.3c0-11.7,0.2-23.4,0.3-35.1l0.3-35.1l0.3-35.1l0.5-35.1l0.3,0.7
			L133,18.3L115.4,0.3z M115.5,0.1L150.8,35l0.1,0.1l0.1,140.4c0,0.1-0.1,0.2-0.2,0.2l0,0H0.5c-0.2,0-0.3-0.1-0.3-0.3l0,0L0.1,0.2
			C0.1,0.1,0.2,0,0.3,0l0,0L115.5,0.1z"/>
	</g>
</g>
<polygon class="st2" points="110.3,11.6 10,11.6 10,164.2 140.9,164.2 140.9,42 "/>
<text transform="matrix(1 0 0 1 43.8214 101.5392)" class="st0 st3 st4">PDF</text>
</svg>
