<?xml version="1.0" encoding="utf-8"?>
<!-- Generator: Adobe Illustrator 21.0.0, SVG Export Plug-In . SVG Version: 6.00 Build 0)  -->
<svg version="1.1" id="Layer_1" xmlns="http://www.w3.org/2000/svg" xmlns:xlink="http://www.w3.org/1999/xlink" x="0px" y="0px"
	 viewBox="0 0 95 134.2" style="enable-background:new 0 0 95 134.2;" xml:space="preserve">
<style type="text/css">
	.st0{fill:#FFFFFF;}
	.st1{fill:#FBB4AF;}
</style>
<g>
	<rect class="st0" width="95" height="134.2"/>
	<g>
		<path class="st1" d="M20,73.3h3.5v3.5H20V73.3z"/>
		<path class="st1" d="M26.9,57.4h7.4c3.6,0,6.1,2.5,6.1,6.3c0,3.8-2.5,6.4-6.1,6.4h-3.9v6.7h-3.5V57.4z M33.7,67
			c2,0,3.2-1.3,3.2-3.3c0-2-1.2-3.3-3.2-3.3h-3.3V67H33.7z"/>
		<path class="st1" d="M44,57.4h6.6c6,0,9.8,3.5,9.8,9.6c0,6.1-3.9,9.7-9.8,9.7H44V57.4z M50.4,73.7c3.9,0,6.4-2.3,6.4-6.7
			c0-4.3-2.6-6.6-6.4-6.6h-2.9v13.3H50.4z"/>
		<path class="st1" d="M63.9,57.4h11.1v3h-7.6v5.5h6.4v3h-6.4v7.8h-3.5V57.4z"/>
	</g>
</g>
</svg>
