<?xml version="1.0" encoding="utf-8"?>
<!-- Generator: Adobe Illustrator 22.0.1, SVG Export Plug-In . SVG Version: 6.00 Build 0)  -->
<svg version="1.1" id="Layer_1" xmlns="http://www.w3.org/2000/svg" xmlns:xlink="http://www.w3.org/1999/xlink" x="0px" y="0px"
	 viewBox="0 0 150.9 175.8" style="enable-background:new 0 0 150.9 175.8;" xml:space="preserve">
<style type="text/css">
	.st0{fill:#FFFFFF;}
	.st1{fill:#8E94AA;}
	.st2{fill:#FBB4AF;}
	.st3{font-family:'BlackJack';}
	.st4{font-size:74.9042px;}
	.st5{letter-spacing:1;}
</style>
<g>
	<polygon class="st0" points="115.5,0.2 0.3,0.2 0.3,175.5 150.6,175.5 150.6,35.1 	"/>
	<g>
		<path class="st1" d="M115.4,0.3L86.5,0.8L57.7,1.3c-9.6,0.1-19.2,0.3-28.7,0.4L0.3,1.9L2,0.2L2.4,44L2.6,66l0.1,21.9l0.3,87.7
			l-2.6-2.6c12.5,0,25.1-0.1,37.6,0l37.6,0.1l75.2,0.2l-2.3,2.3c0-11.7,0.2-23.4,0.3-35.1l0.3-35.1l0.3-35.1l0.5-35.1l0.3,0.7
			l-17.2-17.6L115.4,0.3z M115.5,0.1L150.8,35c0,0,0.1,0.1,0.1,0.1l0.1,140.4c0,0.1-0.1,0.2-0.2,0.2h0l-150.3,0
			c-0.2,0-0.3-0.1-0.3-0.3v0L0.1,0.2C0.1,0.1,0.2,0,0.3,0h0L115.5,0.1z"/>
	</g>
</g>
<polygon class="st2" points="110.3,11.6 10,11.6 10,164.2 140.9,164.2 140.9,42 "/>
<g>
	<text transform="matrix(1 0 0 1 58.1739 111.4924)" class="st0 st3 st4 st5">P</text>
</g>
</svg>
