<?xml version="1.0" encoding="utf-8"?>
<!-- Generator: Adobe Illustrator 21.0.0, SVG Export Plug-In . SVG Version: 6.00 Build 0)  -->
<svg version="1.1" id="Layer_1" xmlns="http://www.w3.org/2000/svg" xmlns:xlink="http://www.w3.org/1999/xlink" x="0px" y="0px"
	 viewBox="0 0 168.6 168.3" style="enable-background:new 0 0 168.6 168.3;" xml:space="preserve">
<style type="text/css">
	.st0{fill:#99C6FF;}
	.st1{fill:none;stroke:#8E94AA;stroke-width:2;stroke-linecap:round;stroke-linejoin:round;stroke-miterlimit:10;}
	.st2{fill:none;stroke:#231F20;stroke-width:0.25;stroke-miterlimit:10;}
	.st3{fill:#8E94AA;}
	.st4{fill:#FFD69A;}
	.st5{fill:#FBB4AF;}
</style>
<g>
	<g>
		<rect x="39" y="56.3" class="st0" width="8" height="29.8"/>
	</g>
	<g>
		<rect x="53.5" y="56.3" class="st0" width="6.1" height="29.8"/>
	</g>
	<g>
		<rect x="63.9" y="56.3" class="st0" width="5.7" height="29.8"/>
	</g>
	<g>
		<rect x="72.3" y="56.3" class="st0" width="5.2" height="29.8"/>
	</g>
	<rect x="79.7" y="56.3" class="st0" width="3.7" height="29.8"/>
	<g>
		<rect x="26.4" y="56.3" class="st0" width="6.1" height="29.8"/>
	</g>
	<g>
		<rect x="16.5" y="56.3" class="st0" width="5.7" height="29.8"/>
	</g>
	<g>
		<rect x="8.5" y="56.3" class="st0" width="5.2" height="29.8"/>
	</g>
	<g>
		<rect x="2.6" y="56.3" class="st0" width="3.7" height="29.8"/>
	</g>
	<line class="st1" x1="43" y1="153.9" x2="43" y2="167.2"/>
	<line class="st2" x1="2.6" y1="50.9" x2="83.4" y2="50.9"/>
	<line class="st1" x1="1" y1="100.3" x2="85" y2="100.3"/>
	<g>
		<g>
			<path class="st3" d="M83.4,53.5l-4.9,0.1l0.1-0.1l0.5,46.9l-0.6-0.6l4.9-0.1l-0.7,0.7c-0.1-3.9-0.1-7.7-0.1-11.6
				c0-3.9,0-7.7,0.1-11.6c0.1-3.9,0.1-7.8,0.3-11.7L83.4,53.5z M83.5,53.4c0.1,3.8,0.3,7.6,0.4,11.5c0.1,3.9,0.2,7.8,0.3,11.7
				c0.1,3.9,0.1,7.9,0.1,11.8c0,4,0,7.9-0.1,11.9l0,0c0,0.4-0.3,0.7-0.7,0.7l0,0l-4.9-0.1l0,0c-0.3,0-0.6-0.3-0.6-0.6l0.5-46.9
				c0-0.1,0.1-0.1,0.1-0.1l0,0L83.5,53.4z"/>
		</g>
	</g>
	<g>
		<g>
			<path class="st3" d="M77.4,53.5l-6.6,0.1l0.1-0.1l0.5,46.9l-0.6-0.6c2.2-0.1,4.4-0.1,6.7-0.1l-0.7,0.7c0-3.9-0.1-7.7,0-11.6
				c0-3.9,0-7.7,0.1-11.6c0.1-3.9,0.1-7.8,0.2-11.7L77.4,53.5z M77.6,53.4l0.3,11.5c0.1,3.9,0.2,7.8,0.2,11.7
				c0.1,3.9,0.1,7.9,0.1,11.8c0,4,0,7.9,0,11.9l0,0c0,0.4-0.3,0.7-0.7,0.7l0,0c-2.2,0-4.4-0.1-6.7-0.1l0,0c-0.3,0-0.6-0.3-0.6-0.6
				l0.5-46.9c0-0.1,0.1-0.1,0.1-0.1l0,0L77.6,53.4z"/>
		</g>
	</g>
	<g>
		<g>
			<path class="st3" d="M69.5,53.5l-7.6,0.1l0.2-0.2l0.4,46.9l-0.6-0.6c2.6-0.1,5.1-0.1,7.7-0.1l-0.7,0.7c0-3.9-0.1-7.7,0-11.6
				c0-3.9,0-7.7,0.1-11.6c0.1-3.9,0.1-7.8,0.2-11.7L69.5,53.5z M69.6,53.4l0.3,11.5c0.1,3.9,0.2,7.8,0.2,11.7
				c0.1,3.9,0.1,7.9,0.1,11.8c0,4,0,7.9,0,11.9l0,0c0,0.4-0.3,0.7-0.7,0.7l0,0c-2.6,0-5.1-0.1-7.7-0.1l0,0c-0.3,0-0.6-0.3-0.6-0.6
				l0.4-46.9c0-0.1,0.1-0.2,0.2-0.2l0,0L69.6,53.4z"/>
		</g>
	</g>
	<g>
		<g>
			<path class="st3" d="M60.1,53.5l-8.3,0.1l0.2-0.2l0.4,46.9l-0.6-0.6c2.8-0.1,5.6-0.1,8.4-0.1l-0.7,0.7c0-3.9-0.1-7.7,0-11.6
				c0-3.9,0-7.7,0.1-11.6C59.7,69.4,59.9,61.5,60.1,53.5z M60.2,53.4c0.3,7.6,0.5,15.4,0.6,23.2c0.1,3.9,0.1,7.9,0.1,11.8
				c0,4,0,7.9,0,11.9l0,0c0,0.4-0.3,0.7-0.7,0.7l0,0c-2.8,0-5.6-0.1-8.4-0.1l0,0c-0.3,0-0.6-0.3-0.6-0.6l0.4-46.9
				c0-0.1,0.1-0.2,0.2-0.2l0,0L60.2,53.4z"/>
		</g>
	</g>
	<g>
		<g>
			<path class="st3" d="M49.1,53.5l-12.3,0.1l0.2-0.2l0.4,46.9l-0.6-0.6l6.2-0.1l6.2-0.1l-0.8,0.8c0-3.9,0-7.7,0-11.6
				c0-3.9,0.1-7.7,0.1-11.6C48.7,69.4,48.9,61.5,49.1,53.5z M49.2,53.4c0.2,7.6,0.4,15.4,0.6,23.2c0.1,3.9,0.1,7.9,0.1,11.8
				c0,4,0.1,7.9,0,11.9l0,0c0,0.4-0.3,0.8-0.8,0.8L43,101l-6.2-0.1l0,0c-0.3,0-0.6-0.3-0.6-0.6l0.4-46.9c0-0.1,0.1-0.2,0.2-0.2l0,0
				L49.2,53.4z"/>
		</g>
	</g>
	<g>
		<path class="st3" d="M39,59.1c1.3-0.1,2.7-0.3,4-0.4c0.7,0,1.3-0.2,2-0.1c0.7,0.1,1.3,0.2,2,0.4c0,0,0,0,0,0.1c0,0,0,0,0,0
			c-0.7,0.3-1.3,0.4-2,0.5c-0.7,0.1-1.3-0.1-2-0.1c-1.3-0.1-2.7-0.2-4-0.4C39,59.2,39,59.2,39,59.1C39,59.1,39,59.1,39,59.1z"/>
	</g>
	<g>
		<circle class="st0" cx="43" cy="89.5" r="1.4"/>
	</g>
	<g>
		<path class="st3" d="M53.5,59.1c1-0.1,2-0.3,3-0.4c0.5,0,1-0.2,1.5-0.1c0.5,0.1,1,0.2,1.5,0.4c0,0,0,0,0,0.1c0,0,0,0,0,0
			c-0.5,0.3-1,0.4-1.5,0.5c-0.5,0.1-1-0.1-1.5-0.1c-1-0.1-2-0.2-3-0.4C53.5,59.2,53.5,59.2,53.5,59.1C53.5,59.1,53.5,59.1,53.5,59.1
			z"/>
	</g>
	<g>
		<ellipse class="st0" cx="56.8" cy="89.5" rx="1.1" ry="1.4"/>
	</g>
	<g>
		<path class="st3" d="M63.9,59.1c0.9-0.1,1.9-0.3,2.8-0.4c0.5,0,0.9-0.2,1.4-0.1c0.5,0.1,0.9,0.2,1.4,0.4c0,0,0,0.1,0,0.1
			c0,0,0,0,0,0c-0.5,0.3-0.9,0.4-1.4,0.5c-0.5,0.1-0.9-0.1-1.4-0.1c-0.9-0.1-1.9-0.2-2.8-0.4C63.8,59.2,63.8,59.2,63.9,59.1
			C63.8,59.1,63.8,59.1,63.9,59.1z"/>
	</g>
	<g>
		<ellipse class="st0" cx="66.9" cy="89.5" rx="1" ry="1.4"/>
	</g>
	<g>
		<path class="st3" d="M72.3,59.1c0.9-0.1,1.7-0.3,2.6-0.4c0.4,0,0.9-0.2,1.3-0.1c0.4,0.1,0.9,0.2,1.3,0.4c0,0,0,0.1,0,0.1
			c0,0,0,0,0,0c-0.4,0.3-0.9,0.4-1.3,0.5c-0.4,0.1-0.9-0.1-1.3-0.1c-0.9-0.1-1.7-0.2-2.6-0.4C72.3,59.2,72.2,59.2,72.3,59.1
			C72.3,59.1,72.3,59.1,72.3,59.1z"/>
	</g>
	<g>
		<ellipse class="st0" cx="75.1" cy="89.5" rx="0.9" ry="1.4"/>
	</g>
	<g>
		<path class="st3" d="M79.7,59.1c0.6-0.1,1.2-0.3,1.9-0.4c0.3,0,0.6-0.2,0.9-0.1c0.3,0.1,0.6,0.2,0.9,0.4c0,0,0,0.1,0,0.1
			c0,0,0,0,0,0c-0.3,0.3-0.6,0.4-0.9,0.5c-0.3,0.1-0.6-0.1-0.9-0.1c-0.6-0.1-1.2-0.2-1.9-0.4C79.6,59.2,79.6,59.2,79.7,59.1
			C79.6,59.1,79.7,59.1,79.7,59.1z"/>
	</g>
	<g>
		<ellipse class="st0" cx="81.7" cy="89.5" rx="0.7" ry="1.4"/>
	</g>
	<g>
		<g>
			<path class="st3" d="M2.5,53.4l5-0.1c0.1,0,0.1,0.1,0.1,0.1l0,0l0.5,46.9c0,0.3-0.3,0.6-0.6,0.6l0,0L2.6,101
				c-0.4,0-0.7-0.3-0.7-0.7l0,0l0,0c-0.1-3.9-0.1-7.9-0.1-11.9c0-3.9,0-7.9,0.1-11.8c0.1-3.9,0.1-7.9,0.3-11.7
				C2.3,61,2.4,57.2,2.5,53.4z M2.7,53.5L3,65.4c0.1,4,0.2,7.8,0.3,11.7c0.1,3.9,0.1,7.7,0.1,11.6c0,3.9,0,7.7-0.1,11.6l-0.7-0.7
				l4.9,0.1l-0.6,0.6l0.5-46.9l0.1,0.1L2.7,53.5z"/>
		</g>
	</g>
	<g>
		<g>
			<path class="st3" d="M8.5,53.4l6.7-0.1c0.1,0,0.1,0.1,0.1,0.1l0,0l0.5,46.9c0,0.3-0.3,0.6-0.6,0.6l0,0c-2.2,0.1-4.4,0.1-6.7,0.1
				c-0.4,0-0.7-0.3-0.7-0.7l0,0l0,0c0-3.9-0.1-7.9,0-11.9c0-3.9,0-7.9,0.1-11.8c0.1-3.9,0.1-7.9,0.2-11.7L8.5,53.4z M8.6,53.5
				l0.3,11.9c0.1,3.9,0.2,7.8,0.2,11.7c0.1,3.9,0.1,7.7,0.1,11.6c0,3.9,0,7.7,0,11.6l-0.7-0.7c2.2,0,4.4,0.1,6.7,0.1l-0.6,0.6
				L15,53.4l0.1,0.1L8.6,53.5z"/>
		</g>
	</g>
	<g>
		<g>
			<path class="st3" d="M16.4,53.4l7.7-0.1c0.1,0,0.2,0.1,0.2,0.2l0,0l0.4,46.9c0,0.3-0.3,0.6-0.6,0.6l0,0c-2.6,0.1-5.1,0.1-7.7,0.1
				c-0.4,0-0.7-0.3-0.7-0.7l0,0l0,0c0-3.9-0.1-7.9,0-11.9c0-4,0-7.9,0.1-11.8c0.1-3.9,0.1-7.9,0.2-11.7L16.4,53.4z M16.5,53.5
				l0.3,11.9c0.1,3.9,0.2,7.8,0.2,11.7c0.1,3.9,0.1,7.7,0.1,11.6c0,3.9,0,7.7,0,11.6l-0.7-0.7c2.6,0,5.1,0.1,7.7,0.1l-0.6,0.6
				L24,53.4l0.2,0.2L16.5,53.5z"/>
		</g>
	</g>
	<g>
		<g>
			<path class="st3" d="M25.8,53.4l8.4-0.1c0.1,0,0.2,0.1,0.2,0.2l0,0l0.4,46.9c0,0.3-0.3,0.6-0.6,0.6l0,0c-2.8,0.1-5.6,0.1-8.4,0.1
				c-0.4,0-0.7-0.3-0.7-0.7l0,0l0,0c0-3.9-0.1-7.9,0-11.9c0-4,0-7.9,0.1-11.8C25.3,68.7,25.5,61,25.8,53.4z M25.9,53.5
				c0.3,8,0.5,15.9,0.6,23.6c0.1,3.9,0.1,7.7,0.1,11.6c0,3.9,0,7.7,0,11.6l-0.7-0.7c2.8,0,5.6,0.1,8.4,0.1l-0.6,0.6L34,53.4l0.2,0.2
				L25.9,53.5z"/>
		</g>
	</g>
	<g>
		<path class="st3" d="M32.5,59.2c-1,0.1-2,0.3-3,0.4c-0.5,0-1,0.2-1.5,0.1c-0.5-0.1-1-0.2-1.5-0.5c0,0,0,0,0-0.1c0,0,0,0,0,0
			c0.5-0.3,1-0.4,1.5-0.4c0.5-0.1,1,0.1,1.5,0.1c1,0.1,2,0.2,3,0.4C32.5,59.1,32.5,59.1,32.5,59.2C32.5,59.2,32.5,59.2,32.5,59.2z"
			/>
	</g>
	<g>
		<ellipse class="st0" cx="29.2" cy="89.5" rx="1.1" ry="1.4"/>
	</g>
	<g>
		<path class="st3" d="M22.1,59.2c-0.9,0.1-1.9,0.3-2.8,0.4c-0.5,0-0.9,0.2-1.4,0.1c-0.5-0.1-0.9-0.2-1.4-0.5c0,0,0-0.1,0-0.1
			c0,0,0,0,0,0c0.5-0.3,0.9-0.4,1.4-0.4c0.5-0.1,0.9,0.1,1.4,0.1c0.9,0.1,1.9,0.2,2.8,0.4C22.2,59.1,22.2,59.1,22.1,59.2
			C22.2,59.2,22.2,59.2,22.1,59.2z"/>
	</g>
	<g>
		<ellipse class="st0" cx="19.1" cy="89.5" rx="1" ry="1.4"/>
	</g>
	<g>
		<path class="st3" d="M13.7,59.2c-0.9,0.1-1.7,0.3-2.6,0.4c-0.4,0-0.9,0.2-1.3,0.1c-0.4-0.1-0.9-0.2-1.3-0.5c0,0,0-0.1,0-0.1
			c0,0,0,0,0,0c0.4-0.3,0.9-0.4,1.3-0.4c0.4-0.1,0.9,0.1,1.3,0.1c0.9,0.1,1.7,0.2,2.6,0.4C13.7,59.1,13.8,59.1,13.7,59.2
			C13.7,59.2,13.7,59.2,13.7,59.2z"/>
	</g>
	<g>
		<ellipse class="st0" cx="10.9" cy="89.5" rx="0.9" ry="1.4"/>
	</g>
	<g>
		<path class="st3" d="M6.3,59.2c-0.6,0.1-1.2,0.3-1.9,0.4c-0.3,0-0.6,0.2-0.9,0.1c-0.3-0.1-0.6-0.2-0.9-0.5c0,0,0-0.1,0-0.1
			c0,0,0,0,0,0c0.3-0.3,0.6-0.4,0.9-0.4c0.3-0.1,0.6,0.1,0.9,0.1c0.6,0.1,1.2,0.2,1.9,0.4C6.4,59.1,6.4,59.2,6.3,59.2
			C6.4,59.2,6.4,59.2,6.3,59.2z"/>
	</g>
	<g>
		<ellipse class="st0" cx="4.4" cy="89.5" rx="0.7" ry="1.4"/>
	</g>
	<rect x="39" y="6.9" class="st4" width="8" height="29.8"/>
	<rect x="53.5" y="6.9" class="st4" width="6.1" height="29.8"/>
	<rect x="63.9" y="6.9" class="st4" width="5.7" height="29.8"/>
	<rect x="72.3" y="6.9" class="st4" width="5.2" height="29.8"/>
	<rect x="79.7" y="6.9" class="st4" width="3.7" height="29.8"/>
	
		<rect x="26.4" y="6.9" transform="matrix(-1 4.485600e-11 -4.485600e-11 -1 58.8542 43.5122)" class="st4" width="6.1" height="29.8"/>
	
		<rect x="16.5" y="6.9" transform="matrix(-1 4.477517e-11 -4.477517e-11 -1 38.6042 43.5122)" class="st4" width="5.7" height="29.8"/>
	
		<rect x="8.5" y="6.9" transform="matrix(-1 4.508026e-11 -4.508026e-11 -1 22.2115 43.5122)" class="st4" width="5.2" height="29.8"/>
	
		<rect x="2.6" y="6.9" transform="matrix(-1 4.482180e-11 -4.482180e-11 -1 8.9331 43.5122)" class="st4" width="3.7" height="29.8"/>
	<line class="st1" x1="1" y1="50.9" x2="85" y2="50.9"/>
	<g>
		<g>
			<path class="st3" d="M83.4,4.1l-4.9,0.1L78.6,4l0.5,46.9l-0.6-0.6l4.9-0.1l-0.7,0.7c-0.1-3.9-0.1-7.7-0.1-11.6
				c0-3.9,0-7.7,0.1-11.6c0.1-3.9,0.1-7.8,0.3-11.7L83.4,4.1z M83.5,3.9c0.1,3.8,0.3,7.6,0.4,11.5c0.1,3.9,0.2,7.8,0.3,11.7
				c0.1,3.9,0.1,7.9,0.1,11.8c0,4,0,7.9-0.1,11.9l0,0c0,0.4-0.3,0.7-0.7,0.7l0,0l-4.9-0.1l0,0c-0.3,0-0.6-0.3-0.6-0.6L78.4,4
				c0-0.1,0.1-0.1,0.1-0.1l0,0L83.5,3.9z"/>
		</g>
	</g>
	<g>
		<g>
			<path class="st3" d="M77.4,4.1l-6.6,0.1L71,4l0.5,46.9l-0.6-0.6c2.2-0.1,4.4-0.1,6.7-0.1l-0.7,0.7c0-3.9-0.1-7.7,0-11.6
				c0-3.9,0-7.7,0.1-11.6c0.1-3.9,0.1-7.8,0.2-11.7L77.4,4.1z M77.6,3.9l0.3,11.5c0.1,3.9,0.2,7.8,0.2,11.7
				c0.1,3.9,0.1,7.9,0.1,11.8c0,4,0,7.9,0,11.9l0,0c0,0.4-0.3,0.7-0.7,0.7l0,0c-2.2,0-4.4-0.1-6.7-0.1l0,0c-0.3,0-0.6-0.3-0.6-0.6
				L70.7,4c0-0.1,0.1-0.1,0.1-0.1l0,0L77.6,3.9z"/>
		</g>
	</g>
	<g>
		<g>
			<path class="st3" d="M69.5,4.1l-7.6,0.1L62,4l0.4,46.9l-0.6-0.6c2.6-0.1,5.1-0.1,7.7-0.1l-0.7,0.7c0-3.9-0.1-7.7,0-11.6
				c0-3.9,0-7.7,0.1-11.6C69,23.8,69,19.9,69.2,16L69.5,4.1z M69.6,3.9l0.3,11.5c0.1,3.9,0.2,7.8,0.2,11.7c0.1,3.9,0.1,7.9,0.1,11.8
				c0,4,0,7.9,0,11.9l0,0c0,0.4-0.3,0.7-0.7,0.7l0,0c-2.6,0-5.1-0.1-7.7-0.1l0,0c-0.3,0-0.6-0.3-0.6-0.6L61.7,4
				c0-0.1,0.1-0.2,0.2-0.2l0,0L69.6,3.9z"/>
		</g>
	</g>
	<g>
		<g>
			<path class="st3" d="M60.1,4.1l-8.3,0.1L52,4l0.4,46.9l-0.6-0.6c2.8-0.1,5.6-0.1,8.4-0.1l-0.7,0.7c0-3.9-0.1-7.7,0-11.6
				c0-3.9,0-7.7,0.1-11.6C59.7,19.9,59.9,12.1,60.1,4.1z M60.2,3.9c0.3,7.6,0.5,15.4,0.6,23.2c0.1,3.9,0.1,7.9,0.1,11.8
				c0,4,0,7.9,0,11.9l0,0c0,0.4-0.3,0.7-0.7,0.7l0,0c-2.8,0-5.6-0.1-8.4-0.1l0,0c-0.3,0-0.6-0.3-0.6-0.6L51.6,4
				c0-0.1,0.1-0.2,0.2-0.2l0,0L60.2,3.9z"/>
		</g>
	</g>
	<g>
		<g>
			<path class="st3" d="M49.1,4.1L36.8,4.2L37,4l0.4,46.9l-0.6-0.6l6.2-0.1l6.2-0.1l-0.8,0.8c0-3.9,0-7.7,0-11.6
				c0-3.9,0.1-7.7,0.1-11.6C48.7,19.9,48.9,12.1,49.1,4.1z M49.2,3.9c0.2,7.6,0.4,15.4,0.6,23.2c0.1,3.9,0.1,7.9,0.1,11.8
				c0,4,0.1,7.9,0,11.9l0,0c0,0.4-0.3,0.8-0.8,0.8L43,51.6l-6.2-0.1l0,0c-0.3,0-0.6-0.3-0.6-0.6L36.6,4c0-0.1,0.1-0.2,0.2-0.2l0,0
				L49.2,3.9z"/>
		</g>
	</g>
	<circle class="st4" cx="43" cy="40" r="1.4"/>
	<ellipse class="st4" cx="56.8" cy="40" rx="1.1" ry="1.4"/>
	<ellipse class="st4" cx="66.9" cy="40" rx="1" ry="1.4"/>
	<ellipse class="st4" cx="75.1" cy="40" rx="0.9" ry="1.4"/>
	<ellipse class="st4" cx="81.7" cy="40" rx="0.7" ry="1.4"/>
	<g>
		<g>
			<path class="st3" d="M2.5,3.9l5-0.1c0.1,0,0.1,0.1,0.1,0.1l0,0l0.5,46.9c0,0.3-0.3,0.6-0.6,0.6l0,0l-4.9,0.1
				c-0.4,0-0.7-0.3-0.7-0.7l0,0l0,0C1.8,46.9,1.8,43,1.8,39c0-3.9,0-7.9,0.1-11.8c0.1-3.9,0.1-7.9,0.3-11.7
				C2.3,11.6,2.4,7.7,2.5,3.9z M2.7,4.1L3,16c0.1,4,0.2,7.8,0.3,11.7c0.1,3.9,0.1,7.7,0.1,11.6c0,3.9,0,7.7-0.1,11.6l-0.7-0.7
				l4.9,0.1l-0.6,0.6L7.4,4l0.1,0.1L2.7,4.1z"/>
		</g>
	</g>
	<g>
		<g>
			<path class="st3" d="M8.5,3.9l6.7-0.1c0.1,0,0.1,0.1,0.1,0.1l0,0l0.5,46.9c0,0.3-0.3,0.6-0.6,0.6l0,0c-2.2,0.1-4.4,0.1-6.7,0.1
				c-0.4,0-0.7-0.3-0.7-0.7l0,0l0,0c0-3.9-0.1-7.9,0-11.9c0-3.9,0-7.9,0.1-11.8c0.1-3.9,0.1-7.9,0.2-11.7L8.5,3.9z M8.6,4.1L8.9,16
				c0.1,3.9,0.2,7.8,0.2,11.7c0.1,3.9,0.1,7.7,0.1,11.6c0,3.9,0,7.7,0,11.6l-0.7-0.7c2.2,0,4.4,0.1,6.7,0.1l-0.6,0.6L15,4l0.1,0.1
				L8.6,4.1z"/>
		</g>
	</g>
	<g>
		<g>
			<path class="st3" d="M16.4,3.9l7.7-0.1c0.1,0,0.2,0.1,0.2,0.2l0,0l0.4,46.9c0,0.3-0.3,0.6-0.6,0.6l0,0c-2.6,0.1-5.1,0.1-7.7,0.1
				c-0.4,0-0.7-0.3-0.7-0.7l0,0l0,0c0-3.9-0.1-7.9,0-11.9c0-4,0-7.9,0.1-11.8c0.1-3.9,0.1-7.9,0.2-11.7L16.4,3.9z M16.5,4.1L16.8,16
				c0.1,3.9,0.2,7.8,0.2,11.7c0.1,3.9,0.1,7.7,0.1,11.6c0,3.9,0,7.7,0,11.6l-0.7-0.7c2.6,0,5.1,0.1,7.7,0.1l-0.6,0.6L24,4l0.2,0.2
				L16.5,4.1z"/>
		</g>
	</g>
	<g>
		<g>
			<path class="st3" d="M25.8,3.9l8.4-0.1c0.1,0,0.2,0.1,0.2,0.2l0,0l0.4,46.9c0,0.3-0.3,0.6-0.6,0.6l0,0c-2.8,0.1-5.6,0.1-8.4,0.1
				c-0.4,0-0.7-0.3-0.7-0.7l0,0l0,0c0-3.9-0.1-7.9,0-11.9c0-4,0-7.9,0.1-11.8C25.3,19.3,25.5,11.5,25.8,3.9z M25.9,4.1
				c0.3,8,0.5,15.9,0.6,23.6c0.1,3.9,0.1,7.7,0.1,11.6c0,3.9,0,7.7,0,11.6l-0.7-0.7c2.8,0,5.6,0.1,8.4,0.1l-0.6,0.6L34,4l0.2,0.2
				L25.9,4.1z"/>
		</g>
	</g>
	<ellipse class="st4" cx="29.2" cy="40" rx="1.1" ry="1.4"/>
	<ellipse class="st4" cx="19.1" cy="40" rx="1" ry="1.4"/>
	<ellipse class="st4" cx="10.9" cy="40" rx="0.9" ry="1.4"/>
	<ellipse class="st4" cx="4.4" cy="40" rx="0.7" ry="1.4"/>
	<line class="st1" x1="1" y1="1" x2="85" y2="1"/>
	<rect x="39" y="106.2" class="st5" width="8" height="29.8"/>
	<rect x="53.5" y="106.2" class="st5" width="6.1" height="29.8"/>
	<rect x="63.9" y="106.2" class="st5" width="5.7" height="29.8"/>
	<rect x="72.3" y="106.2" class="st5" width="5.2" height="29.8"/>
	<rect x="79.7" y="106.2" class="st5" width="3.7" height="29.8"/>
	
		<rect x="26.4" y="106.2" transform="matrix(-1 4.500566e-11 -4.500566e-11 -1 58.8542 242.1102)" class="st5" width="6.1" height="29.8"/>
	
		<rect x="16.5" y="106.2" transform="matrix(-1 4.477517e-11 -4.477517e-11 -1 38.6042 242.1102)" class="st5" width="5.7" height="29.8"/>
	
		<rect x="8.5" y="106.2" transform="matrix(-1 4.542976e-11 -4.542976e-11 -1 22.2115 242.1102)" class="st5" width="5.2" height="29.8"/>
	
		<rect x="2.6" y="106.2" transform="matrix(-1 4.482180e-11 -4.482180e-11 -1 8.9331 242.1102)" class="st5" width="3.7" height="29.8"/>
	<g>
		<g>
			<path class="st3" d="M83.4,103.4l-4.9,0.1l0.1-0.1l0.5,46.9l-0.6-0.6l4.9-0.1l-0.7,0.7c-0.1-3.9-0.1-7.7-0.1-11.6
				c0-3.9,0-7.7,0.1-11.6c0.1-3.9,0.1-7.8,0.3-11.7L83.4,103.4z M83.5,103.2c0.1,3.8,0.3,7.6,0.4,11.5c0.1,3.9,0.2,7.8,0.3,11.7
				c0.1,3.9,0.1,7.9,0.1,11.8c0,4,0,7.9-0.1,11.9l0,0c0,0.4-0.3,0.7-0.7,0.7l0,0l-4.9-0.1l0,0c-0.3,0-0.6-0.3-0.6-0.6l0.5-46.9
				c0-0.1,0.1-0.1,0.1-0.1l0,0L83.5,103.2z"/>
		</g>
	</g>
	<g>
		<g>
			<path class="st3" d="M77.4,103.4l-6.6,0.1l0.1-0.1l0.5,46.9l-0.6-0.6c2.2-0.1,4.4-0.1,6.7-0.1l-0.7,0.7c0-3.9-0.1-7.7,0-11.6
				c0-3.9,0-7.7,0.1-11.6c0.1-3.9,0.1-7.8,0.2-11.7L77.4,103.4z M77.6,103.2l0.3,11.5c0.1,3.9,0.2,7.8,0.2,11.7
				c0.1,3.9,0.1,7.9,0.1,11.8c0,4,0,7.9,0,11.9l0,0c0,0.4-0.3,0.7-0.7,0.7l0,0c-2.2,0-4.4-0.1-6.7-0.1l0,0c-0.3,0-0.6-0.3-0.6-0.6
				l0.5-46.9c0-0.1,0.1-0.1,0.1-0.1l0,0L77.6,103.2z"/>
		</g>
	</g>
	<g>
		<g>
			<path class="st3" d="M69.5,103.4l-7.6,0.1l0.2-0.2l0.4,46.9l-0.6-0.6c2.6-0.1,5.1-0.1,7.7-0.1l-0.7,0.7c0-3.9-0.1-7.7,0-11.6
				c0-3.9,0-7.7,0.1-11.6c0.1-3.9,0.1-7.8,0.2-11.7L69.5,103.4z M69.6,103.2l0.3,11.5c0.1,3.9,0.2,7.8,0.2,11.7
				c0.1,3.9,0.1,7.9,0.1,11.8c0,4,0,7.9,0,11.9l0,0c0,0.4-0.3,0.7-0.7,0.7l0,0c-2.6,0-5.1-0.1-7.7-0.1l0,0c-0.3,0-0.6-0.3-0.6-0.6
				l0.4-46.9c0-0.1,0.1-0.2,0.2-0.2l0,0L69.6,103.2z"/>
		</g>
	</g>
	<g>
		<g>
			<path class="st3" d="M60.1,103.4l-8.3,0.1l0.2-0.2l0.4,46.9l-0.6-0.6c2.8-0.1,5.6-0.1,8.4-0.1l-0.7,0.7c0-3.9-0.1-7.7,0-11.6
				c0-3.9,0-7.7,0.1-11.6C59.7,119.2,59.9,111.4,60.1,103.4z M60.2,103.2c0.3,7.6,0.5,15.4,0.6,23.2c0.1,3.9,0.1,7.9,0.1,11.8
				c0,4,0,7.9,0,11.9l0,0c0,0.4-0.3,0.7-0.7,0.7l0,0c-2.8,0-5.6-0.1-8.4-0.1l0,0c-0.3,0-0.6-0.3-0.6-0.6l0.4-46.9
				c0-0.1,0.1-0.2,0.2-0.2l0,0L60.2,103.2z"/>
		</g>
	</g>
	<g>
		<g>
			<path class="st3" d="M49.1,103.4l-12.3,0.1l0.2-0.2l0.4,46.9l-0.6-0.6l6.2-0.1l6.2-0.1l-0.8,0.8c0-3.9,0-7.7,0-11.6
				c0-3.9,0.1-7.7,0.1-11.6C48.7,119.2,48.9,111.4,49.1,103.4z M49.2,103.2c0.2,7.6,0.4,15.4,0.6,23.2c0.1,3.9,0.1,7.9,0.1,11.8
				c0,4,0.1,7.9,0,11.9l0,0c0,0.4-0.3,0.8-0.8,0.8l-6.2-0.1l-6.2-0.1l0,0c-0.3,0-0.6-0.3-0.6-0.6l0.4-46.9c0-0.1,0.1-0.2,0.2-0.2
				l0,0L49.2,103.2z"/>
		</g>
	</g>
	<g>
		<path class="st3" d="M39,109c1.3-0.1,2.7-0.3,4-0.4c0.7,0,1.3-0.2,2-0.1c0.7,0.1,1.3,0.2,2,0.5c0,0,0,0,0,0.1c0,0,0,0,0,0
			c-0.7,0.3-1.3,0.4-2,0.5c-0.7,0.1-1.3-0.1-2-0.1C41.7,109.3,40.3,109.2,39,109C39,109.1,39,109.1,39,109C39,109,39,109,39,109z"/>
	</g>
	<circle class="st5" cx="43" cy="139.3" r="1.4"/>
	<g>
		<path class="st3" d="M53.5,109c1-0.1,2-0.3,3-0.4c0.5,0,1-0.2,1.5-0.1c0.5,0.1,1,0.2,1.5,0.5c0,0,0,0,0,0.1c0,0,0,0,0,0
			c-0.5,0.3-1,0.4-1.5,0.5c-0.5,0.1-1-0.1-1.5-0.1C55.6,109.3,54.6,109.2,53.5,109C53.5,109.1,53.5,109.1,53.5,109
			C53.5,109,53.5,109,53.5,109z"/>
	</g>
	<ellipse class="st5" cx="56.8" cy="139.3" rx="1.1" ry="1.4"/>
	<g>
		<path class="st3" d="M63.9,109c0.9-0.1,1.9-0.3,2.8-0.4c0.5,0,0.9-0.2,1.4-0.1c0.5,0.1,0.9,0.2,1.4,0.5c0,0,0,0.1,0,0.1
			c0,0,0,0,0,0c-0.5,0.3-0.9,0.4-1.4,0.5c-0.5,0.1-0.9-0.1-1.4-0.1C65.8,109.3,64.8,109.2,63.9,109C63.8,109.1,63.8,109.1,63.9,109
			C63.8,109,63.8,109,63.9,109z"/>
	</g>
	<ellipse class="st5" cx="66.9" cy="139.3" rx="1" ry="1.4"/>
	<g>
		<path class="st3" d="M72.3,109c0.9-0.1,1.7-0.3,2.6-0.4c0.4,0,0.9-0.2,1.3-0.1c0.4,0.1,0.9,0.2,1.3,0.5c0,0,0,0.1,0,0.1
			c0,0,0,0,0,0c-0.4,0.3-0.9,0.4-1.3,0.5c-0.4,0.1-0.9-0.1-1.3-0.1C74,109.3,73.2,109.2,72.3,109C72.3,109.1,72.2,109.1,72.3,109
			C72.3,109,72.3,109,72.3,109z"/>
	</g>
	<ellipse class="st5" cx="75.1" cy="139.3" rx="0.9" ry="1.4"/>
	<g>
		<path class="st3" d="M79.7,109c0.6-0.1,1.2-0.3,1.9-0.4c0.3,0,0.6-0.2,0.9-0.1c0.3,0.1,0.6,0.2,0.9,0.5c0,0,0,0.1,0,0.1
			c0,0,0,0,0,0c-0.3,0.3-0.6,0.4-0.9,0.5c-0.3,0.1-0.6-0.1-0.9-0.1C80.9,109.3,80.3,109.2,79.7,109C79.6,109.1,79.6,109.1,79.7,109
			C79.6,109,79.7,109,79.7,109z"/>
	</g>
	<ellipse class="st5" cx="81.7" cy="139.3" rx="0.7" ry="1.4"/>
	<g>
		<g>
			<path class="st3" d="M2.5,103.2l5-0.1c0.1,0,0.1,0.1,0.1,0.1l0,0l0.5,46.9c0,0.3-0.3,0.6-0.6,0.6l0,0l-4.9,0.1
				c-0.4,0-0.7-0.3-0.7-0.7l0,0l0,0c-0.1-3.9-0.1-7.9-0.1-11.9c0-3.9,0-7.9,0.1-11.8c0.1-3.9,0.1-7.9,0.3-11.7
				C2.3,110.9,2.4,107,2.5,103.2z M2.7,103.4L3,115.3c0.1,4,0.2,7.8,0.3,11.7c0.1,3.9,0.1,7.7,0.1,11.6c0,3.9,0,7.7-0.1,11.6
				l-0.7-0.7l4.9,0.1l-0.6,0.6l0.5-46.9l0.1,0.1L2.7,103.4z"/>
		</g>
	</g>
	<g>
		<g>
			<path class="st3" d="M8.5,103.2l6.7-0.1c0.1,0,0.1,0.1,0.1,0.1l0,0l0.5,46.9c0,0.3-0.3,0.6-0.6,0.6l0,0c-2.2,0.1-4.4,0.1-6.7,0.1
				c-0.4,0-0.7-0.3-0.7-0.7l0,0l0,0c0-3.9-0.1-7.9,0-11.9c0-3.9,0-7.9,0.1-11.8c0.1-3.9,0.1-7.9,0.2-11.7L8.5,103.2z M8.6,103.4
				l0.3,11.9c0.1,3.9,0.2,7.8,0.2,11.7c0.1,3.9,0.1,7.7,0.1,11.6c0,3.9,0,7.7,0,11.6l-0.7-0.7c2.2,0,4.4,0.1,6.7,0.1l-0.6,0.6
				l0.5-46.9l0.1,0.1L8.6,103.4z"/>
		</g>
	</g>
	<g>
		<g>
			<path class="st3" d="M16.4,103.2l7.7-0.1c0.1,0,0.2,0.1,0.2,0.2l0,0l0.4,46.9c0,0.3-0.3,0.6-0.6,0.6l0,0
				c-2.6,0.1-5.1,0.1-7.7,0.1c-0.4,0-0.7-0.3-0.7-0.7l0,0l0,0c0-3.9-0.1-7.9,0-11.9c0-4,0-7.9,0.1-11.8c0.1-3.9,0.1-7.9,0.2-11.7
				L16.4,103.2z M16.5,103.4l0.3,11.9c0.1,3.9,0.2,7.8,0.2,11.7c0.1,3.9,0.1,7.7,0.1,11.6c0,3.9,0,7.7,0,11.6l-0.7-0.7
				c2.6,0,5.1,0.1,7.7,0.1l-0.6,0.6l0.4-46.9l0.2,0.2L16.5,103.4z"/>
		</g>
	</g>
	<g>
		<g>
			<path class="st3" d="M25.8,103.2l8.4-0.1c0.1,0,0.2,0.1,0.2,0.2l0,0l0.4,46.9c0,0.3-0.3,0.6-0.6,0.6l0,0
				c-2.8,0.1-5.6,0.1-8.4,0.1c-0.4,0-0.7-0.3-0.7-0.7l0,0l0,0c0-3.9-0.1-7.9,0-11.9c0-4,0-7.9,0.1-11.8
				C25.3,118.6,25.5,110.8,25.8,103.2z M25.9,103.4c0.3,8,0.5,15.9,0.6,23.6c0.1,3.9,0.1,7.7,0.1,11.6c0,3.9,0,7.7,0,11.6l-0.7-0.7
				c2.8,0,5.6,0.1,8.4,0.1l-0.6,0.6l0.4-46.9l0.2,0.2L25.9,103.4z"/>
		</g>
	</g>
	<g>
		<path class="st3" d="M32.5,109.1c-1,0.1-2,0.3-3,0.4c-0.5,0-1,0.2-1.5,0.1c-0.5-0.1-1-0.2-1.5-0.5c0,0,0,0,0-0.1c0,0,0,0,0,0
			c0.5-0.3,1-0.4,1.5-0.5c0.5-0.1,1,0.1,1.5,0.1C30.4,108.7,31.4,108.8,32.5,109.1C32.5,109,32.5,109,32.5,109.1
			C32.5,109.1,32.5,109.1,32.5,109.1z"/>
	</g>
	<ellipse class="st5" cx="29.2" cy="139.3" rx="1.1" ry="1.4"/>
	<g>
		<path class="st3" d="M22.1,109.1c-0.9,0.1-1.9,0.3-2.8,0.4c-0.5,0-0.9,0.2-1.4,0.1c-0.5-0.1-0.9-0.2-1.4-0.5c0,0,0-0.1,0-0.1
			c0,0,0,0,0,0c0.5-0.3,0.9-0.4,1.4-0.5c0.5-0.1,0.9,0.1,1.4,0.1C20.2,108.7,21.2,108.8,22.1,109.1C22.2,109,22.2,109,22.1,109.1
			C22.2,109.1,22.2,109.1,22.1,109.1z"/>
	</g>
	<ellipse class="st5" cx="19.1" cy="139.3" rx="1" ry="1.4"/>
	<g>
		<path class="st3" d="M13.7,109.1c-0.9,0.1-1.7,0.3-2.6,0.4c-0.4,0-0.9,0.2-1.3,0.1c-0.4-0.1-0.9-0.2-1.3-0.5c0,0,0-0.1,0-0.1
			c0,0,0,0,0,0c0.4-0.3,0.9-0.4,1.3-0.5c0.4-0.1,0.9,0.1,1.3,0.1C12,108.7,12.8,108.8,13.7,109.1C13.7,109,13.8,109,13.7,109.1
			C13.7,109.1,13.7,109.1,13.7,109.1z"/>
	</g>
	<ellipse class="st5" cx="10.9" cy="139.3" rx="0.9" ry="1.4"/>
	<g>
		<path class="st3" d="M6.3,109.1c-0.6,0.1-1.2,0.3-1.9,0.4c-0.3,0-0.6,0.2-0.9,0.1c-0.3-0.1-0.6-0.2-0.9-0.5c0,0,0-0.1,0-0.1
			c0,0,0,0,0,0c0.3-0.3,0.6-0.4,0.9-0.5c0.3-0.1,0.6,0.1,0.9,0.1C5.1,108.7,5.7,108.8,6.3,109.1C6.4,109,6.4,109,6.3,109.1
			C6.4,109.1,6.4,109.1,6.3,109.1z"/>
	</g>
	<ellipse class="st5" cx="4.4" cy="139.3" rx="0.7" ry="1.4"/>
	<line class="st1" x1="1" y1="150.2" x2="85" y2="150.2"/>
	<g>
		<path class="st3" d="M20.2,167.2c3.8-0.4,7.6-0.6,11.4-0.8c3.8-0.2,7.6-0.2,11.4-0.2c3.8,0,7.6,0.1,11.4,0.2
			c3.8,0.1,7.6,0.4,11.4,0.8c-3.8,0.4-7.6,0.6-11.4,0.8c-3.8,0.2-7.6,0.2-11.4,0.2c-3.8,0-7.6-0.1-11.4-0.2
			C27.7,167.8,23.9,167.6,20.2,167.2z"/>
	</g>
	<rect x="120.7" y="63.1" class="st0" width="6.8" height="25.3"/>
	<rect x="133.1" y="63.1" class="st0" width="5.1" height="25.3"/>
	<rect x="141.8" y="63.1" class="st0" width="4.8" height="25.3"/>
	<rect x="149" y="63.1" class="st0" width="4.4" height="25.3"/>
	<rect x="155.2" y="63.1" class="st0" width="3.2" height="25.3"/>
	
		<rect x="110" y="63.1" transform="matrix(-1 4.525079e-11 -4.525079e-11 -1 225.1761 151.4152)" class="st0" width="5.1" height="25.3"/>
	
		<rect x="101.6" y="63.1" transform="matrix(-1 4.446609e-11 -4.446609e-11 -1 207.9896 151.4152)" class="st0" width="4.8" height="25.3"/>
	
		<rect x="94.8" y="63.1" transform="matrix(-1 4.529254e-11 -4.529254e-11 -1 194.0769 151.4152)" class="st0" width="4.4" height="25.3"/>
	
		<rect x="89.8" y="63.1" transform="matrix(-1 4.477473e-11 -4.477473e-11 -1 182.8072 151.4152)" class="st0" width="3.2" height="25.3"/>
	<line class="st1" x1="124.1" y1="145.9" x2="124.1" y2="157.2"/>
	<line class="st2" x1="89.8" y1="58.5" x2="158.4" y2="58.5"/>
	<line class="st1" x1="88.5" y1="100.4" x2="159.8" y2="100.4"/>
	<g>
		<g>
			<path class="st3" d="M158.4,60.7l-4.1,0.1l0.1-0.1l0.3,39.8l-0.4-0.4l4.2-0.1l-0.5,0.5c0-3.3-0.1-6.6,0-9.8c0-3.3,0-6.6,0.1-9.9
				l0.2-9.9L158.4,60.7z M158.4,60.6l0.2,9.8l0.2,9.9c0.1,3.3,0.1,6.7,0.1,10c0,3.3,0,6.7,0,10l0,0c0,0.3-0.2,0.5-0.5,0.5l0,0
				l-4.2-0.1l0,0c-0.2,0-0.4-0.2-0.4-0.4l0.3-39.8c0,0,0-0.1,0.1-0.1l0,0L158.4,60.6z"/>
		</g>
	</g>
	<g>
		<g>
			<path class="st3" d="M153.4,60.7l-5.6,0.1l0.1-0.1l0.3,39.8l-0.4-0.4l5.7-0.1l-0.5,0.5c0-3.3-0.1-6.6,0-9.8c0-3.3,0-6.6,0.1-9.9
				l0.2-9.9L153.4,60.7z M153.4,60.6l0.2,9.8l0.2,9.9c0.1,3.3,0.1,6.7,0.1,10c0,3.3,0,6.7,0,10l0,0c0,0.3-0.2,0.5-0.5,0.5l0,0
				l-5.7-0.1l0,0c-0.2,0-0.4-0.2-0.4-0.4l0.3-39.8c0-0.1,0-0.1,0.1-0.1l0,0L153.4,60.6z"/>
		</g>
	</g>
	<g>
		<g>
			<path class="st3" d="M146.6,60.7l-6.5,0.1l0.1-0.1l0.3,39.8l-0.4-0.4l6.5-0.1l-0.5,0.5c0-3.3,0-6.6,0-9.8c0-3.3,0-6.6,0.1-9.9
				C146.3,74.1,146.4,67.5,146.6,60.7z M146.7,60.6c0.2,6.5,0.3,13.1,0.4,19.7c0.1,3.3,0.1,6.7,0.1,10c0,3.3,0,6.7,0,10v0
				c0,0.3-0.2,0.5-0.5,0.5l0,0l-6.5-0.1l0,0c-0.2,0-0.4-0.2-0.4-0.4l0.3-39.8c0-0.1,0-0.1,0.1-0.1l0,0L146.7,60.6z"/>
		</g>
	</g>
	<g>
		<g>
			<path class="st3" d="M138.6,60.7l-7.1,0.1l0.1-0.1l0.3,39.8l-0.4-0.4l7.1-0.1l-0.5,0.5c0-6.6,0-13.1,0.1-19.7
				C138.3,74.1,138.5,67.5,138.6,60.7z M138.7,60.6c0.2,6.5,0.3,13.1,0.4,19.7c0.1,6.7,0.1,13.4,0.1,20.1l0,0c0,0.3-0.2,0.5-0.5,0.5
				l0,0l-7.1-0.1l0,0c-0.2,0-0.4-0.2-0.4-0.4l0.3-39.8c0-0.1,0-0.1,0.1-0.1h0L138.7,60.6z"/>
		</g>
	</g>
	<g>
		<g>
			<path class="st3" d="M129.3,60.7l-10.4,0.1l0.1-0.1l0.3,39.8l-0.4-0.4c3.5-0.1,7-0.1,10.5-0.1l-0.5,0.5c0-3.3,0-6.6,0-9.8
				c0-3.3,0-6.6,0.1-9.9C129,74.1,129.2,67.4,129.3,60.7z M129.4,60.6c0.1,6.5,0.3,13.1,0.4,19.8c0.1,3.3,0.1,6.7,0.1,10
				c0,3.3,0,6.7,0,10c0,0.3-0.2,0.5-0.5,0.5c-3.5,0-7-0.1-10.5-0.1l0,0c-0.2,0-0.4-0.2-0.4-0.4l0.3-39.8c0-0.1,0.1-0.1,0.1-0.1h0
				L129.4,60.6z"/>
		</g>
	</g>
	<g>
		<path class="st3" d="M120.7,65.5c1.1-0.1,2.3-0.3,3.4-0.4c0.6,0,1.1-0.2,1.7-0.1c0.6,0.1,1.1,0.2,1.7,0.5c0,0,0,0,0,0.1
			c0,0,0,0,0,0c-0.6,0.3-1.1,0.4-1.7,0.5c-0.6,0.1-1.1-0.1-1.7-0.1C123,65.8,121.8,65.7,120.7,65.5
			C120.7,65.6,120.7,65.5,120.7,65.5C120.7,65.5,120.7,65.5,120.7,65.5z"/>
	</g>
	<circle class="st0" cx="124.1" cy="91.2" r="1.2"/>
	<g>
		<path class="st3" d="M133.1,65.5c0.9-0.1,1.7-0.3,2.6-0.4c0.4,0,0.9-0.2,1.3-0.1c0.4,0.1,0.9,0.2,1.3,0.5c0,0,0,0.1,0,0.1
			c0,0,0,0,0,0c-0.4,0.3-0.9,0.4-1.3,0.5c-0.4,0.1-0.9-0.1-1.3-0.1C134.8,65.8,133.9,65.7,133.1,65.5C133,65.6,133,65.5,133.1,65.5
			C133,65.5,133,65.5,133.1,65.5z"/>
	</g>
	<ellipse class="st0" cx="135.8" cy="91.2" rx="0.9" ry="1.2"/>
	<g>
		<path class="st3" d="M141.8,65.5c0.8-0.1,1.6-0.3,2.4-0.4c0.4,0,0.8-0.2,1.2-0.1c0.4,0.1,0.8,0.2,1.2,0.5c0,0,0,0.1,0,0.1
			c0,0,0,0,0,0c-0.4,0.3-0.8,0.4-1.2,0.5c-0.4,0.1-0.8-0.1-1.2-0.1C143.4,65.8,142.6,65.7,141.8,65.5
			C141.8,65.6,141.8,65.5,141.8,65.5C141.8,65.5,141.8,65.5,141.8,65.5z"/>
	</g>
	<ellipse class="st0" cx="144.4" cy="91.2" rx="0.9" ry="1.2"/>
	<g>
		<path class="st3" d="M149,65.5c0.7-0.1,1.5-0.3,2.2-0.4c0.4,0,0.7-0.2,1.1-0.1c0.4,0.1,0.7,0.2,1.1,0.5c0,0,0,0.1,0,0.1
			c0,0,0,0,0,0c-0.4,0.3-0.7,0.4-1.1,0.5c-0.4,0.1-0.7-0.1-1.1-0.1C150.4,65.8,149.7,65.7,149,65.5C148.9,65.5,148.9,65.5,149,65.5
			C148.9,65.5,149,65.5,149,65.5z"/>
	</g>
	<ellipse class="st0" cx="151.3" cy="91.2" rx="0.8" ry="1.2"/>
	<g>
		<path class="st3" d="M155.2,65.5c0.5-0.1,1.1-0.3,1.6-0.4c0.3,0,0.5-0.2,0.8-0.1c0.3,0.1,0.5,0.2,0.8,0.5c0,0,0,0.1,0,0.1
			c-0.3,0.3-0.5,0.4-0.8,0.5c-0.3,0.1-0.5-0.1-0.8-0.1C156.3,65.8,155.8,65.7,155.2,65.5C155.2,65.5,155.2,65.5,155.2,65.5
			C155.2,65.5,155.2,65.5,155.2,65.5z"/>
	</g>
	<ellipse class="st0" cx="156.9" cy="91.2" rx="0.6" ry="1.2"/>
	<g>
		<g>
			<path class="st3" d="M89.8,60.6l4.2-0.1c0,0,0.1,0,0.1,0.1v0l0.3,39.8c0,0.2-0.2,0.4-0.4,0.4l0,0l-4.2,0.1
				c-0.3,0-0.5-0.2-0.5-0.5v0l0,0c0-3.3-0.1-6.7,0-10c0-3.3,0-6.7,0.1-10l0.2-9.9L89.8,60.6z M89.9,60.7l0.2,10.1l0.2,9.9
				c0.1,3.3,0.1,6.6,0.1,9.9c0,3.3,0,6.6,0,9.8l-0.5-0.5L94,100l-0.4,0.4l0.3-39.8l0.1,0.1L89.9,60.7z"/>
		</g>
	</g>
	<g>
		<g>
			<path class="st3" d="M94.8,60.6l5.7-0.1c0.1,0,0.1,0,0.1,0.1v0l0.3,39.8c0,0.2-0.2,0.4-0.4,0.4l0,0l-5.7,0.1
				c-0.3,0-0.5-0.2-0.5-0.5v0l0,0c0-3.3-0.1-6.7,0-10c0-3.3,0-6.7,0.1-10l0.2-9.9L94.8,60.6z M94.9,60.7l0.2,10.1l0.2,9.9
				c0.1,3.3,0.1,6.6,0.1,9.9c0,3.3,0,6.6,0,9.8l-0.5-0.5l5.7,0.1l-0.4,0.4l0.3-39.8l0.1,0.1L94.9,60.7z"/>
		</g>
	</g>
	<g>
		<g>
			<path class="st3" d="M101.5,60.6l6.5-0.1c0.1,0,0.1,0,0.1,0.1v0l0.3,39.8c0,0.2-0.2,0.4-0.4,0.4l0,0l-6.5,0.1
				c-0.3,0-0.5-0.2-0.5-0.5l0,0v0c0-3.3,0-6.7,0-10c0-3.3,0-6.7,0.1-10C101.2,73.7,101.4,67.1,101.5,60.6z M101.6,60.7
				c0.2,6.8,0.3,13.4,0.4,20c0.1,3.3,0.1,6.6,0.1,9.9c0,3.3,0,6.6,0,9.8l-0.5-0.5l6.5,0.1l-0.4,0.4l0.3-39.8l0.1,0.1L101.6,60.7z"/>
		</g>
	</g>
	<g>
		<g>
			<path class="st3" d="M109.5,60.6l7.1-0.1c0.1,0,0.1,0,0.1,0.1l0,0l0.3,39.8c0,0.2-0.2,0.4-0.4,0.4l0,0l-7.1,0.1
				c-0.3,0-0.5-0.2-0.5-0.5l0,0l0,0c0-6.7,0-13.4,0.1-20.1C109.2,73.7,109.3,67.1,109.5,60.6z M109.6,60.7c0.2,6.8,0.3,13.4,0.4,20
				c0.1,6.6,0.1,13.1,0.1,19.7l-0.5-0.5l7.1,0.1l-0.4,0.4l0.3-39.8l0.1,0.1L109.6,60.7z"/>
		</g>
	</g>
	<g>
		<path class="st3" d="M115.2,65.6c-0.9,0.1-1.7,0.3-2.6,0.4c-0.4,0-0.9,0.2-1.3,0.1c-0.4-0.1-0.9-0.2-1.3-0.5c0,0,0-0.1,0-0.1
			c0,0,0,0,0,0c0.4-0.3,0.9-0.4,1.3-0.5c0.4-0.1,0.9,0.1,1.3,0.1C113.4,65.2,114.3,65.3,115.2,65.6
			C115.2,65.5,115.2,65.5,115.2,65.6C115.2,65.5,115.2,65.6,115.2,65.6z"/>
	</g>
	<ellipse class="st0" cx="112.4" cy="91.2" rx="0.9" ry="1.2"/>
	<g>
		<path class="st3" d="M106.4,65.6c-0.8,0.1-1.6,0.3-2.4,0.4c-0.4,0-0.8,0.2-1.2,0.1c-0.4-0.1-0.8-0.2-1.2-0.5c0,0,0-0.1,0-0.1
			c0,0,0,0,0,0c0.4-0.3,0.8-0.4,1.2-0.5c0.4-0.1,0.8,0.1,1.2,0.1C104.8,65.2,105.6,65.3,106.4,65.6
			C106.4,65.5,106.5,65.5,106.4,65.6C106.4,65.5,106.4,65.6,106.4,65.6z"/>
	</g>
	<ellipse class="st0" cx="103.8" cy="91.2" rx="0.9" ry="1.2"/>
	<g>
		<path class="st3" d="M99.2,65.6c-0.7,0.1-1.5,0.3-2.2,0.4c-0.4,0-0.7,0.2-1.1,0.1c-0.4-0.1-0.7-0.2-1.1-0.5c0,0,0-0.1,0-0.1
			c0,0,0,0,0,0c0.4-0.3,0.7-0.4,1.1-0.5c0.4-0.1,0.7,0.1,1.1,0.1C97.8,65.2,98.5,65.3,99.2,65.6C99.3,65.5,99.3,65.5,99.2,65.6
			C99.3,65.5,99.3,65.6,99.2,65.6z"/>
	</g>
	<ellipse class="st0" cx="96.9" cy="91.2" rx="0.8" ry="1.2"/>
	<g>
		<path class="st3" d="M93,65.6c-0.5,0.1-1.1,0.3-1.6,0.4c-0.3,0-0.5,0.2-0.8,0.1c-0.3-0.1-0.5-0.2-0.8-0.5c0,0,0-0.1,0-0.1
			c0.3-0.3,0.5-0.4,0.8-0.5c0.3-0.1,0.5,0.1,0.8,0.1C91.9,65.2,92.5,65.3,93,65.6C93,65.5,93,65.5,93,65.6C93,65.5,93,65.6,93,65.6z
			"/>
	</g>
	<ellipse class="st0" cx="91.3" cy="91.2" rx="0.6" ry="1.2"/>
	<line class="st1" x1="88.5" y1="58.5" x2="159.8" y2="58.5"/>
	<rect x="120.7" y="105.4" class="st5" width="6.8" height="25.3"/>
	<rect x="133.1" y="105.4" class="st5" width="5.1" height="25.3"/>
	<rect x="141.8" y="105.4" class="st5" width="4.8" height="25.3"/>
	<rect x="149" y="105.4" class="st5" width="4.4" height="25.3"/>
	<rect x="155.2" y="105.4" class="st5" width="3.2" height="25.3"/>
	
		<rect x="110" y="105.4" transform="matrix(-1 4.454380e-11 -4.454380e-11 -1 225.1761 236.0621)" class="st5" width="5.1" height="25.3"/>
	
		<rect x="101.6" y="105.4" transform="matrix(-1 4.446609e-11 -4.446609e-11 -1 207.9896 236.0621)" class="st5" width="4.8" height="25.3"/>
	
		<rect x="94.8" y="105.4" transform="matrix(-1 4.529254e-11 -4.529254e-11 -1 194.0769 236.0621)" class="st5" width="4.4" height="25.3"/>
	
		<rect x="89.8" y="105.4" transform="matrix(-1 4.477473e-11 -4.477473e-11 -1 182.8072 236.0621)" class="st5" width="3.2" height="25.3"/>
	<g>
		<g>
			<path class="st3" d="M158.4,103l-4.1,0.1l0.1-0.1l0.3,39.8l-0.4-0.4l4.2-0.1l-0.5,0.5c0-3.3-0.1-6.6,0-9.8c0-3.3,0-6.6,0.1-9.9
				l0.2-9.9L158.4,103z M158.4,102.9l0.2,9.8l0.2,9.9c0.1,3.3,0.1,6.7,0.1,10c0,3.3,0,6.7,0,10l0,0c0,0.3-0.2,0.5-0.5,0.5l0,0
				l-4.2-0.1l0,0c-0.2,0-0.4-0.2-0.4-0.4l0.3-39.8c0,0,0-0.1,0.1-0.1l0,0L158.4,102.9z"/>
		</g>
	</g>
	<g>
		<g>
			<path class="st3" d="M153.4,103l-5.6,0.1l0.1-0.1l0.3,39.8l-0.4-0.4l5.7-0.1l-0.5,0.5c0-3.3-0.1-6.6,0-9.8c0-3.3,0-6.6,0.1-9.9
				l0.2-9.9L153.4,103z M153.4,102.9l0.2,9.8l0.2,9.9c0.1,3.3,0.1,6.7,0.1,10c0,3.3,0,6.7,0,10l0,0c0,0.3-0.2,0.5-0.5,0.5l0,0
				l-5.7-0.1l0,0c-0.2,0-0.4-0.2-0.4-0.4l0.3-39.8c0-0.1,0-0.1,0.1-0.1l0,0L153.4,102.9z"/>
		</g>
	</g>
	<g>
		<g>
			<path class="st3" d="M146.6,103l-6.5,0.1l0.1-0.1l0.3,39.8l-0.4-0.4l6.5-0.1l-0.5,0.5c0-3.3,0-6.6,0-9.8c0-3.3,0-6.6,0.1-9.9
				C146.3,116.4,146.4,109.8,146.6,103z M146.7,102.9c0.2,6.5,0.3,13.1,0.4,19.7c0.1,3.3,0.1,6.7,0.1,10c0,3.3,0,6.7,0,10v0
				c0,0.3-0.2,0.5-0.5,0.5l0,0l-6.5-0.1l0,0c-0.2,0-0.4-0.2-0.4-0.4L140,103c0-0.1,0-0.1,0.1-0.1l0,0L146.7,102.9z"/>
		</g>
	</g>
	<g>
		<g>
			<path class="st3" d="M138.6,103l-7.1,0.1l0.1-0.1l0.3,39.8l-0.4-0.4l7.1-0.1l-0.5,0.5c0-6.6,0-13.1,0.1-19.7
				C138.3,116.4,138.5,109.8,138.6,103z M138.7,102.9c0.2,6.5,0.3,13.1,0.4,19.7c0.1,6.7,0.1,13.4,0.1,20.1l0,0
				c0,0.3-0.2,0.5-0.5,0.5l0,0l-7.1-0.1l0,0c-0.2,0-0.4-0.2-0.4-0.4l0.3-39.8c0-0.1,0-0.1,0.1-0.1h0L138.7,102.9z"/>
		</g>
	</g>
	<g>
		<g>
			<path class="st3" d="M129.3,103l-10.4,0.1l0.1-0.1l0.3,39.8l-0.4-0.4c3.5-0.1,7-0.1,10.5-0.1l-0.5,0.5c0-3.3,0-6.6,0-9.8
				c0-3.3,0-6.6,0.1-9.9C129,116.4,129.2,109.8,129.3,103z M129.4,102.9c0.1,6.5,0.3,13.1,0.4,19.8c0.1,3.3,0.1,6.7,0.1,10
				c0,3.3,0,6.7,0,10c0,0.3-0.2,0.5-0.5,0.5c-3.5,0-7-0.1-10.5-0.1l0,0c-0.2,0-0.4-0.2-0.4-0.4l0.3-39.8c0-0.1,0.1-0.1,0.1-0.1l0,0
				L129.4,102.9z"/>
		</g>
	</g>
	<g>
		<path class="st3" d="M120.7,107.8c1.1-0.1,2.3-0.3,3.4-0.4c0.6,0,1.1-0.2,1.7-0.1c0.6,0.1,1.1,0.2,1.7,0.5c0,0,0,0,0,0.1
			c0,0,0,0,0,0c-0.6,0.3-1.1,0.4-1.7,0.5c-0.6,0.1-1.1-0.1-1.7-0.1C123,108.1,121.8,108,120.7,107.8
			C120.7,107.9,120.7,107.9,120.7,107.8C120.7,107.8,120.7,107.8,120.7,107.8z"/>
	</g>
	<circle class="st5" cx="124.1" cy="133.5" r="1.2"/>
	<g>
		<path class="st3" d="M133.1,107.8c0.9-0.1,1.7-0.3,2.6-0.4c0.4,0,0.9-0.2,1.3-0.1c0.4,0.1,0.9,0.2,1.3,0.5c0,0,0,0.1,0,0.1
			c0,0,0,0,0,0c-0.4,0.3-0.9,0.4-1.3,0.5c-0.4,0.1-0.9-0.1-1.3-0.1C134.8,108.1,133.9,108,133.1,107.8
			C133,107.9,133,107.8,133.1,107.8C133,107.8,133,107.8,133.1,107.8z"/>
	</g>
	<ellipse class="st5" cx="135.8" cy="133.5" rx="0.9" ry="1.2"/>
	<g>
		<path class="st3" d="M141.8,107.8c0.8-0.1,1.6-0.3,2.4-0.4c0.4,0,0.8-0.2,1.2-0.1c0.4,0.1,0.8,0.2,1.2,0.5c0,0,0,0.1,0,0.1
			c0,0,0,0,0,0c-0.4,0.3-0.8,0.4-1.2,0.5c-0.4,0.1-0.8-0.1-1.2-0.1C143.4,108.1,142.6,108,141.8,107.8
			C141.8,107.9,141.8,107.8,141.8,107.8C141.8,107.8,141.8,107.8,141.8,107.8z"/>
	</g>
	<ellipse class="st5" cx="144.4" cy="133.5" rx="0.9" ry="1.2"/>
	<g>
		<path class="st3" d="M149,107.8c0.7-0.1,1.5-0.3,2.2-0.4c0.4,0,0.7-0.2,1.1-0.1c0.4,0.1,0.7,0.2,1.1,0.5c0,0,0,0.1,0,0.1
			c0,0,0,0,0,0c-0.4,0.3-0.7,0.4-1.1,0.5c-0.4,0.1-0.7-0.1-1.1-0.1C150.4,108.1,149.7,108,149,107.8
			C148.9,107.9,148.9,107.8,149,107.8C148.9,107.8,149,107.8,149,107.8z"/>
	</g>
	<ellipse class="st5" cx="151.3" cy="133.5" rx="0.8" ry="1.2"/>
	<g>
		<path class="st3" d="M155.2,107.8c0.5-0.1,1.1-0.3,1.6-0.4c0.3,0,0.5-0.2,0.8-0.1c0.3,0.1,0.5,0.2,0.8,0.5c0,0,0,0.1,0,0.1
			c-0.3,0.3-0.5,0.4-0.8,0.5c-0.3,0.1-0.5-0.1-0.8-0.1C156.3,108.1,155.8,108,155.2,107.8C155.2,107.9,155.2,107.8,155.2,107.8
			C155.2,107.8,155.2,107.8,155.2,107.8z"/>
	</g>
	<ellipse class="st5" cx="156.9" cy="133.5" rx="0.6" ry="1.2"/>
	<g>
		<g>
			<path class="st3" d="M89.8,102.9l4.2-0.1c0,0,0.1,0,0.1,0.1v0l0.3,39.8c0,0.2-0.2,0.4-0.4,0.4l0,0l-4.2,0.1
				c-0.3,0-0.5-0.2-0.5-0.5v0l0,0c0-3.3-0.1-6.7,0-10c0-3.3,0-6.7,0.1-10l0.2-9.9L89.8,102.9z M89.9,103l0.2,10.1l0.2,9.9
				c0.1,3.3,0.1,6.6,0.1,9.9c0,3.3,0,6.6,0,9.8l-0.5-0.5l4.2,0.1l-0.4,0.4l0.3-39.8L94,103L89.9,103z"/>
		</g>
	</g>
	<g>
		<g>
			<path class="st3" d="M94.8,102.9l5.7-0.1c0.1,0,0.1,0,0.1,0.1v0l0.3,39.8c0,0.2-0.2,0.4-0.4,0.4l0,0l-5.7,0.1
				c-0.3,0-0.5-0.2-0.5-0.5v0l0,0c0-3.3-0.1-6.7,0-10c0-3.3,0-6.7,0.1-10l0.2-9.9L94.8,102.9z M94.9,103l0.2,10.1l0.2,9.9
				c0.1,3.3,0.1,6.6,0.1,9.9c0,3.3,0,6.6,0,9.8l-0.5-0.5l5.7,0.1l-0.4,0.4l0.3-39.8l0.1,0.1L94.9,103z"/>
		</g>
	</g>
	<g>
		<g>
			<path class="st3" d="M101.5,102.9l6.5-0.1c0.1,0,0.1,0,0.1,0.1v0l0.3,39.8c0,0.2-0.2,0.4-0.4,0.4l0,0l-6.5,0.1
				c-0.3,0-0.5-0.2-0.5-0.5l0,0v0c0-3.3,0-6.7,0-10c0-3.3,0-6.7,0.1-10C101.2,116,101.4,109.4,101.5,102.9z M101.6,103
				c0.2,6.8,0.3,13.4,0.4,20c0.1,3.3,0.1,6.6,0.1,9.9c0,3.3,0,6.6,0,9.8l-0.5-0.5l6.5,0.1l-0.4,0.4L108,103l0.1,0.1L101.6,103z"/>
		</g>
	</g>
	<g>
		<g>
			<path class="st3" d="M109.5,102.9l7.1-0.1c0.1,0,0.1,0,0.1,0.1l0,0l0.3,39.8c0,0.2-0.2,0.4-0.4,0.4l0,0l-7.1,0.1
				c-0.3,0-0.5-0.2-0.5-0.5l0,0l0,0c0-6.7,0-13.4,0.1-20.1C109.2,116,109.3,109.4,109.5,102.9z M109.6,103c0.2,6.8,0.3,13.4,0.4,20
				c0.1,6.6,0.1,13.1,0.1,19.7l-0.5-0.5l7.1,0.1l-0.4,0.4l0.3-39.8l0.1,0.1L109.6,103z"/>
		</g>
	</g>
	<g>
		<path class="st3" d="M115.2,107.9c-0.9,0.1-1.7,0.3-2.6,0.4c-0.4,0-0.9,0.2-1.3,0.1c-0.4-0.1-0.9-0.2-1.3-0.5c0,0,0-0.1,0-0.1
			c0,0,0,0,0,0c0.4-0.3,0.9-0.4,1.3-0.5c0.4-0.1,0.9,0.1,1.3,0.1C113.4,107.5,114.3,107.6,115.2,107.9
			C115.2,107.8,115.2,107.8,115.2,107.9C115.2,107.9,115.2,107.9,115.2,107.9z"/>
	</g>
	<ellipse class="st5" cx="112.4" cy="133.5" rx="0.9" ry="1.2"/>
	<g>
		<path class="st3" d="M106.4,107.9c-0.8,0.1-1.6,0.3-2.4,0.4c-0.4,0-0.8,0.2-1.2,0.1c-0.4-0.1-0.8-0.2-1.2-0.5c0,0,0-0.1,0-0.1
			c0,0,0,0,0,0c0.4-0.3,0.8-0.4,1.2-0.5c0.4-0.1,0.8,0.1,1.2,0.1C104.8,107.5,105.6,107.6,106.4,107.9
			C106.4,107.8,106.5,107.8,106.4,107.9C106.4,107.9,106.4,107.9,106.4,107.9z"/>
	</g>
	<ellipse class="st5" cx="103.8" cy="133.5" rx="0.9" ry="1.2"/>
	<g>
		<path class="st3" d="M99.2,107.9c-0.7,0.1-1.5,0.3-2.2,0.4c-0.4,0-0.7,0.2-1.1,0.1c-0.4-0.1-0.7-0.2-1.1-0.5c0,0,0-0.1,0-0.1
			c0,0,0,0,0,0c0.4-0.3,0.7-0.4,1.1-0.5c0.4-0.1,0.7,0.1,1.1,0.1C97.8,107.5,98.5,107.6,99.2,107.9
			C99.3,107.8,99.3,107.8,99.2,107.9C99.3,107.9,99.3,107.9,99.2,107.9z"/>
	</g>
	<ellipse class="st5" cx="96.9" cy="133.5" rx="0.8" ry="1.2"/>
	<g>
		<path class="st3" d="M93,107.9c-0.5,0.1-1.1,0.3-1.6,0.4c-0.3,0-0.5,0.2-0.8,0.1c-0.3-0.1-0.5-0.2-0.8-0.5c0,0,0-0.1,0-0.1
			c0.3-0.3,0.5-0.4,0.8-0.5c0.3-0.1,0.5,0.1,0.8,0.1C91.9,107.5,92.5,107.6,93,107.9C93,107.8,93,107.8,93,107.9
			C93,107.9,93,107.9,93,107.9z"/>
	</g>
	<ellipse class="st5" cx="91.3" cy="133.5" rx="0.6" ry="1.2"/>
	<line class="st1" x1="88.5" y1="142.7" x2="159.8" y2="142.7"/>
	<g>
		<path class="st3" d="M104.7,157.2c3.2-0.4,6.4-0.6,9.6-0.8c3.2-0.2,6.4-0.2,9.6-0.2c3.2,0,6.4,0.1,9.6,0.2
			c3.2,0.1,6.4,0.4,9.6,0.8c-3.2,0.4-6.4,0.6-9.6,0.8c-3.2,0.2-6.4,0.2-9.6,0.2c-3.2,0-6.4-0.1-9.6-0.2
			C111.1,157.8,107.9,157.6,104.7,157.2z"/>
	</g>
	<g>
		<g>
			<g id="XMLID_31_">
				<path class="st3" d="M104.8,33.1c0.2,0.9,0.4,1.9,0.5,2.8c0.1,0.5,0.3,0.9,0.2,1.4c-0.1,0.5-0.3,0.9-0.7,1.4c0,0-0.1,0-0.1,0
					c0,0,0,0,0,0c-0.4-0.5-0.6-0.9-0.7-1.4c-0.1-0.5,0.1-0.9,0.1-1.4c0.1-0.9,0.3-1.9,0.5-2.8C104.7,33,104.7,33,104.8,33.1
					C104.8,33,104.8,33,104.8,33.1z"/>
			</g>
			<g id="XMLID_29_">
				<path class="st3" d="M101.9,35.8c0.9-0.2,1.9-0.4,2.8-0.5c0.5-0.1,0.9-0.3,1.4-0.1c0.5,0.1,0.9,0.3,1.4,0.7c0,0,0,0.1,0,0.1
					c0,0,0,0,0,0c-0.5,0.4-0.9,0.6-1.4,0.7c-0.5,0.1-0.9-0.1-1.4-0.1c-0.9-0.1-1.9-0.3-2.8-0.5C101.9,36,101.8,35.9,101.9,35.8
					C101.9,35.9,101.9,35.8,101.9,35.8z"/>
			</g>
		</g>
		<g id="XMLID_27_">
			<path class="st3" d="M93.2,31.6c0,0.4,0.2,0.7,0.5,0.9c0.3,0.2,0.6,0.2,0.9,0.2c0.6-0.1,0.9-0.6,0.8-1.1c0-0.2-0.2-0.4-0.3-0.5
				c-0.2-0.1-0.3-0.2-0.5-0.2c-0.2,0-0.4-0.1-0.7,0C93.5,31,93.2,31.3,93.2,31.6z M93,31.6c0-0.4,0-0.8,0.2-1.3
				c0.2-0.5,0.7-0.9,1.3-0.9c0.6,0,1.2,0.2,1.5,0.6c0.4,0.4,0.5,1,0.5,1.5c-0.1,1.1-1.1,1.9-2,1.8c-0.5,0-0.9-0.3-1.1-0.7
				C93.2,32.4,93.1,32,93,31.6z"/>
		</g>
		<g id="XMLID_18_">
			<path class="st3" d="M97.6,44.8c0,0.5,0.2,1.1,0.7,1.4c0.4,0.3,0.9,0.4,1.4,0.4c1-0.1,1.6-1,1.5-1.8c0-0.4-0.3-0.8-0.6-1
				c-0.3-0.2-0.6-0.4-1-0.4c-0.4,0-0.8,0-1.2,0.2C98,43.8,97.6,44.3,97.6,44.8z M97.4,44.8c0-0.6,0.1-1.2,0.4-1.8
				c0.3-0.6,1-1.1,1.8-1.1c0.8,0,1.5,0.3,2,0.9c0.5,0.6,0.7,1.3,0.7,2c0,0.7-0.4,1.4-0.9,1.9c-0.5,0.5-1.2,0.7-1.9,0.7
				c-0.7,0-1.3-0.4-1.6-0.9C97.6,46,97.5,45.4,97.4,44.8z"/>
		</g>
	</g>
</g>
</svg>
