<?xml version="1.0" encoding="utf-8"?>
<!-- Generator: Adobe Illustrator 22.0.1, SVG Export Plug-In . SVG Version: 6.00 Build 0)  -->
<svg version="1.1" id="Layer_1" xmlns="http://www.w3.org/2000/svg" xmlns:xlink="http://www.w3.org/1999/xlink" x="0px" y="0px"
	 viewBox="0 0 194 194" style="enable-background:new 0 0 194 194;" xml:space="preserve">
<style type="text/css">
	.st0{clip-path:url(#SVGID_2_);}
	.st1{fill:#FFFFFF;}
	.st2{fill:#8E94AA;}
	.st3{fill:#FFFFFF;stroke:#8E94AA;stroke-width:3;stroke-linecap:round;stroke-linejoin:round;stroke-miterlimit:10;}
</style>
<g>
	<defs>
		<circle id="SVGID_1_" cx="97" cy="97" r="97"/>
	</defs>
	<clipPath id="SVGID_2_">
		<use xlink:href="#SVGID_1_"  style="overflow:visible;"/>
	</clipPath>
	<g class="st0">
		<g>
			<circle class="st1" cx="97.6" cy="189.1" r="74.9"/>
			<path class="st2" d="M172.9,189.1c0,4.9-0.4,9.9-1.4,14.7c-0.9,4.8-2.3,9.6-4.1,14.2c-3.6,9.2-8.9,17.8-15.8,25.1
				c-13.6,14.7-33.2,24.2-54,25.1c-10.3,0.5-20.9-1-30.9-4.6c-5-1.8-9.8-4.1-14.3-6.9c-4.5-2.8-8.9-6-12.7-9.7
				c-7.8-7.4-14.2-16.3-18.5-26.3c-2.1-5-3.8-10.2-4.9-15.5c-1.1-5.3-1.6-10.7-1.7-16.2c0-5.4,0.6-10.8,1.7-16.2
				c1.1-5.3,2.8-10.5,4.9-15.5c4.3-9.9,10.7-18.9,18.5-26.3c7.8-7.4,17.1-13,27-16.6c9.9-3.6,20.5-5.1,30.9-4.6
				c20.8,1,40.4,10.4,54,25.1c3.4,3.6,6.5,7.6,9.1,11.8c2.7,4.2,4.8,8.7,6.7,13.3c1.8,4.6,3.2,9.4,4.1,14.2
				C172.5,179.3,173,184.2,172.9,189.1z M172.1,189.1c0-9.7-2-19.5-5.7-28.5c-3.7-9-9.3-17.2-16.2-24.1
				c-6.9-6.9-15.1-12.4-24.1-16.1c-9-3.7-18.7-5.6-28.4-5.6c-9.7,0-19.4,1.9-28.4,5.7c-9,3.7-17.2,9.2-24,16.1
				c-6.8,6.9-12.3,15.1-16,24.1c-3.7,9-5.6,18.6-5.6,28.3c0,9.7,1.9,19.4,5.6,28.3c3.7,9,9.2,17.2,16,24.1
				c6.8,6.9,15.1,12.4,24,16.1c9,3.7,18.7,5.7,28.4,5.7c9.7,0,19.4-1.9,28.4-5.6c9-3.7,17.2-9.2,24.1-16.1
				c6.9-6.9,12.4-15.1,16.2-24.1C170.1,208.6,172,198.9,172.1,189.1z"/>
		</g>
		<g>
			<circle class="st1" cx="97.6" cy="84.8" r="37.4"/>
			<path class="st2" d="M124.4,111.6c-7,7-16.6,11.5-26.8,12.2c-5.1,0.3-10.4-0.2-15.4-1.8c-5-1.6-9.9-4.1-14.1-7.6
				c-4.2-3.5-7.9-7.9-10.5-13c-2.5-5.1-4.2-10.7-4.5-16.6C52.8,79,53.7,73,55.8,67.5c2.1-5.6,5.5-10.7,9.6-14.9l3.3-3
				c1.2-0.9,2.4-1.8,3.6-2.6c1.2-0.8,2.6-1.5,3.9-2.2c1.3-0.7,2.7-1.2,4.1-1.8c5.5-2.1,11.5-3,17.3-2.7c5.8,0.4,11.5,2,16.5,4.5
				c5.1,2.6,9.5,6.2,12.9,10.4c3.5,4.2,6.1,9.1,7.6,14.1c1.6,5,2.1,10.3,1.8,15.4C135.9,95,131.5,104.6,124.4,111.6z M123.8,110.9
				c3.4-3.4,6.1-7.5,8-12c1.8-4.5,2.8-9.3,2.8-14.1c0-4.8-1-9.6-2.9-14.1c-1.9-4.4-4.6-8.5-8-11.9c-3.4-3.4-7.5-6.1-11.9-7.9
				c-4.4-1.8-9.2-2.8-14-2.7c-4.8,0-9.6,1-14,2.8c-4.4,1.8-8.5,4.6-11.8,8c-3.4,3.4-6.1,7.4-8,11.8C62,75.2,61,80,61,84.8
				c0,4.8,0.9,9.6,2.7,14c1.8,4.4,4.5,8.5,7.9,11.9c3.4,3.4,7.5,6.2,11.9,8c4.4,1.9,9.3,2.8,14.1,2.9c4.8,0,9.7-0.9,14.1-2.8
				C116.2,117.1,120.3,114.3,123.8,110.9z"/>
		</g>
		<path class="st3" d="M106.3,105.5c-4.8,4.8-12.6,4.8-17.4,0"/>
	</g>
</g>
</svg>
