<?xml version="1.0" encoding="UTF-8" standalone="no"?>
<svg
   xmlns:dc="http://purl.org/dc/elements/1.1/"
   xmlns:cc="http://creativecommons.org/ns#"
   xmlns:rdf="http://www.w3.org/1999/02/22-rdf-syntax-ns#"
   xmlns:svg="http://www.w3.org/2000/svg"
   xmlns="http://www.w3.org/2000/svg"
   xml:space="preserve"
   style="enable-background:new 0 0 513.32 513.32;"
   viewBox="-50 -50 613.32 613.32"
   y="0px"
   x="0px"
   id="Capa_1"
   version="1.1"><metadata
     id="metadata15"><rdf:RDF><cc:Work
         rdf:about=""><dc:format>image/svg+xml</dc:format><dc:type
           rdf:resource="http://purl.org/dc/dcmitype/StillImage" /></cc:Work></rdf:RDF></metadata><defs
     id="defs13" /><style
     id="style2"
     type="text/css">
	.st0{fill:#fff;}
</style><g
     id="g8"><g
       id="g6"><path
         id="path4"
         d="M346.491,316.547c49.193-29.944,81.275-83.414,81.275-145.44C427.767,76.998,350.768,0,256.66,0    S85.553,76.998,85.553,171.107c0,62.026,32.082,115.497,81.275,145.44C81.275,348.63,17.11,423.489,0,513.32h42.777    c21.388-98.386,109.081-171.107,213.883-171.107s192.495,72.72,213.883,171.107h42.777    C496.21,421.35,432.045,346.491,346.491,316.547z M128.33,171.107c0-70.581,57.749-128.33,128.33-128.33    s128.33,57.749,128.33,128.33s-57.749,128.33-128.33,128.33S128.33,241.688,128.33,171.107z"
         class="st0" /></g></g></svg>