<?xml version="1.0" encoding="utf-8"?>
<!-- Generator: Adobe Illustrator 21.0.0, SVG Export Plug-In . SVG Version: 6.00 Build 0)  -->
<svg version="1.1" id="Layer_1" xmlns="http://www.w3.org/2000/svg" xmlns:xlink="http://www.w3.org/1999/xlink" x="0px" y="0px"
	 viewBox="0 0 253.3 89.5" style="enable-background:new 0 0 253.3 89.5;" xml:space="preserve">
<style type="text/css">
	.st0{fill:#8E94AA;}
	.st1{fill:#FFFFFF;}
	.st2{fill:#E8EAEE;}
	.st3{fill:#FFFFFF;stroke:#8E94AA;stroke-width:2;stroke-linecap:round;stroke-linejoin:round;stroke-miterlimit:10;}
	.st4{fill:#FFFFFF;stroke:#E8EAEE;stroke-width:2;stroke-linejoin:round;stroke-miterlimit:10;}
	.st5{fill:#FFFFFF;stroke:#99C6FF;stroke-width:1.5;stroke-linecap:round;stroke-linejoin:round;stroke-miterlimit:10;}
	.st6{fill:#99C6FF;}
	.st7{fill:#C2DDFF;}
</style>
<g>
	<g>
		<path class="st0" d="M0.1,64.6l126.5-0.8c21.1-0.1,42.2-0.4,63.3-0.3c21.1,0.2,42.2,0.3,63.3,0.8c0.1,0,0.1,0,0.1,0.1
			c0,0.1,0,0.1-0.1,0.1c-21.1,0.6-42.2,0.8-63.3,1c-21.1,0.1-42.2-0.1-63.3-0.1L0.1,64.8C0,64.8,0,64.7,0.1,64.6
			C0,64.6,0,64.6,0.1,64.6z"/>
	</g>
	<g>
		<path class="st0" d="M171.9,29.5l12.9-0.3l6.4-0.1l1.6,0c0.5,0,1.1,0,1.6-0.1c0.5,0,1-0.2,1.4-0.3c0.4-0.2,0.9-0.4,1.3-0.7
			c1.6-1.1,2.6-3,2.6-4.9c-0.1-1.9-1.5-3.4-3.2-3.9c-1.8-0.4-3.9,0.5-4.7,2.2c-0.9,1.7-0.3,4.1,1.7,5c0,0,0.1,0.1,0,0.1
			c0,0-0.1,0-0.1,0c-1.1-0.3-2-1.1-2.5-2.1c-0.5-1.1-0.5-2.3-0.1-3.5c0.4-1.1,1.3-2.1,2.4-2.7c1.1-0.6,2.3-0.8,3.6-0.6
			c0.3,0.1,0.6,0.1,0.9,0.3l0.8,0.4c0.3,0.1,0.5,0.4,0.8,0.5c0.1,0.1,0.2,0.2,0.4,0.3l0.3,0.4c0.8,1,1.2,2.2,1.3,3.4
			c0,1.2-0.4,2.4-0.9,3.4c-0.6,1-1.4,1.9-2.4,2.5c-0.5,0.3-1,0.5-1.6,0.8c-0.6,0.1-1.1,0.3-1.7,0.3c-0.6,0.1-1.1,0.1-1.7,0l-1.6,0
			l-6.5-0.1l-12.9-0.3C171.9,29.7,171.8,29.6,171.9,29.5C171.8,29.5,171.9,29.5,171.9,29.5z"/>
	</g>
	<g>
		<g id="XMLID_384_">
			<path class="st0" d="M72.8,4.1c0.1,1.2,0.3,2.4,0.3,3.5c0,0.6,0.2,1.2,0.1,1.8c-0.1,0.6-0.2,1.2-0.4,1.8c0,0,0,0-0.1,0
				c0,0,0,0,0,0c-0.3-0.6-0.4-1.2-0.5-1.8c-0.1-0.6,0.1-1.2,0.1-1.8c0.1-1.2,0.2-2.4,0.3-3.5C72.7,4.1,72.7,4,72.8,4.1
				C72.7,4,72.8,4.1,72.8,4.1z"/>
		</g>
		<g id="XMLID_383_">
			<path class="st0" d="M76.2,7.7c-1.2,0.1-2.4,0.3-3.5,0.4c-0.6,0-1.2,0.2-1.8,0.1c-0.6-0.1-1.2-0.2-1.8-0.4c0,0,0,0,0-0.1
				c0,0,0,0,0,0c0.6-0.3,1.2-0.4,1.8-0.5c0.6-0.1,1.2,0.1,1.8,0.1c1.2,0.1,2.4,0.2,3.5,0.4C76.3,7.6,76.3,7.6,76.2,7.7
				C76.3,7.6,76.3,7.7,76.2,7.7z"/>
		</g>
	</g>
	<g id="XMLID_436_">
		<path class="st0" d="M87.2,2.3c0,0.5-0.2,1-0.5,1.3c-0.3,0.4-0.8,0.7-1.3,0.7c-1.1,0.1-2.2-0.9-2.2-2.1c0-0.6,0.2-1.2,0.6-1.6
			c0.4-0.4,1-0.7,1.6-0.7c0.6,0,1.2,0.4,1.5,0.8C87.2,1.3,87.3,1.8,87.2,2.3z M87.1,2.3c0-0.5-0.3-0.9-0.7-1.1C86.1,1,85.7,1,85.4,1
			c-0.7,0-1.3,0.5-1.4,1.3c-0.1,0.7,0.6,1.5,1.4,1.6c0.4,0,0.8-0.1,1.2-0.4C86.9,3.2,87.2,2.8,87.1,2.3z"/>
	</g>
	<g id="XMLID_438_">
		<path class="st0" d="M81.8,18.7c0,0.7-0.3,1.4-0.8,2c-0.5,0.6-1.2,0.9-2,1c-0.8,0-1.5-0.3-2.1-0.8c-0.6-0.5-0.9-1.3-1-2.1
			c0-0.8,0.3-1.6,0.8-2.2c0.6-0.6,1.4-1,2.2-0.9c0.8,0,1.6,0.5,2.1,1.1C81.6,17.3,81.8,18,81.8,18.7z M81.7,18.7
			c0-0.7-0.4-1.3-0.9-1.7c-0.5-0.4-1.1-0.5-1.7-0.5c-1.1,0-2.2,0.9-2.3,2.2c-0.1,1.2,1,2.4,2.3,2.4c0.6,0,1.3-0.2,1.8-0.6
			C81.4,20.1,81.7,19.4,81.7,18.7z"/>
	</g>
	<g>
		<polyline class="st1" points="101.8,72.4 101.8,83.9 165.4,83.9 165.4,72.4 		"/>
		<path class="st2" d="M101.9,72.4l0.2,11.5l-0.3-0.3c10.6-0.2,21.2-0.3,31.8-0.5c5.3-0.1,10.6-0.2,15.9-0.2
			c5.3,0,10.6,0.1,15.9,0.3l-0.7,0.7l0.3-5.7c0.1-1.9,0.2-3.8,0.4-5.7c0-0.1,0.1-0.1,0.1-0.1c0,0,0.1,0,0.1,0.1
			c0.2,1.9,0.3,3.8,0.4,5.7l0.3,5.7c0,0.4-0.3,0.7-0.7,0.7l0,0l-0.1,0c-5.3,0.2-10.6,0.3-15.9,0.3c-5.3,0-10.6-0.2-15.9-0.2
			c-10.6-0.2-21.2-0.3-31.8-0.5l0,0c-0.2,0-0.3-0.1-0.3-0.3l0.2-11.5C101.7,72.3,101.7,72.3,101.9,72.4
			C101.8,72.3,101.9,72.3,101.9,72.4z"/>
	</g>
	<g>
		<polyline class="st1" points="165.4,72.4 165.4,24.5 150.6,9.6 101.8,9.6 101.8,72.4 		"/>
		<path class="st0" d="M165.3,72.4l-0.4-47.9l0.2,0.4l-14.9-14.7l0.5,0.2l-48.8,0.4l1-1c0,5.2,0,10.5,0,15.7L102.6,41
			c0,5.2-0.2,10.5-0.3,15.7c-0.1,5.2-0.3,10.5-0.5,15.7c0,0.1,0,0.1-0.1,0.1c-0.1,0-0.1,0-0.1-0.1c-0.2-5.2-0.4-10.5-0.5-15.7
			c-0.1-5.2-0.2-10.5-0.3-15.7l-0.2-15.7c0-5.2-0.1-10.5,0-15.7l0,0c0-0.6,0.5-1,1-1L150.6,9l0,0c0.2,0,0.3,0.1,0.5,0.2l14.7,14.9
			l0,0c0.1,0.1,0.1,0.2,0.1,0.4l-0.4,47.9C165.5,72.5,165.4,72.5,165.3,72.4C165.3,72.5,165.3,72.5,165.3,72.4z"/>
	</g>
	<polyline class="st3" points="158.5,72.3 158.5,29.1 143.6,14.3 94.8,14.3 94.8,72.4 	"/>
	<polyline class="st4" points="94.8,72.4 94.8,88.5 158.5,88.5 158.5,72.3 	"/>
	<g>
		<path class="st0" d="M31.8,53.9l22.5-0.3l11.2-0.1l2.8,0c0.9,0,1.9,0,2.8-0.1c1.8-0.2,3.5-0.8,5-1.8c3-1.9,4.9-5.5,4.7-8.9
			c-0.1-1.7-0.7-3.4-1.8-4.7c-0.5-0.7-1.2-1.2-1.9-1.6c-0.7-0.4-1.5-0.8-2.4-1c-1.7-0.3-3.5-0.1-5,0.6c-0.8,0.4-1.5,0.9-2.1,1.5
			c-0.6,0.6-1.1,1.3-1.5,2.1c-0.8,1.6-0.9,3.5-0.3,5.1c0.6,1.7,1.9,3.1,3.6,3.9c0,0,0.1,0.1,0,0.1c0,0-0.1,0.1-0.1,0
			c-1.8-0.5-3.4-2-4.2-3.8c-0.8-1.8-0.8-4,0-5.8c0.7-1.9,2.2-3.4,4-4.4c1.8-0.9,3.9-1.3,5.9-0.9c1,0.2,2,0.6,2.8,1.1
			c0.9,0.5,1.7,1.2,2.4,1.9c1.3,1.6,2,3.6,2.1,5.7c0,4.1-2.2,7.9-5.6,10c-1.7,1.1-3.6,1.7-5.5,1.9c-1,0.1-1.9,0.1-2.9,0.1l-2.8,0
			l-11.2-0.1L31.8,54C31.8,54,31.8,54,31.8,53.9C31.8,53.9,31.8,53.9,31.8,53.9z"/>
	</g>
	<g>
		<path class="st0" d="M167,68.3l11.5-0.4l11.5-0.3c3.8-0.1,7.6-0.4,11.5-0.2c3.8,0.1,7.6,0.3,11.5,0.9c0.1,0,0.1,0.1,0.1,0.1
			c0,0,0,0.1-0.1,0.1c-3.8,0.6-7.6,0.8-11.5,0.9c-3.8,0.2-7.6-0.1-11.5-0.2l-11.5-0.3L167,68.5C167,68.5,166.9,68.4,167,68.3
			C166.9,68.3,167,68.3,167,68.3z"/>
	</g>
	<g>
		<path class="st0" d="M62.7,68.4c1.9-0.2,3.8-0.3,5.7-0.4l5.7-0.3c1.9-0.1,3.8-0.4,5.7-0.2c1.9,0.1,3.8,0.3,5.7,0.9
			c0.1,0,0.1,0.1,0.1,0.1c0,0,0,0.1-0.1,0.1c-1.9,0.6-3.8,0.8-5.7,0.9c-1.9,0.2-3.8-0.1-5.7-0.2L68.5,69c-1.9-0.1-3.8-0.2-5.7-0.4
			C62.7,68.6,62.6,68.5,62.7,68.4C62.7,68.4,62.7,68.4,62.7,68.4z"/>
	</g>
	<g>
		<g>
			<line class="st5" x1="108" y1="34" x2="144.7" y2="34"/>
			<line class="st5" x1="108" y1="41.9" x2="126.6" y2="41.9"/>
			<line class="st5" x1="108" y1="49.7" x2="126.4" y2="49.7"/>
			<line class="st5" x1="108" y1="57.5" x2="126.6" y2="57.5"/>
		</g>
		<g>
			<path class="st6" d="M140.5,42.8l-1.7,6.5l-6.5-1.7C133.2,43.9,136.9,41.8,140.5,42.8z"/>
		</g>
		<g>
			<path class="st7" d="M140.5,42.8c1.5,0.4,2.8,1.3,3.6,2.5l-5.4,4L140.5,42.8z"/>
		</g>
		<g>
			<g>
				<path class="st0" d="M146.4,50.7c0.3-2-0.2-4.1-1.5-5.7c-1.2-1.6-3.1-2.6-5.1-2.9c-2-0.3-4,0.3-5.5,1.5c-1.6,1.2-2.6,3-2.8,4.9
					c-0.3,1.9,0.3,3.9,1.5,5.4c1.2,1.5,2.9,2.6,4.8,2.8c1.9,0.3,3.9-0.1,5.5-1.2c0.8-0.6,1.5-1.3,2.1-2.1
					C145.9,52.7,146.2,51.7,146.4,50.7z M146.5,50.8c-0.2,2-1.3,4-2.9,5.3c-0.8,0.7-1.8,1.2-2.8,1.5c-1,0.3-2.1,0.4-3.2,0.3
					c-2.2-0.3-4.2-1.5-5.4-3.2c-1.3-1.7-1.8-4-1.5-6.1c0.3-2.1,1.5-4.1,3.2-5.3c1.7-1.3,3.9-1.8,6-1.5c2.1,0.3,4,1.5,5.2,3.2
					C146.3,46.6,146.8,48.7,146.5,50.8z"/>
			</g>
		</g>
	</g>
	<g>
		<path class="st0" d="M73.3,72.3l26.6-0.4l26.6-0.3c8.9-0.1,17.8-0.3,26.6-0.2c8.9,0.2,17.8,0.3,26.6,0.9c0.1,0,0.1,0.1,0.1,0.1
			c0,0.1,0,0.1-0.1,0.1c-8.9,0.6-17.8,0.7-26.6,0.9c-8.9,0.1-17.8-0.1-26.6-0.2L100,72.9l-26.6-0.4C73.3,72.5,73.3,72.5,73.3,72.3
			C73.3,72.4,73.3,72.3,73.3,72.3z"/>
	</g>
</g>
</svg>
