<?xml version="1.0" encoding="utf-8"?>
<!-- Generator: Adobe Illustrator 21.0.0, SVG Export Plug-In . SVG Version: 6.00 Build 0)  -->
<svg version="1.1" id="Layer_1" xmlns="http://www.w3.org/2000/svg" xmlns:xlink="http://www.w3.org/1999/xlink" x="0px" y="0px"
	 viewBox="0 0 93.9 90" style="enable-background:new 0 0 93.9 90;" xml:space="preserve">
<style type="text/css">
	.st0{fill:#FFFFFF;}
	.st1{fill:#8E94AA;}
	.st2{fill:#FFFFFF;stroke:#8E94AA;stroke-width:2;stroke-linecap:round;stroke-linejoin:round;stroke-miterlimit:10;}
	.st3{fill:#FFFFFF;stroke:#99C6FF;stroke-width:1.5;stroke-linecap:round;stroke-linejoin:round;stroke-miterlimit:10;}
	.st4{fill:#99C6FF;}
	.st5{fill:#C2DDFF;}
	.st6{fill:none;stroke:#8E94AA;stroke-width:1.5;stroke-linecap:round;stroke-linejoin:round;stroke-miterlimit:10;}
</style>
<g>
	<g>
		<g>
			<polygon class="st0" points="73.4,7.4 25,7.4 25,81 88.2,81 88.2,22.1 			"/>
			<path class="st1" d="M73.4,7.5L25,7.8l0.4-0.4L25.8,81L25,80.3l31.6-0.2L72.4,80l15.8,0l-1,1l0-14.7l0.1-14.7
				c0.1-9.8,0.2-19.6,0.3-29.5l0.2,0.4c-2.4-2.5-4.8-5-7.2-7.5L73.4,7.5z M73.5,7.3l7.5,7.2c2.5,2.4,5,4.8,7.5,7.3
				c0.1,0.1,0.1,0.2,0.2,0.4l0,0c0.1,9.8,0.3,19.6,0.3,29.5l0.1,14.7l0,14.7c0,0.6-0.5,1-1,1h0l-15.8,0L56.6,82L25,81.8l0,0
				c-0.4,0-0.7-0.3-0.7-0.8l0.4-73.7C24.6,7.2,24.8,7,25,7l0,0L73.5,7.3z"/>
		</g>
	</g>
	<g>
		<polygon class="st2" points="66.6,12 18.1,12 18.1,85.6 81.3,85.6 81.3,26.7 		"/>
	</g>
	<g>
		<g>
			<line class="st3" x1="30.8" y1="31.7" x2="67.5" y2="31.7"/>
			<line class="st3" x1="30.8" y1="39.6" x2="49.4" y2="39.6"/>
			<line class="st3" x1="30.8" y1="47.4" x2="49.1" y2="47.4"/>
			<line class="st3" x1="30.8" y1="55.2" x2="49.4" y2="55.2"/>
		</g>
		<g>
			<path class="st4" d="M63.2,40.5L61.5,47L55,45.2C55.9,41.6,59.6,39.5,63.2,40.5z"/>
		</g>
		<g>
			<path class="st5" d="M63.2,40.5c1.5,0.4,2.8,1.3,3.6,2.5l-5.4,4L63.2,40.5z"/>
		</g>
		<g>
			<g>
				<path class="st1" d="M69.2,48.5c0.3-2-0.2-4.1-1.5-5.7c-1.2-1.6-3.1-2.6-5.1-2.9c-2-0.3-4,0.3-5.5,1.5c-1.6,1.2-2.6,3-2.8,4.9
					c-0.3,1.9,0.3,3.9,1.5,5.4c1.2,1.5,2.9,2.6,4.8,2.8c1.9,0.3,3.9-0.1,5.5-1.2c0.8-0.6,1.5-1.3,2.1-2.1
					C68.6,50.4,69,49.4,69.2,48.5z M69.3,48.5c-0.2,2-1.3,4-2.9,5.3c-0.8,0.7-1.8,1.2-2.8,1.5c-1,0.3-2.1,0.4-3.2,0.3
					c-2.2-0.3-4.2-1.5-5.4-3.2c-1.3-1.7-1.8-4-1.5-6.1c0.3-2.1,1.5-4.1,3.2-5.3c1.7-1.3,3.9-1.8,6-1.5c2.1,0.3,4,1.5,5.2,3.2
					C69,44.3,69.6,46.4,69.3,48.5z"/>
			</g>
		</g>
	</g>
	<g>
		
			<ellipse transform="matrix(0.2839 -0.9589 0.9589 0.2839 -14.7046 126.539)" class="st0" cx="77.4" cy="73.1" rx="15.8" ry="15.8"/>
		<path class="st1" d="M62.1,68.6c0.6-2,1.6-3.9,2.9-5.5c1.3-1.6,2.9-3,4.7-4.1c1.8-1,3.9-1.7,6-2c2.1-0.3,4.3-0.1,6.3,0.5
			c4.1,1.2,7.8,4,9.8,7.8c2.1,3.8,2.7,8.4,1.5,12.6c-1.2,4.2-4.1,7.9-7.9,10.1c-1.9,1.1-4.1,1.8-6.3,2c-2.2,0.2-4.4,0-6.5-0.6
			c-2.1-0.7-4.1-1.7-5.7-3.2c-1.6-1.4-3-3.2-3.9-5.1C61.1,77.1,60.9,72.6,62.1,68.6z M62.3,68.6c-0.6,2-0.7,4.1-0.4,6.1
			c0.3,2,1,4,2.1,5.7c2.1,3.4,5.5,5.9,9.2,6.9c3.7,1.1,7.9,0.6,11.3-1.2c3.5-1.8,6.2-5,7.3-8.8c1.2-3.8,0.8-8-1.1-11.5
			c-1.8-3.5-5.1-6.3-9-7.5c-3.8-1.2-8.2-0.9-11.8,1c-1.8,0.9-3.5,2.2-4.8,3.8C63.8,64.8,62.9,66.7,62.3,68.6z"/>
	</g>
	<polygon class="st6" points="69.9,65.6 74,80.9 77.3,75.9 82.1,80.7 84.9,77.9 80.1,73 85.1,69.7 	"/>
	<g>
		<g id="XMLID_19_">
			<path class="st1" d="M3.6,4.1C3.8,5.3,3.9,6.4,4,7.6c0,0.6,0.2,1.2,0.1,1.8C4,10,3.9,10.5,3.6,11.1c0,0,0,0-0.1,0c0,0,0,0,0,0
				C3.2,10.5,3.1,10,3.1,9.4C3,8.8,3.1,8.2,3.2,7.6c0.1-1.2,0.2-2.4,0.3-3.5C3.5,4.1,3.5,4,3.6,4.1C3.6,4,3.6,4.1,3.6,4.1z"/>
		</g>
		<g id="XMLID_17_">
			<path class="st1" d="M7.1,7.7C5.9,7.8,4.7,7.9,3.6,8C3,8.1,2.4,8.2,1.8,8.1C1.2,8,0.6,7.9,0,7.7c0,0,0,0,0-0.1c0,0,0,0,0,0
				c0.6-0.3,1.2-0.4,1.8-0.5C2.4,7,3,7.2,3.6,7.2c1.2,0.1,2.4,0.2,3.5,0.4C7.1,7.6,7.1,7.6,7.1,7.7C7.1,7.6,7.1,7.7,7.1,7.7z"/>
		</g>
	</g>
	<g id="XMLID_15_">
		<path class="st1" d="M18.1,2.3c0,0.5-0.2,1-0.5,1.3c-0.3,0.4-0.8,0.7-1.3,0.7c-1.1,0.1-2.2-0.9-2.2-2.1c0-0.6,0.2-1.2,0.6-1.6
			C15,0.2,15.6,0,16.2,0c0.6,0,1.2,0.4,1.5,0.8C18,1.3,18.1,1.8,18.1,2.3z M18,2.3c0-0.5-0.3-0.9-0.7-1.1C16.9,1,16.6,1,16.2,1
			c-0.7,0-1.3,0.5-1.4,1.3c-0.1,0.7,0.6,1.5,1.4,1.6c0.4,0,0.8-0.1,1.2-0.4C17.8,3.2,18,2.8,18,2.3z"/>
	</g>
	<g id="XMLID_13_">
		<path class="st1" d="M12.6,18.7c0,0.7-0.3,1.4-0.8,2c-0.5,0.6-1.2,0.9-2,1c-0.8,0-1.5-0.3-2.1-0.8c-0.6-0.5-0.9-1.3-1-2.1
			c0-0.8,0.3-1.6,0.8-2.2c0.6-0.6,1.4-1,2.2-0.9c0.8,0,1.6,0.5,2.1,1.1C12.4,17.3,12.6,18,12.6,18.7z M12.5,18.7
			c0-0.7-0.4-1.3-0.9-1.7c-0.5-0.4-1.1-0.5-1.7-0.5c-1.1,0-2.2,0.9-2.3,2.2c-0.1,1.2,1,2.4,2.3,2.4c0.6,0,1.3-0.2,1.8-0.6
			C12.2,20.1,12.5,19.4,12.5,18.7z"/>
	</g>
</g>
</svg>
