<?xml version="1.0" encoding="utf-8"?>
<!-- Generator: Adobe Illustrator 21.0.0, SVG Export Plug-In . SVG Version: 6.00 Build 0)  -->
<svg version="1.1" id="Layer_1" xmlns="http://www.w3.org/2000/svg" xmlns:xlink="http://www.w3.org/1999/xlink" x="0px" y="0px"
	 viewBox="0 0 362.9 242.3" style="enable-background:new 0 0 362.9 242.3;" xml:space="preserve">
<style type="text/css">
	.st0{fill:#8E94AA;}
	.st1{fill:#FFFFFF;}
	.st2{fill:#B7DFB9;}
	.st3{fill:#FFFFFF;stroke:#8E94AA;stroke-width:3;stroke-linecap:round;stroke-linejoin:round;stroke-miterlimit:10;}
	.st4{fill:#FFFFFF;stroke:#B7DFB9;stroke-width:3;stroke-linecap:round;stroke-linejoin:round;stroke-miterlimit:10;}
	.st5{fill:#FFD69A;}
	.st6{fill:#FFFFFF;stroke:#BCADDB;stroke-width:3;stroke-linecap:round;stroke-linejoin:round;stroke-miterlimit:10;}
	.st7{fill:#BCADDB;}
	.st8{fill:#D7CEE9;}
	.st9{fill:#FBB4AF;}
	.st10{opacity:0.4;}
	.st11{fill:#99C6FF;}
	.st12{opacity:0.8;}
	.st13{opacity:0.6;}
	.st14{fill:#FFFFFF;stroke:#99C6FF;stroke-width:3;stroke-linecap:round;stroke-linejoin:round;stroke-miterlimit:10;}
</style>
<g>
	<g>
		<g>
			<g id="XMLID_384_">
				<path class="st0" d="M338.3,100.5c0.2,1,0.3,2,0.4,3c0.1,1,0.2,2,0.3,3c0.1,1,0.3,2,0.2,3c-0.1,1-0.3,2-0.9,3
					c0,0.1-0.1,0.1-0.2,0c0,0,0,0,0,0c-0.6-1-0.8-2-0.9-3c-0.1-1,0.1-2,0.2-3c0.1-1,0.2-2,0.3-3c0.1-1,0.2-2,0.4-3
					C338.1,100.4,338.1,100.4,338.3,100.5C338.2,100.4,338.3,100.5,338.3,100.5z"/>
			</g>
			<g id="XMLID_383_">
				<path class="st0" d="M344.2,106.6c-1,0.2-2,0.3-3,0.4c-1,0.1-2,0.2-3,0.3c-1,0.1-2,0.3-3,0.2c-1-0.1-2-0.3-3-0.9
					c-0.1,0-0.1-0.1,0-0.2c0,0,0,0,0,0c1-0.6,2-0.8,3-0.9c1-0.1,2,0.1,3,0.2c1,0.1,2,0.2,3,0.3c1,0.1,2,0.2,3,0.4
					C344.2,106.4,344.3,106.5,344.2,106.6C344.2,106.6,344.2,106.6,344.2,106.6z"/>
			</g>
		</g>
		<g>
			<g id="XMLID_377_">
				<path class="st0" d="M32.6,104.9c0.2,0.9,0.3,1.9,0.4,2.8c0.1,0.9,0.2,1.9,0.3,2.8c0.1,0.9,0.3,1.9,0.2,2.8
					c-0.1,0.9-0.3,1.9-0.9,2.8c0,0.1-0.1,0.1-0.2,0c0,0,0,0,0,0c-0.6-0.9-0.8-1.9-0.9-2.8c-0.1-0.9,0.1-1.9,0.2-2.8
					c0.1-0.9,0.2-1.9,0.3-2.8c0.1-0.9,0.2-1.9,0.4-2.8C32.4,104.9,32.4,104.8,32.6,104.9C32.5,104.8,32.6,104.9,32.6,104.9z"/>
			</g>
			<g id="XMLID_379_">
				<path class="st0" d="M38,110.6c-0.9,0.2-1.9,0.3-2.8,0.4c-0.9,0.1-1.9,0.2-2.8,0.3c-0.9,0.1-1.9,0.3-2.8,0.2
					c-0.9-0.1-1.9-0.3-2.8-0.9c-0.1,0-0.1-0.1,0-0.2c0,0,0,0,0,0c0.9-0.6,1.9-0.8,2.8-0.9c0.9-0.1,1.9,0.1,2.8,0.2
					c0.9,0.1,1.9,0.2,2.8,0.3c0.9,0.1,1.9,0.2,2.8,0.4C38.1,110.4,38.1,110.5,38,110.6C38.1,110.6,38.1,110.6,38,110.6z"/>
			</g>
		</g>
		<g id="XMLID_432_">
			<path class="st0" d="M7.5,106c-0.6,0.2-1.2,0.3-1.9,0.4c-0.6,0.1-1.2,0.2-1.9,0.3c-0.6,0.1-1.2,0.3-1.9,0.2
				c-0.6-0.1-1.2-0.3-1.9-0.9c-0.1,0-0.1-0.1,0-0.2c0,0,0,0,0,0c0.6-0.6,1.2-0.8,1.9-0.9c0.6-0.1,1.2,0.1,1.9,0.2
				c0.6,0.1,1.2,0.2,1.9,0.3c0.6,0.1,1.2,0.2,1.9,0.4C7.6,105.8,7.6,105.9,7.5,106C7.6,106,7.6,106,7.5,106z"/>
		</g>
		<g id="XMLID_434_">
			<path class="st0" d="M26,80c0,0.9-0.4,1.8-1,2.6c-0.6,0.8-1.5,1.3-2.6,1.4c-1,0.1-2.1-0.3-2.9-1c-0.8-0.7-1.3-1.8-1.3-2.9
				c-0.1-1.1,0.3-2.3,1.1-3.1c0.8-0.9,2-1.4,3.1-1.3c1.2,0,2.2,0.7,2.8,1.6C25.8,78.1,26,79,26,80z M25.8,80c0-0.9-0.6-1.7-1.3-2
				c-0.7-0.4-1.4-0.4-2-0.4c-0.6,0.1-1.2,0.3-1.7,0.7c-0.5,0.4-0.9,1-0.9,1.7c-0.1,0.7,0.2,1.4,0.7,2c0.5,0.6,1.2,0.9,2,1
				c0.8,0.1,1.6-0.1,2.3-0.7C25.4,81.7,25.8,80.8,25.8,80z"/>
		</g>
		<g id="XMLID_436_">
			<path class="st0" d="M362.9,97.5c0,0.8-0.3,1.6-0.8,2.3c-0.5,0.7-1.4,1.2-2.3,1.2c-0.9,0.1-1.9-0.3-2.6-0.9
				c-0.7-0.6-1.2-1.6-1.2-2.6c-0.1-1,0.3-2.1,1-2.9c0.7-0.8,1.8-1.3,2.9-1.2c1.1,0,2,0.7,2.5,1.5C362.8,95.8,362.9,96.7,362.9,97.5z
				 M362.7,97.5c0-0.8-0.5-1.5-1.2-1.8c-0.6-0.3-1.3-0.3-1.8-0.3c-0.5,0.1-1,0.3-1.5,0.6c-0.4,0.3-0.7,0.9-0.8,1.5
				c-0.1,1.2,0.9,2.5,2.3,2.6c0.7,0.1,1.4-0.1,2-0.5C362.4,99,362.7,98.3,362.7,97.5z"/>
		</g>
		<g id="XMLID_438_">
			<path class="st0" d="M353.6,125.4c0,1.2-0.5,2.4-1.3,3.4c-0.8,1-2,1.6-3.4,1.7c-1.3,0.1-2.7-0.4-3.7-1.4c-1-0.9-1.6-2.3-1.7-3.7
				c-0.1-1.4,0.5-2.8,1.4-3.9c1-1.1,2.5-1.7,3.9-1.6c1.5,0,2.8,0.9,3.6,1.9C353.3,122.9,353.6,124.2,353.6,125.4z M353.4,125.4
				c0-1.2-0.7-2.3-1.6-2.8c-0.9-0.6-1.9-0.8-2.8-0.7c-0.9,0.1-1.8,0.4-2.5,1c-0.7,0.6-1.2,1.5-1.2,2.5c-0.1,1,0.3,2,1,2.7
				c0.7,0.8,1.7,1.2,2.7,1.3c1.1,0.1,2.2-0.2,3.1-1C352.9,127.8,353.4,126.6,353.4,125.4z"/>
		</g>
		<g>
			<g>
				<g>
					<g>
						<polygon class="st1" points="110.1,21.1 45,38.5 71.5,137.6 156.4,114.8 135.2,35.6 						"/>
						<path class="st2" d="M110.1,21.2l-65,17.7l0.3-0.5l26.9,99l-0.9-0.5l42.4-11.5l21.2-5.8l21.2-5.7l-0.7,1.2l-5.3-19.8L145,75.4
							c-3.5-13.2-6.9-26.5-10.3-39.7l0.2,0.3l-12.4-7.4L110.1,21.2z M110.1,21l12.6,7l12.7,7.1c0.1,0.1,0.2,0.2,0.2,0.3l0,0
							c3.7,13.2,7.4,26.3,11,39.5l5.4,19.8l5.3,19.8c0.1,0.5-0.2,1.1-0.7,1.2l0,0l-21.2,5.7l-21.2,5.6l-42.5,11.2l0,0
							c-0.4,0.1-0.8-0.1-0.9-0.5L44.6,38.6c-0.1-0.2,0.1-0.4,0.3-0.5l0,0L110.1,21z"/>
					</g>
				</g>
				<g>
					<polygon class="st3" points="102.5,29.7 37.4,47.2 63.9,146.2 148.8,123.5 127.6,44.2 					"/>
				</g>
				<g>
					<line class="st4" x1="62.1" y1="68.7" x2="111" y2="55.6"/>
					<line class="st4" x1="64.9" y1="79.2" x2="113.8" y2="66.1"/>
					<line class="st4" x1="67.7" y1="89.6" x2="92.1" y2="83.1"/>
					<line class="st4" x1="70.5" y1="100.1" x2="119.4" y2="87"/>
				</g>
			</g>
			<g>
				<g>
					<rect x="143.1" y="1.1" class="st1" width="102.2" height="88.1"/>
					<g>
						<path class="st5" d="M245.3,89.2l-102.3,0.5c-0.3,0-0.5-0.2-0.5-0.5v0l-0.3-88.1c0-0.4,0.4-0.8,0.8-0.8l0,0l25.6-0.2L194.2,0
							l25.6,0l25.6,0.1l0,0c0.5,0,1,0.4,1,1v0c-0.1,14.8-0.2,29.6-0.3,44.3L245.3,89.2z M245.2,89.1l-0.5-44.2
							c-0.2-14.7-0.2-29.2-0.3-43.8l1,1l-25.6,0.1l-25.6,0L168.6,2l-25.6-0.2l0.8-0.8l-0.3,88.1l-0.5-0.5L245.2,89.1z"/>
					</g>
				</g>
				<rect x="133.5" y="7.4" class="st3" width="102.2" height="88.1"/>
				<g>
					<g>
						<path class="st5" d="M217.6,46.1c-0.8,9.1-10.3,17.2-21.2,18.1c-10.8,0.9-18.9-7.2-18-18c0.9-10.9,10.4-19,21.2-18.1
							C210.4,29,218.5,37,217.6,46.1z"/>
					</g>
					<g>
						<path class="st0" d="M141.5,67.6c0.9-1.9,2.2-3.6,3.8-5c1.6-1.4,3.6-2.3,5.6-2.8c2.1-0.5,4.2-0.5,6.3,0
							c2.1,0.5,4.1,1.4,5.7,2.8l-0.6,0.2c1.3-3.5,3.7-6.6,6.8-8.8c3.1-2.2,6.8-3.5,10.6-3.6c3.8-0.1,7.6,0.9,10.8,3
							c3.2,2,5.8,5,7.4,8.6l-0.9-0.5c3.2-0.7,6.6-0.2,9.5,1.4c2.9,1.6,5.1,4.3,6.2,7.4c0.2,0.5-0.1,1.1-0.6,1.2
							c-0.1,0-0.2,0.1-0.3,0.1l0,0c-4.6,0-9.1,0.1-13.7,0c-4.6,0-9.1-0.1-13.7-0.2l-6.8-0.1l-6.8-0.2c-4.6-0.1-9.1-0.3-13.7-0.5
							c-0.1,0-0.1,0-0.1-0.1c0-0.1,0-0.1,0.1-0.1c4.6-0.2,9.1-0.4,13.7-0.5l6.8-0.2l6.8-0.1c4.6-0.1,9.1-0.2,13.7-0.2
							c4.6,0,9.1,0,13.7,0l-0.9,1.3c-0.9-2.7-2.8-5.1-5.2-6.5c-1.2-0.7-2.6-1.2-4-1.5c-1.4-0.2-2.9-0.2-4.3,0.1l0,0
							c-0.4,0.1-0.7-0.1-0.9-0.5c-1.4-3.2-3.7-6.1-6.7-8c-3-2-6.5-3-10.1-2.9c-3.6,0-7.1,1.1-10.1,3.2c-3,2-5.3,4.9-6.6,8.3l0,0
							c-0.1,0.2-0.3,0.3-0.5,0.2c0,0-0.1,0-0.1-0.1c-1.6-1.3-3.4-2.3-5.4-2.7c-2-0.5-4.1-0.5-6.1-0.1c-2,0.4-3.9,1.3-5.5,2.6
							c-1.6,1.3-2.9,2.9-3.9,4.8c0,0-0.1,0.1-0.1,0C141.5,67.7,141.4,67.6,141.5,67.6z"/>
					</g>
				</g>
			</g>
			<g>
				<g>
					<polygon class="st3" points="315.1,39.1 249.8,21.6 223.2,120.9 308.3,143.7 329.6,64.2 					"/>
				</g>
				<line class="st6" x1="245" y1="111.7" x2="269.5" y2="118.2"/>
				<line class="st6" x1="247.8" y1="101.2" x2="296.8" y2="114.3"/>
				<g>
					<path class="st7" d="M287.8,48.1l-6.1,22.7L259,64.7C262.4,52.2,275.3,44.8,287.8,48.1z"/>
				</g>
				<g>
					<path class="st8" d="M287.8,48.1c5.3,1.4,9.7,4.5,12.7,8.6l-18.8,14.1L287.8,48.1z"/>
				</g>
				<g>
					<g>
						<path class="st0" d="M308.5,76c0.5-3.5,0.3-7.1-0.6-10.5c-0.9-3.4-2.5-6.6-4.6-9.4c-4.3-5.6-10.8-9.3-17.7-10.2
							c-6.9-1-14.1,1-19.6,5.1c-5.5,4.2-9.3,10.6-10.2,17.4c-1,6.8,1,13.9,5.1,19.4c4.1,5.5,10.4,9.2,17.2,10.2
							c6.7,1.1,13.9-0.6,19.6-4.5c2.8-2,5.3-4.6,7.2-7.6C306.7,82.8,308,79.5,308.5,76z M308.7,76c-0.9,7.1-4.7,13.7-10.3,18.2
							c-2.8,2.2-6.1,3.9-9.6,4.9c-3.5,1-7.2,1.2-10.9,0.8c-3.6-0.5-7.2-1.7-10.3-3.6c-3.2-1.9-5.9-4.4-8.1-7.4
							c-4.4-5.9-6.3-13.6-5.1-20.8c1.1-7.2,5.1-13.9,11-18.2c5.8-4.3,13.4-6.2,20.5-5.1c7.1,1.1,13.7,5.1,17.9,10.9
							c2.1,2.9,3.7,6.2,4.5,9.6C309.1,68.9,309.2,72.5,308.7,76z"/>
					</g>
				</g>
			</g>
			<g>
				
					<rect x="248.5" y="127.5" transform="matrix(0.9659 0.2588 -0.2588 0.9659 51.2595 -68.7174)" class="st3" width="76.2" height="65.7"/>
				<g>
					<path class="st0" d="M294.1,159.8c1.2,0.3,2.5,0.4,3.8,0.3c1.3-0.2,2.5-0.7,3.5-1.3c2.1-1.4,3.7-3.5,4.2-5.9
						c0.6-2.4,0.2-5-1.1-7c-1.2-2.1-3.3-3.6-5.6-4.1c-2.3-0.6-4.8-0.2-6.8,1.1c-1,0.6-1.9,1.4-2.6,2.3c-0.7,0.9-1.2,2-1.6,3.1
						c-0.6,2.2-0.6,4.7,0.5,6.9c0.5,1.1,1.3,2.1,2.2,3C291.7,158.8,292.9,159.4,294.1,159.8z M294.1,160c-2.5-0.6-4.9-2.2-6.4-4.4
						c-0.8-1.1-1.3-2.4-1.6-3.8c-0.3-1.4-0.2-2.8,0.1-4.2c0.4-1.4,1-2.7,1.8-3.8c0.9-1.1,2-2.1,3.2-2.8c2.5-1.4,5.5-1.7,8.2-0.9
						c2.7,0.8,5,2.6,6.3,5c1.3,2.4,1.7,5.3,0.9,7.9c-0.8,2.6-2.6,4.8-5,6C299.3,160.3,296.6,160.6,294.1,160z"/>
				</g>
				<g>
					<path class="st0" d="M293.2,163.1c-2.7-0.7-5.5-0.9-8.2-0.5c-2.7,0.4-5.4,1.4-7.7,2.8c-4.7,2.9-8.1,7.5-9.5,12.8l-0.4-0.7
						l20.6,5.3c6.9,1.7,13.7,3.4,20.6,5.3l-1.3,0.7c0.7-2.6,0.9-5.2,0.6-7.9c-0.3-2.6-1.1-5.2-2.3-7.6c-1.2-2.4-3-4.6-5.1-6.3
						C298.4,165.1,295.9,163.8,293.2,163.1z M293.3,162.9c2.7,0.7,5.3,1.9,7.6,3.5c2.3,1.6,4.3,3.7,5.9,6.1c1.5,2.4,2.6,5.2,3,8
						c0.5,2.9,0.2,5.8-0.5,8.7c-0.1,0.5-0.7,0.9-1.2,0.7l0,0l0,0c-6.8-1.8-13.6-3.8-20.4-5.7l-20.4-5.7l0,0
						c-0.3-0.1-0.5-0.4-0.4-0.7l0,0c0.8-2.7,2.1-5.3,3.8-7.6c1.8-2.2,4-4.1,6.4-5.4C282,162.2,287.9,161.4,293.3,162.9z"/>
				</g>
				<path class="st9" d="M292.9,164.4c-9.7-2.6-19.7,3.2-22.3,12.9l35.1,9.4C308.3,177,302.6,167,292.9,164.4z"/>
			</g>
			<g>
				<rect x="80.7" y="87.4" class="st3" width="203.1" height="135.7"/>
				<g>
					<polygon class="st1" points="46.1,234.3 318.5,234.3 320.4,223.1 44.1,223.1 					"/>
					<path class="st0" d="M46.2,234.2l272.3-1l-1.1,1l1.9-11.2l1.2,1.4l-69.1,0.3l-34.5,0.1l-34.5,0l-69.1-0.4
						c-23-0.2-46.1-0.4-69.1-0.8l0.3-0.4L46.2,234.2z M46,234.4l-2.2-11.3c0-0.2,0.1-0.3,0.2-0.4l0.1,0l0,0
						c23-0.4,46.1-0.6,69.1-0.8l69.1-0.4l34.5,0l34.5,0.1l69.1,0.3l0,0c0.7,0,1.2,0.5,1.2,1.2c0,0.1,0,0.1,0,0.2l-2,11.2l0,0
						c-0.1,0.6-0.6,1-1.1,1L46,234.4z"/>
				</g>
				<polygon class="st3" points="163.7,228.7 200.9,228.7 202.8,223.1 161.7,223.1 				"/>
				<g>
					<rect x="88.3" y="95" class="st1" width="188" height="128.1"/>
					<path class="st0" d="M88.2,94.9l188.1-0.7c0.5,0,0.8,0.4,0.8,0.8v0v0l0.4,128.1c0,0.7-0.5,1.2-1.2,1.2l0,0l-47,0.3l-47,0.1
						l-47-0.1l-47-0.2l0,0c-0.7,0-1.3-0.6-1.3-1.3v0l0.2-32.3l0.3-32.2L88.2,94.9z M88.4,95.1l0.7,64.3l0.3,31.9l0.2,31.8l-1.3-1.3
						l47-0.2l47-0.1l47,0.1l47,0.3l-1.2,1.2L275.5,95l0.8,0.8L88.4,95.1z"/>
				</g>
				<g>
					<g class="st10">
						<rect x="174.4" y="147.2" class="st11" width="15.8" height="1.6"/>
					</g>
					<g class="st12">
						<rect x="171.2" y="151.3" class="st11" width="22.2" height="1.6"/>
					</g>
					<g class="st13">
						<rect x="172.8" y="149.2" class="st11" width="19" height="1.6"/>
					</g>
					<path class="st11" d="M170.4,153.4v17.5h23.8v-17.5H170.4z M186.2,162.1v-0.8h1.6v2.4h-11.1v-2.4h1.6v0.8H186.2z"/>
				</g>
			</g>
			<g>
				<g>
					
						<rect x="41.6" y="145.6" transform="matrix(0.9659 -0.2588 0.2588 0.9659 -41.9885 26.8351)" class="st1" width="78.6" height="54.7"/>
					<g>
						<path class="st0" d="M126.1,189.2l-75.9,21.1c-0.4,0.1-0.9-0.1-1-0.6l0,0l0,0L34.7,157c-0.2-0.6,0.2-1.3,0.8-1.5l0,0
							c12.6-3.7,25.2-7.1,37.9-10.6l19-5c6.3-1.7,12.7-3.3,19-4.9l0,0c0.7-0.2,1.4,0.2,1.6,1l0,0l3.4,13.5c1.1,4.5,2.2,9,3.3,13.4
							l3.2,13.3L126.1,189.2z M125.8,189l-7.9-26.4c-1.3-4.4-2.6-8.7-3.8-13l-3.7-12.9l1.7,1c-6.3,1.8-12.6,3.6-18.9,5.3l-19,5.2
							c-12.7,3.3-25.3,6.7-38.1,9.8l0.8-1.5l13.8,52.9l-1-0.6L125.8,189z"/>
					</g>
				</g>
				<polygon class="st3" points="83.6,119.1 32.7,132.7 38.9,155.9 77.6,160.3 108.8,137.1 107.7,133 				"/>
				<line class="st14" x1="52.6" y1="140.4" x2="69.4" y2="135.9"/>
				<line class="st14" x1="54.7" y1="148.1" x2="88.2" y2="139.1"/>
			</g>
		</g>
	</g>
	<g>
		<path class="st0" d="M0.1,241.2l181.3-0.7l45.3-0.2l45.3,0c30.2,0.2,60.4,0.3,90.7,0.9c0.1,0,0.1,0,0.1,0.1c0,0.1,0,0.1-0.1,0.1
			c-30.2,0.6-60.4,0.7-90.7,0.9l-45.3,0l-45.3-0.2L0.1,241.4C0,241.4,0,241.3,0.1,241.2C0,241.2,0,241.2,0.1,241.2z"/>
	</g>
</g>
</svg>
