<?xml version="1.0" encoding="utf-8"?>
<!-- Generator: Adobe Illustrator 21.0.0, SVG Export Plug-In . SVG Version: 6.00 Build 0)  -->
<svg version="1.1" id="Layer_1" xmlns="http://www.w3.org/2000/svg" xmlns:xlink="http://www.w3.org/1999/xlink" x="0px" y="0px"
	 viewBox="0 0 368.8 267.7" style="enable-background:new 0 0 368.8 267.7;" xml:space="preserve">
<style type="text/css">
	.st0{fill:#B3EBB9;}
	.st1{fill:#FFD69A;}
	.st2{fill:#99C6FF;}
	.st3{fill:#8E94AA;}
	.st4{fill:none;}
	.st5{fill:none;stroke:#8E94AA;stroke-width:2;stroke-linecap:round;stroke-linejoin:round;stroke-miterlimit:10;}
</style>
<g>
	<g>
		<path class="st0" d="M366.5,253c0,4.9-1.8,9.3-4.8,12.8h-29.3c0,0-0.1-0.1-0.1-0.1h8v-30.9c0.4-0.1,0.8-0.3,1.2-0.4
			c-0.6-1.3-1-2.7-1-4.2c0-5.2,4.2-9.4,9.4-9.4c5.2,0,9.4,4.2,9.4,9.4c0,2.4-0.9,4.5-2.3,6.1C362.6,239.6,366.5,245.8,366.5,253z"/>
		<path class="st0" d="M366.5,253c0,4.9-1.8,9.3-4.8,12.8h-29.3c0,0-0.1-0.1-0.1-0.1h8v-30.9c0.4-0.1,0.8-0.3,1.2-0.4
			c-0.6-1.3-1-2.7-1-4.2c0-5.2,4.2-9.4,9.4-9.4c5.2,0,9.4,4.2,9.4,9.4c0,2.4-0.9,4.5-2.3,6.1C362.6,239.6,366.5,245.8,366.5,253z"/>
	</g>
	<g>
		<path class="st1" d="M311.5,58.8c-1.1,12.2-13.8,23-28.4,24.2c-14.5,1.2-25.4-9.6-24.2-24.2s13.9-25.4,28.4-24.2
			C301.8,35.8,312.6,46.6,311.5,58.8z"/>
	</g>
	<path class="st0" d="M106.8,221.1v45.1H69c-3.5-3.1-5.7-7.7-5.7-12.7c0-9.4,7.7-17.1,17.1-17.1c1,0,2,0.1,3,0.3
		C87.4,227.6,96.3,221.2,106.8,221.1z"/>
	<g>
		<polygon class="st2" points="176.3,18.9 176.3,166.6 169,166.6 171.5,175.5 171.5,180.9 163.2,180.9 163.2,18.9 		"/>
	</g>
	<path class="st2" d="M130.4,18.9v162h-13.1V39.6l7.1,0c-0.7-0.6-1.5-1.2-2.3-1.7c-1.3-0.8-2.7-1.4-4.1-1.7
		c-0.2-0.1-0.5-0.1-0.7-0.2V18.9H130.4z"/>
	<g>
		<polygon class="st2" points="199.3,166.5 186.2,166.5 186.2,152.7 186.2,18.9 199.3,18.9 199.3,152.2 		"/>
	</g>
	<rect x="163.6" y="192.1" class="st2" width="8" height="12.8"/>
	<g>
		<path class="st3" d="M209.4,87.6c1.2-2.6,2.9-4.9,5.1-6.7c2.2-1.8,4.8-3.1,7.6-3.8c2.8-0.6,5.7-0.7,8.5-0.1
			c2.8,0.6,5.5,1.9,7.7,3.7l-0.9,0.2c1.7-4.7,4.9-8.9,9.1-11.9c4.1-3,9.2-4.7,14.3-4.8c5.1-0.2,10.3,1.2,14.6,4
			c4.3,2.7,7.9,6.8,10,11.5l-1.3-0.7c2.1-0.5,4.4-0.5,6.6-0.2c2.2,0.3,4.3,1,6.2,2.1c1.9,1.1,3.7,2.5,5.1,4.2
			c1.4,1.7,2.6,3.7,3.3,5.8c0.3,0.8-0.1,1.6-0.9,1.9c-0.2,0.1-0.3,0.1-0.5,0.1l0,0c-6.1,0-12.2,0.1-18.3,0.1
			c-6.1,0-12.2-0.1-18.3-0.2l-9.2-0.2l-9.2-0.3c-6.1-0.2-12.2-0.4-18.3-0.7c-0.1,0-0.1-0.1-0.1-0.2c0-0.1,0.1-0.1,0.1-0.1
			c6.1-0.3,12.2-0.6,18.3-0.7l9.2-0.3l9.2-0.2c6.1-0.1,12.2-0.2,18.3-0.2c6.1-0.1,12.2,0,18.3,0.1l-1.4,1.9
			c-0.6-1.8-1.5-3.5-2.7-4.9c-1.2-1.5-2.6-2.7-4.3-3.7c-1.6-1-3.4-1.6-5.3-1.9c-1.9-0.3-3.8-0.3-5.7,0.1l0,0
			c-0.6,0.1-1.1-0.2-1.3-0.7c-1.8-4.3-5-8.1-8.9-10.7c-3.9-2.6-8.7-4-13.4-3.9c-4.8,0-9.5,1.5-13.4,4.2c-3.9,2.7-7.1,6.6-8.9,11.1
			l0,0c-0.1,0.3-0.4,0.4-0.7,0.3c-0.1,0-0.1-0.1-0.2-0.1c-2.1-1.7-4.6-3-7.2-3.7c-2.6-0.7-5.4-0.7-8.1-0.1c-2.7,0.6-5.2,1.8-7.4,3.5
			c-2.2,1.7-3.9,3.9-5.2,6.4c0,0.1-0.1,0.1-0.2,0.1C209.4,87.7,209.3,87.6,209.4,87.6z"/>
	</g>
	<g>
		<path class="st3" d="M106.8,228.9c-3.4,0.8-6.6,2.3-9.2,4.6c-2.6,2.2-4.7,5.1-5.9,8.2c-0.2,0.4-0.6,0.6-1,0.6l-0.1,0
			c-0.7-0.1-1.4-0.2-2.1-0.1c-0.7,0.1-1.4,0.1-2.1,0.2c-1.4,0.2-2.7,0.7-3.9,1.4c-1.2,0.7-2.3,1.6-3.2,2.6c-0.9,1-1.7,2.2-2.2,3.4
			c-1.2,2.4-1.7,5.2-1.4,8c0.3,2.8,1.5,5.5,3.4,7.9c0.1,0.1,0,0.2,0,0.2c-0.1,0-0.1,0-0.2,0c-2.7-1.6-4.7-4.5-5.5-7.7
			c-0.5-1.6-0.5-3.3-0.4-5c0.1-1.7,0.6-3.3,1.4-4.9c0.8-1.5,1.8-2.9,3-4c1.2-1.1,2.6-2.1,4.1-2.8c1.5-0.7,3.1-1.2,4.7-1.3
			c0.8-0.1,1.6-0.1,2.5-0.1c0.8,0,1.6,0.2,2.4,0.3l-1.1,0.6c1.6-3.3,4-6.3,6.9-8.4c2.9-2.1,6.4-3.5,9.9-3.9c0.1,0,0.2,0,0.2,0.1
			C106.9,228.8,106.9,228.9,106.8,228.9z"/>
	</g>
	<g>
		<path class="st3" d="M171.5,265.9l-64.8,0.5c-0.4,0-0.7-0.3-0.7-0.7v0l0,0L105.3,153c-0.1-18.8-0.1-37.6,0.1-56.4l0.2-14.1
			l0.3-14.1c0.2-9.4,0.4-18.8,0.7-28.2c0-0.1,0.1-0.1,0.2-0.1c0.1,0,0.1,0.1,0.1,0.1c0.3,9.4,0.6,18.8,0.7,28.2l0.3,14.1l0.2,14.1
			c0.3,18.8,0.3,37.6,0.1,56.4l-0.8,112.8l-0.7-0.7l64.8,0.5c0.1,0,0.1,0.1,0.1,0.2C171.7,265.8,171.6,265.9,171.5,265.9z"/>
	</g>
	<g>
		<path class="st4" d="M208.8,166.5"/>
	</g>
	<g>
		<path class="st3" d="M106.6,32.3l-0.2-22.3c0-0.2,0.1-0.3,0.3-0.3l0,0l51-0.4l51-0.3c0.6,0,1.1,0.5,1.1,1.1l0,0l0.3,39.2l0.1,19.6
			c0.1,6.5,0,13.1,0,19.6c0,6.5-0.1,13.1-0.2,19.6l-0.2,19.6l-0.4,19.6c-0.2,6.5-0.3,13.1-0.6,19.6c0,0.1-0.1,0.1-0.2,0.1
			c-0.1,0-0.1-0.1-0.1-0.1c-0.2-6.5-0.4-13.1-0.6-19.6l-0.4-19.6l-0.2-19.6c-0.1-6.5-0.2-13.1-0.2-19.6c0-6.5,0-13.1,0-19.6
			l0.1-19.6l0.3-39.2l1.1,1.1l-51-0.3l-51-0.4l0.3-0.3l-0.2,22.3c0,0.1-0.1,0.1-0.2,0.1C106.7,32.4,106.6,32.4,106.6,32.3z"/>
	</g>
	<g>
		<path class="st3" d="M117.2,35.2l-0.1-16.3c0-0.1,0.1-0.2,0.2-0.2l13.1-0.1c0.1,0,0.2,0.1,0.2,0.2v0l0.6,162
			c0,0.5-0.4,0.9-0.9,0.9l0,0l-13.1,0.1c-0.5,0-0.9-0.4-0.9-0.9v0v0l-0.1-35.2c0-11.7,0-23.4,0.1-35.2c0.1-11.7,0.1-23.4,0.3-35.2
			c0.1-11.7,0.3-23.4,0.5-35.2c0-0.1,0-0.1,0.1-0.1c0.1,0,0.1,0,0.1,0.1c0.2,11.7,0.4,23.4,0.5,35.2c0.2,11.7,0.2,23.4,0.3,35.2
			c0.1,11.7,0.1,23.4,0.1,35.2l-0.1,35.2l-0.9-0.9l13.1,0.1l-0.9,0.9l0.6-162l0.2,0.2L117.3,19l0.2-0.2l-0.1,16.3
			C117.4,35.2,117.3,35.3,117.2,35.2C117.2,35.3,117.2,35.2,117.2,35.2z"/>
	</g>
	<g>
		<g>
			<rect x="140.2" y="18.9" class="st2" width="13.1" height="162"/>
			<path class="st3" d="M153.4,181l-13.2,0.1c-0.1,0-0.2-0.1-0.2-0.2v0l-0.6-162c0-0.4,0.4-0.8,0.8-0.8l0,0l13.1-0.1
				c0.5,0,0.9,0.4,0.9,0.9l0,0c0.1,6.8,0.1,13.6,0.1,20.3l0,20.4l-0.2,40.7l-0.3,40.5L153.4,181z M153.3,180.8l-0.5-40.8l-0.3-40.5
				l-0.2-40.3l0-20.1c0-6.7,0-13.4,0.1-20.2l0.9,0.9l-13.1-0.1l0.8-0.8l-0.6,162l-0.2-0.2L153.3,180.8z"/>
		</g>
	</g>
	<g>
		<path class="st3" d="M171.5,181l-8.3,0c-0.1,0-0.1-0.1-0.1-0.1v0l-0.7-162c0-0.5,0.4-0.8,0.8-0.8l0,0l13.1-0.1
			c0.5,0,0.9,0.4,0.9,0.9v0v0l0.1,36.9l0,18.5l-0.1,18.5c-0.1,12.3-0.1,24.6-0.3,36.9c-0.1,12.3-0.3,24.6-0.5,36.9
			c0,0.1,0,0.1-0.1,0.1c-0.1,0-0.1,0-0.1-0.1c-0.2-12.3-0.4-24.6-0.5-36.9c-0.2-12.3-0.2-24.6-0.3-36.9l-0.1-18.5l0-18.5l0.1-36.9
			l0.9,0.9l-13.1-0.1l0.8-0.8l-0.7,162l-0.1-0.1l8.3,0C171.6,180.8,171.6,180.8,171.5,181C171.6,181,171.6,181,171.5,181z"/>
	</g>
	<g>
		<path class="st3" d="M186.1,166.5l-0.7-147.7c0-0.4,0.3-0.8,0.8-0.8h0l0,0l13.1-0.1c0.5,0,0.8,0.4,0.8,0.8v0l0.2,36.9
			c0.1,12.3,0,24.6,0,36.9c-0.1,12.3-0.1,24.6-0.3,36.9l-0.2,18.5l-0.3,18.5c0,0.1,0,0.1-0.1,0.1c-0.1,0-0.1,0-0.1-0.1l-0.3-18.5
			l-0.2-18.5c-0.2-12.3-0.2-24.6-0.3-36.9c-0.1-12.3-0.1-24.6,0-36.9l0.2-36.9l0.8,0.8l-13.1-0.1l0.8-0.8l-0.7,147.7
			C186.3,166.6,186.2,166.6,186.1,166.5C186.1,166.6,186.1,166.6,186.1,166.5z"/>
	</g>
	<g>
		<polyline class="st2" points="130.4,265.7 130.4,216 117.3,216 117.3,265.7 		"/>
		<path class="st3" d="M130.3,265.7l-0.4-24.9l-0.3-24.9l0.7,0.7l-13.1,0.2l0.9-0.9l0.1,12.4c0,4.1,0,8.3-0.1,12.4
			c-0.1,4.1-0.1,8.3-0.3,12.4c-0.1,4.1-0.3,8.3-0.5,12.4c0,0.1-0.1,0.1-0.1,0.1c-0.1,0-0.1,0-0.1-0.1c-0.2-4.1-0.4-8.3-0.5-12.4
			c-0.2-4.1-0.2-8.3-0.3-12.4c-0.1-4.1-0.1-8.3-0.1-12.4l0.1-12.4l0,0c0-0.5,0.4-0.9,0.9-0.9h0l13.1,0.2l0,0c0.4,0,0.7,0.3,0.7,0.7
			l-0.3,24.9l-0.4,24.9C130.5,265.8,130.4,265.8,130.3,265.7C130.3,265.8,130.3,265.8,130.3,265.7z"/>
	</g>
	<g>
		<path class="st3" d="M171.5,216.1l-15.5,0.5l-15.5,0.4l1-1l0.3,12.4c0.1,4.1,0.3,8.3,0.3,12.4c0,4.1-0.1,8.3-0.4,12.4
			c-0.2,4.1-0.5,8.3-1,12.4c0,0.1-0.1,0.1-0.2,0.1c-0.1,0-0.1-0.1-0.1-0.1c-0.5-4.1-0.8-8.3-1-12.4c-0.2-4.1-0.4-8.3-0.4-12.4
			c0-4.1,0.2-8.3,0.3-12.4l0.3-12.4l0,0c0-0.5,0.5-1,1-0.9l0,0l15.5,0.4l15.5,0.5c0.1,0,0.1,0.1,0.1,0.2
			C171.7,216.1,171.6,216.1,171.5,216.1z"/>
	</g>
	<g>
		<rect x="117.6" y="192.1" class="st2" width="12.8" height="12.8"/>
		<path class="st3" d="M130.5,204.9l-12.8,0.4c-0.3,0-0.5-0.2-0.5-0.5l0,0l0,0l-0.3-12.8c0-0.4,0.3-0.8,0.8-0.8l0,0l0,0l12.8-0.2
			l0,0c0.5,0,0.9,0.4,1,0.9l0,0.1C131.1,196.6,130.7,200.9,130.5,204.9z M130.3,204.8c-0.2-4.5-0.6-8.7-0.9-12.7l1,1l-12.8-0.2
			l0.8-0.8l-0.3,12.8l-0.5-0.5L130.3,204.8z"/>
	</g>
	<g>
		<rect x="140.6" y="192.1" class="st2" width="12.8" height="12.8"/>
		<path class="st3" d="M153.4,204.9l-12.8,0.4c-0.3,0-0.5-0.2-0.5-0.5v0l0,0l-0.3-12.8c0-0.4,0.3-0.8,0.8-0.8l0,0l0,0l12.8-0.2l0,0
			c0.5,0,0.9,0.4,1,0.9l0,0.1C154,196.6,153.6,200.9,153.4,204.9z M153.3,204.8c-0.2-4.5-0.6-8.7-0.9-12.7l1,1l-12.8-0.2l0.8-0.8
			l-0.3,12.8l-0.5-0.5L153.3,204.8z"/>
	</g>
	<g>
		<path class="st3" d="M171.5,204.9l-4,0.2l-4,0.2c-0.3,0-0.5-0.2-0.5-0.5l0,0l0,0l-0.3-6.4c-0.1-2.1-0.3-4.3-0.2-6.4l0-0.1
			c0-0.6,0.5-1,1-1c1.3,0,2.7,0.1,4,0.3c1.3,0.2,2.7,0.3,4,0.7c0.1,0,0.1,0.1,0.1,0.1c0,0,0,0.1-0.1,0.1c-1.3,0.3-2.7,0.5-4,0.7
			c-1.3,0.1-2.7,0.2-4,0.3l1-1c0.1,2.1-0.2,4.3-0.2,6.4l-0.3,6.4l-0.5-0.5l4,0.2l4,0.2C171.6,204.7,171.6,204.8,171.5,204.9
			C171.6,204.9,171.6,204.9,171.5,204.9z"/>
	</g>
	<g>
		<g>
			<path class="st3" d="M117.2,10L117,1.2c0-0.1,0.1-0.3,0.3-0.3l0,0l0,0l41-0.5l41-0.4c0.6,0,1.2,0.5,1.2,1.1l0,0.1
				c0.1,2.9,0.2,5.8,0.2,8.7c0,0.8-0.6,1.4-1.4,1.4l-0.1,0c-3.5,0.1-6.9,0.1-10.4,0.1c-3.5,0-6.9,0.1-10.4,0
				c-6.9,0-13.9-0.1-20.8-0.2c-6.9-0.1-13.7-0.3-20.5-0.5C130.4,10.5,123.7,10.3,117.2,10z M117.4,9.8c7.1-0.3,14.1-0.5,20.9-0.7
				c6.9-0.2,13.7-0.4,20.5-0.5c6.8-0.1,13.5-0.2,20.3-0.2c3.4,0,6.7,0,10.1,0c3.4,0,6.7,0,10.1,0.1l-1.4,1.4
				c0.1-2.9,0.1-5.8,0.2-8.7l1.2,1.2l-41-0.4l-41-0.5l0.3-0.3L117.4,9.8z"/>
		</g>
	</g>
	<g>
		<path class="st3" d="M26.3,40.1l49.9-0.5l49.9-0.4l-0.8,1.7c-1-1.1-2.1-2-3.4-2.8c-1.3-0.7-2.6-1.3-4-1.7
			c-2.8-0.7-5.9-0.5-8.6,0.5c-0.5,0.2-1.2,0-1.4-0.6l0,0c-1.3-2.7-3.3-5.2-5.7-7.1c-2.4-1.9-5.2-3.2-8.2-3.9c-3-0.6-6.1-0.6-9,0.1
			c-2.9,0.7-5.7,2.1-8,4c-0.6,0.5-1.5,0.4-2.1-0.2c-0.1-0.1-0.2-0.3-0.2-0.4l0,0c-2-5-5.5-9.4-9.9-12.5c-4.4-3.1-9.7-4.9-15.1-5
			c-5.4-0.2-10.9,1.2-15.5,4.1c-4.6,2.9-8.4,7.1-10.7,12.1l0,0c-0.2,0.4-0.6,0.6-1.1,0.5c-2.2-0.5-4.5-0.6-6.7-0.3
			c-2.3,0.3-4.4,1-6.5,2.1c-2,1.1-3.9,2.5-5.4,4.3c-1.5,1.7-2.8,3.8-3.6,5.9c0,0.1-0.1,0.1-0.2,0.1C0,40.3,0,40.2,0,40.2
			c1.4-4.6,4.5-8.7,8.7-11.2c2.1-1.3,4.4-2.2,6.9-2.6c2.4-0.4,4.9-0.4,7.4,0L21.9,27c1.1-2.7,2.6-5.3,4.5-7.6
			c1.9-2.3,4.1-4.3,6.6-5.9c4.9-3.3,10.9-5.1,16.9-5c6,0.1,11.9,2,16.9,5.4c4.9,3.5,8.7,8.4,10.8,14l-2.3-0.6
			c2.7-2.2,5.9-3.7,9.2-4.5c3.4-0.8,6.9-0.7,10.2,0.1c3.3,0.8,6.5,2.3,9.1,4.5c2.7,2.1,4.8,4.9,6.2,8l-1.4-0.6
			c3.2-1.2,6.7-1.3,9.9-0.5c1.6,0.4,3.2,1.1,4.6,2c1.4,0.9,2.7,2,3.8,3.2l0,0c0.4,0.4,0.3,1.1-0.1,1.4c-0.2,0.2-0.4,0.3-0.7,0.3
			l-49.9-0.4l-49.9-0.5c-0.1,0-0.1-0.1-0.1-0.2C26.1,40.1,26.2,40.1,26.3,40.1z"/>
	</g>
	<g>
		<path class="st3" d="M353.6,265.5c1.4-1.9,2.5-4,3-6.2c0.5-2.2,0.5-4.6,0.1-6.8c-0.4-2.2-1.4-4.3-2.7-6.1c-1.3-1.8-3-3.2-4.9-4.3
			c-0.6-0.3-0.9-1.1-0.5-1.8c0-0.1,0.1-0.1,0.1-0.2l0.1-0.1c0.9-1.2,1.4-2.7,1.4-4.1c0-1.4-0.4-2.9-1.2-4.1
			c-0.8-1.2-2.1-2.2-3.6-2.7c-1.5-0.5-3.2-0.6-5-0.1c-0.1,0-0.2,0-0.2-0.1c0-0.1,0-0.1,0.1-0.2c1.5-1.2,3.5-1.7,5.5-1.5
			c2,0.2,4,1.3,5.4,2.9c1.4,1.6,2.2,3.8,2.1,5.9c-0.1,2.2-1,4.3-2.5,5.8l-0.3-2c2.1,1.4,4,3.2,5.3,5.4c1.3,2.1,2.2,4.5,2.5,7
			c0.3,2.5,0,5-0.7,7.3c-0.8,2.3-2.1,4.4-3.7,6.1c-0.1,0.1-0.2,0.1-0.2,0C353.6,265.7,353.6,265.6,353.6,265.5z"/>
	</g>
	<g>
		<path class="st3" d="M171.4,265.7l-0.6-91.4c0-0.4,0.3-0.8,0.8-0.8h0l0,0l84.4-0.4l42.2-0.3l21.1-0.1l21.1,0l0,0
			c0.8,0,1.5,0.7,1.5,1.5v0l-0.2,22.9c-0.1,7.6-0.1,15.2-0.2,22.9l-0.4,22.9c-0.2,7.6-0.3,15.2-0.6,22.9c0,0.1-0.1,0.1-0.2,0.1
			c-0.1,0-0.1-0.1-0.1-0.1c-0.2-7.6-0.4-15.2-0.6-22.9l-0.4-22.9c-0.1-7.6-0.2-15.2-0.2-22.9l-0.2-22.9l1.5,1.5l-21.1,0l-21.1-0.1
			l-42.2-0.3l-84.4-0.4l0.8-0.8l-0.6,91.4c0,0.1-0.1,0.1-0.2,0.1C171.4,265.9,171.4,265.8,171.4,265.7z"/>
	</g>
	<g>
		<g>
			<rect x="181.2" y="184.1" class="st0" width="13.1" height="32.3"/>
			<path class="st3" d="M194.4,216.5l-13.2,0.3c-0.2,0-0.3-0.1-0.3-0.3l0,0c-0.2-10.8-0.3-21.5-0.5-32.3c0-0.4,0.3-0.8,0.7-0.8
				l0.1,0c1.1-0.1,2.2-0.1,3.3-0.1c1.1,0,2.2-0.1,3.3-0.1l6.6-0.1c0.6,0,1.1,0.5,1.1,1l0,0v0c0,5.5-0.1,11-0.3,16.5
				c-0.1,2.7-0.2,5.4-0.3,8.1C194.7,211.3,194.6,213.9,194.4,216.5z M194.3,216.3c-0.1-2.8-0.3-5.6-0.4-8.3l-0.3-8.1
				c-0.2-5.3-0.3-10.6-0.3-15.8l1.1,1.1l-6.6-0.1c-1.1,0-2.2-0.1-3.3-0.1c-1.1,0-2.2-0.1-3.3-0.1l0.8-0.8
				c-0.2,10.8-0.3,21.5-0.5,32.3l-0.3-0.3L194.3,216.3z"/>
		</g>
	</g>
	<g>
		<g>
			<rect x="204.2" y="184.1" class="st0" width="13.1" height="32.3"/>
			<path class="st3" d="M217.4,216.5l-13.2,0.3c-0.2,0-0.3-0.1-0.3-0.3l0,0c-0.2-10.8-0.3-21.5-0.5-32.3c0-0.4,0.3-0.8,0.7-0.8
				l0.1,0c1.1-0.1,2.2-0.1,3.3-0.1c1.1,0,2.2-0.1,3.3-0.1l6.6-0.1c0.6,0,1.1,0.5,1.1,1v0v0c0,5.5-0.1,11-0.3,16.5
				c-0.1,2.7-0.2,5.4-0.3,8.1C217.7,211.3,217.5,213.9,217.4,216.5z M217.2,216.3c-0.1-2.8-0.3-5.6-0.4-8.3l-0.3-8.1
				c-0.2-5.3-0.3-10.6-0.3-15.8l1.1,1.1l-6.6-0.1c-1.1,0-2.2-0.1-3.3-0.1c-1.1,0-2.2-0.1-3.3-0.1l0.8-0.8
				c-0.2,10.8-0.3,21.5-0.5,32.3l-0.3-0.3L217.2,216.3z"/>
		</g>
	</g>
	<g>
		<g>
			<rect x="181.2" y="224.7" class="st0" width="13.1" height="32.3"/>
			<path class="st3" d="M194.4,257.1l-13.2,0.3c-0.2,0-0.3-0.1-0.3-0.3v0l0,0c-0.2-10.8-0.3-21.5-0.5-32.3c0-0.4,0.3-0.8,0.7-0.8
				l0.1,0c1.1-0.1,2.2-0.1,3.3-0.1c1.1,0,2.2-0.1,3.3-0.1l6.6-0.1c0.6,0,1.1,0.5,1.1,1l0,0v0c0,5.5-0.1,11-0.3,16.5
				c-0.1,2.7-0.2,5.4-0.3,8.1C194.7,251.9,194.6,254.5,194.4,257.1z M194.3,257c-0.1-2.8-0.3-5.6-0.4-8.3l-0.3-8.1
				c-0.2-5.3-0.3-10.6-0.3-15.8l1.1,1.1l-6.6-0.1c-1.1,0-2.2-0.1-3.3-0.1c-1.1,0-2.2-0.1-3.3-0.1l0.8-0.8
				c-0.2,10.8-0.3,21.5-0.5,32.3l-0.3-0.3L194.3,257z"/>
		</g>
	</g>
	<g>
		<g>
			<rect x="204.2" y="224.7" class="st0" width="13.1" height="32.3"/>
			<path class="st3" d="M217.4,257.1l-13.2,0.3c-0.2,0-0.3-0.1-0.3-0.3v0l0,0c-0.2-10.8-0.3-21.5-0.5-32.3c0-0.4,0.3-0.8,0.7-0.8
				l0.1,0c1.1-0.1,2.2-0.1,3.3-0.1c1.1,0,2.2-0.1,3.3-0.1l6.6-0.1c0.6,0,1.1,0.5,1.1,1v0v0c0,5.5-0.1,11-0.3,16.5
				c-0.1,2.7-0.2,5.4-0.3,8.1C217.7,251.9,217.5,254.5,217.4,257.1z M217.2,257c-0.1-2.8-0.3-5.6-0.4-8.3l-0.3-8.1
				c-0.2-5.3-0.3-10.6-0.3-15.8l1.1,1.1l-6.6-0.1c-1.1,0-2.2-0.1-3.3-0.1c-1.1,0-2.2-0.1-3.3-0.1l0.8-0.8
				c-0.2,10.8-0.3,21.5-0.5,32.3l-0.3-0.3L217.2,257z"/>
		</g>
	</g>
	<g>
		<rect x="294.3" y="184.1" class="st0" width="13.1" height="32.3"/>
		<path class="st3" d="M307.4,216.5l-13.2,0.3c-0.2,0-0.3-0.1-0.3-0.3l0,0c-0.2-10.8-0.3-21.5-0.5-32.3c0-0.4,0.3-0.8,0.7-0.8l0.1,0
			c1.1-0.1,2.2-0.1,3.3-0.1c1.1,0,2.2-0.1,3.3-0.1l6.6-0.1c0.6,0,1.1,0.5,1.1,1v0v0c0,5.5-0.1,11-0.3,16.5c-0.1,2.7-0.2,5.4-0.3,8.1
			C307.7,211.3,307.6,213.9,307.4,216.5z M307.3,216.3c-0.1-2.8-0.3-5.6-0.4-8.3l-0.3-8.1c-0.2-5.3-0.3-10.6-0.3-15.8l1.1,1.1
			l-6.6-0.1c-1.1,0-2.2-0.1-3.3-0.1c-1.1,0-2.2-0.1-3.3-0.1l0.8-0.8c-0.2,10.8-0.3,21.5-0.5,32.3l-0.3-0.3L307.3,216.3z"/>
	</g>
	<g>
		<rect x="317.2" y="184.1" class="st0" width="13.1" height="32.3"/>
		<path class="st3" d="M330.4,216.5l-13.2,0.3c-0.2,0-0.3-0.1-0.3-0.3l0,0c-0.2-10.8-0.3-21.5-0.5-32.3c0-0.4,0.3-0.8,0.7-0.8l0.1,0
			c1.1-0.1,2.2-0.1,3.3-0.1c1.1,0,2.2-0.1,3.3-0.1l6.6-0.1c0.6,0,1.1,0.5,1.1,1l0,0v0c0,5.5-0.1,11-0.3,16.5
			c-0.1,2.7-0.2,5.4-0.3,8.1C330.7,211.3,330.5,213.9,330.4,216.5z M330.3,216.3c-0.1-2.8-0.3-5.6-0.4-8.3l-0.3-8.1
			c-0.2-5.3-0.3-10.6-0.3-15.8l1.1,1.1l-6.6-0.1c-1.1,0-2.2-0.1-3.3-0.1c-1.1,0-2.2-0.1-3.3-0.1l0.8-0.8
			c-0.2,10.8-0.3,21.5-0.5,32.3l-0.3-0.3L330.3,216.3z"/>
	</g>
	<g>
		<rect x="294.3" y="224.7" class="st0" width="13.1" height="32.3"/>
		<path class="st3" d="M307.4,257.1l-13.2,0.3c-0.2,0-0.3-0.1-0.3-0.3v0l0,0c-0.2-10.8-0.3-21.5-0.5-32.3c0-0.4,0.3-0.8,0.7-0.8
			l0.1,0c1.1-0.1,2.2-0.1,3.3-0.1c1.1,0,2.2-0.1,3.3-0.1l6.6-0.1c0.6,0,1.1,0.5,1.1,1v0v0c0,5.5-0.1,11-0.3,16.5
			c-0.1,2.7-0.2,5.4-0.3,8.1C307.7,251.9,307.6,254.5,307.4,257.1z M307.3,257c-0.1-2.8-0.3-5.6-0.4-8.3l-0.3-8.1
			c-0.2-5.3-0.3-10.6-0.3-15.8l1.1,1.1l-6.6-0.1c-1.1,0-2.2-0.1-3.3-0.1c-1.1,0-2.2-0.1-3.3-0.1l0.8-0.8
			c-0.2,10.8-0.3,21.5-0.5,32.3l-0.3-0.3L307.3,257z"/>
	</g>
	<g>
		<rect x="317.2" y="224.7" class="st0" width="13.1" height="32.3"/>
		<path class="st3" d="M330.4,257.1l-13.2,0.3c-0.2,0-0.3-0.1-0.3-0.3v0l0,0c-0.2-10.8-0.3-21.5-0.5-32.3c0-0.4,0.3-0.8,0.7-0.8
			l0.1,0c1.1-0.1,2.2-0.1,3.3-0.1c1.1,0,2.2-0.1,3.3-0.1l6.6-0.1c0.6,0,1.1,0.5,1.1,1l0,0v0c0,5.5-0.1,11-0.3,16.5
			c-0.1,2.7-0.2,5.4-0.3,8.1C330.7,251.9,330.5,254.5,330.4,257.1z M330.3,257c-0.1-2.8-0.3-5.6-0.4-8.3l-0.3-8.1
			c-0.2-5.3-0.3-10.6-0.3-15.8l1.1,1.1l-6.6-0.1c-1.1,0-2.2-0.1-3.3-0.1c-1.1,0-2.2-0.1-3.3-0.1l0.8-0.8
			c-0.2,10.8-0.3,21.5-0.5,32.3l-0.3-0.3L330.3,257z"/>
	</g>
	<g>
		<path class="st3" d="M235.7,184l-0.1-8.5l0.2,0.2l-10.1,0.1l0.2-0.2l0.1,8.6l-0.3-0.3l1.5,0c0.2,0,0.3,0.1,0.3,0.3v0L228,257
			c0,0.4-0.3,0.8-0.8,0.8h0l0,0l-1.5,0l0.8-0.8l0.1,8.6l-0.9-0.9l1.5,0c0.5,0,0.9,0.4,0.9,0.9l0,0l0,0.1l-0.9-0.9l7.1-0.1l-0.9,0.9
			l0-0.1c0-0.5,0.4-0.9,0.9-0.9l0,0l1.5,0l-0.9,0.9l-0.1-8.6l1,1l-1.5,0c-0.6,0-1-0.4-1-1v0l0,0l0-9.1l0-9.1
			c0-6.1,0.1-12.2,0.2-18.2c0-6.1,0.1-12.2,0.3-18.2c0.1-6.1,0.3-12.2,0.4-18.2l0,0c0-0.1,0.1-0.1,0.1-0.1l0,0L235.7,184z
			 M235.9,184.2l-1.6,0.1l0.1-0.1c0.2,6.1,0.3,12.2,0.4,18.2c0.1,6.1,0.2,12.2,0.3,18.2c0,6.1,0.2,12.2,0.2,18.2l0,9.1l0,9.1l-1-1
			l1.5,0l0,0c0.5,0,1,0.4,1,1v0l-0.1,8.6v0c0,0.5-0.4,0.9-0.9,0.9h0l-1.5,0l0.9-0.9l0,0.1v0c0,0.5-0.4,0.9-0.9,0.9l-7.1-0.1l0,0
			c-0.5,0-0.9-0.4-0.9-0.9l0-0.1l0.9,0.9l-1.5,0l0,0c-0.5,0-0.9-0.4-0.9-0.9l0.1-8.6v0c0-0.4,0.4-0.8,0.8-0.8l1.5,0l-0.8,0.8
			l0.5-72.9l0.3,0.3l-1.5,0c-0.2,0-0.3-0.1-0.3-0.3l0.1-8.6c0-0.1,0.1-0.2,0.2-0.2l10.1,0.1c0.1,0,0.2,0.1,0.2,0.2v0L235.9,184.2z"
			/>
	</g>
	<g>
		<path class="st3" d="M286,184l-0.1-8.5l0.2,0.2l-10.1,0.1l0.2-0.2l0.1,8.6l-0.3-0.3l1.5,0c0.2,0,0.3,0.1,0.3,0.3v0l0.5,72.9
			c0,0.4-0.3,0.8-0.8,0.8h0l0,0l-1.5,0l0.8-0.8l0.1,8.6l-0.9-0.9l1.5,0c0.5,0,0.9,0.4,0.9,0.9v0l0,0.1l-0.9-0.9l7.1-0.1l-0.9,0.9
			l0-0.1c0-0.5,0.4-0.9,0.9-0.9l0,0l1.5,0l-0.9,0.9l-0.1-8.6l1,1l-1.5,0c-0.6,0-1-0.4-1-1v0l0,0l0-9.1l0-9.1
			c0-6.1,0.1-12.2,0.2-18.2c0-6.1,0.1-12.2,0.3-18.2c0.1-6.1,0.3-12.2,0.4-18.2l0,0c0-0.1,0.1-0.1,0.1-0.1l0,0L286,184z
			 M286.2,184.2l-1.6,0.1l0.1-0.1c0.2,6.1,0.3,12.2,0.4,18.2c0.1,6.1,0.2,12.2,0.3,18.2c0,6.1,0.2,12.2,0.2,18.2l0,9.1l0,9.1l-1-1
			l1.5,0l0,0c0.5,0,1,0.4,1,1v0l-0.1,8.6l0,0c0,0.5-0.4,0.9-0.9,0.9h0l-1.5,0l0.9-0.9l0,0.1v0c0,0.5-0.4,0.9-0.9,0.9l-7.1-0.1l0,0
			c-0.5,0-0.9-0.4-0.9-0.9l0-0.1l0.9,0.9l-1.5,0l0,0c-0.5,0-0.9-0.4-0.8-0.9l0.1-8.6v0c0-0.4,0.4-0.8,0.8-0.8l1.5,0l-0.8,0.8
			l0.5-72.9l0.3,0.3l-1.5,0c-0.2,0-0.3-0.1-0.3-0.3l0.1-8.6c0-0.1,0.1-0.2,0.2-0.2l0,0l10.1,0.1c0.1,0,0.2,0.1,0.2,0.2v0
			L286.2,184.2z"/>
	</g>
	<g>
		<g>
			<rect x="242.6" y="184.1" class="st0" width="26.7" height="26.7"/>
			<path class="st3" d="M269.3,210.8l-26.7,0.4c-0.3,0-0.5-0.2-0.5-0.5v0l0,0l-0.3-26.7c0-0.4,0.3-0.8,0.8-0.8l0,0l0,0l26.7-0.2l0,0
				c0.5,0,1,0.4,1,1l0,0C269.9,193.2,269.5,202.1,269.3,210.8z M269.1,210.7c-0.2-9.1-0.6-17.9-0.9-26.6l1,1l-26.7-0.2l0.8-0.8
				l-0.3,26.7l-0.5-0.5L269.1,210.7z"/>
		</g>
	</g>
	<g>
		<g>
			<path class="st3" d="M269.3,265.9l-26.8,0.6c-0.4,0-0.7-0.3-0.7-0.6l0,0l0,0l-0.4-24.3l0-3c0-0.5,0-1.1,0-1.6
				c0-0.5,0.1-1.1,0.2-1.6c0.4-2.2,1.3-4.2,2.7-6c2.6-3.6,7-5.8,11.5-5.9c4.5-0.1,9,2,11.8,5.7c1.4,1.8,2.3,3.9,2.8,6.1
				c0.1,0.6,0.2,1.1,0.2,1.7c0,0.6,0.1,1.1,0,1.7l-0.1,3.1C270.3,249.9,269.8,258.2,269.3,265.9z M269.1,265.6
				c-0.5-8.6-1-16.5-1.2-24.3l-0.1-2.9c0-0.5-0.1-0.9-0.1-1.4c0-0.4-0.2-0.9-0.2-1.3c-0.4-1.8-1.2-3.4-2.3-4.8
				c-2.2-2.9-5.7-4.6-9.3-4.7c-3.6-0.1-7.3,1.6-9.6,4.5c-1.2,1.4-2,3.1-2.4,5c-0.1,0.5-0.2,0.9-0.2,1.4c0,0.5-0.1,0.9-0.1,1.4l0,3
				l-0.4,24.3l-0.7-0.7L269.1,265.6z"/>
		</g>
	</g>
	<g>
		<g>
			<path class="st3" d="M169.1,166.6l2.7,8.8l-0.2-0.1l46.5-0.5l-0.3,0.1l16.5-9.1l0.4,1.6l-16.2,0.1c-5.4,0-10.8,0-16.2-0.1
				c-5.5-0.1-10.9-0.2-16.4-0.4L169.1,166.6z M168.9,166.5L185,166c5.4-0.2,10.9-0.2,16.4-0.4c5.5-0.1,11.1-0.2,16.6-0.1l16.6,0.1
				l0,0c0.5,0,0.8,0.4,0.8,0.9c0,0.3-0.2,0.6-0.5,0.7l-16.6,8.8l0,0c-0.1,0.1-0.2,0.1-0.3,0.1l-46.5-0.5l0,0c-0.1,0-0.2-0.1-0.2-0.1
				L168.9,166.5z"/>
		</g>
		<g>
			<path class="st3" d="M277.2,166.6c5.6,3,11.2,5.8,16.6,8.6l-0.1,0l46.5-0.4l-0.7,0.6l2.5-9l0.8,1.1c-5.4,0.1-10.8,0.1-16.1,0.1
				c-5.3,0-10.7-0.1-16.1-0.2l-16.4-0.4C288.6,166.8,283,166.6,277.2,166.6z M277.1,166.5c5.2-0.1,10.5-0.2,15.9-0.3l16.4-0.4
				c5.5-0.1,11.1-0.2,16.7-0.2c5.6,0,11.2,0.1,16.7,0.1l0,0c0.5,0,0.8,0.4,0.8,0.9c0,0.1,0,0.2,0,0.2l-2.6,8.9l0,0
				c-0.1,0.3-0.4,0.5-0.7,0.5l-46.5-0.4l0,0c-0.1,0-0.1,0-0.1,0L277.1,166.5z"/>
		</g>
	</g>
	<g>
		<g>
			<path class="st3" d="M255.9,155.2l-37.5,20.9l-0.4-1.5l37.8-0.4l18.9-0.3l9.5-0.1l9.5,0l-0.7,2.8c-3.1-1.7-6.1-3.4-9.2-5.2
				c-3.1-1.8-6.1-3.5-9.2-5.3l-9.3-5.4C262.2,159,259,157.2,255.9,155.2z M255.9,154.9c3.2,1.5,6.3,3,9.5,4.5l9.6,4.7
				c3.2,1.6,6.5,3.2,9.7,4.9c3.2,1.7,6.5,3.3,9.7,5c0.7,0.4,1,1.3,0.6,2.1c-0.3,0.5-0.8,0.8-1.3,0.8l0,0l-9.5,0l-9.5-0.1l-18.9-0.3
				l-37.8-0.4l0,0c-0.4,0-0.8-0.4-0.8-0.8c0-0.3,0.2-0.6,0.4-0.7L255.9,154.9z"/>
		</g>
	</g>
	<g>
		<path class="st3" d="M6,266l90.7-0.6l90.7-0.5c30.2-0.2,60.4-0.5,90.7-0.3c30.2,0.3,60.4,0.5,90.7,1.3c0.1,0,0.1,0.1,0.1,0.2
			c0,0.1-0.1,0.1-0.1,0.1c-30.2,0.9-60.4,1.1-90.7,1.3c-30.2,0.2-60.4-0.1-90.7-0.3l-90.7-0.5L6,266.3c-0.1,0-0.1-0.1-0.1-0.2
			C5.9,266.1,5.9,266,6,266z"/>
	</g>
	<rect x="225.7" y="175.5" class="st5" width="10.1" height="8.6"/>
	<rect x="276" y="175.5" class="st5" width="10.1" height="8.6"/>
	<g>
		<path class="st3" d="M235.7,175.5c-3.5,0.1-6.8,0.3-10,0.5l0.5-0.5l0.3,8.6l-0.8-0.8c0.8-0.1,1.7-0.1,2.5-0.2
			c0.8,0,1.7-0.1,2.5-0.1c1.7,0,3.4,0,5.1,0.1l-1,1c0.1-1.3,0.2-2.6,0.3-4.1L235.7,175.5z M235.9,175.4l0.3,2
			c0.1,0.7,0.2,1.4,0.3,2.1c0.2,1.5,0.3,3,0.3,4.6c0,0.5-0.4,0.9-0.9,1l-0.1,0c-1.7,0.1-3.4,0.1-5.1,0.1c-0.8,0-1.7,0-2.5-0.1
			c-0.8-0.1-1.7-0.1-2.5-0.2l-0.1,0c-0.4,0-0.7-0.4-0.7-0.8l0.3-8.6l0,0c0-0.3,0.2-0.5,0.5-0.5l0,0
			C229.2,175.1,232.6,175.3,235.9,175.4z"/>
	</g>
	<g>
		<path class="st3" d="M286,175.5c-3.5,0.1-6.8,0.3-10,0.5l0.5-0.5l0.3,8.6l-0.8-0.8c0.8-0.1,1.7-0.1,2.5-0.2c0.8,0,1.7-0.1,2.5-0.1
			c1.7,0,3.4,0,5.1,0.1l-1,1c0.1-1.3,0.2-2.6,0.3-4.1L286,175.5z M286.2,175.4l0.3,2c0.1,0.7,0.2,1.4,0.3,2.1c0.2,1.5,0.3,3,0.3,4.6
			c0,0.5-0.4,0.9-0.9,1l-0.1,0c-1.7,0.1-3.4,0.1-5.1,0.1c-0.8,0-1.7,0-2.5-0.1c-0.8-0.1-1.7-0.1-2.5-0.2l-0.1,0
			c-0.4,0-0.7-0.4-0.7-0.8l0.3-8.6l0,0c0-0.3,0.2-0.5,0.5-0.5l0,0C279.5,175.1,282.9,175.3,286.2,175.4z"/>
	</g>
	<g>
		<path class="st3" d="M235.7,257.1c-3.5,0.1-6.8,0.3-10,0.5l0.5-0.5l0.3,8.6l-0.8-0.8c0.8-0.1,1.7-0.1,2.5-0.2
			c0.8,0,1.7-0.1,2.5-0.1c1.7,0,3.4,0,5.1,0.1l-1,1c0.1-1.3,0.2-2.6,0.3-4.1L235.7,257.1z M235.9,257l0.3,2c0.1,0.7,0.2,1.4,0.3,2.1
			c0.2,1.5,0.3,3,0.3,4.6c0,0.5-0.4,0.9-0.9,1l-0.1,0c-1.7,0.1-3.4,0.1-5.1,0.1c-0.8,0-1.7,0-2.5-0.1c-0.8-0.1-1.7-0.1-2.5-0.2
			l-0.1,0c-0.4,0-0.7-0.4-0.7-0.8l0.3-8.6l0,0c0-0.3,0.2-0.5,0.5-0.5l0,0C229.2,256.6,232.6,256.8,235.9,257z"/>
	</g>
	<g>
		<path class="st3" d="M286,257.1c-3.5,0.1-6.8,0.3-10,0.5l0.5-0.5l0.3,8.6l-0.8-0.8c0.8-0.1,1.7-0.1,2.5-0.2c0.8,0,1.7-0.1,2.5-0.1
			c1.7,0,3.4,0,5.1,0.1l-1,1c0.1-1.3,0.2-2.6,0.3-4.1L286,257.1z M286.2,257l0.3,2c0.1,0.7,0.2,1.4,0.3,2.1c0.2,1.5,0.3,3,0.3,4.6
			c0,0.5-0.4,0.9-0.9,1l-0.1,0c-1.7,0.1-3.4,0.1-5.1,0.1c-0.8,0-1.7,0-2.5-0.1c-0.8-0.1-1.7-0.1-2.5-0.2l-0.1,0
			c-0.4,0-0.7-0.4-0.7-0.8l0.3-8.6l0,0c0-0.3,0.2-0.5,0.5-0.5l0,0C279.5,256.6,282.9,256.8,286.2,257z"/>
	</g>
</g>
</svg>
